<?xml version="1.0" encoding="UTF-8" standalone="no"?><svg xmlns="http://www.w3.org/2000/svg" xmlns:xlink="http://www.w3.org/1999/xlink" clip-rule="evenodd" stroke-miterlimit="4.00" viewBox="0 0 1024 768"><desc>SVG generated by Keynote</desc><defs></defs><g transform="matrix(1.00, 0.00, -0.00, -1.00, 0.0, 768.0)"><path d="M 0.0 768.0 L 1024.0 768.0 L 1024.0 0.0 L 0.0 0.0 Z M 0.0 768.0 " fill="#F9F4DE"></path><text xml:space="preserve" font-family="Futura-Medium" font-size="55.0" fill="#000000" transform="matrix(1.00, 0.00, -0.00, -1.00, 105.0, 455.0)">T</text><text xml:space="preserve" font-family="Futura-Medium" font-size="55.0" fill="#000000" transform="matrix(1.00, 0.00, -0.00, -1.00, 129.1, 455.0)">o</text><text xml:space="preserve" font-family="Futura-Medium" font-size="55.0" fill="#000000" transform="matrix(1.00, 0.00, -0.00, -1.00, 162.2, 455.0)"> </text><text xml:space="preserve" font-family="Futura-Medium" font-size="55.0" fill="#000000" transform="matrix(1.00, 0.00, -0.00, -1.00, 179.1, 455.0)">c</text><text xml:space="preserve" font-family="Futura-Medium" font-size="55.0" fill="#000000" transform="matrix(1.00, 0.00, -0.00, -1.00, 205.3, 455.0)">r</text><text xml:space="preserve" font-family="Futura-Medium" font-size="55.0" fill="#000000" transform="matrix(1.00, 0.00, -0.00, -1.00, 225.5, 455.0)">e</text><text xml:space="preserve" font-family="Futura-Medium" font-size="55.0" fill="#000000" transform="matrix(1.00, 0.00, -0.00, -1.00, 256.0, 455.0)">a</text><text xml:space="preserve" font-family="Futura-Medium" font-size="55.0" fill="#000000" transform="matrix(1.00, 0.00, -0.00, -1.00, 288.9, 455.0)">t</text><text xml:space="preserve" font-family="Futura-Medium" font-size="55.0" fill="#000000" transform="matrix(1.00, 0.00, -0.00, -1.00, 304.5, 455.0)">e</text><text xml:space="preserve" font-family="Futura-Medium" font-size="55.0" fill="#000000" transform="matrix(1.00, 0.00, -0.00, -1.00, 334.9, 455.0)"> </text><text xml:space="preserve" font-family="Futura-Medium" font-size="55.0" fill="#000000" transform="matrix(1.00, 0.00, -0.00, -1.00, 351.9, 455.0)">w</text><text xml:space="preserve" font-family="Futura-Medium" font-size="55.0" fill="#000000" transform="matrix(1.00, 0.00, -0.00, -1.00, 393.6, 455.0)">e</text><text xml:space="preserve" font-family="Futura-Medium" font-size="55.0" fill="#000000" transform="matrix(1.00, 0.00, -0.00, -1.00, 424.1, 455.0)">b</text><text xml:space="preserve" font-family="Futura-Medium" font-size="55.0" fill="#000000" transform="matrix(1.00, 0.00, -0.00, -1.00, 457.0, 455.0)"> </text><text xml:space="preserve" font-family="Futura-Medium" font-size="55.0" fill="#000000" transform="matrix(1.00, 0.00, -0.00, -1.00, 473.9, 455.0)">a</text><text xml:space="preserve" font-family="Futura-Medium" font-size="55.0" fill="#000000" transform="matrix(1.00, 0.00, -0.00, -1.00, 506.9, 455.0)">p</text><text xml:space="preserve" font-family="Futura-Medium" font-size="55.0" fill="#000000" transform="matrix(1.00, 0.00, -0.00, -1.00, 539.8, 455.0)">p</text><text xml:space="preserve" font-family="Futura-Medium" font-size="55.0" fill="#000000" transform="matrix(1.00, 0.00, -0.00, -1.00, 572.8, 455.0)">s</text><text xml:space="preserve" font-family="Futura-Medium" font-size="55.0" fill="#000000" transform="matrix(1.00, 0.00, -0.00, -1.00, 595.1, 455.0)"> </text><text xml:space="preserve" font-family="Futura-Medium" font-size="55.0" fill="#000000" transform="matrix(1.00, 0.00, -0.00, -1.00, 612.0, 455.0)">a</text><text xml:space="preserve" font-family="Futura-Medium" font-size="55.0" fill="#000000" transform="matrix(1.00, 0.00, -0.00, -1.00, 645.0, 455.0)">n</text><text xml:space="preserve" font-family="Futura-Medium" font-size="55.0" fill="#000000" transform="matrix(1.00, 0.00, -0.00, -1.00, 675.2, 455.0)">d</text><text xml:space="preserve" font-family="Futura-Medium" font-size="55.0" fill="#000000" transform="matrix(1.00, 0.00, -0.00, -1.00, 708.1, 455.0)"> </text><text xml:space="preserve" font-family="Futura-MediumItalic" font-style="italic" font-size="55.0" fill="#000000" transform="matrix(1.00, 0.00, -0.00, -1.00, 725.3, 455.0)">g</text><text xml:space="preserve" font-family="Futura-MediumItalic" font-style="italic" font-size="55.0" fill="#000000" transform="matrix(1.00, 0.00, -0.00, -1.00, 759.1, 455.0)">e</text><text xml:space="preserve" font-family="Futura-MediumItalic" font-style="italic" font-size="55.0" fill="#000000" transform="matrix(1.00, 0.00, -0.00, -1.00, 790.0, 455.0)">n</text><text xml:space="preserve" font-family="Futura-MediumItalic" font-style="italic" font-size="55.0" fill="#000000" transform="matrix(1.00, 0.00, -0.00, -1.00, 820.2, 455.0)">e</text><text xml:space="preserve" font-family="Futura-MediumItalic" font-style="italic" font-size="55.0" fill="#000000" transform="matrix(1.00, 0.00, -0.00, -1.00, 851.1, 455.0)">r</text><text xml:space="preserve" font-family="Futura-MediumItalic" font-style="italic" font-size="55.0" fill="#000000" transform="matrix(1.00, 0.00, -0.00, -1.00, 871.8, 455.0)">a</text><text xml:space="preserve" font-family="Futura-MediumItalic" font-style="italic" font-size="55.0" fill="#000000" transform="matrix(1.00, 0.00, -0.00, -1.00, 904.9, 455.0)">l</text><text xml:space="preserve" font-family="Futura-Medium" font-size="55.0" fill="#000000" transform="matrix(1.00, 0.00, -0.00, -1.00, 919.1, 455.0)"> </text><g><clipPath id="clip-3"><path d="M 724.2 446.4 L 919.0 446.4 L 919.0 452.7 L 724.2 452.7 Z M 724.2 446.4 "></path></clipPath><g clip-path="url(#clip-3)"><path d="M 625.2 192.4 L 819.0 192.4 " fill="none" stroke="#000000" stroke-width="4.30" stroke-miterlimit="0.00" transform="matrix(1.00, 0.00, 0.00, -1.00, 100.0, 642.0)"></path></g></g><text xml:space="preserve" font-family="Futura-Medium" font-size="55.0" fill="#000000" transform="matrix(1.00, 0.00, -0.00, -1.00, 146.0, 382.0)">s</text><text xml:space="preserve" font-family="Futura-Medium" font-size="55.0" fill="#000000" transform="matrix(1.00, 0.00, -0.00, -1.00, 168.3, 382.0)">o</text><text xml:space="preserve" font-family="Futura-Medium" font-size="55.0" fill="#000000" transform="matrix(1.00, 0.00, -0.00, -1.00, 201.4, 382.0)">f</text><text xml:space="preserve" font-family="Futura-Medium" font-size="55.0" fill="#000000" transform="matrix(1.00, 0.00, -0.00, -1.00, 219.7, 382.0)">t</text><text xml:space="preserve" font-family="Futura-Medium" font-size="55.0" fill="#000000" transform="matrix(1.00, 0.00, -0.00, -1.00, 234.7, 382.0)">w</text><text xml:space="preserve" font-family="Futura-Medium" font-size="55.0" fill="#000000" transform="matrix(1.00, 0.00, -0.00, -1.00, 276.4, 382.0)">a</text><text xml:space="preserve" font-family="Futura-Medium" font-size="55.0" fill="#000000" transform="matrix(1.00, 0.00, -0.00, -1.00, 309.4, 382.0)">r</text><text xml:space="preserve" font-family="Futura-Medium" font-size="55.0" fill="#000000" transform="matrix(1.00, 0.00, -0.00, -1.00, 329.6, 382.0)">e</text><text xml:space="preserve" font-family="Futura-Medium" font-size="55.0" fill="#000000" transform="matrix(1.00, 0.00, -0.00, -1.00, 360.0, 382.0)"> </text><text xml:space="preserve" font-family="Futura-MediumItalic" font-style="italic" font-size="55.0" fill="#000000" transform="matrix(1.00, 0.00, -0.00, -1.00, 377.0, 382.0)">s</text><text xml:space="preserve" font-family="Futura-MediumItalic" font-style="italic" font-size="55.0" fill="#000000" transform="matrix(1.00, 0.00, -0.00, -1.00, 399.2, 382.0)">y</text><text xml:space="preserve" font-family="Futura-MediumItalic" font-style="italic" font-size="55.0" fill="#000000" transform="matrix(1.00, 0.00, -0.00, -1.00, 428.2, 382.0)">s</text><text xml:space="preserve" font-family="Futura-MediumItalic" font-style="italic" font-size="55.0" fill="#000000" transform="matrix(1.00, 0.00, -0.00, -1.00, 451.2, 382.0)">t</text><text xml:space="preserve" font-family="Futura-MediumItalic" font-style="italic" font-size="55.0" fill="#000000" transform="matrix(1.00, 0.00, -0.00, -1.00, 468.3, 382.0)">e</text><text xml:space="preserve" font-family="Futura-MediumItalic" font-style="italic" font-size="55.0" fill="#000000" transform="matrix(1.00, 0.00, -0.00, -1.00, 499.2, 382.0)">m</text><text xml:space="preserve" font-family="Futura-MediumItalic" font-style="italic" font-size="55.0" fill="#000000" transform="matrix(1.00, 0.00, -0.00, -1.00, 542.9, 382.0)">s</text><text xml:space="preserve" font-family="Futura-Medium" font-size="55.0" fill="#000000" transform="matrix(1.00, 0.00, -0.00, -1.00, 565.1, 382.0)"> </text><text xml:space="preserve" font-family="Futura-Medium" font-size="55.0" fill="#000000" transform="matrix(1.00, 0.00, -0.00, -1.00, 582.0, 382.0)">w</text><text xml:space="preserve" font-family="Futura-Medium" font-size="55.0" fill="#000000" transform="matrix(1.00, 0.00, -0.00, -1.00, 624.6, 382.0)">i</text><text xml:space="preserve" font-family="Futura-Medium" font-size="55.0" fill="#000000" transform="matrix(1.00, 0.00, -0.00, -1.00, 638.3, 382.0)">t</text><text xml:space="preserve" font-family="Futura-Medium" font-size="55.0" fill="#000000" transform="matrix(1.00, 0.00, -0.00, -1.00, 654.4, 382.0)">h</text><text xml:space="preserve" font-family="Futura-Medium" font-size="55.0" fill="#000000" transform="matrix(1.00, 0.00, -0.00, -1.00, 684.6, 382.0)"> </text><text xml:space="preserve" font-family="Futura-Medium" font-size="55.0" fill="#000000" transform="matrix(1.00, 0.00, -0.00, -1.00, 701.6, 382.0)">a</text><text xml:space="preserve" font-family="Futura-Medium" font-size="55.0" fill="#000000" transform="matrix(1.00, 0.00, -0.00, -1.00, 734.5, 382.0)"> </text><text xml:space="preserve" font-family="Futura-Medium" font-size="55.0" fill="#000000" transform="matrix(1.00, 0.00, -0.00, -1.00, 751.5, 382.0)">s</text><text xml:space="preserve" font-family="Futura-Medium" font-size="55.0" fill="#000000" transform="matrix(1.00, 0.00, -0.00, -1.00, 773.8, 382.0)">m</text><text xml:space="preserve" font-family="Futura-Medium" font-size="55.0" fill="#000000" transform="matrix(1.00, 0.00, -0.00, -1.00, 817.3, 382.0)">a</text><text xml:space="preserve" font-family="Futura-Medium" font-size="55.0" fill="#000000" transform="matrix(1.00, 0.00, -0.00, -1.00, 850.2, 382.0)">l</text><text xml:space="preserve" font-family="Futura-Medium" font-size="55.0" fill="#000000" transform="matrix(1.00, 0.00, -0.00, -1.00, 863.9, 382.0)">l</text><text xml:space="preserve" font-family="Futura-Medium" font-size="55.0" fill="#000000" transform="matrix(1.00, 0.00, -0.00, -1.00, 877.6, 382.0)"> </text><g><clipPath id="clip-4"><path d="M 376.1 373.2 L 565.2 373.2 L 565.2 379.5 L 376.1 379.5 Z M 376.1 373.2 "></path></clipPath><g clip-path="url(#clip-4)"><path d="M 277.1 265.6 L 465.2 265.6 " fill="none" stroke="#000000" stroke-width="4.30" stroke-miterlimit="0.00" transform="matrix(1.00, 0.00, 0.00, -1.00, 100.0, 642.0)"></path></g></g><text xml:space="preserve" font-family="Futura-Medium" font-size="55.0" fill="#000000" transform="matrix(1.00, 0.00, -0.00, -1.00, 312.0, 309.0)">t</text><text xml:space="preserve" font-family="Futura-Medium" font-size="55.0" fill="#000000" transform="matrix(1.00, 0.00, -0.00, -1.00, 327.5, 309.0)">e</text><text xml:space="preserve" font-family="Futura-Medium" font-size="55.0" fill="#000000" transform="matrix(1.00, 0.00, -0.00, -1.00, 358.0, 309.0)">a</text><text xml:space="preserve" font-family="Futura-Medium" font-size="55.0" fill="#000000" transform="matrix(1.00, 0.00, -0.00, -1.00, 390.9, 309.0)">m</text><text xml:space="preserve" font-family="Futura-Medium" font-size="55.0" fill="#000000" transform="matrix(1.00, 0.00, -0.00, -1.00, 434.4, 309.0)"> </text><text xml:space="preserve" font-family="Futura-Medium" font-size="55.0" fill="#000000" transform="matrix(1.00, 0.00, -0.00, -1.00, 451.4, 309.0)">o</text><text xml:space="preserve" font-family="Futura-Medium" font-size="55.0" fill="#000000" transform="matrix(1.00, 0.00, -0.00, -1.00, 484.5, 309.0)">f</text><text xml:space="preserve" font-family="Futura-Medium" font-size="55.0" fill="#000000" transform="matrix(1.00, 0.00, -0.00, -1.00, 500.8, 309.0)"> </text><text xml:space="preserve" font-family="Futura-MediumItalic" font-style="italic" font-size="55.0" fill="#000000" transform="matrix(1.00, 0.00, -0.00, -1.00, 517.8, 309.0)">p</text><text xml:space="preserve" font-family="Futura-MediumItalic" font-style="italic" font-size="55.0" fill="#000000" transform="matrix(1.00, 0.00, -0.00, -1.00, 551.5, 309.0)">e</text><text xml:space="preserve" font-family="Futura-MediumItalic" font-style="italic" font-size="55.0" fill="#000000" transform="matrix(1.00, 0.00, -0.00, -1.00, 582.3, 309.0)">o</text><text xml:space="preserve" font-family="Futura-MediumItalic" font-style="italic" font-size="55.0" fill="#000000" transform="matrix(1.00, 0.00, -0.00, -1.00, 615.4, 309.0)">p</text><text xml:space="preserve" font-family="Futura-MediumItalic" font-style="italic" font-size="55.0" fill="#000000" transform="matrix(1.00, 0.00, -0.00, -1.00, 649.1, 309.0)">l</text><text xml:space="preserve" font-family="Futura-MediumItalic" font-style="italic" font-size="55.0" fill="#000000" transform="matrix(1.00, 0.00, -0.00, -1.00, 663.3, 309.0)">e</text><text xml:space="preserve" font-family="Futura-Medium" font-size="55.0" fill="#000000" transform="matrix(1.00, 0.00, -0.00, -1.00, 694.2, 309.0)">.</text><text xml:space="preserve" font-family="Futura-Medium" font-size="55.0" fill="#000000" transform="matrix(1.00, 0.00, -0.00, -1.00, 711.1, 309.0)"> </text><g><clipPath id="clip-5"><path d="M 517.2 300.0 L 694.6 300.0 L 694.6 306.3 L 517.2 306.3 Z M 517.2 300.0 "></path></clipPath><g clip-path="url(#clip-5)"><path d="M 418.2 338.8 L 594.6 338.8 " fill="none" stroke="#000000" stroke-width="4.30" stroke-miterlimit="0.00" transform="matrix(1.00, 0.00, 0.00, -1.00, 100.0, 642.0)"></path></g></g></g></svg>