<?xml version="1.0" encoding="UTF-8" standalone="no"?><svg xmlns="http://www.w3.org/2000/svg" xmlns:xlink="http://www.w3.org/1999/xlink" clip-rule="evenodd" stroke-miterlimit="4.00" viewBox="0 0 1024 768"><desc>SVG generated by Keynote</desc><defs></defs><g transform="matrix(1.00, 0.00, -0.00, -1.00, 0.0, 768.0)"><path d="M 0.0 768.0 L 1024.0 768.0 L 1024.0 0.0 L 0.0 0.0 Z M 0.0 768.0 " fill="#F9F4DE"></path><text xml:space="preserve" font-family="Futura-Medium" font-size="52.8" fill="#000000" transform="matrix(1.00, 0.00, -0.00, -1.00, 280.0, 594.0)">L</text><text xml:space="preserve" font-family="Futura-Medium" font-size="52.8" fill="#000000" transform="matrix(1.00, 0.00, -0.00, -1.00, 303.4, 594.0)">e</text><text xml:space="preserve" font-family="Futura-Medium" font-size="52.8" fill="#000000" transform="matrix(1.00, 0.00, -0.00, -1.00, 333.1, 594.0)">t</text><text xml:space="preserve" font-family="Futura-Medium" font-size="52.8" fill="#000000" transform="matrix(1.00, 0.00, -0.00, -1.00, 349.5, 594.0)">’</text><text xml:space="preserve" font-family="Futura-Medium" font-size="52.8" fill="#000000" transform="matrix(1.00, 0.00, -0.00, -1.00, 366.7, 594.0)">s</text><text xml:space="preserve" font-family="Futura-Medium" font-size="52.8" fill="#000000" transform="matrix(1.00, 0.00, -0.00, -1.00, 388.1, 594.0)"> </text><text xml:space="preserve" font-family="Futura-Medium" font-size="52.8" fill="#000000" transform="matrix(1.00, 0.00, -0.00, -1.00, 404.4, 594.0)">l</text><text xml:space="preserve" font-family="Futura-Medium" font-size="52.8" fill="#000000" transform="matrix(1.00, 0.00, -0.00, -1.00, 417.6, 594.0)">e</text><text xml:space="preserve" font-family="Futura-Medium" font-size="52.8" fill="#000000" transform="matrix(1.00, 0.00, -0.00, -1.00, 446.8, 594.0)">a</text><text xml:space="preserve" font-family="Futura-Medium" font-size="52.8" fill="#000000" transform="matrix(1.00, 0.00, -0.00, -1.00, 478.4, 594.0)">r</text><text xml:space="preserve" font-family="Futura-Medium" font-size="52.8" fill="#000000" transform="matrix(1.00, 0.00, -0.00, -1.00, 499.0, 594.0)">n</text><text xml:space="preserve" font-family="Futura-Medium" font-size="52.8" fill="#000000" transform="matrix(1.00, 0.00, -0.00, -1.00, 527.9, 594.0)"> </text><text xml:space="preserve" font-family="Futura-Medium" font-size="52.8" fill="#000000" transform="matrix(1.00, 0.00, -0.00, -1.00, 544.2, 594.0)">t</text><text xml:space="preserve" font-family="Futura-Medium" font-size="52.8" fill="#000000" transform="matrix(1.00, 0.00, -0.00, -1.00, 559.0, 594.0)">o</text><text xml:space="preserve" font-family="Futura-Medium" font-size="52.8" fill="#000000" transform="matrix(1.00, 0.00, -0.00, -1.00, 590.8, 594.0)">g</text><text xml:space="preserve" font-family="Futura-Medium" font-size="52.8" fill="#000000" transform="matrix(1.00, 0.00, -0.00, -1.00, 622.4, 594.0)">e</text><text xml:space="preserve" font-family="Futura-Medium" font-size="52.8" fill="#000000" transform="matrix(1.00, 0.00, -0.00, -1.00, 652.0, 594.0)">t</text><text xml:space="preserve" font-family="Futura-Medium" font-size="52.8" fill="#000000" transform="matrix(1.00, 0.00, -0.00, -1.00, 667.6, 594.0)">h</text><text xml:space="preserve" font-family="Futura-Medium" font-size="52.8" fill="#000000" transform="matrix(1.00, 0.00, -0.00, -1.00, 696.5, 594.0)">e</text><text xml:space="preserve" font-family="Futura-Medium" font-size="52.8" fill="#000000" transform="matrix(1.00, 0.00, -0.00, -1.00, 725.7, 594.0)">r</text><text xml:space="preserve" font-family="Futura-Medium" font-size="52.8" fill="#000000" transform="matrix(1.00, 0.00, -0.00, -1.00, 742.7, 594.0)">.</text><text xml:space="preserve" font-family="Futura-Medium" font-size="52.8" fill="#000000" transform="matrix(1.00, 0.00, -0.00, -1.00, 759.0, 594.0)"> </text><text xml:space="preserve" font-family="Futura-Medium" font-size="52.8" fill="#000000" transform="matrix(1.00, 0.00, -0.00, -1.00, 342.0, 523.0)">C</text><text xml:space="preserve" font-family="Futura-Medium" font-size="52.8" fill="#000000" transform="matrix(1.00, 0.00, -0.00, -1.00, 379.0, 523.0)">l</text><text xml:space="preserve" font-family="Futura-Medium" font-size="52.8" fill="#000000" transform="matrix(1.00, 0.00, -0.00, -1.00, 392.1, 523.0)">o</text><text xml:space="preserve" font-family="Futura-Medium" font-size="52.8" fill="#000000" transform="matrix(1.00, 0.00, -0.00, -1.00, 423.9, 523.0)">j</text><text xml:space="preserve" font-family="Futura-Medium" font-size="52.8" fill="#000000" transform="matrix(1.00, 0.00, -0.00, -1.00, 437.0, 523.0)">u</text><text xml:space="preserve" font-family="Futura-Medium" font-size="52.8" fill="#000000" transform="matrix(1.00, 0.00, -0.00, -1.00, 465.8, 523.0)">r</text><text xml:space="preserve" font-family="Futura-Medium" font-size="52.8" fill="#000000" transform="matrix(1.00, 0.00, -0.00, -1.00, 485.2, 523.0)">e</text><text xml:space="preserve" font-family="Futura-Medium" font-size="52.8" fill="#000000" transform="matrix(1.00, 0.00, -0.00, -1.00, 514.4, 523.0)"> </text><text xml:space="preserve" font-family="Futura-Medium" font-size="52.8" fill="#000000" transform="matrix(1.00, 0.00, -0.00, -1.00, 530.7, 523.0)">C</text><text xml:space="preserve" font-family="Futura-Medium" font-size="52.8" fill="#000000" transform="matrix(1.00, 0.00, -0.00, -1.00, 567.6, 523.0)">o</text><text xml:space="preserve" font-family="Futura-Medium" font-size="52.8" fill="#000000" transform="matrix(1.00, 0.00, -0.00, -1.00, 599.4, 523.0)">-</text><text xml:space="preserve" font-family="Futura-Medium" font-size="52.8" fill="#000000" transform="matrix(1.00, 0.00, -0.00, -1.00, 610.9, 523.0)">L</text><text xml:space="preserve" font-family="Futura-Medium" font-size="52.8" fill="#000000" transform="matrix(1.00, 0.00, -0.00, -1.00, 634.3, 523.0)">a</text><text xml:space="preserve" font-family="Futura-Medium" font-size="52.8" fill="#000000" transform="matrix(1.00, 0.00, -0.00, -1.00, 665.9, 523.0)">b</text><text xml:space="preserve" font-family="Futura-Medium" font-size="52.8" fill="#000000" transform="matrix(1.00, 0.00, -0.00, -1.00, 697.6, 523.0)"> </text><text xml:space="preserve" font-family="Futura-Medium" font-size="52.8" fill="#000000" transform="matrix(1.00, 0.00, -0.00, -1.00, 26.0, 168.0)">h</text><text xml:space="preserve" font-family="Futura-Medium" font-size="52.8" fill="#000000" transform="matrix(1.00, 0.00, -0.00, -1.00, 55.0, 168.0)">t</text><text xml:space="preserve" font-family="Futura-Medium" font-size="52.8" fill="#000000" transform="matrix(1.00, 0.00, -0.00, -1.00, 69.4, 168.0)">t</text><text xml:space="preserve" font-family="Futura-Medium" font-size="52.8" fill="#000000" transform="matrix(1.00, 0.00, -0.00, -1.00, 83.9, 168.0)">p</text><text xml:space="preserve" font-family="Futura-Medium" font-size="52.8" fill="#000000" transform="matrix(1.00, 0.00, -0.00, -1.00, 115.5, 168.0)">s</text><text xml:space="preserve" font-family="Futura-Medium" font-size="52.8" fill="#000000" transform="matrix(1.00, 0.00, -0.00, -1.00, 136.9, 168.0)">:</text><text xml:space="preserve" font-family="Futura-Medium" font-size="52.8" fill="#000000" transform="matrix(1.00, 0.00, -0.00, -1.00, 153.2, 168.0)">/</text><text xml:space="preserve" font-family="Futura-Medium" font-size="52.8" fill="#000000" transform="matrix(1.00, 0.00, -0.00, -1.00, 180.6, 168.0)">/</text><text xml:space="preserve" font-family="Futura-Medium" font-size="52.8" fill="#000000" transform="matrix(1.00, 0.00, -0.00, -1.00, 207.9, 168.0)">w</text><text xml:space="preserve" font-family="Futura-Medium" font-size="52.8" fill="#000000" transform="matrix(1.00, 0.00, -0.00, -1.00, 248.8, 168.0)">w</text><text xml:space="preserve" font-family="Futura-Medium" font-size="52.8" fill="#000000" transform="matrix(1.00, 0.00, -0.00, -1.00, 289.6, 168.0)">w</text><text xml:space="preserve" font-family="Futura-Medium" font-size="52.8" fill="#000000" transform="matrix(1.00, 0.00, -0.00, -1.00, 327.7, 168.0)">.</text><text xml:space="preserve" font-family="Futura-Medium" font-size="52.8" fill="#000000" transform="matrix(1.00, 0.00, -0.00, -1.00, 344.0, 168.0)">m</text><text xml:space="preserve" font-family="Futura-Medium" font-size="52.8" fill="#000000" transform="matrix(1.00, 0.00, -0.00, -1.00, 385.7, 168.0)">e</text><text xml:space="preserve" font-family="Futura-Medium" font-size="52.8" fill="#000000" transform="matrix(1.00, 0.00, -0.00, -1.00, 415.0, 168.0)">e</text><text xml:space="preserve" font-family="Futura-Medium" font-size="52.8" fill="#000000" transform="matrix(1.00, 0.00, -0.00, -1.00, 444.6, 168.0)">t</text><text xml:space="preserve" font-family="Futura-Medium" font-size="52.8" fill="#000000" transform="matrix(1.00, 0.00, -0.00, -1.00, 459.1, 168.0)">u</text><text xml:space="preserve" font-family="Futura-Medium" font-size="52.8" fill="#000000" transform="matrix(1.00, 0.00, -0.00, -1.00, 487.9, 168.0)">p</text><text xml:space="preserve" font-family="Futura-Medium" font-size="52.8" fill="#000000" transform="matrix(1.00, 0.00, -0.00, -1.00, 519.5, 168.0)">.</text><text xml:space="preserve" font-family="Futura-Medium" font-size="52.8" fill="#000000" transform="matrix(1.00, 0.00, -0.00, -1.00, 535.8, 168.0)">c</text><text xml:space="preserve" font-family="Futura-Medium" font-size="52.8" fill="#000000" transform="matrix(1.00, 0.00, -0.00, -1.00, 560.9, 168.0)">o</text><text xml:space="preserve" font-family="Futura-Medium" font-size="52.8" fill="#000000" transform="matrix(1.00, 0.00, -0.00, -1.00, 592.7, 168.0)">m</text><text xml:space="preserve" font-family="Futura-Medium" font-size="52.8" fill="#000000" transform="matrix(1.00, 0.00, -0.00, -1.00, 634.4, 168.0)">/</text><text xml:space="preserve" font-family="Futura-Medium" font-size="52.8" fill="#000000" transform="matrix(1.00, 0.00, -0.00, -1.00, 661.8, 168.0)">C</text><text xml:space="preserve" font-family="Futura-Medium" font-size="52.8" fill="#000000" transform="matrix(1.00, 0.00, -0.00, -1.00, 698.8, 168.0)">l</text><text xml:space="preserve" font-family="Futura-Medium" font-size="52.8" fill="#000000" transform="matrix(1.00, 0.00, -0.00, -1.00, 711.9, 168.0)">o</text><text xml:space="preserve" font-family="Futura-Medium" font-size="52.8" fill="#000000" transform="matrix(1.00, 0.00, -0.00, -1.00, 743.7, 168.0)">j</text><text xml:space="preserve" font-family="Futura-Medium" font-size="52.8" fill="#000000" transform="matrix(1.00, 0.00, -0.00, -1.00, 756.8, 168.0)">u</text><text xml:space="preserve" font-family="Futura-Medium" font-size="52.8" fill="#000000" transform="matrix(1.00, 0.00, -0.00, -1.00, 785.6, 168.0)">r</text><text xml:space="preserve" font-family="Futura-Medium" font-size="52.8" fill="#000000" transform="matrix(1.00, 0.00, -0.00, -1.00, 805.0, 168.0)">e</text><text xml:space="preserve" font-family="Futura-Medium" font-size="52.8" fill="#000000" transform="matrix(1.00, 0.00, -0.00, -1.00, 834.2, 168.0)">-</text><text xml:space="preserve" font-family="Futura-Medium" font-size="52.8" fill="#000000" transform="matrix(1.00, 0.00, -0.00, -1.00, 845.7, 168.0)">C</text><text xml:space="preserve" font-family="Futura-Medium" font-size="52.8" fill="#000000" transform="matrix(1.00, 0.00, -0.00, -1.00, 882.6, 168.0)">o</text><text xml:space="preserve" font-family="Futura-Medium" font-size="52.8" fill="#000000" transform="matrix(1.00, 0.00, -0.00, -1.00, 914.4, 168.0)">-</text><text xml:space="preserve" font-family="Futura-Medium" font-size="52.8" fill="#000000" transform="matrix(1.00, 0.00, -0.00, -1.00, 925.9, 168.0)">L</text><text xml:space="preserve" font-family="Futura-Medium" font-size="52.8" fill="#000000" transform="matrix(1.00, 0.00, -0.00, -1.00, 949.3, 168.0)">a</text><text xml:space="preserve" font-family="Futura-Medium" font-size="52.8" fill="#000000" transform="matrix(1.00, 0.00, -0.00, -1.00, 980.9, 168.0)">b</text><g><clipPath id="clip-51"><path d="M 25.3 160.1 L 1013.0 160.1 L 1013.0 166.2 L 25.3 166.2 Z M 25.3 160.1 "></path></clipPath><g clip-path="url(#clip-51)"><path d="M 8.1 522.9 L 994.8 522.9 " fill="none" stroke="#000000" stroke-width="4.12" stroke-miterlimit="0.00" transform="matrix(1.00, 0.00, 0.00, -1.00, 18.2, 686.0)"></path></g></g><image xlink:href="91AF30815E46CF248F8AFE66CE89DD67.png" width="188.00" height="190.00" transform="matrix(1.00, 0.00, -0.00, -0.99, 426.0, 464.0)"></image></g></svg>