<?xml version="1.0" encoding="UTF-8" standalone="no"?><svg xmlns="http://www.w3.org/2000/svg" xmlns:xlink="http://www.w3.org/1999/xlink" clip-rule="evenodd" stroke-miterlimit="4.00" viewBox="0 0 1024 768"><desc>SVG generated by Keynote</desc><defs></defs><g transform="matrix(1.00, 0.00, -0.00, -1.00, 0.0, 768.0)"><path d="M 0.0 768.0 L 1024.0 768.0 L 1024.0 0.0 L 0.0 0.0 Z M 0.0 768.0 " fill="#F9F4DE"></path><text xml:space="preserve" font-family="Futura-Medium" font-size="45.6" fill="#000000" transform="matrix(1.00, 0.00, -0.00, -1.00, 286.0, 540.0)">T</text><text xml:space="preserve" font-family="Futura-Medium" font-size="45.6" fill="#000000" transform="matrix(1.00, 0.00, -0.00, -1.00, 308.0, 540.0)">h</text><text xml:space="preserve" font-family="Futura-Medium" font-size="45.6" fill="#000000" transform="matrix(1.00, 0.00, -0.00, -1.00, 333.1, 540.0)">e</text><text xml:space="preserve" font-family="Futura-Medium" font-size="45.6" fill="#000000" transform="matrix(1.00, 0.00, -0.00, -1.00, 358.3, 540.0)"> </text><text xml:space="preserve" font-family="Futura-Medium" font-size="45.6" fill="#000000" transform="matrix(1.00, 0.00, -0.00, -1.00, 372.4, 540.0)">V</text><text xml:space="preserve" font-family="Futura-Medium" font-size="45.6" fill="#000000" transform="matrix(1.00, 0.00, -0.00, -1.00, 400.7, 540.0)">a</text><text xml:space="preserve" font-family="Futura-Medium" font-size="45.6" fill="#000000" transform="matrix(1.00, 0.00, -0.00, -1.00, 428.0, 540.0)">l</text><text xml:space="preserve" font-family="Futura-Medium" font-size="45.6" fill="#000000" transform="matrix(1.00, 0.00, -0.00, -1.00, 439.4, 540.0)">u</text><text xml:space="preserve" font-family="Futura-Medium" font-size="45.6" fill="#000000" transform="matrix(1.00, 0.00, -0.00, -1.00, 464.2, 540.0)">e</text><text xml:space="preserve" font-family="Futura-Medium" font-size="45.6" fill="#000000" transform="matrix(1.00, 0.00, -0.00, -1.00, 489.5, 540.0)"> </text><text xml:space="preserve" font-family="Futura-Medium" font-size="45.6" fill="#000000" transform="matrix(1.00, 0.00, -0.00, -1.00, 503.6, 540.0)">o</text><text xml:space="preserve" font-family="Futura-Medium" font-size="45.6" fill="#000000" transform="matrix(1.00, 0.00, -0.00, -1.00, 531.0, 540.0)">f</text><text xml:space="preserve" font-family="Futura-Medium" font-size="45.6" fill="#000000" transform="matrix(1.00, 0.00, -0.00, -1.00, 544.6, 540.0)"> </text><text xml:space="preserve" font-family="Futura-Medium" font-size="45.6" fill="#000000" transform="matrix(1.00, 0.00, -0.00, -1.00, 558.6, 540.0)">L</text><text xml:space="preserve" font-family="Futura-Medium" font-size="45.6" fill="#000000" transform="matrix(1.00, 0.00, -0.00, -1.00, 578.9, 540.0)">e</text><text xml:space="preserve" font-family="Futura-Medium" font-size="45.6" fill="#000000" transform="matrix(1.00, 0.00, -0.00, -1.00, 604.2, 540.0)">a</text><text xml:space="preserve" font-family="Futura-Medium" font-size="45.6" fill="#000000" transform="matrix(1.00, 0.00, -0.00, -1.00, 631.5, 540.0)">r</text><text xml:space="preserve" font-family="Futura-Medium" font-size="45.6" fill="#000000" transform="matrix(1.00, 0.00, -0.00, -1.00, 649.3, 540.0)">n</text><text xml:space="preserve" font-family="Futura-Medium" font-size="45.6" fill="#000000" transform="matrix(1.00, 0.00, -0.00, -1.00, 674.3, 540.0)">i</text><text xml:space="preserve" font-family="Futura-Medium" font-size="45.6" fill="#000000" transform="matrix(1.00, 0.00, -0.00, -1.00, 685.7, 540.0)">n</text><text xml:space="preserve" font-family="Futura-Medium" font-size="45.6" fill="#000000" transform="matrix(1.00, 0.00, -0.00, -1.00, 710.7, 540.0)">g</text><text xml:space="preserve" font-family="Futura-Medium" font-size="45.6" fill="#000000" transform="matrix(1.00, 0.00, -0.00, -1.00, 738.0, 540.0)"> </text><text xml:space="preserve" font-family="Futura-Medium" font-size="45.6" fill="#000000" transform="matrix(1.00, 0.00, -0.00, -1.00, 182.0, 180.0)">h</text><text xml:space="preserve" font-family="Futura-Medium" font-size="45.6" fill="#000000" transform="matrix(1.00, 0.00, -0.00, -1.00, 207.0, 180.0)">t</text><text xml:space="preserve" font-family="Futura-Medium" font-size="45.6" fill="#000000" transform="matrix(1.00, 0.00, -0.00, -1.00, 219.5, 180.0)">t</text><text xml:space="preserve" font-family="Futura-Medium" font-size="45.6" fill="#000000" transform="matrix(1.00, 0.00, -0.00, -1.00, 232.0, 180.0)">p</text><text xml:space="preserve" font-family="Futura-Medium" font-size="45.6" fill="#000000" transform="matrix(1.00, 0.00, -0.00, -1.00, 259.4, 180.0)">s</text><text xml:space="preserve" font-family="Futura-Medium" font-size="45.6" fill="#000000" transform="matrix(1.00, 0.00, -0.00, -1.00, 277.9, 180.0)">:</text><text xml:space="preserve" font-family="Futura-Medium" font-size="45.6" fill="#000000" transform="matrix(1.00, 0.00, -0.00, -1.00, 291.9, 180.0)">/</text><text xml:space="preserve" font-family="Futura-Medium" font-size="45.6" fill="#000000" transform="matrix(1.00, 0.00, -0.00, -1.00, 315.6, 180.0)">/</text><text xml:space="preserve" font-family="Futura-Medium" font-size="45.6" fill="#000000" transform="matrix(1.00, 0.00, -0.00, -1.00, 339.3, 180.0)">y</text><text xml:space="preserve" font-family="Futura-Medium" font-size="45.6" fill="#000000" transform="matrix(1.00, 0.00, -0.00, -1.00, 363.2, 180.0)">o</text><text xml:space="preserve" font-family="Futura-Medium" font-size="45.6" fill="#000000" transform="matrix(1.00, 0.00, -0.00, -1.00, 390.7, 180.0)">u</text><text xml:space="preserve" font-family="Futura-Medium" font-size="45.6" fill="#000000" transform="matrix(1.00, 0.00, -0.00, -1.00, 415.5, 180.0)">t</text><text xml:space="preserve" font-family="Futura-Medium" font-size="45.6" fill="#000000" transform="matrix(1.00, 0.00, -0.00, -1.00, 428.0, 180.0)">u</text><text xml:space="preserve" font-family="Futura-Medium" font-size="45.6" fill="#000000" transform="matrix(1.00, 0.00, -0.00, -1.00, 452.9, 180.0)">.</text><text xml:space="preserve" font-family="Futura-Medium" font-size="45.6" fill="#000000" transform="matrix(1.00, 0.00, -0.00, -1.00, 467.0, 180.0)">b</text><text xml:space="preserve" font-family="Futura-Medium" font-size="45.6" fill="#000000" transform="matrix(1.00, 0.00, -0.00, -1.00, 494.3, 180.0)">e</text><text xml:space="preserve" font-family="Futura-Medium" font-size="45.6" fill="#000000" transform="matrix(1.00, 0.00, -0.00, -1.00, 519.6, 180.0)">/</text><text xml:space="preserve" font-family="Futura-Medium" font-size="45.6" fill="#000000" transform="matrix(1.00, 0.00, -0.00, -1.00, 543.3, 180.0)">a</text><text xml:space="preserve" font-family="Futura-Medium" font-size="45.6" fill="#000000" transform="matrix(1.00, 0.00, -0.00, -1.00, 570.6, 180.0)">E</text><text xml:space="preserve" font-family="Futura-Medium" font-size="45.6" fill="#000000" transform="matrix(1.00, 0.00, -0.00, -1.00, 596.4, 180.0)">h</text><text xml:space="preserve" font-family="Futura-Medium" font-size="45.6" fill="#000000" transform="matrix(1.00, 0.00, -0.00, -1.00, 621.5, 180.0)">5</text><text xml:space="preserve" font-family="Futura-Medium" font-size="45.6" fill="#000000" transform="matrix(1.00, 0.00, -0.00, -1.00, 649.7, 180.0)">V</text><text xml:space="preserve" font-family="Futura-Medium" font-size="45.6" fill="#000000" transform="matrix(1.00, 0.00, -0.00, -1.00, 677.7, 180.0)">A</text><text xml:space="preserve" font-family="Futura-Medium" font-size="45.6" fill="#000000" transform="matrix(1.00, 0.00, -0.00, -1.00, 711.5, 180.0)">f</text><text xml:space="preserve" font-family="Futura-Medium" font-size="45.6" fill="#000000" transform="matrix(1.00, 0.00, -0.00, -1.00, 725.0, 180.0)">p</text><text xml:space="preserve" font-family="Futura-Medium" font-size="45.6" fill="#000000" transform="matrix(1.00, 0.00, -0.00, -1.00, 752.4, 180.0)">7</text><text xml:space="preserve" font-family="Futura-Medium" font-size="45.6" fill="#000000" transform="matrix(1.00, 0.00, -0.00, -1.00, 780.5, 180.0)">9</text><text xml:space="preserve" font-family="Futura-Medium" font-size="45.6" fill="#000000" transform="matrix(1.00, 0.00, -0.00, -1.00, 808.7, 180.0)">A</text><text xml:space="preserve" font-family="Futura-Medium" font-size="45.6" fill="#000000" transform="matrix(1.00, 0.00, -0.00, -1.00, 842.5, 180.0)"> </text><text xml:space="preserve" font-family="Futura-Medium" font-size="45.6" fill="#000000" transform="matrix(1.00, 0.00, -0.00, -1.00, 118.0, 60.0)">h</text><text xml:space="preserve" font-family="Futura-Medium" font-size="45.6" fill="#000000" transform="matrix(1.00, 0.00, -0.00, -1.00, 143.0, 60.0)">t</text><text xml:space="preserve" font-family="Futura-Medium" font-size="45.6" fill="#000000" transform="matrix(1.00, 0.00, -0.00, -1.00, 155.5, 60.0)">t</text><text xml:space="preserve" font-family="Futura-Medium" font-size="45.6" fill="#000000" transform="matrix(1.00, 0.00, -0.00, -1.00, 168.0, 60.0)">p</text><text xml:space="preserve" font-family="Futura-Medium" font-size="45.6" fill="#000000" transform="matrix(1.00, 0.00, -0.00, -1.00, 195.4, 60.0)">:</text><text xml:space="preserve" font-family="Futura-Medium" font-size="45.6" fill="#000000" transform="matrix(1.00, 0.00, -0.00, -1.00, 209.5, 60.0)">/</text><text xml:space="preserve" font-family="Futura-Medium" font-size="45.6" fill="#000000" transform="matrix(1.00, 0.00, -0.00, -1.00, 233.1, 60.0)">/</text><text xml:space="preserve" font-family="Futura-Medium" font-size="45.6" fill="#000000" transform="matrix(1.00, 0.00, -0.00, -1.00, 256.8, 60.0)">d</text><text xml:space="preserve" font-family="Futura-Medium" font-size="45.6" fill="#000000" transform="matrix(1.00, 0.00, -0.00, -1.00, 284.1, 60.0)">i</text><text xml:space="preserve" font-family="Futura-Medium" font-size="45.6" fill="#000000" transform="matrix(1.00, 0.00, -0.00, -1.00, 295.5, 60.0)">s</text><text xml:space="preserve" font-family="Futura-Medium" font-size="45.6" fill="#000000" transform="matrix(1.00, 0.00, -0.00, -1.00, 314.0, 60.0)">c</text><text xml:space="preserve" font-family="Futura-Medium" font-size="45.6" fill="#000000" transform="matrix(1.00, 0.00, -0.00, -1.00, 335.8, 60.0)">u</text><text xml:space="preserve" font-family="Futura-Medium" font-size="45.6" fill="#000000" transform="matrix(1.00, 0.00, -0.00, -1.00, 360.6, 60.0)">s</text><text xml:space="preserve" font-family="Futura-Medium" font-size="45.6" fill="#000000" transform="matrix(1.00, 0.00, -0.00, -1.00, 379.1, 60.0)">s</text><text xml:space="preserve" font-family="Futura-Medium" font-size="45.6" fill="#000000" transform="matrix(1.00, 0.00, -0.00, -1.00, 397.6, 60.0)">.</text><text xml:space="preserve" font-family="Futura-Medium" font-size="45.6" fill="#000000" transform="matrix(1.00, 0.00, -0.00, -1.00, 411.7, 60.0)">t</text><text xml:space="preserve" font-family="Futura-Medium" font-size="45.6" fill="#000000" transform="matrix(1.00, 0.00, -0.00, -1.00, 425.1, 60.0)">h</text><text xml:space="preserve" font-family="Futura-Medium" font-size="45.6" fill="#000000" transform="matrix(1.00, 0.00, -0.00, -1.00, 450.2, 60.0)">e</text><text xml:space="preserve" font-family="Futura-Medium" font-size="45.6" fill="#000000" transform="matrix(1.00, 0.00, -0.00, -1.00, 474.7, 60.0)">v</text><text xml:space="preserve" font-family="Futura-Medium" font-size="45.6" fill="#000000" transform="matrix(1.00, 0.00, -0.00, -1.00, 496.8, 60.0)">a</text><text xml:space="preserve" font-family="Futura-Medium" font-size="45.6" fill="#000000" transform="matrix(1.00, 0.00, -0.00, -1.00, 524.2, 60.0)">l</text><text xml:space="preserve" font-family="Futura-Medium" font-size="45.6" fill="#000000" transform="matrix(1.00, 0.00, -0.00, -1.00, 535.6, 60.0)">u</text><text xml:space="preserve" font-family="Futura-Medium" font-size="45.6" fill="#000000" transform="matrix(1.00, 0.00, -0.00, -1.00, 560.4, 60.0)">e</text><text xml:space="preserve" font-family="Futura-Medium" font-size="45.6" fill="#000000" transform="matrix(1.00, 0.00, -0.00, -1.00, 585.7, 60.0)">o</text><text xml:space="preserve" font-family="Futura-Medium" font-size="45.6" fill="#000000" transform="matrix(1.00, 0.00, -0.00, -1.00, 613.1, 60.0)">ﬂ</text><text xml:space="preserve" font-family="Futura-Medium" font-size="45.6" fill="#000000" transform="matrix(1.00, 0.00, -0.00, -1.00, 637.4, 60.0)">e</text><text xml:space="preserve" font-family="Futura-Medium" font-size="45.6" fill="#000000" transform="matrix(1.00, 0.00, -0.00, -1.00, 662.6, 60.0)">a</text><text xml:space="preserve" font-family="Futura-Medium" font-size="45.6" fill="#000000" transform="matrix(1.00, 0.00, -0.00, -1.00, 690.0, 60.0)">r</text><text xml:space="preserve" font-family="Futura-Medium" font-size="45.6" fill="#000000" transform="matrix(1.00, 0.00, -0.00, -1.00, 707.8, 60.0)">n</text><text xml:space="preserve" font-family="Futura-Medium" font-size="45.6" fill="#000000" transform="matrix(1.00, 0.00, -0.00, -1.00, 732.8, 60.0)">i</text><text xml:space="preserve" font-family="Futura-Medium" font-size="45.6" fill="#000000" transform="matrix(1.00, 0.00, -0.00, -1.00, 744.2, 60.0)">n</text><text xml:space="preserve" font-family="Futura-Medium" font-size="45.6" fill="#000000" transform="matrix(1.00, 0.00, -0.00, -1.00, 769.2, 60.0)">g</text><text xml:space="preserve" font-family="Futura-Medium" font-size="45.6" fill="#000000" transform="matrix(1.00, 0.00, -0.00, -1.00, 796.5, 60.0)">.</text><text xml:space="preserve" font-family="Futura-Medium" font-size="45.6" fill="#000000" transform="matrix(1.00, 0.00, -0.00, -1.00, 810.6, 60.0)">o</text><text xml:space="preserve" font-family="Futura-Medium" font-size="45.6" fill="#000000" transform="matrix(1.00, 0.00, -0.00, -1.00, 838.0, 60.0)">r</text><text xml:space="preserve" font-family="Futura-Medium" font-size="45.6" fill="#000000" transform="matrix(1.00, 0.00, -0.00, -1.00, 855.1, 60.0)">g</text><text xml:space="preserve" font-family="Futura-Medium" font-size="45.6" fill="#000000" transform="matrix(1.00, 0.00, -0.00, -1.00, 882.4, 60.0)">/</text><text xml:space="preserve" font-family="Futura-Medium" font-size="45.6" fill="#000000" transform="matrix(1.00, 0.00, -0.00, -1.00, 906.1, 60.0)"> </text><g><clipPath id="clip-50"><path d="M 116.9 52.5 L 906.1 52.5 L 906.1 58.1 L 116.9 58.1 Z M 116.9 52.5 "></path></clipPath><g clip-path="url(#clip-50)"><path d="M 100.1 598.2 L 888.2 598.2 " fill="none" stroke="#000000" stroke-width="3.57" stroke-miterlimit="0.00" transform="matrix(1.00, 0.00, 0.00, -1.00, 17.8, 653.5)"></path></g></g><image xlink:href="../../D5D61201-B592-4279-A775-CCD5B9ACB67C/assets/05E48B1053C98EBAE2E5F6C194773E16.png" width="188.00" height="191.00" transform="matrix(1.00, 0.00, -0.00, -0.99, 418.0, 479.0)"></image></g></svg>