<?xml version="1.0" encoding="UTF-8" standalone="no"?><svg xmlns="http://www.w3.org/2000/svg" xmlns:xlink="http://www.w3.org/1999/xlink" clip-rule="evenodd" stroke-miterlimit="4.00" viewBox="0 0 1024 768"><desc>SVG generated by Keynote</desc><defs></defs><g transform="matrix(1.00, 0.00, -0.00, -1.00, 0.0, 768.0)"><path d="M 0.0 768.0 L 1024.0 768.0 L 1024.0 0.0 L 0.0 0.0 Z M 0.0 768.0 " fill="#F9F4DE"></path><text xml:space="preserve" font-family="Futura-Medium" font-size="55.0" fill="#000000" transform="matrix(1.00, 0.00, -0.00, -1.00, 344.0, 560.0)">T</text><text xml:space="preserve" font-family="Futura-Medium" font-size="55.0" fill="#000000" transform="matrix(1.00, 0.00, -0.00, -1.00, 368.2, 560.0)">a</text><text xml:space="preserve" font-family="Futura-Medium" font-size="55.0" fill="#000000" transform="matrix(1.00, 0.00, -0.00, -1.00, 401.2, 560.0)">m</text><text xml:space="preserve" font-family="Futura-Medium" font-size="55.0" fill="#000000" transform="matrix(1.00, 0.00, -0.00, -1.00, 444.7, 560.0)">i</text><text xml:space="preserve" font-family="Futura-Medium" font-size="55.0" fill="#000000" transform="matrix(1.00, 0.00, -0.00, -1.00, 458.4, 560.0)">n</text><text xml:space="preserve" font-family="Futura-Medium" font-size="55.0" fill="#000000" transform="matrix(1.00, 0.00, -0.00, -1.00, 488.6, 560.0)">g</text><text xml:space="preserve" font-family="Futura-Medium" font-size="55.0" fill="#000000" transform="matrix(1.00, 0.00, -0.00, -1.00, 521.5, 560.0)"> </text><text xml:space="preserve" font-family="Futura-Medium" font-size="55.0" fill="#000000" transform="matrix(1.00, 0.00, -0.00, -1.00, 538.4, 560.0)">S</text><text xml:space="preserve" font-family="Futura-Medium" font-size="55.0" fill="#000000" transform="matrix(1.00, 0.00, -0.00, -1.00, 571.4, 560.0)">t</text><text xml:space="preserve" font-family="Futura-Medium" font-size="55.0" fill="#000000" transform="matrix(1.00, 0.00, -0.00, -1.00, 587.0, 560.0)">a</text><text xml:space="preserve" font-family="Futura-Medium" font-size="55.0" fill="#000000" transform="matrix(1.00, 0.00, -0.00, -1.00, 619.9, 560.0)">t</text><text xml:space="preserve" font-family="Futura-Medium" font-size="55.0" fill="#000000" transform="matrix(1.00, 0.00, -0.00, -1.00, 635.5, 560.0)">e</text><text xml:space="preserve" font-family="Futura-Medium" font-size="55.0" fill="#000000" transform="matrix(1.00, 0.00, -0.00, -1.00, 665.9, 560.0)"> </text><text xml:space="preserve" font-family="Futura-Medium" font-size="55.0" fill="#000000" transform="matrix(1.00, 0.00, -0.00, -1.00, 147.0, 414.0)">C</text><text xml:space="preserve" font-family="Futura-Medium" font-size="55.0" fill="#000000" transform="matrix(1.00, 0.00, -0.00, -1.00, 185.5, 414.0)">l</text><text xml:space="preserve" font-family="Futura-Medium" font-size="55.0" fill="#000000" transform="matrix(1.00, 0.00, -0.00, -1.00, 199.2, 414.0)">o</text><text xml:space="preserve" font-family="Futura-Medium" font-size="55.0" fill="#000000" transform="matrix(1.00, 0.00, -0.00, -1.00, 232.3, 414.0)">j</text><text xml:space="preserve" font-family="Futura-Medium" font-size="55.0" fill="#000000" transform="matrix(1.00, 0.00, -0.00, -1.00, 246.0, 414.0)">u</text><text xml:space="preserve" font-family="Futura-Medium" font-size="55.0" fill="#000000" transform="matrix(1.00, 0.00, -0.00, -1.00, 275.9, 414.0)">r</text><text xml:space="preserve" font-family="Futura-Medium" font-size="55.0" fill="#000000" transform="matrix(1.00, 0.00, -0.00, -1.00, 296.1, 414.0)">e</text><text xml:space="preserve" font-family="Futura-Medium" font-size="55.0" fill="#000000" transform="matrix(1.00, 0.00, -0.00, -1.00, 326.6, 414.0)"> </text><text xml:space="preserve" font-family="Futura-Medium" font-size="55.0" fill="#000000" transform="matrix(1.00, 0.00, -0.00, -1.00, 343.5, 414.0)">d</text><text xml:space="preserve" font-family="Futura-Medium" font-size="55.0" fill="#000000" transform="matrix(1.00, 0.00, -0.00, -1.00, 376.5, 414.0)">i</text><text xml:space="preserve" font-family="Futura-Medium" font-size="55.0" fill="#000000" transform="matrix(1.00, 0.00, -0.00, -1.00, 390.2, 414.0)">s</text><text xml:space="preserve" font-family="Futura-Medium" font-size="55.0" fill="#000000" transform="matrix(1.00, 0.00, -0.00, -1.00, 412.5, 414.0)">e</text><text xml:space="preserve" font-family="Futura-Medium" font-size="55.0" fill="#000000" transform="matrix(1.00, 0.00, -0.00, -1.00, 442.9, 414.0)">n</text><text xml:space="preserve" font-family="Futura-Medium" font-size="55.0" fill="#000000" transform="matrix(1.00, 0.00, -0.00, -1.00, 473.1, 414.0)">t</text><text xml:space="preserve" font-family="Futura-Medium" font-size="55.0" fill="#000000" transform="matrix(1.00, 0.00, -0.00, -1.00, 488.6, 414.0)">a</text><text xml:space="preserve" font-family="Futura-Medium" font-size="55.0" fill="#000000" transform="matrix(1.00, 0.00, -0.00, -1.00, 521.6, 414.0)">n</text><text xml:space="preserve" font-family="Futura-Medium" font-size="55.0" fill="#000000" transform="matrix(1.00, 0.00, -0.00, -1.00, 551.8, 414.0)">g</text><text xml:space="preserve" font-family="Futura-Medium" font-size="55.0" fill="#000000" transform="matrix(1.00, 0.00, -0.00, -1.00, 584.7, 414.0)">l</text><text xml:space="preserve" font-family="Futura-Medium" font-size="55.0" fill="#000000" transform="matrix(1.00, 0.00, -0.00, -1.00, 598.4, 414.0)">e</text><text xml:space="preserve" font-family="Futura-Medium" font-size="55.0" fill="#000000" transform="matrix(1.00, 0.00, -0.00, -1.00, 628.8, 414.0)">s</text><text xml:space="preserve" font-family="Futura-Medium" font-size="55.0" fill="#000000" transform="matrix(1.00, 0.00, -0.00, -1.00, 651.1, 414.0)"> </text><text xml:space="preserve" font-family="Futura-Medium" font-size="55.0" fill="#000000" transform="matrix(1.00, 0.00, -0.00, -1.00, 668.1, 414.0)">i</text><text xml:space="preserve" font-family="Futura-Medium" font-size="55.0" fill="#000000" transform="matrix(1.00, 0.00, -0.00, -1.00, 681.8, 414.0)">d</text><text xml:space="preserve" font-family="Futura-Medium" font-size="55.0" fill="#000000" transform="matrix(1.00, 0.00, -0.00, -1.00, 714.7, 414.0)">e</text><text xml:space="preserve" font-family="Futura-Medium" font-size="55.0" fill="#000000" transform="matrix(1.00, 0.00, -0.00, -1.00, 745.2, 414.0)">n</text><text xml:space="preserve" font-family="Futura-Medium" font-size="55.0" fill="#000000" transform="matrix(1.00, 0.00, -0.00, -1.00, 775.3, 414.0)">t</text><text xml:space="preserve" font-family="Futura-Medium" font-size="55.0" fill="#000000" transform="matrix(1.00, 0.00, -0.00, -1.00, 790.4, 414.0)">i</text><text xml:space="preserve" font-family="Futura-Medium" font-size="55.0" fill="#000000" transform="matrix(1.00, 0.00, -0.00, -1.00, 804.1, 414.0)">t</text><text xml:space="preserve" font-family="Futura-Medium" font-size="55.0" fill="#000000" transform="matrix(1.00, 0.00, -0.00, -1.00, 819.2, 414.0)">y</text><text xml:space="preserve" font-family="Futura-Medium" font-size="55.0" fill="#000000" transform="matrix(1.00, 0.00, -0.00, -1.00, 846.7, 414.0)">,</text><text xml:space="preserve" font-family="Futura-Medium" font-size="55.0" fill="#000000" transform="matrix(1.00, 0.00, -0.00, -1.00, 863.7, 414.0)"> </text><text xml:space="preserve" font-family="Futura-Medium" font-size="55.0" fill="#000000" transform="matrix(1.00, 0.00, -0.00, -1.00, 341.0, 341.0)">v</text><text xml:space="preserve" font-family="Futura-Medium" font-size="55.0" fill="#000000" transform="matrix(1.00, 0.00, -0.00, -1.00, 367.7, 341.0)">a</text><text xml:space="preserve" font-family="Futura-Medium" font-size="55.0" fill="#000000" transform="matrix(1.00, 0.00, -0.00, -1.00, 400.7, 341.0)">l</text><text xml:space="preserve" font-family="Futura-Medium" font-size="55.0" fill="#000000" transform="matrix(1.00, 0.00, -0.00, -1.00, 414.4, 341.0)">u</text><text xml:space="preserve" font-family="Futura-Medium" font-size="55.0" fill="#000000" transform="matrix(1.00, 0.00, -0.00, -1.00, 444.3, 341.0)">e</text><text xml:space="preserve" font-family="Futura-Medium" font-size="55.0" fill="#000000" transform="matrix(1.00, 0.00, -0.00, -1.00, 474.8, 341.0)"> </text><text xml:space="preserve" font-family="Futura-Medium" font-size="55.0" fill="#000000" transform="matrix(1.00, 0.00, -0.00, -1.00, 491.7, 341.0)">&amp;</text><text xml:space="preserve" font-family="Futura-Medium" font-size="55.0" fill="#000000" transform="matrix(1.00, 0.00, -0.00, -1.00, 531.9, 341.0)"> </text><text xml:space="preserve" font-family="Futura-Medium" font-size="55.0" fill="#000000" transform="matrix(1.00, 0.00, -0.00, -1.00, 548.9, 341.0)">t</text><text xml:space="preserve" font-family="Futura-Medium" font-size="55.0" fill="#000000" transform="matrix(1.00, 0.00, -0.00, -1.00, 563.9, 341.0)">i</text><text xml:space="preserve" font-family="Futura-Medium" font-size="55.0" fill="#000000" transform="matrix(1.00, 0.00, -0.00, -1.00, 577.6, 341.0)">m</text><text xml:space="preserve" font-family="Futura-Medium" font-size="55.0" fill="#000000" transform="matrix(1.00, 0.00, -0.00, -1.00, 621.1, 341.0)">e</text><text xml:space="preserve" font-family="Futura-Medium" font-size="55.0" fill="#000000" transform="matrix(1.00, 0.00, -0.00, -1.00, 651.6, 341.0)">.</text><text xml:space="preserve" font-family="Futura-Medium" font-size="55.0" fill="#000000" transform="matrix(1.00, 0.00, -0.00, -1.00, 668.5, 341.0)"> </text><text xml:space="preserve" font-family="Futura-Medium" font-size="34.0" fill="#000000" transform="matrix(1.00, 0.00, -0.00, -1.00, 361.0, 217.0)">S</text><text xml:space="preserve" font-family="Futura-Medium" font-size="34.0" fill="#000000" transform="matrix(1.00, 0.00, -0.00, -1.00, 380.8, 217.0)">i</text><text xml:space="preserve" font-family="Futura-Medium" font-size="34.0" fill="#000000" transform="matrix(1.00, 0.00, -0.00, -1.00, 389.3, 217.0)">m</text><text xml:space="preserve" font-family="Futura-Medium" font-size="34.0" fill="#000000" transform="matrix(1.00, 0.00, -0.00, -1.00, 416.6, 217.0)">p</text><text xml:space="preserve" font-family="Futura-Medium" font-size="34.0" fill="#000000" transform="matrix(1.00, 0.00, -0.00, -1.00, 437.0, 217.0)">l</text><text xml:space="preserve" font-family="Futura-Medium" font-size="34.0" fill="#000000" transform="matrix(1.00, 0.00, -0.00, -1.00, 445.4, 217.0)">e</text><text xml:space="preserve" font-family="Futura-Medium" font-size="34.0" fill="#000000" transform="matrix(1.00, 0.00, -0.00, -1.00, 464.3, 217.0)"> </text><text xml:space="preserve" font-family="Futura-Medium" font-size="34.0" fill="#000000" transform="matrix(1.00, 0.00, -0.00, -1.00, 474.7, 217.0)">M</text><text xml:space="preserve" font-family="Futura-Medium" font-size="34.0" fill="#000000" transform="matrix(1.00, 0.00, -0.00, -1.00, 507.4, 217.0)">a</text><text xml:space="preserve" font-family="Futura-Medium" font-size="34.0" fill="#000000" transform="matrix(1.00, 0.00, -0.00, -1.00, 527.8, 217.0)">d</text><text xml:space="preserve" font-family="Futura-Medium" font-size="34.0" fill="#000000" transform="matrix(1.00, 0.00, -0.00, -1.00, 548.2, 217.0)">e</text><text xml:space="preserve" font-family="Futura-Medium" font-size="34.0" fill="#000000" transform="matrix(1.00, 0.00, -0.00, -1.00, 567.0, 217.0)"> </text><text xml:space="preserve" font-family="Futura-Medium" font-size="34.0" fill="#000000" transform="matrix(1.00, 0.00, -0.00, -1.00, 577.5, 217.0)">E</text><text xml:space="preserve" font-family="Futura-Medium" font-size="34.0" fill="#000000" transform="matrix(1.00, 0.00, -0.00, -1.00, 596.7, 217.0)">a</text><text xml:space="preserve" font-family="Futura-Medium" font-size="34.0" fill="#000000" transform="matrix(1.00, 0.00, -0.00, -1.00, 617.1, 217.0)">s</text><text xml:space="preserve" font-family="Futura-Medium" font-size="34.0" fill="#000000" transform="matrix(1.00, 0.00, -0.00, -1.00, 630.9, 217.0)">y</text><text xml:space="preserve" font-family="Futura-Medium" font-size="34.0" fill="#000000" transform="matrix(1.00, 0.00, -0.00, -1.00, 649.4, 217.0)"> </text><g><clipPath id="clip-11"><path d="M 359.8 211.4 L 649.2 211.4 L 649.2 216.0 L 359.8 216.0 Z M 359.8 211.4 "></path></clipPath><g clip-path="url(#clip-11)"><path d="M 267.8 484.5 L 556.2 484.5 " fill="none" stroke="#000000" stroke-width="2.66" stroke-miterlimit="0.00" transform="matrix(1.00, 0.00, 0.00, -1.00, 93.0, 698.2)"></path></g></g><text xml:space="preserve" font-family="Futura-Medium" font-size="24.0" fill="#000000" transform="matrix(1.00, 0.00, -0.00, -1.00, 361.0, 182.0)">(</text><text xml:space="preserve" font-family="Futura-Medium" font-size="24.0" fill="#000000" transform="matrix(1.00, 0.00, -0.00, -1.00, 369.8, 182.0)">w</text><text xml:space="preserve" font-family="Futura-Medium" font-size="24.0" fill="#000000" transform="matrix(1.00, 0.00, -0.00, -1.00, 387.9, 182.0)">o</text><text xml:space="preserve" font-family="Futura-Medium" font-size="24.0" fill="#000000" transform="matrix(1.00, 0.00, -0.00, -1.00, 402.4, 182.0)">r</text><text xml:space="preserve" font-family="Futura-Medium" font-size="24.0" fill="#000000" transform="matrix(1.00, 0.00, -0.00, -1.00, 412.2, 182.0)">t</text><text xml:space="preserve" font-family="Futura-Medium" font-size="24.0" fill="#000000" transform="matrix(1.00, 0.00, -0.00, -1.00, 419.3, 182.0)">h</text><text xml:space="preserve" font-family="Futura-Medium" font-size="24.0" fill="#000000" transform="matrix(1.00, 0.00, -0.00, -1.00, 432.4, 182.0)"> </text><text xml:space="preserve" font-family="Futura-Medium" font-size="24.0" fill="#000000" transform="matrix(1.00, 0.00, -0.00, -1.00, 439.8, 182.0)">s</text><text xml:space="preserve" font-family="Futura-Medium" font-size="24.0" fill="#000000" transform="matrix(1.00, 0.00, -0.00, -1.00, 449.6, 182.0)">e</text><text xml:space="preserve" font-family="Futura-Medium" font-size="24.0" fill="#000000" transform="matrix(1.00, 0.00, -0.00, -1.00, 462.8, 182.0)">e</text><text xml:space="preserve" font-family="Futura-Medium" font-size="24.0" fill="#000000" transform="matrix(1.00, 0.00, -0.00, -1.00, 476.1, 182.0)">i</text><text xml:space="preserve" font-family="Futura-Medium" font-size="24.0" fill="#000000" transform="matrix(1.00, 0.00, -0.00, -1.00, 482.1, 182.0)">n</text><text xml:space="preserve" font-family="Futura-Medium" font-size="24.0" fill="#000000" transform="matrix(1.00, 0.00, -0.00, -1.00, 495.3, 182.0)">g</text><text xml:space="preserve" font-family="Futura-Medium" font-size="24.0" fill="#000000" transform="matrix(1.00, 0.00, -0.00, -1.00, 509.6, 182.0)"> </text><text xml:space="preserve" font-family="Futura-Medium" font-size="24.0" fill="#000000" transform="matrix(1.00, 0.00, -0.00, -1.00, 517.0, 182.0)">f</text><text xml:space="preserve" font-family="Futura-Medium" font-size="24.0" fill="#000000" transform="matrix(1.00, 0.00, -0.00, -1.00, 524.4, 182.0)">o</text><text xml:space="preserve" font-family="Futura-Medium" font-size="24.0" fill="#000000" transform="matrix(1.00, 0.00, -0.00, -1.00, 538.9, 182.0)">r</text><text xml:space="preserve" font-family="Futura-Medium" font-size="24.0" fill="#000000" transform="matrix(1.00, 0.00, -0.00, -1.00, 547.8, 182.0)"> </text><text xml:space="preserve" font-family="Futura-Medium" font-size="24.0" fill="#000000" transform="matrix(1.00, 0.00, -0.00, -1.00, 555.2, 182.0)">y</text><text xml:space="preserve" font-family="Futura-Medium" font-size="24.0" fill="#000000" transform="matrix(1.00, 0.00, -0.00, -1.00, 567.8, 182.0)">o</text><text xml:space="preserve" font-family="Futura-Medium" font-size="24.0" fill="#000000" transform="matrix(1.00, 0.00, -0.00, -1.00, 582.3, 182.0)">u</text><text xml:space="preserve" font-family="Futura-Medium" font-size="24.0" fill="#000000" transform="matrix(1.00, 0.00, -0.00, -1.00, 595.3, 182.0)">r</text><text xml:space="preserve" font-family="Futura-Medium" font-size="24.0" fill="#000000" transform="matrix(1.00, 0.00, -0.00, -1.00, 604.3, 182.0)">s</text><text xml:space="preserve" font-family="Futura-Medium" font-size="24.0" fill="#000000" transform="matrix(1.00, 0.00, -0.00, -1.00, 614.0, 182.0)">e</text><text xml:space="preserve" font-family="Futura-Medium" font-size="24.0" fill="#000000" transform="matrix(1.00, 0.00, -0.00, -1.00, 627.3, 182.0)">l</text><text xml:space="preserve" font-family="Futura-Medium" font-size="24.0" fill="#000000" transform="matrix(1.00, 0.00, -0.00, -1.00, 633.3, 182.0)">f</text><text xml:space="preserve" font-family="Futura-Medium" font-size="24.0" fill="#000000" transform="matrix(1.00, 0.00, -0.00, -1.00, 640.4, 182.0)">)</text></g></svg>