<?xml version="1.0" encoding="UTF-8" standalone="no"?><svg xmlns="http://www.w3.org/2000/svg" xmlns:xlink="http://www.w3.org/1999/xlink" clip-rule="evenodd" stroke-miterlimit="4.00" viewBox="0 0 1024 768"><desc>SVG generated by Keynote</desc><defs></defs><g transform="matrix(1.00, 0.00, -0.00, -1.00, 0.0, 768.0)"><path d="M 0.0 768.0 L 1024.0 768.0 L 1024.0 0.0 L 0.0 0.0 Z M 0.0 768.0 " fill="#F9F4DE"></path><text xml:space="preserve" font-family="Courier" font-size="55.0" fill="#000000" transform="matrix(1.00, 0.00, -0.00, -1.00, 104.0, 599.0)">(</text><text xml:space="preserve" font-family="Courier" font-size="55.0" fill="#000000" transform="matrix(1.00, 0.00, -0.00, -1.00, 137.0, 599.0)">+</text><text xml:space="preserve" font-family="Courier" font-size="55.0" fill="#000000" transform="matrix(1.00, 0.00, -0.00, -1.00, 170.0, 599.0)"> </text><text xml:space="preserve" font-family="Courier" font-size="55.0" fill="#000000" transform="matrix(1.00, 0.00, -0.00, -1.00, 203.0, 599.0)">1</text><text xml:space="preserve" font-family="Courier" font-size="55.0" fill="#000000" transform="matrix(1.00, 0.00, -0.00, -1.00, 236.0, 599.0)"> </text><text xml:space="preserve" font-family="Courier" font-size="55.0" fill="#000000" transform="matrix(1.00, 0.00, -0.00, -1.00, 269.1, 599.0)">2</text><text xml:space="preserve" font-family="Courier" font-size="55.0" fill="#000000" transform="matrix(1.00, 0.00, -0.00, -1.00, 302.1, 599.0)"> </text><text xml:space="preserve" font-family="Courier" font-size="55.0" fill="#000000" transform="matrix(1.00, 0.00, -0.00, -1.00, 335.1, 599.0)">(</text><text xml:space="preserve" font-family="Courier" font-size="55.0" fill="#000000" transform="matrix(1.00, 0.00, -0.00, -1.00, 368.1, 599.0)">+</text><text xml:space="preserve" font-family="Courier" font-size="55.0" fill="#000000" transform="matrix(1.00, 0.00, -0.00, -1.00, 401.1, 599.0)"> </text><text xml:space="preserve" font-family="Courier" font-size="55.0" fill="#000000" transform="matrix(1.00, 0.00, -0.00, -1.00, 434.1, 599.0)">3</text><text xml:space="preserve" font-family="Courier" font-size="55.0" fill="#000000" transform="matrix(1.00, 0.00, -0.00, -1.00, 467.1, 599.0)"> </text><text xml:space="preserve" font-family="Courier" font-size="55.0" fill="#000000" transform="matrix(1.00, 0.00, -0.00, -1.00, 500.1, 599.0)">4</text><text xml:space="preserve" font-family="Courier" font-size="55.0" fill="#000000" transform="matrix(1.00, 0.00, -0.00, -1.00, 533.1, 599.0)">)</text><text xml:space="preserve" font-family="Courier" font-size="55.0" fill="#000000" transform="matrix(1.00, 0.00, -0.00, -1.00, 566.1, 599.0)">)</text></g></svg>