<?xml version="1.0" encoding="UTF-8" standalone="no"?><svg xmlns="http://www.w3.org/2000/svg" xmlns:xlink="http://www.w3.org/1999/xlink" clip-rule="evenodd" stroke-miterlimit="4.00" viewBox="0 0 1024 768"><desc>SVG generated by Keynote</desc><defs></defs><g transform="matrix(1.00, 0.00, -0.00, -1.00, 0.0, 768.0)"><path d="M 0.0 768.0 L 1024.0 768.0 L 1024.0 0.0 L 0.0 0.0 Z M 0.0 768.0 " fill="#F9F4DE"></path><text xml:space="preserve" font-family="Futura-Medium" font-size="55.0" fill="#000000" transform="matrix(1.00, 0.00, -0.00, -1.00, 288.0, 650.0)">R</text><text xml:space="preserve" font-family="Futura-Medium" font-size="55.0" fill="#000000" transform="matrix(1.00, 0.00, -0.00, -1.00, 320.2, 650.0)">e</text><text xml:space="preserve" font-family="Futura-Medium" font-size="55.0" fill="#000000" transform="matrix(1.00, 0.00, -0.00, -1.00, 350.7, 650.0)">d</text><text xml:space="preserve" font-family="Futura-Medium" font-size="55.0" fill="#000000" transform="matrix(1.00, 0.00, -0.00, -1.00, 383.6, 650.0)"> </text><text xml:space="preserve" font-family="Futura-Medium" font-size="55.0" fill="#000000" transform="matrix(1.00, 0.00, -0.00, -1.00, 400.6, 650.0)">G</text><text xml:space="preserve" font-family="Futura-Medium" font-size="55.0" fill="#000000" transform="matrix(1.00, 0.00, -0.00, -1.00, 446.9, 650.0)">U</text><text xml:space="preserve" font-family="Futura-Medium" font-size="55.0" fill="#000000" transform="matrix(1.00, 0.00, -0.00, -1.00, 487.5, 650.0)">I</text><text xml:space="preserve" font-family="Futura-Medium" font-size="55.0" fill="#000000" transform="matrix(1.00, 0.00, -0.00, -1.00, 503.8, 650.0)"> </text><text xml:space="preserve" font-family="Futura-Medium" font-size="55.0" fill="#000000" transform="matrix(1.00, 0.00, -0.00, -1.00, 520.7, 650.0)">E</text><text xml:space="preserve" font-family="Futura-Medium" font-size="55.0" fill="#000000" transform="matrix(1.00, 0.00, -0.00, -1.00, 551.8, 650.0)">x</text><text xml:space="preserve" font-family="Futura-Medium" font-size="55.0" fill="#000000" transform="matrix(1.00, 0.00, -0.00, -1.00, 581.6, 650.0)">a</text><text xml:space="preserve" font-family="Futura-Medium" font-size="55.0" fill="#000000" transform="matrix(1.00, 0.00, -0.00, -1.00, 614.5, 650.0)">m</text><text xml:space="preserve" font-family="Futura-Medium" font-size="55.0" fill="#000000" transform="matrix(1.00, 0.00, -0.00, -1.00, 658.7, 650.0)">p</text><text xml:space="preserve" font-family="Futura-Medium" font-size="55.0" fill="#000000" transform="matrix(1.00, 0.00, -0.00, -1.00, 691.7, 650.0)">l</text><text xml:space="preserve" font-family="Futura-Medium" font-size="55.0" fill="#000000" transform="matrix(1.00, 0.00, -0.00, -1.00, 705.4, 650.0)">e</text><text xml:space="preserve" font-family="Futura-Medium" font-size="55.0" fill="#000000" transform="matrix(1.00, 0.00, -0.00, -1.00, 735.8, 650.0)"> </text><text xml:space="preserve" font-family="Helvetica-Light" font-size="36.0" fill="#000000" transform="matrix(1.00, 0.00, -0.00, -1.00, 318.0, 33.0)">h</text><text xml:space="preserve" font-family="Helvetica-Light" font-size="36.0" fill="#000000" transform="matrix(1.00, 0.00, -0.00, -1.00, 338.0, 33.0)">t</text><text xml:space="preserve" font-family="Helvetica-Light" font-size="36.0" fill="#000000" transform="matrix(1.00, 0.00, -0.00, -1.00, 348.0, 33.0)">t</text><text xml:space="preserve" font-family="Helvetica-Light" font-size="36.0" fill="#000000" transform="matrix(1.00, 0.00, -0.00, -1.00, 358.0, 33.0)">p</text><text xml:space="preserve" font-family="Helvetica-Light" font-size="36.0" fill="#000000" transform="matrix(1.00, 0.00, -0.00, -1.00, 380.0, 33.0)">:</text><text xml:space="preserve" font-family="Helvetica-Light" font-size="36.0" fill="#000000" transform="matrix(1.00, 0.00, -0.00, -1.00, 390.0, 33.0)">/</text><text xml:space="preserve" font-family="Helvetica-Light" font-size="36.0" fill="#000000" transform="matrix(1.00, 0.00, -0.00, -1.00, 400.0, 33.0)">/</text><text xml:space="preserve" font-family="Helvetica-Light" font-size="36.0" fill="#000000" transform="matrix(1.00, 0.00, -0.00, -1.00, 410.1, 33.0)">w</text><text xml:space="preserve" font-family="Helvetica-Light" font-size="36.0" fill="#000000" transform="matrix(1.00, 0.00, -0.00, -1.00, 436.0, 33.0)">w</text><text xml:space="preserve" font-family="Helvetica-Light" font-size="36.0" fill="#000000" transform="matrix(1.00, 0.00, -0.00, -1.00, 462.0, 33.0)">w</text><text xml:space="preserve" font-family="Helvetica-Light" font-size="36.0" fill="#000000" transform="matrix(1.00, 0.00, -0.00, -1.00, 486.0, 33.0)">.</text><text xml:space="preserve" font-family="Helvetica-Light" font-size="36.0" fill="#000000" transform="matrix(1.00, 0.00, -0.00, -1.00, 496.1, 33.0)">r</text><text xml:space="preserve" font-family="Helvetica-Light" font-size="36.0" fill="#000000" transform="matrix(1.00, 0.00, -0.00, -1.00, 507.4, 33.0)">e</text><text xml:space="preserve" font-family="Helvetica-Light" font-size="36.0" fill="#000000" transform="matrix(1.00, 0.00, -0.00, -1.00, 527.4, 33.0)">d</text><text xml:space="preserve" font-family="Helvetica-Light" font-size="36.0" fill="#000000" transform="matrix(1.00, 0.00, -0.00, -1.00, 549.4, 33.0)">-</text><text xml:space="preserve" font-family="Helvetica-Light" font-size="36.0" fill="#000000" transform="matrix(1.00, 0.00, -0.00, -1.00, 561.4, 33.0)">l</text><text xml:space="preserve" font-family="Helvetica-Light" font-size="36.0" fill="#000000" transform="matrix(1.00, 0.00, -0.00, -1.00, 569.4, 33.0)">a</text><text xml:space="preserve" font-family="Helvetica-Light" font-size="36.0" fill="#000000" transform="matrix(1.00, 0.00, -0.00, -1.00, 589.4, 33.0)">n</text><text xml:space="preserve" font-family="Helvetica-Light" font-size="36.0" fill="#000000" transform="matrix(1.00, 0.00, -0.00, -1.00, 609.4, 33.0)">g</text><text xml:space="preserve" font-family="Helvetica-Light" font-size="36.0" fill="#000000" transform="matrix(1.00, 0.00, -0.00, -1.00, 631.4, 33.0)">.</text><text xml:space="preserve" font-family="Helvetica-Light" font-size="36.0" fill="#000000" transform="matrix(1.00, 0.00, -0.00, -1.00, 641.4, 33.0)">o</text><text xml:space="preserve" font-family="Helvetica-Light" font-size="36.0" fill="#000000" transform="matrix(1.00, 0.00, -0.00, -1.00, 661.4, 33.0)">r</text><text xml:space="preserve" font-family="Helvetica-Light" font-size="36.0" fill="#000000" transform="matrix(1.00, 0.00, -0.00, -1.00, 673.4, 33.0)">g</text><text xml:space="preserve" font-family="Helvetica-Light" font-size="36.0" fill="#000000" transform="matrix(1.00, 0.00, -0.00, -1.00, 695.4, 33.0)">/</text><image xlink:href="E327CB7FFE981F92DDFCC682A7F576B4.png" width="960.00" height="450.00" transform="matrix(1.01, 0.00, -0.00, -1.01, 27.0, 576.0)"></image></g></svg>