<?xml version="1.0" encoding="UTF-8" standalone="no"?><svg xmlns="http://www.w3.org/2000/svg" xmlns:xlink="http://www.w3.org/1999/xlink" clip-rule="evenodd" stroke-miterlimit="4.00" viewBox="0 0 1024 768"><desc>SVG generated by Keynote</desc><defs></defs><g transform="matrix(1.00, 0.00, -0.00, -1.00, 0.0, 768.0)"><path d="M 0.0 768.0 L 1024.0 768.0 L 1024.0 0.0 L 0.0 0.0 Z M 0.0 768.0 " fill="#F9F4DE"></path><text xml:space="preserve" font-family="Futura-Medium" font-size="55.0" fill="#000000" transform="matrix(1.00, 0.00, -0.00, -1.00, 426.0, 648.0)">M</text><text xml:space="preserve" font-family="Futura-Medium" font-size="55.0" fill="#000000" transform="matrix(1.00, 0.00, -0.00, -1.00, 478.9, 648.0)">y</text><text xml:space="preserve" font-family="Futura-Medium" font-size="55.0" fill="#000000" transform="matrix(1.00, 0.00, -0.00, -1.00, 508.8, 648.0)"> </text><text xml:space="preserve" font-family="Futura-Medium" font-size="55.0" fill="#000000" transform="matrix(1.00, 0.00, -0.00, -1.00, 525.8, 648.0)">p</text><text xml:space="preserve" font-family="Futura-Medium" font-size="55.0" fill="#000000" transform="matrix(1.00, 0.00, -0.00, -1.00, 558.7, 648.0)">a</text><text xml:space="preserve" font-family="Futura-Medium" font-size="55.0" fill="#000000" transform="matrix(1.00, 0.00, -0.00, -1.00, 591.6, 648.0)">t</text><text xml:space="preserve" font-family="Futura-Medium" font-size="55.0" fill="#000000" transform="matrix(1.00, 0.00, -0.00, -1.00, 607.8, 648.0)">h</text><text xml:space="preserve" font-family="Futura-Medium" font-size="55.0" fill="#000000" transform="matrix(1.00, 0.00, -0.00, -1.00, 638.0, 648.0)">:</text><text xml:space="preserve" font-family="Futura-Medium" font-size="55.0" fill="#000000" transform="matrix(1.00, 0.00, -0.00, -1.00, 654.9, 648.0)"> </text><text xml:space="preserve" font-family="Futura-Medium" font-size="35.2" fill="#000000" transform="matrix(1.00, 0.00, -0.00, -1.00, 112.0, 573.1)">•</text><text xml:space="preserve" font-family="Futura-Medium" font-size="47.0" fill="#000000" transform="matrix(1.00, 0.00, -0.00, -1.00, 165.0, 569.0)">W</text><text xml:space="preserve" font-family="Futura-Medium" font-size="47.0" fill="#000000" transform="matrix(1.00, 0.00, -0.00, -1.00, 212.0, 569.0)">a</text><text xml:space="preserve" font-family="Futura-Medium" font-size="47.0" fill="#000000" transform="matrix(1.00, 0.00, -0.00, -1.00, 240.2, 569.0)">k</text><text xml:space="preserve" font-family="Futura-Medium" font-size="47.0" fill="#000000" transform="matrix(1.00, 0.00, -0.00, -1.00, 262.8, 569.0)">a</text><text xml:space="preserve" font-family="Futura-Medium" font-size="47.0" fill="#000000" transform="matrix(1.00, 0.00, -0.00, -1.00, 291.0, 569.0)">n</text><text xml:space="preserve" font-family="Futura-Medium" font-size="47.0" fill="#000000" transform="matrix(1.00, 0.00, -0.00, -1.00, 316.8, 569.0)">d</text><text xml:space="preserve" font-family="Futura-Medium" font-size="47.0" fill="#000000" transform="matrix(1.00, 0.00, -0.00, -1.00, 344.9, 569.0)">a</text><text xml:space="preserve" font-family="Futura-Medium" font-size="47.0" fill="#000000" transform="matrix(1.00, 0.00, -0.00, -1.00, 373.1, 569.0)"> </text><text xml:space="preserve" font-family="Futura-Medium" font-size="47.0" fill="#000000" transform="matrix(1.00, 0.00, -0.00, -1.00, 387.6, 569.0)">“</text><text xml:space="preserve" font-family="Futura-Medium" font-size="47.0" fill="#000000" transform="matrix(1.00, 0.00, -0.00, -1.00, 412.1, 569.0)">e</text><text xml:space="preserve" font-family="Futura-Medium" font-size="47.0" fill="#000000" transform="matrix(1.00, 0.00, -0.00, -1.00, 438.1, 569.0)">a</text><text xml:space="preserve" font-family="Futura-Medium" font-size="47.0" fill="#000000" transform="matrix(1.00, 0.00, -0.00, -1.00, 466.3, 569.0)">s</text><text xml:space="preserve" font-family="Futura-Medium" font-size="47.0" fill="#000000" transform="matrix(1.00, 0.00, -0.00, -1.00, 485.3, 569.0)">y</text><text xml:space="preserve" font-family="Futura-Medium" font-size="47.0" fill="#000000" transform="matrix(1.00, 0.00, -0.00, -1.00, 510.9, 569.0)">”</text><text xml:space="preserve" font-family="Futura-Medium" font-size="47.0" fill="#000000" transform="matrix(1.00, 0.00, -0.00, -1.00, 535.4, 569.0)"> </text><text xml:space="preserve" font-family="Futura-Medium" font-size="47.0" fill="#000000" transform="matrix(1.00, 0.00, -0.00, -1.00, 549.9, 569.0)">J</text><text xml:space="preserve" font-family="Futura-Medium" font-size="47.0" fill="#000000" transform="matrix(1.00, 0.00, -0.00, -1.00, 569.2, 569.0)">a</text><text xml:space="preserve" font-family="Futura-Medium" font-size="47.0" fill="#000000" transform="matrix(1.00, 0.00, -0.00, -1.00, 597.8, 569.0)">v</text><text xml:space="preserve" font-family="Futura-Medium" font-size="47.0" fill="#000000" transform="matrix(1.00, 0.00, -0.00, -1.00, 620.6, 569.0)">a</text><text xml:space="preserve" font-family="Futura-Medium" font-size="47.0" fill="#000000" transform="matrix(1.00, 0.00, -0.00, -1.00, 648.8, 569.0)">S</text><text xml:space="preserve" font-family="Futura-Medium" font-size="47.0" fill="#000000" transform="matrix(1.00, 0.00, -0.00, -1.00, 676.2, 569.0)">c</text><text xml:space="preserve" font-family="Futura-Medium" font-size="47.0" fill="#000000" transform="matrix(1.00, 0.00, -0.00, -1.00, 698.6, 569.0)">r</text><text xml:space="preserve" font-family="Futura-Medium" font-size="47.0" fill="#000000" transform="matrix(1.00, 0.00, -0.00, -1.00, 716.9, 569.0)">i</text><text xml:space="preserve" font-family="Futura-Medium" font-size="47.0" fill="#000000" transform="matrix(1.00, 0.00, -0.00, -1.00, 728.6, 569.0)">p</text><text xml:space="preserve" font-family="Futura-Medium" font-size="47.0" fill="#000000" transform="matrix(1.00, 0.00, -0.00, -1.00, 757.1, 569.0)">t</text><text xml:space="preserve" font-family="Futura-Medium" font-size="47.0" fill="#000000" transform="matrix(1.00, 0.00, -0.00, -1.00, 770.0, 569.0)"> </text><text xml:space="preserve" font-family="Futura-Medium" font-size="35.2" fill="#000000" transform="matrix(1.00, 0.00, -0.00, -1.00, 112.0, 511.1)">•</text><text xml:space="preserve" font-family="Futura-Medium" font-size="47.0" fill="#000000" transform="matrix(1.00, 0.00, -0.00, -1.00, 165.0, 507.0)">W</text><text xml:space="preserve" font-family="Futura-Medium" font-size="47.0" fill="#000000" transform="matrix(1.00, 0.00, -0.00, -1.00, 212.1, 507.0)">e</text><text xml:space="preserve" font-family="Futura-Medium" font-size="47.0" fill="#000000" transform="matrix(1.00, 0.00, -0.00, -1.00, 238.1, 507.0)">b</text><text xml:space="preserve" font-family="Futura-Medium" font-size="47.0" fill="#000000" transform="matrix(1.00, 0.00, -0.00, -1.00, 266.3, 507.0)">2</text><text xml:space="preserve" font-family="Futura-Medium" font-size="47.0" fill="#000000" transform="matrix(1.00, 0.00, -0.00, -1.00, 295.3, 507.0)">p</text><text xml:space="preserve" font-family="Futura-Medium" font-size="47.0" fill="#000000" transform="matrix(1.00, 0.00, -0.00, -1.00, 322.5, 507.0)">y</text><text xml:space="preserve" font-family="Futura-Medium" font-size="47.0" fill="#000000" transform="matrix(1.00, 0.00, -0.00, -1.00, 348.0, 507.0)"> </text><text xml:space="preserve" font-family="Futura-Medium" font-size="47.0" fill="#000000" transform="matrix(1.00, 0.00, -0.00, -1.00, 362.5, 507.0)">“</text><text xml:space="preserve" font-family="Futura-Medium" font-size="47.0" fill="#000000" transform="matrix(1.00, 0.00, -0.00, -1.00, 387.0, 507.0)">e</text><text xml:space="preserve" font-family="Futura-Medium" font-size="47.0" fill="#000000" transform="matrix(1.00, 0.00, -0.00, -1.00, 413.1, 507.0)">a</text><text xml:space="preserve" font-family="Futura-Medium" font-size="47.0" fill="#000000" transform="matrix(1.00, 0.00, -0.00, -1.00, 441.2, 507.0)">s</text><text xml:space="preserve" font-family="Futura-Medium" font-size="47.0" fill="#000000" transform="matrix(1.00, 0.00, -0.00, -1.00, 460.3, 507.0)">y</text><text xml:space="preserve" font-family="Futura-Medium" font-size="47.0" fill="#000000" transform="matrix(1.00, 0.00, -0.00, -1.00, 485.8, 507.0)">”</text><text xml:space="preserve" font-family="Futura-Medium" font-size="47.0" fill="#000000" transform="matrix(1.00, 0.00, -0.00, -1.00, 510.4, 507.0)"> </text><text xml:space="preserve" font-family="Futura-Medium" font-size="47.0" fill="#000000" transform="matrix(1.00, 0.00, -0.00, -1.00, 524.9, 507.0)">P</text><text xml:space="preserve" font-family="Futura-Medium" font-size="47.0" fill="#000000" transform="matrix(1.00, 0.00, -0.00, -1.00, 550.2, 507.0)">y</text><text xml:space="preserve" font-family="Futura-Medium" font-size="47.0" fill="#000000" transform="matrix(1.00, 0.00, -0.00, -1.00, 575.8, 507.0)">t</text><text xml:space="preserve" font-family="Futura-Medium" font-size="47.0" fill="#000000" transform="matrix(1.00, 0.00, -0.00, -1.00, 589.6, 507.0)">h</text><text xml:space="preserve" font-family="Futura-Medium" font-size="47.0" fill="#000000" transform="matrix(1.00, 0.00, -0.00, -1.00, 615.4, 507.0)">o</text><text xml:space="preserve" font-family="Futura-Medium" font-size="47.0" fill="#000000" transform="matrix(1.00, 0.00, -0.00, -1.00, 643.7, 507.0)">n</text><text xml:space="preserve" font-family="Futura-Medium" font-size="47.0" fill="#000000" transform="matrix(1.00, 0.00, -0.00, -1.00, 669.5, 507.0)"> </text><text xml:space="preserve" font-family="Futura-Medium" font-size="35.2" fill="#000000" transform="matrix(1.00, 0.00, -0.00, -1.00, 112.0, 449.1)">•</text><text xml:space="preserve" font-family="Futura-Medium" font-size="47.0" fill="#000000" transform="matrix(1.00, 0.00, -0.00, -1.00, 165.0, 445.0)">O</text><text xml:space="preserve" font-family="Futura-Medium" font-size="47.0" fill="#000000" transform="matrix(1.00, 0.00, -0.00, -1.00, 207.0, 445.0)">O</text><text xml:space="preserve" font-family="Futura-Medium" font-size="47.0" fill="#000000" transform="matrix(1.00, 0.00, -0.00, -1.00, 249.0, 445.0)"> </text><text xml:space="preserve" font-family="Futura-Medium" font-size="47.0" fill="#000000" transform="matrix(1.00, 0.00, -0.00, -1.00, 263.4, 445.0)">M</text><text xml:space="preserve" font-family="Futura-Medium" font-size="47.0" fill="#000000" transform="matrix(1.00, 0.00, -0.00, -1.00, 308.7, 445.0)">V</text><text xml:space="preserve" font-family="Futura-Medium" font-size="47.0" fill="#000000" transform="matrix(1.00, 0.00, -0.00, -1.00, 338.8, 445.0)">C</text><text xml:space="preserve" font-family="Futura-Medium" font-size="47.0" fill="#000000" transform="matrix(1.00, 0.00, -0.00, -1.00, 371.7, 445.0)">*</text><text xml:space="preserve" font-family="Futura-Medium" font-size="47.0" fill="#000000" transform="matrix(1.00, 0.00, -0.00, -1.00, 400.8, 445.0)"> </text><text xml:space="preserve" font-family="Futura-Medium" font-size="47.0" fill="#000000" transform="matrix(1.00, 0.00, -0.00, -1.00, 415.3, 445.0)">O</text><text xml:space="preserve" font-family="Futura-Medium" font-size="47.0" fill="#000000" transform="matrix(1.00, 0.00, -0.00, -1.00, 457.2, 445.0)">R</text><text xml:space="preserve" font-family="Futura-Medium" font-size="47.0" fill="#000000" transform="matrix(1.00, 0.00, -0.00, -1.00, 485.6, 445.0)">M</text><text xml:space="preserve" font-family="Futura-Medium" font-size="47.0" fill="#000000" transform="matrix(1.00, 0.00, -0.00, -1.00, 530.8, 445.0)"> </text><text xml:space="preserve" font-family="Futura-Medium" font-size="35.2" fill="#000000" transform="matrix(1.00, 0.00, -0.00, -1.00, 112.0, 387.1)">•</text><text xml:space="preserve" font-family="Futura-Medium" font-size="47.0" fill="#000000" transform="matrix(1.00, 0.00, -0.00, -1.00, 165.0, 383.0)">T</text><text xml:space="preserve" font-family="Futura-Medium" font-size="47.0" fill="#000000" transform="matrix(1.00, 0.00, -0.00, -1.00, 187.7, 383.0)">h</text><text xml:space="preserve" font-family="Futura-Medium" font-size="47.0" fill="#000000" transform="matrix(1.00, 0.00, -0.00, -1.00, 213.5, 383.0)">e</text><text xml:space="preserve" font-family="Futura-Medium" font-size="47.0" fill="#000000" transform="matrix(1.00, 0.00, -0.00, -1.00, 239.5, 383.0)"> </text><text xml:space="preserve" font-family="Futura-Medium" font-size="47.0" fill="#000000" transform="matrix(1.00, 0.00, -0.00, -1.00, 254.0, 383.0)">D</text><text xml:space="preserve" font-family="Futura-Medium" font-size="47.0" fill="#000000" transform="matrix(1.00, 0.00, -0.00, -1.00, 288.1, 383.0)">e</text><text xml:space="preserve" font-family="Futura-Medium" font-size="47.0" fill="#000000" transform="matrix(1.00, 0.00, -0.00, -1.00, 314.1, 383.0)">s</text><text xml:space="preserve" font-family="Futura-Medium" font-size="47.0" fill="#000000" transform="matrix(1.00, 0.00, -0.00, -1.00, 333.2, 383.0)">e</text><text xml:space="preserve" font-family="Futura-Medium" font-size="47.0" fill="#000000" transform="matrix(1.00, 0.00, -0.00, -1.00, 359.2, 383.0)">r</text><text xml:space="preserve" font-family="Futura-Medium" font-size="47.0" fill="#000000" transform="matrix(1.00, 0.00, -0.00, -1.00, 378.5, 383.0)">t</text><text xml:space="preserve" font-family="Futura-Medium" font-size="47.0" fill="#000000" transform="matrix(1.00, 0.00, -0.00, -1.00, 391.3, 383.0)"> </text><text xml:space="preserve" font-family="Futura-Medium" font-size="47.0" fill="#000000" transform="matrix(1.00, 0.00, -0.00, -1.00, 405.8, 383.0)">o</text><text xml:space="preserve" font-family="Futura-Medium" font-size="47.0" fill="#000000" transform="matrix(1.00, 0.00, -0.00, -1.00, 434.1, 383.0)">f</text><text xml:space="preserve" font-family="Futura-Medium" font-size="47.0" fill="#000000" transform="matrix(1.00, 0.00, -0.00, -1.00, 448.0, 383.0)"> </text><text xml:space="preserve" font-family="Futura-Medium" font-size="47.0" fill="#000000" transform="matrix(1.00, 0.00, -0.00, -1.00, 462.5, 383.0)">D</text><text xml:space="preserve" font-family="Futura-Medium" font-size="47.0" fill="#000000" transform="matrix(1.00, 0.00, -0.00, -1.00, 496.6, 383.0)">e</text><text xml:space="preserve" font-family="Futura-Medium" font-size="47.0" fill="#000000" transform="matrix(1.00, 0.00, -0.00, -1.00, 522.7, 383.0)">s</text><text xml:space="preserve" font-family="Futura-Medium" font-size="47.0" fill="#000000" transform="matrix(1.00, 0.00, -0.00, -1.00, 541.7, 383.0)">p</text><text xml:space="preserve" font-family="Futura-Medium" font-size="47.0" fill="#000000" transform="matrix(1.00, 0.00, -0.00, -1.00, 569.9, 383.0)">a</text><text xml:space="preserve" font-family="Futura-Medium" font-size="47.0" fill="#000000" transform="matrix(1.00, 0.00, -0.00, -1.00, 598.0, 383.0)">i</text><text xml:space="preserve" font-family="Futura-Medium" font-size="47.0" fill="#000000" transform="matrix(1.00, 0.00, -0.00, -1.00, 609.7, 383.0)">r</text><text xml:space="preserve" font-family="Futura-Medium" font-size="47.0" fill="#000000" transform="matrix(1.00, 0.00, -0.00, -1.00, 627.3, 383.0)"> </text><text xml:space="preserve" font-family="Futura-Medium" font-size="35.2" fill="#000000" transform="matrix(1.00, 0.00, -0.00, -1.00, 112.0, 325.1)">•</text><text xml:space="preserve" font-family="Futura-Medium" font-size="47.0" fill="#000000" transform="matrix(1.00, 0.00, -0.00, -1.00, 165.0, 321.0)">D</text><text xml:space="preserve" font-family="Futura-Medium" font-size="47.0" fill="#000000" transform="matrix(1.00, 0.00, -0.00, -1.00, 199.1, 321.0)">a</text><text xml:space="preserve" font-family="Futura-Medium" font-size="47.0" fill="#000000" transform="matrix(1.00, 0.00, -0.00, -1.00, 227.3, 321.0)">t</text><text xml:space="preserve" font-family="Futura-Medium" font-size="47.0" fill="#000000" transform="matrix(1.00, 0.00, -0.00, -1.00, 240.5, 321.0)">o</text><text xml:space="preserve" font-family="Futura-Medium" font-size="47.0" fill="#000000" transform="matrix(1.00, 0.00, -0.00, -1.00, 268.7, 321.0)">m</text><text xml:space="preserve" font-family="Futura-Medium" font-size="47.0" fill="#000000" transform="matrix(1.00, 0.00, -0.00, -1.00, 305.9, 321.0)">i</text><text xml:space="preserve" font-family="Futura-Medium" font-size="47.0" fill="#000000" transform="matrix(1.00, 0.00, -0.00, -1.00, 317.6, 321.0)">c</text><text xml:space="preserve" font-family="Futura-Medium" font-size="47.0" fill="#000000" transform="matrix(1.00, 0.00, -0.00, -1.00, 340.0, 321.0)"> </text><text xml:space="preserve" font-family="Futura-Medium" font-size="35.2" fill="#000000" transform="matrix(1.00, 0.00, -0.00, -1.00, 112.0, 263.1)">•</text><text xml:space="preserve" font-family="Futura-Medium" font-size="47.0" fill="#000000" transform="matrix(1.00, 0.00, -0.00, -1.00, 165.0, 259.0)">S</text><text xml:space="preserve" font-family="Futura-Medium" font-size="47.0" fill="#000000" transform="matrix(1.00, 0.00, -0.00, -1.00, 192.4, 259.0)">i</text><text xml:space="preserve" font-family="Futura-Medium" font-size="47.0" fill="#000000" transform="matrix(1.00, 0.00, -0.00, -1.00, 204.1, 259.0)">m</text><text xml:space="preserve" font-family="Futura-Medium" font-size="47.0" fill="#000000" transform="matrix(1.00, 0.00, -0.00, -1.00, 241.9, 259.0)">p</text><text xml:space="preserve" font-family="Futura-Medium" font-size="47.0" fill="#000000" transform="matrix(1.00, 0.00, -0.00, -1.00, 270.0, 259.0)">l</text><text xml:space="preserve" font-family="Futura-Medium" font-size="47.0" fill="#000000" transform="matrix(1.00, 0.00, -0.00, -1.00, 281.7, 259.0)">e</text><text xml:space="preserve" font-family="Futura-Medium" font-size="47.0" fill="#000000" transform="matrix(1.00, 0.00, -0.00, -1.00, 307.7, 259.0)"> </text><text xml:space="preserve" font-family="Futura-Medium" font-size="47.0" fill="#000000" transform="matrix(1.00, 0.00, -0.00, -1.00, 322.2, 259.0)">M</text><text xml:space="preserve" font-family="Futura-Medium" font-size="47.0" fill="#000000" transform="matrix(1.00, 0.00, -0.00, -1.00, 367.4, 259.0)">a</text><text xml:space="preserve" font-family="Futura-Medium" font-size="47.0" fill="#000000" transform="matrix(1.00, 0.00, -0.00, -1.00, 395.6, 259.0)">d</text><text xml:space="preserve" font-family="Futura-Medium" font-size="47.0" fill="#000000" transform="matrix(1.00, 0.00, -0.00, -1.00, 423.8, 259.0)">e</text><text xml:space="preserve" font-family="Futura-Medium" font-size="47.0" fill="#000000" transform="matrix(1.00, 0.00, -0.00, -1.00, 449.8, 259.0)"> </text><text xml:space="preserve" font-family="Futura-Medium" font-size="47.0" fill="#000000" transform="matrix(1.00, 0.00, -0.00, -1.00, 464.2, 259.0)">E</text><text xml:space="preserve" font-family="Futura-Medium" font-size="47.0" fill="#000000" transform="matrix(1.00, 0.00, -0.00, -1.00, 490.8, 259.0)">a</text><text xml:space="preserve" font-family="Futura-Medium" font-size="47.0" fill="#000000" transform="matrix(1.00, 0.00, -0.00, -1.00, 519.0, 259.0)">s</text><text xml:space="preserve" font-family="Futura-Medium" font-size="47.0" fill="#000000" transform="matrix(1.00, 0.00, -0.00, -1.00, 538.1, 259.0)">y</text><text xml:space="preserve" font-family="Futura-Medium" font-size="47.0" fill="#000000" transform="matrix(1.00, 0.00, -0.00, -1.00, 563.6, 259.0)"> </text><text xml:space="preserve" font-family="Futura-Medium" font-size="35.2" fill="#000000" transform="matrix(1.00, 0.00, -0.00, -1.00, 112.0, 201.1)">•</text><text xml:space="preserve" font-family="Futura-Medium" font-size="47.0" fill="#000000" transform="matrix(1.00, 0.00, -0.00, -1.00, 165.0, 197.0)">C</text><text xml:space="preserve" font-family="Futura-Medium" font-size="47.0" fill="#000000" transform="matrix(1.00, 0.00, -0.00, -1.00, 197.9, 197.0)">l</text><text xml:space="preserve" font-family="Futura-Medium" font-size="47.0" fill="#000000" transform="matrix(1.00, 0.00, -0.00, -1.00, 209.6, 197.0)">o</text><text xml:space="preserve" font-family="Futura-Medium" font-size="47.0" fill="#000000" transform="matrix(1.00, 0.00, -0.00, -1.00, 237.9, 197.0)">j</text><text xml:space="preserve" font-family="Futura-Medium" font-size="47.0" fill="#000000" transform="matrix(1.00, 0.00, -0.00, -1.00, 249.6, 197.0)">u</text><text xml:space="preserve" font-family="Futura-Medium" font-size="47.0" fill="#000000" transform="matrix(1.00, 0.00, -0.00, -1.00, 275.2, 197.0)">r</text><text xml:space="preserve" font-family="Futura-Medium" font-size="47.0" fill="#000000" transform="matrix(1.00, 0.00, -0.00, -1.00, 292.4, 197.0)">e</text><text xml:space="preserve" font-family="Futura-Medium" font-size="47.0" fill="#000000" transform="matrix(1.00, 0.00, -0.00, -1.00, 318.5, 197.0)">,</text><text xml:space="preserve" font-family="Futura-Medium" font-size="47.0" fill="#000000" transform="matrix(1.00, 0.00, -0.00, -1.00, 332.9, 197.0)"> </text><text xml:space="preserve" font-family="Futura-Medium" font-size="47.0" fill="#000000" transform="matrix(1.00, 0.00, -0.00, -1.00, 347.4, 197.0)">C</text><text xml:space="preserve" font-family="Futura-Medium" font-size="47.0" fill="#000000" transform="matrix(1.00, 0.00, -0.00, -1.00, 380.3, 197.0)">l</text><text xml:space="preserve" font-family="Futura-Medium" font-size="47.0" fill="#000000" transform="matrix(1.00, 0.00, -0.00, -1.00, 392.1, 197.0)">o</text><text xml:space="preserve" font-family="Futura-Medium" font-size="47.0" fill="#000000" transform="matrix(1.00, 0.00, -0.00, -1.00, 420.3, 197.0)">j</text><text xml:space="preserve" font-family="Futura-Medium" font-size="47.0" fill="#000000" transform="matrix(1.00, 0.00, -0.00, -1.00, 432.0, 197.0)">u</text><text xml:space="preserve" font-family="Futura-Medium" font-size="47.0" fill="#000000" transform="matrix(1.00, 0.00, -0.00, -1.00, 457.6, 197.0)">r</text><text xml:space="preserve" font-family="Futura-Medium" font-size="47.0" fill="#000000" transform="matrix(1.00, 0.00, -0.00, -1.00, 474.9, 197.0)">e</text><text xml:space="preserve" font-family="Futura-Medium" font-size="47.0" fill="#000000" transform="matrix(1.00, 0.00, -0.00, -1.00, 500.9, 197.0)">S</text><text xml:space="preserve" font-family="Futura-Medium" font-size="47.0" fill="#000000" transform="matrix(1.00, 0.00, -0.00, -1.00, 528.3, 197.0)">c</text><text xml:space="preserve" font-family="Futura-Medium" font-size="47.0" fill="#000000" transform="matrix(1.00, 0.00, -0.00, -1.00, 550.7, 197.0)">r</text><text xml:space="preserve" font-family="Futura-Medium" font-size="47.0" fill="#000000" transform="matrix(1.00, 0.00, -0.00, -1.00, 569.0, 197.0)">i</text><text xml:space="preserve" font-family="Futura-Medium" font-size="47.0" fill="#000000" transform="matrix(1.00, 0.00, -0.00, -1.00, 580.7, 197.0)">p</text><text xml:space="preserve" font-family="Futura-Medium" font-size="47.0" fill="#000000" transform="matrix(1.00, 0.00, -0.00, -1.00, 609.2, 197.0)">t</text><text xml:space="preserve" font-family="Futura-Medium" font-size="47.0" fill="#000000" transform="matrix(1.00, 0.00, -0.00, -1.00, 622.1, 197.0)">,</text><text xml:space="preserve" font-family="Futura-Medium" font-size="47.0" fill="#000000" transform="matrix(1.00, 0.00, -0.00, -1.00, 636.6, 197.0)"> </text><text xml:space="preserve" font-family="Futura-Medium" font-size="47.0" fill="#000000" transform="matrix(1.00, 0.00, -0.00, -1.00, 651.1, 197.0)">A</text><text xml:space="preserve" font-family="Futura-Medium" font-size="47.0" fill="#000000" transform="matrix(1.00, 0.00, -0.00, -1.00, 685.9, 197.0)">r</text><text xml:space="preserve" font-family="Futura-Medium" font-size="47.0" fill="#000000" transform="matrix(1.00, 0.00, -0.00, -1.00, 703.1, 197.0)">a</text><text xml:space="preserve" font-family="Futura-Medium" font-size="47.0" fill="#000000" transform="matrix(1.00, 0.00, -0.00, -1.00, 731.3, 197.0)">c</text><text xml:space="preserve" font-family="Futura-Medium" font-size="47.0" fill="#000000" transform="matrix(1.00, 0.00, -0.00, -1.00, 754.9, 197.0)">h</text><text xml:space="preserve" font-family="Futura-Medium" font-size="47.0" fill="#000000" transform="matrix(1.00, 0.00, -0.00, -1.00, 780.7, 197.0)">n</text><text xml:space="preserve" font-family="Futura-Medium" font-size="47.0" fill="#000000" transform="matrix(1.00, 0.00, -0.00, -1.00, 806.5, 197.0)">e</text><text xml:space="preserve" font-family="Futura-Medium" font-size="47.0" fill="#000000" transform="matrix(1.00, 0.00, -0.00, -1.00, 832.5, 197.0)"> </text><text xml:space="preserve" font-family="Futura-Medium" font-size="35.2" fill="#000000" transform="matrix(1.00, 0.00, -0.00, -1.00, 112.0, 139.1)">•</text><text xml:space="preserve" font-family="Futura-Medium" font-size="47.0" fill="#000000" transform="matrix(1.00, 0.00, -0.00, -1.00, 165.0, 135.0)">H</text><text xml:space="preserve" font-family="Futura-Medium" font-size="47.0" fill="#000000" transform="matrix(1.00, 0.00, -0.00, -1.00, 199.5, 135.0)">o</text><text xml:space="preserve" font-family="Futura-Medium" font-size="47.0" fill="#000000" transform="matrix(1.00, 0.00, -0.00, -1.00, 226.9, 135.0)">w</text><text xml:space="preserve" font-family="Futura-Medium" font-size="47.0" fill="#000000" transform="matrix(1.00, 0.00, -0.00, -1.00, 263.2, 135.0)"> </text><text xml:space="preserve" font-family="Futura-Medium" font-size="47.0" fill="#000000" transform="matrix(1.00, 0.00, -0.00, -1.00, 277.7, 135.0)">t</text><text xml:space="preserve" font-family="Futura-Medium" font-size="47.0" fill="#000000" transform="matrix(1.00, 0.00, -0.00, -1.00, 290.9, 135.0)">o</text><text xml:space="preserve" font-family="Futura-Medium" font-size="47.0" fill="#000000" transform="matrix(1.00, 0.00, -0.00, -1.00, 319.2, 135.0)"> </text><text xml:space="preserve" font-family="Futura-Medium" font-size="47.0" fill="#000000" transform="matrix(1.00, 0.00, -0.00, -1.00, 333.6, 135.0)">C</text><text xml:space="preserve" font-family="Futura-Medium" font-size="47.0" fill="#000000" transform="matrix(1.00, 0.00, -0.00, -1.00, 366.5, 135.0)">o</text><text xml:space="preserve" font-family="Futura-Medium" font-size="47.0" fill="#000000" transform="matrix(1.00, 0.00, -0.00, -1.00, 394.8, 135.0)">d</text><text xml:space="preserve" font-family="Futura-Medium" font-size="47.0" fill="#000000" transform="matrix(1.00, 0.00, -0.00, -1.00, 423.0, 135.0)">e</text><text xml:space="preserve" font-family="Futura-Medium" font-size="47.0" fill="#000000" transform="matrix(1.00, 0.00, -0.00, -1.00, 449.0, 135.0)"> </text><text xml:space="preserve" font-family="Futura-Medium" font-size="47.0" fill="#000000" transform="matrix(1.00, 0.00, -0.00, -1.00, 463.5, 135.0)"> </text><text xml:space="preserve" font-family="Futura-Medium" font-size="35.2" fill="#000000" transform="matrix(1.00, 0.00, -0.00, -1.00, 112.0, 77.1)">•</text><text xml:space="preserve" font-family="Futura-Medium" font-size="47.0" fill="#000000" transform="matrix(1.00, 0.00, -0.00, -1.00, 165.0, 73.0)">B</text><text xml:space="preserve" font-family="Futura-Medium" font-size="47.0" fill="#000000" transform="matrix(1.00, 0.00, -0.00, -1.00, 192.8, 73.0)">u</text><text xml:space="preserve" font-family="Futura-Medium" font-size="47.0" fill="#000000" transform="matrix(1.00, 0.00, -0.00, -1.00, 218.4, 73.0)">i</text><text xml:space="preserve" font-family="Futura-Medium" font-size="47.0" fill="#000000" transform="matrix(1.00, 0.00, -0.00, -1.00, 230.1, 73.0)">l</text><text xml:space="preserve" font-family="Futura-Medium" font-size="47.0" fill="#000000" transform="matrix(1.00, 0.00, -0.00, -1.00, 241.8, 73.0)">d</text><text xml:space="preserve" font-family="Futura-Medium" font-size="47.0" fill="#000000" transform="matrix(1.00, 0.00, -0.00, -1.00, 270.0, 73.0)"> </text><text xml:space="preserve" font-family="Futura-Medium" font-size="47.0" fill="#000000" transform="matrix(1.00, 0.00, -0.00, -1.00, 284.5, 73.0)">a</text><text xml:space="preserve" font-family="Futura-Medium" font-size="47.0" fill="#000000" transform="matrix(1.00, 0.00, -0.00, -1.00, 312.6, 73.0)"> </text><text xml:space="preserve" font-family="Futura-Medium" font-size="47.0" fill="#000000" transform="matrix(1.00, 0.00, -0.00, -1.00, 327.1, 73.0)">C</text><text xml:space="preserve" font-family="Futura-Medium" font-size="47.0" fill="#000000" transform="matrix(1.00, 0.00, -0.00, -1.00, 360.0, 73.0)">o</text><text xml:space="preserve" font-family="Futura-Medium" font-size="47.0" fill="#000000" transform="matrix(1.00, 0.00, -0.00, -1.00, 388.3, 73.0)">m</text><text xml:space="preserve" font-family="Futura-Medium" font-size="47.0" fill="#000000" transform="matrix(1.00, 0.00, -0.00, -1.00, 426.0, 73.0)">p</text><text xml:space="preserve" font-family="Futura-Medium" font-size="47.0" fill="#000000" transform="matrix(1.00, 0.00, -0.00, -1.00, 454.2, 73.0)">u</text><text xml:space="preserve" font-family="Futura-Medium" font-size="47.0" fill="#000000" transform="matrix(1.00, 0.00, -0.00, -1.00, 479.8, 73.0)">t</text><text xml:space="preserve" font-family="Futura-Medium" font-size="47.0" fill="#000000" transform="matrix(1.00, 0.00, -0.00, -1.00, 493.1, 73.0)">e</text><text xml:space="preserve" font-family="Futura-Medium" font-size="47.0" fill="#000000" transform="matrix(1.00, 0.00, -0.00, -1.00, 519.1, 73.0)">r</text></g></svg>