<?xml version="1.0" encoding="UTF-8" standalone="no"?><svg xmlns="http://www.w3.org/2000/svg" xmlns:xlink="http://www.w3.org/1999/xlink" clip-rule="evenodd" stroke-miterlimit="4.00" viewBox="0 0 1024 768"><desc>SVG generated by Keynote</desc><defs></defs><g transform="matrix(1.00, 0.00, -0.00, -1.00, 0.0, 768.0)"><path d="M 0.0 768.0 L 1024.0 768.0 L 1024.0 0.0 L 0.0 0.0 Z M 0.0 768.0 " fill="#F9F4DE"></path><text xml:space="preserve" font-family="Futura-Medium" font-size="42.4" fill="#000000" transform="matrix(1.00, 0.00, -0.00, -1.00, 184.0, 557.0)"> </text><text xml:space="preserve" font-family="Futura-Medium" font-size="42.4" fill="#000000" transform="matrix(1.00, 0.00, -0.00, -1.00, 197.1, 557.0)">C</text><text xml:space="preserve" font-family="Futura-Medium" font-size="42.4" fill="#000000" transform="matrix(1.00, 0.00, -0.00, -1.00, 226.7, 557.0)">l</text><text xml:space="preserve" font-family="Futura-Medium" font-size="42.4" fill="#000000" transform="matrix(1.00, 0.00, -0.00, -1.00, 237.3, 557.0)">o</text><text xml:space="preserve" font-family="Futura-Medium" font-size="42.4" fill="#000000" transform="matrix(1.00, 0.00, -0.00, -1.00, 262.7, 557.0)">j</text><text xml:space="preserve" font-family="Futura-Medium" font-size="42.4" fill="#000000" transform="matrix(1.00, 0.00, -0.00, -1.00, 273.3, 557.0)">u</text><text xml:space="preserve" font-family="Futura-Medium" font-size="42.4" fill="#000000" transform="matrix(1.00, 0.00, -0.00, -1.00, 296.3, 557.0)">r</text><text xml:space="preserve" font-family="Futura-Medium" font-size="42.4" fill="#000000" transform="matrix(1.00, 0.00, -0.00, -1.00, 311.9, 557.0)">e</text><text xml:space="preserve" font-family="Futura-Medium" font-size="42.4" fill="#000000" transform="matrix(1.00, 0.00, -0.00, -1.00, 335.3, 557.0)"> </text><text xml:space="preserve" font-family="Futura-Medium" font-size="42.4" fill="#000000" transform="matrix(1.00, 0.00, -0.00, -1.00, 348.4, 557.0)">i</text><text xml:space="preserve" font-family="Futura-Medium" font-size="42.4" fill="#000000" transform="matrix(1.00, 0.00, -0.00, -1.00, 358.9, 557.0)">n</text><text xml:space="preserve" font-family="Futura-Medium" font-size="42.4" fill="#000000" transform="matrix(1.00, 0.00, -0.00, -1.00, 382.2, 557.0)">t</text><text xml:space="preserve" font-family="Futura-Medium" font-size="42.4" fill="#000000" transform="matrix(1.00, 0.00, -0.00, -1.00, 394.1, 557.0)">e</text><text xml:space="preserve" font-family="Futura-Medium" font-size="42.4" fill="#000000" transform="matrix(1.00, 0.00, -0.00, -1.00, 417.6, 557.0)">r</text><text xml:space="preserve" font-family="Futura-Medium" font-size="42.4" fill="#000000" transform="matrix(1.00, 0.00, -0.00, -1.00, 433.0, 557.0)">o</text><text xml:space="preserve" font-family="Futura-Medium" font-size="42.4" fill="#000000" transform="matrix(1.00, 0.00, -0.00, -1.00, 458.5, 557.0)">p</text><text xml:space="preserve" font-family="Futura-Medium" font-size="42.4" fill="#000000" transform="matrix(1.00, 0.00, -0.00, -1.00, 483.9, 557.0)">e</text><text xml:space="preserve" font-family="Futura-Medium" font-size="42.4" fill="#000000" transform="matrix(1.00, 0.00, -0.00, -1.00, 507.3, 557.0)">r</text><text xml:space="preserve" font-family="Futura-Medium" font-size="42.4" fill="#000000" transform="matrix(1.00, 0.00, -0.00, -1.00, 522.9, 557.0)">a</text><text xml:space="preserve" font-family="Futura-Medium" font-size="42.4" fill="#000000" transform="matrix(1.00, 0.00, -0.00, -1.00, 548.2, 557.0)">t</text><text xml:space="preserve" font-family="Futura-Medium" font-size="42.4" fill="#000000" transform="matrix(1.00, 0.00, -0.00, -1.00, 560.2, 557.0)">e</text><text xml:space="preserve" font-family="Futura-Medium" font-size="42.4" fill="#000000" transform="matrix(1.00, 0.00, -0.00, -1.00, 583.6, 557.0)">s</text><text xml:space="preserve" font-family="Futura-Medium" font-size="42.4" fill="#000000" transform="matrix(1.00, 0.00, -0.00, -1.00, 600.8, 557.0)"> </text><text xml:space="preserve" font-family="Futura-Medium" font-size="42.4" fill="#000000" transform="matrix(1.00, 0.00, -0.00, -1.00, 613.9, 557.0)">w</text><text xml:space="preserve" font-family="Futura-Medium" font-size="42.4" fill="#000000" transform="matrix(1.00, 0.00, -0.00, -1.00, 646.6, 557.0)">i</text><text xml:space="preserve" font-family="Futura-Medium" font-size="42.4" fill="#000000" transform="matrix(1.00, 0.00, -0.00, -1.00, 657.2, 557.0)">t</text><text xml:space="preserve" font-family="Futura-Medium" font-size="42.4" fill="#000000" transform="matrix(1.00, 0.00, -0.00, -1.00, 669.6, 557.0)">h</text><text xml:space="preserve" font-family="Futura-Medium" font-size="42.4" fill="#000000" transform="matrix(1.00, 0.00, -0.00, -1.00, 692.9, 557.0)"> </text><text xml:space="preserve" font-family="Futura-Medium" font-size="42.4" fill="#000000" transform="matrix(1.00, 0.00, -0.00, -1.00, 705.9, 557.0)">J</text><text xml:space="preserve" font-family="Futura-Medium" font-size="42.4" fill="#000000" transform="matrix(1.00, 0.00, -0.00, -1.00, 723.3, 557.0)">a</text><text xml:space="preserve" font-family="Futura-Medium" font-size="42.4" fill="#000000" transform="matrix(1.00, 0.00, -0.00, -1.00, 749.1, 557.0)">v</text><text xml:space="preserve" font-family="Futura-Medium" font-size="42.4" fill="#000000" transform="matrix(1.00, 0.00, -0.00, -1.00, 769.6, 557.0)">a</text><text xml:space="preserve" font-family="Futura-Medium" font-size="42.4" fill="#000000" transform="matrix(1.00, 0.00, -0.00, -1.00, 795.0, 557.0)"> </text><text xml:space="preserve" font-family="Futura-Medium" font-size="42.4" fill="#000000" transform="matrix(1.00, 0.00, -0.00, -1.00, 808.1, 557.0)">&amp;</text><text xml:space="preserve" font-family="Futura-Medium" font-size="42.4" fill="#000000" transform="matrix(1.00, 0.00, -0.00, -1.00, 839.0, 557.0)"> </text><text xml:space="preserve" font-family="Futura-Medium" font-size="42.4" fill="#000000" transform="matrix(1.00, 0.00, -0.00, -1.00, 406.0, 501.0)">J</text><text xml:space="preserve" font-family="Futura-Medium" font-size="42.4" fill="#000000" transform="matrix(1.00, 0.00, -0.00, -1.00, 423.4, 501.0)">a</text><text xml:space="preserve" font-family="Futura-Medium" font-size="42.4" fill="#000000" transform="matrix(1.00, 0.00, -0.00, -1.00, 449.1, 501.0)">v</text><text xml:space="preserve" font-family="Futura-Medium" font-size="42.4" fill="#000000" transform="matrix(1.00, 0.00, -0.00, -1.00, 469.7, 501.0)">a</text><text xml:space="preserve" font-family="Futura-Medium" font-size="42.4" fill="#000000" transform="matrix(1.00, 0.00, -0.00, -1.00, 495.1, 501.0)">S</text><text xml:space="preserve" font-family="Futura-Medium" font-size="42.4" fill="#000000" transform="matrix(1.00, 0.00, -0.00, -1.00, 519.8, 501.0)">c</text><text xml:space="preserve" font-family="Futura-Medium" font-size="42.4" fill="#000000" transform="matrix(1.00, 0.00, -0.00, -1.00, 539.9, 501.0)">r</text><text xml:space="preserve" font-family="Futura-Medium" font-size="42.4" fill="#000000" transform="matrix(1.00, 0.00, -0.00, -1.00, 556.4, 501.0)">i</text><text xml:space="preserve" font-family="Futura-Medium" font-size="42.4" fill="#000000" transform="matrix(1.00, 0.00, -0.00, -1.00, 567.0, 501.0)">p</text><text xml:space="preserve" font-family="Futura-Medium" font-size="42.4" fill="#000000" transform="matrix(1.00, 0.00, -0.00, -1.00, 592.7, 501.0)">t</text><text xml:space="preserve" font-family="Futura-Medium" font-size="42.4" fill="#000000" transform="matrix(1.00, 0.00, -0.00, -1.00, 604.3, 501.0)">.</text><text xml:space="preserve" font-family="Futura-Medium" font-size="42.4" fill="#000000" transform="matrix(1.00, 0.00, -0.00, -1.00, 617.4, 501.0)"> </text><text xml:space="preserve" font-family="Futura-Medium" font-size="42.4" fill="#000000" transform="matrix(1.00, 0.00, -0.00, -1.00, 364.0, 389.0)">J</text><text xml:space="preserve" font-family="Futura-Medium" font-size="42.4" fill="#000000" transform="matrix(1.00, 0.00, -0.00, -1.00, 381.4, 389.0)">a</text><text xml:space="preserve" font-family="Futura-Medium" font-size="42.4" fill="#000000" transform="matrix(1.00, 0.00, -0.00, -1.00, 407.1, 389.0)">v</text><text xml:space="preserve" font-family="Futura-Medium" font-size="42.4" fill="#000000" transform="matrix(1.00, 0.00, -0.00, -1.00, 427.7, 389.0)">a</text><text xml:space="preserve" font-family="Futura-Medium" font-size="42.4" fill="#000000" transform="matrix(1.00, 0.00, -0.00, -1.00, 453.1, 389.0)"> </text><text xml:space="preserve" font-family="Futura-Medium" font-size="42.4" fill="#000000" transform="matrix(1.00, 0.00, -0.00, -1.00, 466.1, 389.0)">e</text><text xml:space="preserve" font-family="Futura-Medium" font-size="42.4" fill="#000000" transform="matrix(1.00, 0.00, -0.00, -1.00, 488.8, 389.0)">x</text><text xml:space="preserve" font-family="Futura-Medium" font-size="42.4" fill="#000000" transform="matrix(1.00, 0.00, -0.00, -1.00, 511.7, 389.0)">a</text><text xml:space="preserve" font-family="Futura-Medium" font-size="42.4" fill="#000000" transform="matrix(1.00, 0.00, -0.00, -1.00, 537.1, 389.0)">m</text><text xml:space="preserve" font-family="Futura-Medium" font-size="42.4" fill="#000000" transform="matrix(1.00, 0.00, -0.00, -1.00, 571.1, 389.0)">p</text><text xml:space="preserve" font-family="Futura-Medium" font-size="42.4" fill="#000000" transform="matrix(1.00, 0.00, -0.00, -1.00, 596.4, 389.0)">l</text><text xml:space="preserve" font-family="Futura-Medium" font-size="42.4" fill="#000000" transform="matrix(1.00, 0.00, -0.00, -1.00, 607.0, 389.0)">e</text><text xml:space="preserve" font-family="Futura-Medium" font-size="42.4" fill="#000000" transform="matrix(1.00, 0.00, -0.00, -1.00, 630.4, 389.0)">s</text><text xml:space="preserve" font-family="Futura-Medium" font-size="42.4" fill="#000000" transform="matrix(1.00, 0.00, -0.00, -1.00, 647.6, 389.0)">:</text><text xml:space="preserve" font-family="Futura-Medium" font-size="42.4" fill="#000000" transform="matrix(1.00, 0.00, -0.00, -1.00, 660.7, 389.0)"> </text><text xml:space="preserve" font-family="Courier" font-size="34.6" fill="#000000" transform="matrix(1.00, 0.00, -0.00, -1.00, 104.0, 287.0)">(</text><text xml:space="preserve" font-family="Courier" font-size="34.6" fill="#000000" transform="matrix(1.00, 0.00, -0.00, -1.00, 124.8, 287.0)">.</text><text xml:space="preserve" font-family="Courier" font-size="34.6" fill="#000000" transform="matrix(1.00, 0.00, -0.00, -1.00, 145.6, 287.0)">t</text><text xml:space="preserve" font-family="Courier" font-size="34.6" fill="#000000" transform="matrix(1.00, 0.00, -0.00, -1.00, 166.4, 287.0)">o</text><text xml:space="preserve" font-family="Courier" font-size="34.6" fill="#000000" transform="matrix(1.00, 0.00, -0.00, -1.00, 187.2, 287.0)">U</text><text xml:space="preserve" font-family="Courier" font-size="34.6" fill="#000000" transform="matrix(1.00, 0.00, -0.00, -1.00, 208.0, 287.0)">p</text><text xml:space="preserve" font-family="Courier" font-size="34.6" fill="#000000" transform="matrix(1.00, 0.00, -0.00, -1.00, 228.8, 287.0)">p</text><text xml:space="preserve" font-family="Courier" font-size="34.6" fill="#000000" transform="matrix(1.00, 0.00, -0.00, -1.00, 249.6, 287.0)">e</text><text xml:space="preserve" font-family="Courier" font-size="34.6" fill="#000000" transform="matrix(1.00, 0.00, -0.00, -1.00, 270.4, 287.0)">r</text><text xml:space="preserve" font-family="Courier" font-size="34.6" fill="#000000" transform="matrix(1.00, 0.00, -0.00, -1.00, 291.2, 287.0)">C</text><text xml:space="preserve" font-family="Courier" font-size="34.6" fill="#000000" transform="matrix(1.00, 0.00, -0.00, -1.00, 312.0, 287.0)">a</text><text xml:space="preserve" font-family="Courier" font-size="34.6" fill="#000000" transform="matrix(1.00, 0.00, -0.00, -1.00, 332.8, 287.0)">s</text><text xml:space="preserve" font-family="Courier" font-size="34.6" fill="#000000" transform="matrix(1.00, 0.00, -0.00, -1.00, 353.6, 287.0)">e</text><text xml:space="preserve" font-family="Courier" font-size="34.6" fill="#000000" transform="matrix(1.00, 0.00, -0.00, -1.00, 374.4, 287.0)"> </text><text xml:space="preserve" font-family="Courier" font-size="34.6" fill="#000000" transform="matrix(1.00, 0.00, -0.00, -1.00, 395.2, 287.0)">“</text><text xml:space="preserve" font-family="Courier" font-size="34.6" fill="#000000" transform="matrix(1.00, 0.00, -0.00, -1.00, 416.0, 287.0)">a</text><text xml:space="preserve" font-family="Courier" font-size="34.6" fill="#000000" transform="matrix(1.00, 0.00, -0.00, -1.00, 436.7, 287.0)">b</text><text xml:space="preserve" font-family="Courier" font-size="34.6" fill="#000000" transform="matrix(1.00, 0.00, -0.00, -1.00, 457.5, 287.0)">c</text><text xml:space="preserve" font-family="Courier" font-size="34.6" fill="#000000" transform="matrix(1.00, 0.00, -0.00, -1.00, 478.3, 287.0)">”</text><text xml:space="preserve" font-family="Courier" font-size="34.6" fill="#000000" transform="matrix(1.00, 0.00, -0.00, -1.00, 499.1, 287.0)">)</text><text xml:space="preserve" font-family="Courier" font-size="34.6" fill="#000000" transform="matrix(1.00, 0.00, -0.00, -1.00, 519.9, 287.0)"> </text><text xml:space="preserve" font-family="Courier" font-size="34.6" fill="#000000" transform="matrix(1.00, 0.00, -0.00, -1.00, 540.7, 287.0)"> </text><text xml:space="preserve" font-family="Courier" font-size="34.6" fill="#000000" transform="matrix(1.00, 0.00, -0.00, -1.00, 561.5, 287.0)"> </text><text xml:space="preserve" font-family="Courier" font-size="34.6" fill="#000000" transform="matrix(1.00, 0.00, -0.00, -1.00, 582.3, 287.0)">“</text><text xml:space="preserve" font-family="Courier" font-size="34.6" fill="#000000" transform="matrix(1.00, 0.00, -0.00, -1.00, 603.1, 287.0)">A</text><text xml:space="preserve" font-family="Courier" font-size="34.6" fill="#000000" transform="matrix(1.00, 0.00, -0.00, -1.00, 623.9, 287.0)">B</text><text xml:space="preserve" font-family="Courier" font-size="34.6" fill="#000000" transform="matrix(1.00, 0.00, -0.00, -1.00, 644.7, 287.0)">C</text><text xml:space="preserve" font-family="Courier" font-size="34.6" fill="#000000" transform="matrix(1.00, 0.00, -0.00, -1.00, 665.5, 287.0)">”</text><text xml:space="preserve" font-family="Courier" font-size="34.6" fill="#000000" transform="matrix(1.00, 0.00, -0.00, -1.00, 104.0, 203.0)">(</text><text xml:space="preserve" font-family="Courier" font-size="34.6" fill="#000000" transform="matrix(1.00, 0.00, -0.00, -1.00, 124.8, 203.0)">c</text><text xml:space="preserve" font-family="Courier" font-size="34.6" fill="#000000" transform="matrix(1.00, 0.00, -0.00, -1.00, 145.6, 203.0)">l</text><text xml:space="preserve" font-family="Courier" font-size="34.6" fill="#000000" transform="matrix(1.00, 0.00, -0.00, -1.00, 166.4, 203.0)">a</text><text xml:space="preserve" font-family="Courier" font-size="34.6" fill="#000000" transform="matrix(1.00, 0.00, -0.00, -1.00, 187.2, 203.0)">s</text><text xml:space="preserve" font-family="Courier" font-size="34.6" fill="#000000" transform="matrix(1.00, 0.00, -0.00, -1.00, 208.0, 203.0)">s</text><text xml:space="preserve" font-family="Courier" font-size="34.6" fill="#000000" transform="matrix(1.00, 0.00, -0.00, -1.00, 228.8, 203.0)"> </text><text xml:space="preserve" font-family="Courier" font-size="34.6" fill="#000000" transform="matrix(1.00, 0.00, -0.00, -1.00, 249.6, 203.0)">“</text><text xml:space="preserve" font-family="Courier" font-size="34.6" fill="#000000" transform="matrix(1.00, 0.00, -0.00, -1.00, 270.4, 203.0)">a</text><text xml:space="preserve" font-family="Courier" font-size="34.6" fill="#000000" transform="matrix(1.00, 0.00, -0.00, -1.00, 291.2, 203.0)">b</text><text xml:space="preserve" font-family="Courier" font-size="34.6" fill="#000000" transform="matrix(1.00, 0.00, -0.00, -1.00, 312.0, 203.0)">c</text><text xml:space="preserve" font-family="Courier" font-size="34.6" fill="#000000" transform="matrix(1.00, 0.00, -0.00, -1.00, 332.8, 203.0)">”</text><text xml:space="preserve" font-family="Courier" font-size="34.6" fill="#000000" transform="matrix(1.00, 0.00, -0.00, -1.00, 353.6, 203.0)">)</text><text xml:space="preserve" font-family="Courier" font-size="34.6" fill="#000000" transform="matrix(1.00, 0.00, -0.00, -1.00, 374.3, 203.0)"> </text><text xml:space="preserve" font-family="Courier" font-size="34.6" fill="#000000" transform="matrix(1.00, 0.00, -0.00, -1.00, 395.1, 203.0)"> </text><text xml:space="preserve" font-family="Courier" font-size="34.6" fill="#000000" transform="matrix(1.00, 0.00, -0.00, -1.00, 415.9, 203.0)"> </text><text xml:space="preserve" font-family="Courier" font-size="34.6" fill="#000000" transform="matrix(1.00, 0.00, -0.00, -1.00, 436.7, 203.0)"> </text><text xml:space="preserve" font-family="Courier" font-size="34.6" fill="#000000" transform="matrix(1.00, 0.00, -0.00, -1.00, 457.5, 203.0)"> </text><text xml:space="preserve" font-family="Courier" font-size="34.6" fill="#000000" transform="matrix(1.00, 0.00, -0.00, -1.00, 478.3, 203.0)"> </text><text xml:space="preserve" font-family="Courier" font-size="34.6" fill="#000000" transform="matrix(1.00, 0.00, -0.00, -1.00, 499.1, 203.0)"> </text><text xml:space="preserve" font-family="Courier" font-size="34.6" fill="#000000" transform="matrix(1.00, 0.00, -0.00, -1.00, 519.9, 203.0)"> </text><text xml:space="preserve" font-family="Courier" font-size="34.6" fill="#000000" transform="matrix(1.00, 0.00, -0.00, -1.00, 540.7, 203.0)"> </text><text xml:space="preserve" font-family="Courier" font-size="34.6" fill="#000000" transform="matrix(1.00, 0.00, -0.00, -1.00, 561.5, 203.0)"> </text><text xml:space="preserve" font-family="Courier" font-size="34.6" fill="#000000" transform="matrix(1.00, 0.00, -0.00, -1.00, 582.3, 203.0)">j</text><text xml:space="preserve" font-family="Courier" font-size="34.6" fill="#000000" transform="matrix(1.00, 0.00, -0.00, -1.00, 603.1, 203.0)">a</text><text xml:space="preserve" font-family="Courier" font-size="34.6" fill="#000000" transform="matrix(1.00, 0.00, -0.00, -1.00, 623.9, 203.0)">v</text><text xml:space="preserve" font-family="Courier" font-size="34.6" fill="#000000" transform="matrix(1.00, 0.00, -0.00, -1.00, 644.7, 203.0)">a</text><text xml:space="preserve" font-family="Courier" font-size="34.6" fill="#000000" transform="matrix(1.00, 0.00, -0.00, -1.00, 665.5, 203.0)">.</text><text xml:space="preserve" font-family="Courier" font-size="34.6" fill="#000000" transform="matrix(1.00, 0.00, -0.00, -1.00, 686.3, 203.0)">l</text><text xml:space="preserve" font-family="Courier" font-size="34.6" fill="#000000" transform="matrix(1.00, 0.00, -0.00, -1.00, 707.1, 203.0)">a</text><text xml:space="preserve" font-family="Courier" font-size="34.6" fill="#000000" transform="matrix(1.00, 0.00, -0.00, -1.00, 727.9, 203.0)">n</text><text xml:space="preserve" font-family="Courier" font-size="34.6" fill="#000000" transform="matrix(1.00, 0.00, -0.00, -1.00, 748.7, 203.0)">g</text><text xml:space="preserve" font-family="Courier" font-size="34.6" fill="#000000" transform="matrix(1.00, 0.00, -0.00, -1.00, 769.5, 203.0)">.</text><text xml:space="preserve" font-family="Courier" font-size="34.6" fill="#000000" transform="matrix(1.00, 0.00, -0.00, -1.00, 790.3, 203.0)">S</text><text xml:space="preserve" font-family="Courier" font-size="34.6" fill="#000000" transform="matrix(1.00, 0.00, -0.00, -1.00, 811.0, 203.0)">t</text><text xml:space="preserve" font-family="Courier" font-size="34.6" fill="#000000" transform="matrix(1.00, 0.00, -0.00, -1.00, 831.8, 203.0)">r</text><text xml:space="preserve" font-family="Courier" font-size="34.6" fill="#000000" transform="matrix(1.00, 0.00, -0.00, -1.00, 852.6, 203.0)">i</text><text xml:space="preserve" font-family="Courier" font-size="34.6" fill="#000000" transform="matrix(1.00, 0.00, -0.00, -1.00, 873.4, 203.0)">n</text><text xml:space="preserve" font-family="Courier" font-size="34.6" fill="#000000" transform="matrix(1.00, 0.00, -0.00, -1.00, 894.2, 203.0)">g</text></g></svg>