<?xml version="1.0" encoding="UTF-8" standalone="no"?><svg xmlns="http://www.w3.org/2000/svg" xmlns:xlink="http://www.w3.org/1999/xlink" clip-rule="evenodd" stroke-miterlimit="4.00" viewBox="0 0 1024 768"><desc>SVG generated by Keynote</desc><defs></defs><g transform="matrix(1.00, 0.00, -0.00, -1.00, 0.0, 768.0)"><path d="M 0.0 768.0 L 1024.0 768.0 L 1024.0 0.0 L 0.0 0.0 Z M 0.0 768.0 " fill="#F9F4DE"></path><text xml:space="preserve" font-family="Futura-Medium" font-size="80.0" fill="#000000" transform="matrix(1.00, 0.00, -0.00, -1.00, 123.0, 404.0)">W</text><text xml:space="preserve" font-family="Futura-Medium" font-size="80.0" fill="#000000" transform="matrix(1.00, 0.00, -0.00, -1.00, 207.8, 404.0)">h</text><text xml:space="preserve" font-family="Futura-Medium" font-size="80.0" fill="#000000" transform="matrix(1.00, 0.00, -0.00, -1.00, 250.4, 404.0)">y</text><text xml:space="preserve" font-family="Futura-Medium" font-size="80.0" fill="#000000" transform="matrix(1.00, 0.00, -0.00, -1.00, 293.9, 404.0)"> </text><text xml:space="preserve" font-family="Futura-Medium" font-size="80.0" fill="#000000" transform="matrix(1.00, 0.00, -0.00, -1.00, 318.6, 404.0)">I</text><text xml:space="preserve" font-family="Futura-Medium" font-size="80.0" fill="#000000" transform="matrix(1.00, 0.00, -0.00, -1.00, 342.2, 404.0)"> </text><text xml:space="preserve" font-family="Futura-Medium" font-size="80.0" fill="#000000" transform="matrix(1.00, 0.00, -0.00, -1.00, 366.8, 404.0)">c</text><text xml:space="preserve" font-family="Futura-Medium" font-size="80.0" fill="#000000" transform="matrix(1.00, 0.00, -0.00, -1.00, 407.0, 404.0)">h</text><text xml:space="preserve" font-family="Futura-Medium" font-size="80.0" fill="#000000" transform="matrix(1.00, 0.00, -0.00, -1.00, 450.9, 404.0)">o</text><text xml:space="preserve" font-family="Futura-Medium" font-size="80.0" fill="#000000" transform="matrix(1.00, 0.00, -0.00, -1.00, 499.0, 404.0)">s</text><text xml:space="preserve" font-family="Futura-Medium" font-size="80.0" fill="#000000" transform="matrix(1.00, 0.00, -0.00, -1.00, 531.4, 404.0)">e</text><text xml:space="preserve" font-family="Futura-Medium" font-size="80.0" fill="#000000" transform="matrix(1.00, 0.00, -0.00, -1.00, 575.7, 404.0)"> </text><text xml:space="preserve" font-family="Futura-Medium" font-size="80.0" fill="#000000" transform="matrix(1.00, 0.00, -0.00, -1.00, 600.3, 404.0)">C</text><text xml:space="preserve" font-family="Futura-Medium" font-size="80.0" fill="#000000" transform="matrix(1.00, 0.00, -0.00, -1.00, 656.4, 404.0)">l</text><text xml:space="preserve" font-family="Futura-Medium" font-size="80.0" fill="#000000" transform="matrix(1.00, 0.00, -0.00, -1.00, 676.3, 404.0)">o</text><text xml:space="preserve" font-family="Futura-Medium" font-size="80.0" fill="#000000" transform="matrix(1.00, 0.00, -0.00, -1.00, 724.4, 404.0)">j</text><text xml:space="preserve" font-family="Futura-Medium" font-size="80.0" fill="#000000" transform="matrix(1.00, 0.00, -0.00, -1.00, 744.3, 404.0)">u</text><text xml:space="preserve" font-family="Futura-Medium" font-size="80.0" fill="#000000" transform="matrix(1.00, 0.00, -0.00, -1.00, 787.9, 404.0)">r</text><text xml:space="preserve" font-family="Futura-Medium" font-size="80.0" fill="#000000" transform="matrix(1.00, 0.00, -0.00, -1.00, 817.3, 404.0)">e</text><text xml:space="preserve" font-family="Futura-Medium" font-size="80.0" fill="#000000" transform="matrix(1.00, 0.00, -0.00, -1.00, 861.5, 404.0)">?</text></g></svg>