<?xml version="1.0" encoding="UTF-8" standalone="no"?><svg xmlns="http://www.w3.org/2000/svg" xmlns:xlink="http://www.w3.org/1999/xlink" clip-rule="evenodd" stroke-miterlimit="4.00" viewBox="0 0 1024 768"><desc>SVG generated by Keynote</desc><defs></defs><g transform="matrix(1.00, 0.00, -0.00, -1.00, 0.0, 768.0)"><path d="M 0.0 768.0 L 1024.0 768.0 L 1024.0 0.0 L 0.0 0.0 Z M 0.0 768.0 " fill="#F9F4DE"></path><text xml:space="preserve" font-family="Futura-Medium" font-size="45.6" fill="#000000" transform="matrix(1.00, 0.00, -0.00, -1.00, 239.0, 668.0)">i</text><text xml:space="preserve" font-family="Futura-Medium" font-size="45.6" fill="#000000" transform="matrix(1.00, 0.00, -0.00, -1.00, 250.4, 668.0)">m</text><text xml:space="preserve" font-family="Futura-Medium" font-size="45.6" fill="#000000" transform="matrix(1.00, 0.00, -0.00, -1.00, 286.5, 668.0)">m</text><text xml:space="preserve" font-family="Futura-Medium" font-size="45.6" fill="#000000" transform="matrix(1.00, 0.00, -0.00, -1.00, 322.6, 668.0)">u</text><text xml:space="preserve" font-family="Futura-Medium" font-size="45.6" fill="#000000" transform="matrix(1.00, 0.00, -0.00, -1.00, 347.5, 668.0)">t</text><text xml:space="preserve" font-family="Futura-Medium" font-size="45.6" fill="#000000" transform="matrix(1.00, 0.00, -0.00, -1.00, 360.4, 668.0)">a</text><text xml:space="preserve" font-family="Futura-Medium" font-size="45.6" fill="#000000" transform="matrix(1.00, 0.00, -0.00, -1.00, 387.7, 668.0)">b</text><text xml:space="preserve" font-family="Futura-Medium" font-size="45.6" fill="#000000" transform="matrix(1.00, 0.00, -0.00, -1.00, 415.1, 668.0)">l</text><text xml:space="preserve" font-family="Futura-Medium" font-size="45.6" fill="#000000" transform="matrix(1.00, 0.00, -0.00, -1.00, 426.4, 668.0)">e</text><text xml:space="preserve" font-family="Futura-Medium" font-size="45.6" fill="#000000" transform="matrix(1.00, 0.00, -0.00, -1.00, 451.7, 668.0)"> </text><text xml:space="preserve" font-family="Futura-Medium" font-size="45.6" fill="#000000" transform="matrix(1.00, 0.00, -0.00, -1.00, 465.8, 668.0)">v</text><text xml:space="preserve" font-family="Futura-Medium" font-size="45.6" fill="#000000" transform="matrix(1.00, 0.00, -0.00, -1.00, 487.9, 668.0)">a</text><text xml:space="preserve" font-family="Futura-Medium" font-size="45.6" fill="#000000" transform="matrix(1.00, 0.00, -0.00, -1.00, 515.3, 668.0)">l</text><text xml:space="preserve" font-family="Futura-Medium" font-size="45.6" fill="#000000" transform="matrix(1.00, 0.00, -0.00, -1.00, 526.7, 668.0)">u</text><text xml:space="preserve" font-family="Futura-Medium" font-size="45.6" fill="#000000" transform="matrix(1.00, 0.00, -0.00, -1.00, 551.5, 668.0)">e</text><text xml:space="preserve" font-family="Futura-Medium" font-size="45.6" fill="#000000" transform="matrix(1.00, 0.00, -0.00, -1.00, 576.8, 668.0)">s</text><text xml:space="preserve" font-family="Futura-Medium" font-size="45.6" fill="#000000" transform="matrix(1.00, 0.00, -0.00, -1.00, 595.3, 668.0)"> </text><text xml:space="preserve" font-family="Futura-Medium" font-size="45.6" fill="#000000" transform="matrix(1.00, 0.00, -0.00, -1.00, 609.4, 668.0)">i</text><text xml:space="preserve" font-family="Futura-Medium" font-size="45.6" fill="#000000" transform="matrix(1.00, 0.00, -0.00, -1.00, 620.8, 668.0)">n</text><text xml:space="preserve" font-family="Futura-Medium" font-size="45.6" fill="#000000" transform="matrix(1.00, 0.00, -0.00, -1.00, 645.8, 668.0)"> </text><text xml:space="preserve" font-family="Futura-Medium" font-size="45.6" fill="#000000" transform="matrix(1.00, 0.00, -0.00, -1.00, 659.9, 668.0)">a</text><text xml:space="preserve" font-family="Futura-Medium" font-size="45.6" fill="#000000" transform="matrix(1.00, 0.00, -0.00, -1.00, 687.2, 668.0)">c</text><text xml:space="preserve" font-family="Futura-Medium" font-size="45.6" fill="#000000" transform="matrix(1.00, 0.00, -0.00, -1.00, 709.0, 668.0)">t</text><text xml:space="preserve" font-family="Futura-Medium" font-size="45.6" fill="#000000" transform="matrix(1.00, 0.00, -0.00, -1.00, 721.5, 668.0)">i</text><text xml:space="preserve" font-family="Futura-Medium" font-size="45.6" fill="#000000" transform="matrix(1.00, 0.00, -0.00, -1.00, 732.8, 668.0)">o</text><text xml:space="preserve" font-family="Futura-Medium" font-size="45.6" fill="#000000" transform="matrix(1.00, 0.00, -0.00, -1.00, 760.3, 668.0)">n</text><text xml:space="preserve" font-family="Futura-Medium" font-size="45.6" fill="#000000" transform="matrix(1.00, 0.00, -0.00, -1.00, 785.3, 668.0)"> </text><text xml:space="preserve" font-family="Courier" font-size="28.2" fill="#000000" transform="matrix(1.00, 0.00, -0.00, -1.00, 104.0, 594.0)">(</text><text xml:space="preserve" font-family="Courier" font-size="28.2" fill="#000000" transform="matrix(1.00, 0.00, -0.00, -1.00, 120.9, 594.0)">d</text><text xml:space="preserve" font-family="Courier" font-size="28.2" fill="#000000" transform="matrix(1.00, 0.00, -0.00, -1.00, 137.9, 594.0)">e</text><text xml:space="preserve" font-family="Courier" font-size="28.2" fill="#000000" transform="matrix(1.00, 0.00, -0.00, -1.00, 154.8, 594.0)">f</text><text xml:space="preserve" font-family="Courier" font-size="28.2" fill="#000000" transform="matrix(1.00, 0.00, -0.00, -1.00, 171.8, 594.0)"> </text><text xml:space="preserve" font-family="Courier" font-size="28.2" fill="#000000" transform="matrix(1.00, 0.00, -0.00, -1.00, 188.7, 594.0)">m</text><text xml:space="preserve" font-family="Courier" font-size="28.2" fill="#000000" transform="matrix(1.00, 0.00, -0.00, -1.00, 205.6, 594.0)"> </text><text xml:space="preserve" font-family="Courier" font-size="28.2" fill="#000000" transform="matrix(1.00, 0.00, -0.00, -1.00, 222.6, 594.0)">{</text><text xml:space="preserve" font-family="Courier" font-size="28.2" fill="#000000" transform="matrix(1.00, 0.00, -0.00, -1.00, 239.5, 594.0)">:</text><text xml:space="preserve" font-family="Courier" font-size="28.2" fill="#000000" transform="matrix(1.00, 0.00, -0.00, -1.00, 256.4, 594.0)">a</text><text xml:space="preserve" font-family="Courier" font-size="28.2" fill="#000000" transform="matrix(1.00, 0.00, -0.00, -1.00, 273.4, 594.0)"> </text><text xml:space="preserve" font-family="Courier" font-size="28.2" fill="#000000" transform="matrix(1.00, 0.00, -0.00, -1.00, 290.3, 594.0)">1</text><text xml:space="preserve" font-family="Courier" font-size="28.2" fill="#000000" transform="matrix(1.00, 0.00, -0.00, -1.00, 104.0, 560.0)"> </text><text xml:space="preserve" font-family="Courier" font-size="28.2" fill="#000000" transform="matrix(1.00, 0.00, -0.00, -1.00, 120.9, 560.0)"> </text><text xml:space="preserve" font-family="Courier" font-size="28.2" fill="#000000" transform="matrix(1.00, 0.00, -0.00, -1.00, 137.9, 560.0)"> </text><text xml:space="preserve" font-family="Courier" font-size="28.2" fill="#000000" transform="matrix(1.00, 0.00, -0.00, -1.00, 154.8, 560.0)"> </text><text xml:space="preserve" font-family="Courier" font-size="28.2" fill="#000000" transform="matrix(1.00, 0.00, -0.00, -1.00, 171.8, 560.0)"> </text><text xml:space="preserve" font-family="Courier" font-size="28.2" fill="#000000" transform="matrix(1.00, 0.00, -0.00, -1.00, 188.7, 560.0)"> </text><text xml:space="preserve" font-family="Courier" font-size="28.2" fill="#000000" transform="matrix(1.00, 0.00, -0.00, -1.00, 205.6, 560.0)"> </text><text xml:space="preserve" font-family="Courier" font-size="28.2" fill="#000000" transform="matrix(1.00, 0.00, -0.00, -1.00, 222.6, 560.0)"> </text><text xml:space="preserve" font-family="Courier" font-size="28.2" fill="#000000" transform="matrix(1.00, 0.00, -0.00, -1.00, 239.5, 560.0)">:</text><text xml:space="preserve" font-family="Courier" font-size="28.2" fill="#000000" transform="matrix(1.00, 0.00, -0.00, -1.00, 256.4, 560.0)">b</text><text xml:space="preserve" font-family="Courier" font-size="28.2" fill="#000000" transform="matrix(1.00, 0.00, -0.00, -1.00, 273.4, 560.0)"> </text><text xml:space="preserve" font-family="Courier" font-size="28.2" fill="#000000" transform="matrix(1.00, 0.00, -0.00, -1.00, 290.3, 560.0)">2</text><text xml:space="preserve" font-family="Courier" font-size="28.2" fill="#000000" transform="matrix(1.00, 0.00, -0.00, -1.00, 307.3, 560.0)">}</text><text xml:space="preserve" font-family="Courier" font-size="28.2" fill="#000000" transform="matrix(1.00, 0.00, -0.00, -1.00, 324.2, 560.0)">)</text><text xml:space="preserve" font-family="Courier" font-size="28.2" fill="#000000" transform="matrix(1.00, 0.00, -0.00, -1.00, 104.0, 492.0)">(</text><text xml:space="preserve" font-family="Courier" font-size="28.2" fill="#000000" transform="matrix(1.00, 0.00, -0.00, -1.00, 120.9, 492.0)">d</text><text xml:space="preserve" font-family="Courier" font-size="28.2" fill="#000000" transform="matrix(1.00, 0.00, -0.00, -1.00, 137.9, 492.0)">e</text><text xml:space="preserve" font-family="Courier" font-size="28.2" fill="#000000" transform="matrix(1.00, 0.00, -0.00, -1.00, 154.8, 492.0)">f</text><text xml:space="preserve" font-family="Courier" font-size="28.2" fill="#000000" transform="matrix(1.00, 0.00, -0.00, -1.00, 171.8, 492.0)"> </text><text xml:space="preserve" font-family="Courier" font-size="28.2" fill="#000000" transform="matrix(1.00, 0.00, -0.00, -1.00, 188.7, 492.0)">m</text><text xml:space="preserve" font-family="Courier" font-size="28.2" fill="#000000" transform="matrix(1.00, 0.00, -0.00, -1.00, 205.6, 492.0)">2</text><text xml:space="preserve" font-family="Courier" font-size="28.2" fill="#000000" transform="matrix(1.00, 0.00, -0.00, -1.00, 222.6, 492.0)"> </text><text xml:space="preserve" font-family="Courier" font-size="28.2" fill="#000000" transform="matrix(1.00, 0.00, -0.00, -1.00, 239.5, 492.0)">(</text><text xml:space="preserve" font-family="Courier" font-size="28.2" fill="#000000" transform="matrix(1.00, 0.00, -0.00, -1.00, 256.4, 492.0)">a</text><text xml:space="preserve" font-family="Courier" font-size="28.2" fill="#000000" transform="matrix(1.00, 0.00, -0.00, -1.00, 273.4, 492.0)">s</text><text xml:space="preserve" font-family="Courier" font-size="28.2" fill="#000000" transform="matrix(1.00, 0.00, -0.00, -1.00, 290.3, 492.0)">s</text><text xml:space="preserve" font-family="Courier" font-size="28.2" fill="#000000" transform="matrix(1.00, 0.00, -0.00, -1.00, 307.3, 492.0)">o</text><text xml:space="preserve" font-family="Courier" font-size="28.2" fill="#000000" transform="matrix(1.00, 0.00, -0.00, -1.00, 324.2, 492.0)">c</text><text xml:space="preserve" font-family="Courier" font-size="28.2" fill="#000000" transform="matrix(1.00, 0.00, -0.00, -1.00, 341.1, 492.0)"> </text><text xml:space="preserve" font-family="Courier" font-size="28.2" fill="#000000" transform="matrix(1.00, 0.00, -0.00, -1.00, 358.1, 492.0)">m</text><text xml:space="preserve" font-family="Courier" font-size="28.2" fill="#000000" transform="matrix(1.00, 0.00, -0.00, -1.00, 375.0, 492.0)"> </text><text xml:space="preserve" font-family="Courier" font-size="28.2" fill="#000000" transform="matrix(1.00, 0.00, -0.00, -1.00, 391.9, 492.0)">:</text><text xml:space="preserve" font-family="Courier" font-size="28.2" fill="#000000" transform="matrix(1.00, 0.00, -0.00, -1.00, 408.9, 492.0)">c</text><text xml:space="preserve" font-family="Courier" font-size="28.2" fill="#000000" transform="matrix(1.00, 0.00, -0.00, -1.00, 425.8, 492.0)"> </text><text xml:space="preserve" font-family="Courier" font-size="28.2" fill="#000000" transform="matrix(1.00, 0.00, -0.00, -1.00, 442.8, 492.0)">3</text><text xml:space="preserve" font-family="Courier" font-size="28.2" fill="#000000" transform="matrix(1.00, 0.00, -0.00, -1.00, 459.7, 492.0)">)</text><text xml:space="preserve" font-family="Courier" font-size="28.2" fill="#000000" transform="matrix(1.00, 0.00, -0.00, -1.00, 476.6, 492.0)">)</text><text xml:space="preserve" font-family="Courier" font-size="28.2" fill="#000000" transform="matrix(1.00, 0.00, -0.00, -1.00, 104.0, 424.0)">;</text><text xml:space="preserve" font-family="Courier" font-size="28.2" fill="#000000" transform="matrix(1.00, 0.00, -0.00, -1.00, 120.9, 424.0)">;</text><text xml:space="preserve" font-family="Courier" font-size="28.2" fill="#000000" transform="matrix(1.00, 0.00, -0.00, -1.00, 137.9, 424.0)"> </text><text xml:space="preserve" font-family="Courier" font-size="28.2" fill="#000000" transform="matrix(1.00, 0.00, -0.00, -1.00, 154.8, 424.0)">T</text><text xml:space="preserve" font-family="Courier" font-size="28.2" fill="#000000" transform="matrix(1.00, 0.00, -0.00, -1.00, 171.8, 424.0)">h</text><text xml:space="preserve" font-family="Courier" font-size="28.2" fill="#000000" transform="matrix(1.00, 0.00, -0.00, -1.00, 188.7, 424.0)">e</text><text xml:space="preserve" font-family="Courier" font-size="28.2" fill="#000000" transform="matrix(1.00, 0.00, -0.00, -1.00, 205.6, 424.0)"> </text><text xml:space="preserve" font-family="Courier" font-size="28.2" fill="#000000" transform="matrix(1.00, 0.00, -0.00, -1.00, 222.6, 424.0)">v</text><text xml:space="preserve" font-family="Courier" font-size="28.2" fill="#000000" transform="matrix(1.00, 0.00, -0.00, -1.00, 239.5, 424.0)">a</text><text xml:space="preserve" font-family="Courier" font-size="28.2" fill="#000000" transform="matrix(1.00, 0.00, -0.00, -1.00, 256.4, 424.0)">l</text><text xml:space="preserve" font-family="Courier" font-size="28.2" fill="#000000" transform="matrix(1.00, 0.00, -0.00, -1.00, 273.4, 424.0)">u</text><text xml:space="preserve" font-family="Courier" font-size="28.2" fill="#000000" transform="matrix(1.00, 0.00, -0.00, -1.00, 290.3, 424.0)">e</text><text xml:space="preserve" font-family="Courier" font-size="28.2" fill="#000000" transform="matrix(1.00, 0.00, -0.00, -1.00, 307.3, 424.0)"> </text><text xml:space="preserve" font-family="Courier" font-size="28.2" fill="#000000" transform="matrix(1.00, 0.00, -0.00, -1.00, 324.2, 424.0)">o</text><text xml:space="preserve" font-family="Courier" font-size="28.2" fill="#000000" transform="matrix(1.00, 0.00, -0.00, -1.00, 341.1, 424.0)">f</text><text xml:space="preserve" font-family="Courier" font-size="28.2" fill="#000000" transform="matrix(1.00, 0.00, -0.00, -1.00, 358.1, 424.0)"> </text><text xml:space="preserve" font-family="Courier" font-size="28.2" fill="#000000" transform="matrix(1.00, 0.00, -0.00, -1.00, 375.0, 424.0)">m</text><text xml:space="preserve" font-family="Courier" font-size="28.2" fill="#000000" transform="matrix(1.00, 0.00, -0.00, -1.00, 391.9, 424.0)">2</text><text xml:space="preserve" font-family="Courier" font-size="28.2" fill="#000000" transform="matrix(1.00, 0.00, -0.00, -1.00, 408.9, 424.0)"> </text><text xml:space="preserve" font-family="Courier" font-size="28.2" fill="#000000" transform="matrix(1.00, 0.00, -0.00, -1.00, 425.8, 424.0)">i</text><text xml:space="preserve" font-family="Courier" font-size="28.2" fill="#000000" transform="matrix(1.00, 0.00, -0.00, -1.00, 442.8, 424.0)">s</text><text xml:space="preserve" font-family="Courier" font-size="28.2" fill="#000000" transform="matrix(1.00, 0.00, -0.00, -1.00, 459.7, 424.0)">:</text><text xml:space="preserve" font-family="Courier" font-size="28.2" fill="#000000" transform="matrix(1.00, 0.00, -0.00, -1.00, 104.0, 356.0)">{</text><text xml:space="preserve" font-family="Courier" font-size="28.2" fill="#000000" transform="matrix(1.00, 0.00, -0.00, -1.00, 120.9, 356.0)">:</text><text xml:space="preserve" font-family="Courier" font-size="28.2" fill="#000000" transform="matrix(1.00, 0.00, -0.00, -1.00, 137.9, 356.0)">a</text><text xml:space="preserve" font-family="Courier" font-size="28.2" fill="#000000" transform="matrix(1.00, 0.00, -0.00, -1.00, 154.8, 356.0)"> </text><text xml:space="preserve" font-family="Courier" font-size="28.2" fill="#000000" transform="matrix(1.00, 0.00, -0.00, -1.00, 171.8, 356.0)">1</text><text xml:space="preserve" font-family="Courier" font-size="28.2" fill="#000000" transform="matrix(1.00, 0.00, -0.00, -1.00, 104.0, 322.0)"> </text><text xml:space="preserve" font-family="Courier" font-size="28.2" fill="#000000" transform="matrix(1.00, 0.00, -0.00, -1.00, 120.9, 322.0)">:</text><text xml:space="preserve" font-family="Courier" font-size="28.2" fill="#000000" transform="matrix(1.00, 0.00, -0.00, -1.00, 137.9, 322.0)">b</text><text xml:space="preserve" font-family="Courier" font-size="28.2" fill="#000000" transform="matrix(1.00, 0.00, -0.00, -1.00, 154.8, 322.0)"> </text><text xml:space="preserve" font-family="Courier" font-size="28.2" fill="#000000" transform="matrix(1.00, 0.00, -0.00, -1.00, 171.8, 322.0)">2</text><text xml:space="preserve" font-family="Courier" font-size="28.2" fill="#000000" transform="matrix(1.00, 0.00, -0.00, -1.00, 104.0, 288.0)"> </text><text xml:space="preserve" font-family="Courier" font-size="28.2" fill="#000000" transform="matrix(1.00, 0.00, -0.00, -1.00, 120.9, 288.0)">:</text><text xml:space="preserve" font-family="Courier" font-size="28.2" fill="#000000" transform="matrix(1.00, 0.00, -0.00, -1.00, 137.9, 288.0)">c</text><text xml:space="preserve" font-family="Courier" font-size="28.2" fill="#000000" transform="matrix(1.00, 0.00, -0.00, -1.00, 154.8, 288.0)"> </text><text xml:space="preserve" font-family="Courier" font-size="28.2" fill="#000000" transform="matrix(1.00, 0.00, -0.00, -1.00, 171.8, 288.0)">3</text><text xml:space="preserve" font-family="Courier" font-size="28.2" fill="#000000" transform="matrix(1.00, 0.00, -0.00, -1.00, 188.7, 288.0)">}</text><text xml:space="preserve" font-family="Courier" font-size="28.2" fill="#000000" transform="matrix(1.00, 0.00, -0.00, -1.00, 104.0, 220.0)">;</text><text xml:space="preserve" font-family="Courier" font-size="28.2" fill="#000000" transform="matrix(1.00, 0.00, -0.00, -1.00, 120.9, 220.0)">;</text><text xml:space="preserve" font-family="Courier" font-size="28.2" fill="#000000" transform="matrix(1.00, 0.00, -0.00, -1.00, 137.9, 220.0)"> </text><text xml:space="preserve" font-family="Courier" font-size="28.2" fill="#000000" transform="matrix(1.00, 0.00, -0.00, -1.00, 154.8, 220.0)">T</text><text xml:space="preserve" font-family="Courier" font-size="28.2" fill="#000000" transform="matrix(1.00, 0.00, -0.00, -1.00, 171.8, 220.0)">h</text><text xml:space="preserve" font-family="Courier" font-size="28.2" fill="#000000" transform="matrix(1.00, 0.00, -0.00, -1.00, 188.7, 220.0)">e</text><text xml:space="preserve" font-family="Courier" font-size="28.2" fill="#000000" transform="matrix(1.00, 0.00, -0.00, -1.00, 205.6, 220.0)"> </text><text xml:space="preserve" font-family="Courier" font-size="28.2" fill="#000000" transform="matrix(1.00, 0.00, -0.00, -1.00, 222.6, 220.0)">v</text><text xml:space="preserve" font-family="Courier" font-size="28.2" fill="#000000" transform="matrix(1.00, 0.00, -0.00, -1.00, 239.5, 220.0)">a</text><text xml:space="preserve" font-family="Courier" font-size="28.2" fill="#000000" transform="matrix(1.00, 0.00, -0.00, -1.00, 256.4, 220.0)">l</text><text xml:space="preserve" font-family="Courier" font-size="28.2" fill="#000000" transform="matrix(1.00, 0.00, -0.00, -1.00, 273.4, 220.0)">u</text><text xml:space="preserve" font-family="Courier" font-size="28.2" fill="#000000" transform="matrix(1.00, 0.00, -0.00, -1.00, 290.3, 220.0)">e</text><text xml:space="preserve" font-family="Courier" font-size="28.2" fill="#000000" transform="matrix(1.00, 0.00, -0.00, -1.00, 307.3, 220.0)"> </text><text xml:space="preserve" font-family="Courier" font-size="28.2" fill="#000000" transform="matrix(1.00, 0.00, -0.00, -1.00, 324.2, 220.0)">o</text><text xml:space="preserve" font-family="Courier" font-size="28.2" fill="#000000" transform="matrix(1.00, 0.00, -0.00, -1.00, 341.1, 220.0)">f</text><text xml:space="preserve" font-family="Courier" font-size="28.2" fill="#000000" transform="matrix(1.00, 0.00, -0.00, -1.00, 358.1, 220.0)"> </text><text xml:space="preserve" font-family="Courier" font-size="28.2" fill="#000000" transform="matrix(1.00, 0.00, -0.00, -1.00, 375.0, 220.0)">m</text><text xml:space="preserve" font-family="Courier" font-size="28.2" fill="#000000" transform="matrix(1.00, 0.00, -0.00, -1.00, 391.9, 220.0)"> </text><text xml:space="preserve" font-family="Courier" font-size="28.2" fill="#000000" transform="matrix(1.00, 0.00, -0.00, -1.00, 408.9, 220.0)">i</text><text xml:space="preserve" font-family="Courier" font-size="28.2" fill="#000000" transform="matrix(1.00, 0.00, -0.00, -1.00, 425.8, 220.0)">s</text><text xml:space="preserve" font-family="Courier" font-size="28.2" fill="#000000" transform="matrix(1.00, 0.00, -0.00, -1.00, 442.8, 220.0)"> </text><text xml:space="preserve" font-family="Courier" font-size="28.2" fill="#000000" transform="matrix(1.00, 0.00, -0.00, -1.00, 459.7, 220.0)">s</text><text xml:space="preserve" font-family="Courier" font-size="28.2" fill="#000000" transform="matrix(1.00, 0.00, -0.00, -1.00, 476.6, 220.0)">t</text><text xml:space="preserve" font-family="Courier" font-size="28.2" fill="#000000" transform="matrix(1.00, 0.00, -0.00, -1.00, 493.6, 220.0)">i</text><text xml:space="preserve" font-family="Courier" font-size="28.2" fill="#000000" transform="matrix(1.00, 0.00, -0.00, -1.00, 510.5, 220.0)">l</text><text xml:space="preserve" font-family="Courier" font-size="28.2" fill="#000000" transform="matrix(1.00, 0.00, -0.00, -1.00, 527.4, 220.0)">l</text><text xml:space="preserve" font-family="Courier" font-size="28.2" fill="#000000" transform="matrix(1.00, 0.00, -0.00, -1.00, 544.4, 220.0)">:</text><text xml:space="preserve" font-family="Courier" font-size="28.2" fill="#000000" transform="matrix(1.00, 0.00, -0.00, -1.00, 104.0, 152.0)">{</text><text xml:space="preserve" font-family="Courier" font-size="28.2" fill="#000000" transform="matrix(1.00, 0.00, -0.00, -1.00, 120.9, 152.0)">:</text><text xml:space="preserve" font-family="Courier" font-size="28.2" fill="#000000" transform="matrix(1.00, 0.00, -0.00, -1.00, 137.9, 152.0)">a</text><text xml:space="preserve" font-family="Courier" font-size="28.2" fill="#000000" transform="matrix(1.00, 0.00, -0.00, -1.00, 154.8, 152.0)"> </text><text xml:space="preserve" font-family="Courier" font-size="28.2" fill="#000000" transform="matrix(1.00, 0.00, -0.00, -1.00, 171.8, 152.0)">1</text><text xml:space="preserve" font-family="Courier" font-size="28.2" fill="#000000" transform="matrix(1.00, 0.00, -0.00, -1.00, 104.0, 118.0)"> </text><text xml:space="preserve" font-family="Courier" font-size="28.2" fill="#000000" transform="matrix(1.00, 0.00, -0.00, -1.00, 120.9, 118.0)">:</text><text xml:space="preserve" font-family="Courier" font-size="28.2" fill="#000000" transform="matrix(1.00, 0.00, -0.00, -1.00, 137.9, 118.0)">b</text><text xml:space="preserve" font-family="Courier" font-size="28.2" fill="#000000" transform="matrix(1.00, 0.00, -0.00, -1.00, 154.8, 118.0)"> </text><text xml:space="preserve" font-family="Courier" font-size="28.2" fill="#000000" transform="matrix(1.00, 0.00, -0.00, -1.00, 171.8, 118.0)">2</text><text xml:space="preserve" font-family="Courier" font-size="28.2" fill="#000000" transform="matrix(1.00, 0.00, -0.00, -1.00, 188.7, 118.0)">}</text><text xml:space="preserve" font-family="Courier" font-size="28.2" fill="#000000" transform="matrix(1.00, 0.00, -0.00, -1.00, 104.0, 50.0)">;</text><text xml:space="preserve" font-family="Courier" font-size="28.2" fill="#000000" transform="matrix(1.00, 0.00, -0.00, -1.00, 120.9, 50.0)">;</text><text xml:space="preserve" font-family="Courier" font-size="28.2" fill="#000000" transform="matrix(1.00, 0.00, -0.00, -1.00, 137.9, 50.0)"> </text><text xml:space="preserve" font-family="Courier" font-size="28.2" fill="#000000" transform="matrix(1.00, 0.00, -0.00, -1.00, 154.8, 50.0)">J</text><text xml:space="preserve" font-family="Courier" font-size="28.2" fill="#000000" transform="matrix(1.00, 0.00, -0.00, -1.00, 171.8, 50.0)">V</text><text xml:space="preserve" font-family="Courier" font-size="28.2" fill="#000000" transform="matrix(1.00, 0.00, -0.00, -1.00, 188.7, 50.0)">M</text><text xml:space="preserve" font-family="Courier" font-size="28.2" fill="#000000" transform="matrix(1.00, 0.00, -0.00, -1.00, 205.6, 50.0)"> </text><text xml:space="preserve" font-family="Courier" font-size="28.2" fill="#000000" transform="matrix(1.00, 0.00, -0.00, -1.00, 222.6, 50.0)">G</text><text xml:space="preserve" font-family="Courier" font-size="28.2" fill="#000000" transform="matrix(1.00, 0.00, -0.00, -1.00, 239.5, 50.0)">C</text><text xml:space="preserve" font-family="Courier" font-size="28.2" fill="#000000" transform="matrix(1.00, 0.00, -0.00, -1.00, 256.4, 50.0)"> </text><text xml:space="preserve" font-family="Courier" font-size="28.2" fill="#000000" transform="matrix(1.00, 0.00, -0.00, -1.00, 273.4, 50.0)">c</text><text xml:space="preserve" font-family="Courier" font-size="28.2" fill="#000000" transform="matrix(1.00, 0.00, -0.00, -1.00, 290.3, 50.0)">l</text><text xml:space="preserve" font-family="Courier" font-size="28.2" fill="#000000" transform="matrix(1.00, 0.00, -0.00, -1.00, 307.3, 50.0)">e</text><text xml:space="preserve" font-family="Courier" font-size="28.2" fill="#000000" transform="matrix(1.00, 0.00, -0.00, -1.00, 324.2, 50.0)">a</text><text xml:space="preserve" font-family="Courier" font-size="28.2" fill="#000000" transform="matrix(1.00, 0.00, -0.00, -1.00, 341.1, 50.0)">n</text><text xml:space="preserve" font-family="Courier" font-size="28.2" fill="#000000" transform="matrix(1.00, 0.00, -0.00, -1.00, 358.1, 50.0)">s</text><text xml:space="preserve" font-family="Courier" font-size="28.2" fill="#000000" transform="matrix(1.00, 0.00, -0.00, -1.00, 375.0, 50.0)"> </text><text xml:space="preserve" font-family="Courier" font-size="28.2" fill="#000000" transform="matrix(1.00, 0.00, -0.00, -1.00, 391.9, 50.0)">u</text><text xml:space="preserve" font-family="Courier" font-size="28.2" fill="#000000" transform="matrix(1.00, 0.00, -0.00, -1.00, 408.9, 50.0)">p</text><text xml:space="preserve" font-family="Courier" font-size="28.2" fill="#000000" transform="matrix(1.00, 0.00, -0.00, -1.00, 425.8, 50.0)"> </text><text xml:space="preserve" font-family="Courier" font-size="28.2" fill="#000000" transform="matrix(1.00, 0.00, -0.00, -1.00, 442.8, 50.0)">v</text><text xml:space="preserve" font-family="Courier" font-size="28.2" fill="#000000" transform="matrix(1.00, 0.00, -0.00, -1.00, 459.7, 50.0)">a</text><text xml:space="preserve" font-family="Courier" font-size="28.2" fill="#000000" transform="matrix(1.00, 0.00, -0.00, -1.00, 476.6, 50.0)">l</text><text xml:space="preserve" font-family="Courier" font-size="28.2" fill="#000000" transform="matrix(1.00, 0.00, -0.00, -1.00, 493.6, 50.0)">u</text><text xml:space="preserve" font-family="Courier" font-size="28.2" fill="#000000" transform="matrix(1.00, 0.00, -0.00, -1.00, 510.5, 50.0)">e</text><text xml:space="preserve" font-family="Courier" font-size="28.2" fill="#000000" transform="matrix(1.00, 0.00, -0.00, -1.00, 527.4, 50.0)">s</text><text xml:space="preserve" font-family="Courier" font-size="28.2" fill="#000000" transform="matrix(1.00, 0.00, -0.00, -1.00, 544.4, 50.0)"> </text><text xml:space="preserve" font-family="Courier" font-size="28.2" fill="#000000" transform="matrix(1.00, 0.00, -0.00, -1.00, 561.3, 50.0)">w</text><text xml:space="preserve" font-family="Courier" font-size="28.2" fill="#000000" transform="matrix(1.00, 0.00, -0.00, -1.00, 578.3, 50.0)">/</text><text xml:space="preserve" font-family="Courier" font-size="28.2" fill="#000000" transform="matrix(1.00, 0.00, -0.00, -1.00, 595.2, 50.0)">o</text><text xml:space="preserve" font-family="Courier" font-size="28.2" fill="#000000" transform="matrix(1.00, 0.00, -0.00, -1.00, 612.1, 50.0)"> </text><text xml:space="preserve" font-family="Courier" font-size="28.2" fill="#000000" transform="matrix(1.00, 0.00, -0.00, -1.00, 629.1, 50.0)">t</text><text xml:space="preserve" font-family="Courier" font-size="28.2" fill="#000000" transform="matrix(1.00, 0.00, -0.00, -1.00, 646.0, 50.0)">o</text><text xml:space="preserve" font-family="Courier" font-size="28.2" fill="#000000" transform="matrix(1.00, 0.00, -0.00, -1.00, 662.9, 50.0)">p</text><text xml:space="preserve" font-family="Courier" font-size="28.2" fill="#000000" transform="matrix(1.00, 0.00, -0.00, -1.00, 679.9, 50.0)">-</text><text xml:space="preserve" font-family="Courier" font-size="28.2" fill="#000000" transform="matrix(1.00, 0.00, -0.00, -1.00, 696.8, 50.0)">l</text><text xml:space="preserve" font-family="Courier" font-size="28.2" fill="#000000" transform="matrix(1.00, 0.00, -0.00, -1.00, 713.8, 50.0)">e</text><text xml:space="preserve" font-family="Courier" font-size="28.2" fill="#000000" transform="matrix(1.00, 0.00, -0.00, -1.00, 730.7, 50.0)">v</text><text xml:space="preserve" font-family="Courier" font-size="28.2" fill="#000000" transform="matrix(1.00, 0.00, -0.00, -1.00, 747.6, 50.0)">e</text><text xml:space="preserve" font-family="Courier" font-size="28.2" fill="#000000" transform="matrix(1.00, 0.00, -0.00, -1.00, 764.6, 50.0)">l</text><text xml:space="preserve" font-family="Courier" font-size="28.2" fill="#000000" transform="matrix(1.00, 0.00, -0.00, -1.00, 781.5, 50.0)"> </text><text xml:space="preserve" font-family="Courier" font-size="28.2" fill="#000000" transform="matrix(1.00, 0.00, -0.00, -1.00, 798.4, 50.0)">n</text><text xml:space="preserve" font-family="Courier" font-size="28.2" fill="#000000" transform="matrix(1.00, 0.00, -0.00, -1.00, 815.4, 50.0)">a</text><text xml:space="preserve" font-family="Courier" font-size="28.2" fill="#000000" transform="matrix(1.00, 0.00, -0.00, -1.00, 832.3, 50.0)">m</text><text xml:space="preserve" font-family="Courier" font-size="28.2" fill="#000000" transform="matrix(1.00, 0.00, -0.00, -1.00, 849.3, 50.0)">e</text><text xml:space="preserve" font-family="Courier" font-size="28.2" fill="#000000" transform="matrix(1.00, 0.00, -0.00, -1.00, 866.2, 50.0)">s</text></g></svg>