<?xml version="1.0" encoding="UTF-8" standalone="no"?><svg xmlns="http://www.w3.org/2000/svg" xmlns:xlink="http://www.w3.org/1999/xlink" clip-rule="evenodd" stroke-miterlimit="4.00" viewBox="0 0 1024 768"><desc>SVG generated by Keynote</desc><defs></defs><g transform="matrix(1.00, 0.00, -0.00, -1.00, 0.0, 768.0)"><path d="M 0.0 768.0 L 1024.0 768.0 L 1024.0 0.0 L 0.0 0.0 Z M 0.0 768.0 " fill="#F9F4DE"></path><text xml:space="preserve" font-family="Futura-Medium" font-size="45.6" fill="#000000" transform="matrix(1.00, 0.00, -0.00, -1.00, 291.0, 660.0)">F</text><text xml:space="preserve" font-family="Futura-Medium" font-size="45.6" fill="#000000" transform="matrix(1.00, 0.00, -0.00, -1.00, 313.8, 660.0)">r</text><text xml:space="preserve" font-family="Futura-Medium" font-size="45.6" fill="#000000" transform="matrix(1.00, 0.00, -0.00, -1.00, 330.4, 660.0)">o</text><text xml:space="preserve" font-family="Futura-Medium" font-size="45.6" fill="#000000" transform="matrix(1.00, 0.00, -0.00, -1.00, 357.9, 660.0)">n</text><text xml:space="preserve" font-family="Futura-Medium" font-size="45.6" fill="#000000" transform="matrix(1.00, 0.00, -0.00, -1.00, 382.9, 660.0)">t</text><text xml:space="preserve" font-family="Futura-Medium" font-size="45.6" fill="#000000" transform="matrix(1.00, 0.00, -0.00, -1.00, 395.4, 660.0)">-</text><text xml:space="preserve" font-family="Futura-Medium" font-size="45.6" fill="#000000" transform="matrix(1.00, 0.00, -0.00, -1.00, 405.4, 660.0)">E</text><text xml:space="preserve" font-family="Futura-Medium" font-size="45.6" fill="#000000" transform="matrix(1.00, 0.00, -0.00, -1.00, 431.2, 660.0)">n</text><text xml:space="preserve" font-family="Futura-Medium" font-size="45.6" fill="#000000" transform="matrix(1.00, 0.00, -0.00, -1.00, 456.2, 660.0)">d</text><text xml:space="preserve" font-family="Futura-Medium" font-size="45.6" fill="#000000" transform="matrix(1.00, 0.00, -0.00, -1.00, 483.6, 660.0)"> </text><text xml:space="preserve" font-family="Futura-Medium" font-size="45.6" fill="#000000" transform="matrix(1.00, 0.00, -0.00, -1.00, 497.7, 660.0)">I</text><text xml:space="preserve" font-family="Futura-Medium" font-size="45.6" fill="#000000" transform="matrix(1.00, 0.00, -0.00, -1.00, 511.1, 660.0)">n</text><text xml:space="preserve" font-family="Futura-Medium" font-size="45.6" fill="#000000" transform="matrix(1.00, 0.00, -0.00, -1.00, 536.2, 660.0)">n</text><text xml:space="preserve" font-family="Futura-Medium" font-size="45.6" fill="#000000" transform="matrix(1.00, 0.00, -0.00, -1.00, 561.2, 660.0)">o</text><text xml:space="preserve" font-family="Futura-Medium" font-size="45.6" fill="#000000" transform="matrix(1.00, 0.00, -0.00, -1.00, 587.7, 660.0)">v</text><text xml:space="preserve" font-family="Futura-Medium" font-size="45.6" fill="#000000" transform="matrix(1.00, 0.00, -0.00, -1.00, 609.9, 660.0)">a</text><text xml:space="preserve" font-family="Futura-Medium" font-size="45.6" fill="#000000" transform="matrix(1.00, 0.00, -0.00, -1.00, 637.3, 660.0)">t</text><text xml:space="preserve" font-family="Futura-Medium" font-size="45.6" fill="#000000" transform="matrix(1.00, 0.00, -0.00, -1.00, 649.8, 660.0)">i</text><text xml:space="preserve" font-family="Futura-Medium" font-size="45.6" fill="#000000" transform="matrix(1.00, 0.00, -0.00, -1.00, 661.1, 660.0)">o</text><text xml:space="preserve" font-family="Futura-Medium" font-size="45.6" fill="#000000" transform="matrix(1.00, 0.00, -0.00, -1.00, 688.6, 660.0)">n</text><text xml:space="preserve" font-family="Futura-Medium" font-size="45.6" fill="#000000" transform="matrix(1.00, 0.00, -0.00, -1.00, 713.6, 660.0)">s</text><text xml:space="preserve" font-family="Futura-Medium" font-size="45.6" fill="#000000" transform="matrix(1.00, 0.00, -0.00, -1.00, 732.1, 660.0)"> </text><g><clipPath id="clip-48"><path d="M 290.5 653.0 L 732.5 653.0 L 732.5 658.5 L 290.5 658.5 Z M 290.5 653.0 "></path></clipPath><g clip-path="url(#clip-48)"><path d="M 191.5 57.2 L 632.5 57.2 " fill="none" stroke="#000000" stroke-width="3.57" stroke-miterlimit="0.00" transform="matrix(1.00, 0.00, 0.00, -1.00, 100.0, 713.0)"></path></g></g><text xml:space="preserve" font-family="Futura-Medium" font-size="45.6" fill="#000000" transform="matrix(1.00, 0.00, -0.00, -1.00, 418.0, 540.0)">O</text><text xml:space="preserve" font-family="Futura-Medium" font-size="45.6" fill="#000000" transform="matrix(1.00, 0.00, -0.00, -1.00, 458.8, 540.0)">m</text><text xml:space="preserve" font-family="Futura-Medium" font-size="45.6" fill="#000000" transform="matrix(1.00, 0.00, -0.00, -1.00, 494.9, 540.0)">-</text><text xml:space="preserve" font-family="Futura-Medium" font-size="45.6" fill="#000000" transform="matrix(1.00, 0.00, -0.00, -1.00, 504.8, 540.0)">N</text><text xml:space="preserve" font-family="Futura-Medium" font-size="45.6" fill="#000000" transform="matrix(1.00, 0.00, -0.00, -1.00, 543.9, 540.0)">e</text><text xml:space="preserve" font-family="Futura-Medium" font-size="45.6" fill="#000000" transform="matrix(1.00, 0.00, -0.00, -1.00, 568.3, 540.0)">x</text><text xml:space="preserve" font-family="Futura-Medium" font-size="45.6" fill="#000000" transform="matrix(1.00, 0.00, -0.00, -1.00, 593.8, 540.0)">t</text><text xml:space="preserve" font-family="Futura-Medium" font-size="45.6" fill="#000000" transform="matrix(1.00, 0.00, -0.00, -1.00, 606.3, 540.0)"> </text><text xml:space="preserve" font-family="Futura-Medium" font-size="45.6" fill="#000000" transform="matrix(1.00, 0.00, -0.00, -1.00, 436.0, 480.0)">H</text><text xml:space="preserve" font-family="Futura-Medium" font-size="45.6" fill="#000000" transform="matrix(1.00, 0.00, -0.00, -1.00, 469.5, 480.0)">o</text><text xml:space="preserve" font-family="Futura-Medium" font-size="45.6" fill="#000000" transform="matrix(1.00, 0.00, -0.00, -1.00, 496.9, 480.0)">p</text><text xml:space="preserve" font-family="Futura-Medium" font-size="45.6" fill="#000000" transform="matrix(1.00, 0.00, -0.00, -1.00, 524.3, 480.0)">l</text><text xml:space="preserve" font-family="Futura-Medium" font-size="45.6" fill="#000000" transform="matrix(1.00, 0.00, -0.00, -1.00, 535.7, 480.0)">o</text><text xml:space="preserve" font-family="Futura-Medium" font-size="45.6" fill="#000000" transform="matrix(1.00, 0.00, -0.00, -1.00, 563.1, 480.0)">n</text><text xml:space="preserve" font-family="Futura-Medium" font-size="45.6" fill="#000000" transform="matrix(1.00, 0.00, -0.00, -1.00, 588.2, 480.0)"> </text><text xml:space="preserve" font-family="Futura-Medium" font-size="45.6" fill="#000000" transform="matrix(1.00, 0.00, -0.00, -1.00, 444.0, 420.0)">F</text><text xml:space="preserve" font-family="Futura-Medium" font-size="45.6" fill="#000000" transform="matrix(1.00, 0.00, -0.00, -1.00, 466.9, 420.0)">a</text><text xml:space="preserve" font-family="Futura-Medium" font-size="45.6" fill="#000000" transform="matrix(1.00, 0.00, -0.00, -1.00, 494.3, 420.0)">l</text><text xml:space="preserve" font-family="Futura-Medium" font-size="45.6" fill="#000000" transform="matrix(1.00, 0.00, -0.00, -1.00, 505.6, 420.0)">c</text><text xml:space="preserve" font-family="Futura-Medium" font-size="45.6" fill="#000000" transform="matrix(1.00, 0.00, -0.00, -1.00, 527.4, 420.0)">o</text><text xml:space="preserve" font-family="Futura-Medium" font-size="45.6" fill="#000000" transform="matrix(1.00, 0.00, -0.00, -1.00, 554.8, 420.0)">n</text><text xml:space="preserve" font-family="Futura-Medium" font-size="45.6" fill="#000000" transform="matrix(1.00, 0.00, -0.00, -1.00, 579.9, 420.0)"> </text><text xml:space="preserve" font-family="Futura-Medium" font-size="45.6" fill="#000000" transform="matrix(1.00, 0.00, -0.00, -1.00, 446.0, 360.0)">F</text><text xml:space="preserve" font-family="Futura-Medium" font-size="45.6" fill="#000000" transform="matrix(1.00, 0.00, -0.00, -1.00, 468.9, 360.0)">a</text><text xml:space="preserve" font-family="Futura-Medium" font-size="45.6" fill="#000000" transform="matrix(1.00, 0.00, -0.00, -1.00, 496.3, 360.0)">c</text><text xml:space="preserve" font-family="Futura-Medium" font-size="45.6" fill="#000000" transform="matrix(1.00, 0.00, -0.00, -1.00, 518.0, 360.0)">t</text><text xml:space="preserve" font-family="Futura-Medium" font-size="45.6" fill="#000000" transform="matrix(1.00, 0.00, -0.00, -1.00, 530.5, 360.0)">U</text><text xml:space="preserve" font-family="Futura-Medium" font-size="45.6" fill="#000000" transform="matrix(1.00, 0.00, -0.00, -1.00, 564.2, 360.0)">I</text><text xml:space="preserve" font-family="Futura-Medium" font-size="45.6" fill="#000000" transform="matrix(1.00, 0.00, -0.00, -1.00, 577.6, 360.0)"> </text><text xml:space="preserve" font-family="Futura-Medium" font-size="45.6" fill="#000000" transform="matrix(1.00, 0.00, -0.00, -1.00, 468.0, 300.0)">R</text><text xml:space="preserve" font-family="Futura-Medium" font-size="45.6" fill="#000000" transform="matrix(1.00, 0.00, -0.00, -1.00, 494.8, 300.0)">u</text><text xml:space="preserve" font-family="Futura-Medium" font-size="45.6" fill="#000000" transform="matrix(1.00, 0.00, -0.00, -1.00, 519.7, 300.0)">m</text><text xml:space="preserve" font-family="Futura-Medium" font-size="45.6" fill="#000000" transform="matrix(1.00, 0.00, -0.00, -1.00, 555.8, 300.0)"> </text><text xml:space="preserve" font-family="Futura-Medium" font-size="45.6" fill="#000000" transform="matrix(1.00, 0.00, -0.00, -1.00, 426.0, 240.0)">R</text><text xml:space="preserve" font-family="Futura-Medium" font-size="45.6" fill="#000000" transform="matrix(1.00, 0.00, -0.00, -1.00, 452.7, 240.0)">e</text><text xml:space="preserve" font-family="Futura-Medium" font-size="45.6" fill="#000000" transform="matrix(1.00, 0.00, -0.00, -1.00, 478.0, 240.0)">f</text><text xml:space="preserve" font-family="Futura-Medium" font-size="45.6" fill="#000000" transform="matrix(1.00, 0.00, -0.00, -1.00, 491.6, 240.0)">r</text><text xml:space="preserve" font-family="Futura-Medium" font-size="45.6" fill="#000000" transform="matrix(1.00, 0.00, -0.00, -1.00, 508.3, 240.0)">a</text><text xml:space="preserve" font-family="Futura-Medium" font-size="45.6" fill="#000000" transform="matrix(1.00, 0.00, -0.00, -1.00, 535.7, 240.0)">m</text><text xml:space="preserve" font-family="Futura-Medium" font-size="45.6" fill="#000000" transform="matrix(1.00, 0.00, -0.00, -1.00, 571.8, 240.0)">e</text><text xml:space="preserve" font-family="Futura-Medium" font-size="45.6" fill="#000000" transform="matrix(1.00, 0.00, -0.00, -1.00, 597.1, 240.0)"> </text><text xml:space="preserve" font-family="Futura-Medium" font-size="45.6" fill="#000000" transform="matrix(1.00, 0.00, -0.00, -1.00, 385.0, 180.0)">H</text><text xml:space="preserve" font-family="Futura-Medium" font-size="45.6" fill="#000000" transform="matrix(1.00, 0.00, -0.00, -1.00, 418.5, 180.0)">y</text><text xml:space="preserve" font-family="Futura-Medium" font-size="45.6" fill="#000000" transform="matrix(1.00, 0.00, -0.00, -1.00, 443.3, 180.0)">p</text><text xml:space="preserve" font-family="Futura-Medium" font-size="45.6" fill="#000000" transform="matrix(1.00, 0.00, -0.00, -1.00, 470.7, 180.0)">e</text><text xml:space="preserve" font-family="Futura-Medium" font-size="45.6" fill="#000000" transform="matrix(1.00, 0.00, -0.00, -1.00, 495.9, 180.0)">r</text><text xml:space="preserve" font-family="Futura-Medium" font-size="45.6" fill="#000000" transform="matrix(1.00, 0.00, -0.00, -1.00, 513.0, 180.0)">F</text><text xml:space="preserve" font-family="Futura-Medium" font-size="45.6" fill="#000000" transform="matrix(1.00, 0.00, -0.00, -1.00, 536.3, 180.0)">i</text><text xml:space="preserve" font-family="Futura-Medium" font-size="45.6" fill="#000000" transform="matrix(1.00, 0.00, -0.00, -1.00, 547.7, 180.0)">d</text><text xml:space="preserve" font-family="Futura-Medium" font-size="45.6" fill="#000000" transform="matrix(1.00, 0.00, -0.00, -1.00, 575.1, 180.0)">d</text><text xml:space="preserve" font-family="Futura-Medium" font-size="45.6" fill="#000000" transform="matrix(1.00, 0.00, -0.00, -1.00, 602.4, 180.0)">l</text><text xml:space="preserve" font-family="Futura-Medium" font-size="45.6" fill="#000000" transform="matrix(1.00, 0.00, -0.00, -1.00, 613.8, 180.0)">e</text><text xml:space="preserve" font-family="Futura-Medium" font-size="45.6" fill="#000000" transform="matrix(1.00, 0.00, -0.00, -1.00, 639.0, 180.0)"> </text><text xml:space="preserve" font-family="Futura-Medium" font-size="45.6" fill="#000000" transform="matrix(1.00, 0.00, -0.00, -1.00, 401.0, 120.0)">R</text><text xml:space="preserve" font-family="Futura-Medium" font-size="45.6" fill="#000000" transform="matrix(1.00, 0.00, -0.00, -1.00, 427.7, 120.0)">e</text><text xml:space="preserve" font-family="Futura-Medium" font-size="45.6" fill="#000000" transform="matrix(1.00, 0.00, -0.00, -1.00, 453.0, 120.0)">p</text><text xml:space="preserve" font-family="Futura-Medium" font-size="45.6" fill="#000000" transform="matrix(1.00, 0.00, -0.00, -1.00, 480.4, 120.0)">l</text><text xml:space="preserve" font-family="Futura-Medium" font-size="45.6" fill="#000000" transform="matrix(1.00, 0.00, -0.00, -1.00, 491.7, 120.0)">i</text><text xml:space="preserve" font-family="Futura-Medium" font-size="45.6" fill="#000000" transform="matrix(1.00, 0.00, -0.00, -1.00, 503.1, 120.0)">c</text><text xml:space="preserve" font-family="Futura-Medium" font-size="45.6" fill="#000000" transform="matrix(1.00, 0.00, -0.00, -1.00, 524.8, 120.0)">a</text><text xml:space="preserve" font-family="Futura-Medium" font-size="45.6" fill="#000000" transform="matrix(1.00, 0.00, -0.00, -1.00, 552.2, 120.0)">t</text><text xml:space="preserve" font-family="Futura-Medium" font-size="45.6" fill="#000000" transform="matrix(1.00, 0.00, -0.00, -1.00, 564.7, 120.0)">i</text><text xml:space="preserve" font-family="Futura-Medium" font-size="45.6" fill="#000000" transform="matrix(1.00, 0.00, -0.00, -1.00, 576.1, 120.0)">v</text><text xml:space="preserve" font-family="Futura-Medium" font-size="45.6" fill="#000000" transform="matrix(1.00, 0.00, -0.00, -1.00, 598.2, 120.0)">e</text></g></svg>