<?xml version="1.0" encoding="UTF-8" standalone="no"?><svg xmlns="http://www.w3.org/2000/svg" xmlns:xlink="http://www.w3.org/1999/xlink" clip-rule="evenodd" stroke-miterlimit="4.00" viewBox="0 0 1024 768"><desc>SVG generated by Keynote</desc><defs></defs><g transform="matrix(1.00, 0.00, -0.00, -1.00, 0.0, 768.0)"><path d="M 0.0 768.0 L 1024.0 768.0 L 1024.0 0.0 L 0.0 0.0 Z M 0.0 768.0 " fill="#F9F4DE"></path><text xml:space="preserve" font-family="Futura-Medium" font-size="36.0" fill="#000000" transform="matrix(1.00, 0.00, -0.00, -1.00, 89.0, 535.0)">E</text><text xml:space="preserve" font-family="Futura-Medium" font-size="36.0" fill="#000000" transform="matrix(1.00, 0.00, -0.00, -1.00, 109.4, 535.0)">x</text><text xml:space="preserve" font-family="Futura-Medium" font-size="36.0" fill="#000000" transform="matrix(1.00, 0.00, -0.00, -1.00, 129.5, 535.0)">i</text><text xml:space="preserve" font-family="Futura-Medium" font-size="36.0" fill="#000000" transform="matrix(1.00, 0.00, -0.00, -1.00, 138.4, 535.0)">s</text><text xml:space="preserve" font-family="Futura-Medium" font-size="36.0" fill="#000000" transform="matrix(1.00, 0.00, -0.00, -1.00, 153.0, 535.0)">t</text><text xml:space="preserve" font-family="Futura-Medium" font-size="36.0" fill="#000000" transform="matrix(1.00, 0.00, -0.00, -1.00, 162.9, 535.0)">i</text><text xml:space="preserve" font-family="Futura-Medium" font-size="36.0" fill="#000000" transform="matrix(1.00, 0.00, -0.00, -1.00, 171.9, 535.0)">n</text><text xml:space="preserve" font-family="Futura-Medium" font-size="36.0" fill="#000000" transform="matrix(1.00, 0.00, -0.00, -1.00, 191.6, 535.0)">g</text><text xml:space="preserve" font-family="Futura-Medium" font-size="36.0" fill="#000000" transform="matrix(1.00, 0.00, -0.00, -1.00, 213.1, 535.0)"> </text><text xml:space="preserve" font-family="Futura-Medium" font-size="36.0" fill="#000000" transform="matrix(1.00, 0.00, -0.00, -1.00, 224.2, 535.0)">i</text><text xml:space="preserve" font-family="Futura-Medium" font-size="36.0" fill="#000000" transform="matrix(1.00, 0.00, -0.00, -1.00, 233.2, 535.0)">d</text><text xml:space="preserve" font-family="Futura-Medium" font-size="36.0" fill="#000000" transform="matrix(1.00, 0.00, -0.00, -1.00, 254.8, 535.0)">e</text><text xml:space="preserve" font-family="Futura-Medium" font-size="36.0" fill="#000000" transform="matrix(1.00, 0.00, -0.00, -1.00, 274.7, 535.0)">a</text><text xml:space="preserve" font-family="Futura-Medium" font-size="36.0" fill="#000000" transform="matrix(1.00, 0.00, -0.00, -1.00, 296.3, 535.0)">s</text><text xml:space="preserve" font-family="Futura-Medium" font-size="36.0" fill="#000000" transform="matrix(1.00, 0.00, -0.00, -1.00, 310.9, 535.0)"> </text><text xml:space="preserve" font-family="Futura-Medium" font-size="36.0" fill="#000000" transform="matrix(1.00, 0.00, -0.00, -1.00, 322.0, 535.0)">a</text><text xml:space="preserve" font-family="Futura-Medium" font-size="36.0" fill="#000000" transform="matrix(1.00, 0.00, -0.00, -1.00, 343.5, 535.0)">n</text><text xml:space="preserve" font-family="Futura-Medium" font-size="36.0" fill="#000000" transform="matrix(1.00, 0.00, -0.00, -1.00, 363.3, 535.0)">d</text><text xml:space="preserve" font-family="Futura-Medium" font-size="36.0" fill="#000000" transform="matrix(1.00, 0.00, -0.00, -1.00, 384.9, 535.0)"> </text><text xml:space="preserve" font-family="Futura-Medium" font-size="36.0" fill="#000000" transform="matrix(1.00, 0.00, -0.00, -1.00, 396.0, 535.0)">g</text><text xml:space="preserve" font-family="Futura-Medium" font-size="36.0" fill="#000000" transform="matrix(1.00, 0.00, -0.00, -1.00, 417.5, 535.0)">r</text><text xml:space="preserve" font-family="Futura-Medium" font-size="36.0" fill="#000000" transform="matrix(1.00, 0.00, -0.00, -1.00, 430.7, 535.0)">a</text><text xml:space="preserve" font-family="Futura-Medium" font-size="36.0" fill="#000000" transform="matrix(1.00, 0.00, -0.00, -1.00, 452.3, 535.0)">p</text><text xml:space="preserve" font-family="Futura-Medium" font-size="36.0" fill="#000000" transform="matrix(1.00, 0.00, -0.00, -1.00, 473.9, 535.0)">h</text><text xml:space="preserve" font-family="Futura-Medium" font-size="36.0" fill="#000000" transform="matrix(1.00, 0.00, -0.00, -1.00, 493.6, 535.0)">i</text><text xml:space="preserve" font-family="Futura-Medium" font-size="36.0" fill="#000000" transform="matrix(1.00, 0.00, -0.00, -1.00, 502.6, 535.0)">c</text><text xml:space="preserve" font-family="Futura-Medium" font-size="36.0" fill="#000000" transform="matrix(1.00, 0.00, -0.00, -1.00, 519.7, 535.0)">s</text><text xml:space="preserve" font-family="Futura-Medium" font-size="36.0" fill="#000000" transform="matrix(1.00, 0.00, -0.00, -1.00, 534.3, 535.0)"> </text><text xml:space="preserve" font-family="Futura-Medium" font-size="36.0" fill="#000000" transform="matrix(1.00, 0.00, -0.00, -1.00, 545.4, 535.0)">g</text><text xml:space="preserve" font-family="Futura-Medium" font-size="36.0" fill="#000000" transform="matrix(1.00, 0.00, -0.00, -1.00, 566.9, 535.0)">r</text><text xml:space="preserve" font-family="Futura-Medium" font-size="36.0" fill="#000000" transform="matrix(1.00, 0.00, -0.00, -1.00, 580.2, 535.0)">a</text><text xml:space="preserve" font-family="Futura-Medium" font-size="36.0" fill="#000000" transform="matrix(1.00, 0.00, -0.00, -1.00, 601.7, 535.0)">t</text><text xml:space="preserve" font-family="Futura-Medium" font-size="36.0" fill="#000000" transform="matrix(1.00, 0.00, -0.00, -1.00, 611.9, 535.0)">e</text><text xml:space="preserve" font-family="Futura-Medium" font-size="36.0" fill="#000000" transform="matrix(1.00, 0.00, -0.00, -1.00, 631.8, 535.0)">f</text><text xml:space="preserve" font-family="Futura-Medium" font-size="36.0" fill="#000000" transform="matrix(1.00, 0.00, -0.00, -1.00, 642.5, 535.0)">u</text><text xml:space="preserve" font-family="Futura-Medium" font-size="36.0" fill="#000000" transform="matrix(1.00, 0.00, -0.00, -1.00, 662.1, 535.0)">l</text><text xml:space="preserve" font-family="Futura-Medium" font-size="36.0" fill="#000000" transform="matrix(1.00, 0.00, -0.00, -1.00, 671.1, 535.0)">l</text><text xml:space="preserve" font-family="Futura-Medium" font-size="36.0" fill="#000000" transform="matrix(1.00, 0.00, -0.00, -1.00, 680.4, 535.0)">y</text><text xml:space="preserve" font-family="Futura-Medium" font-size="36.0" fill="#000000" transform="matrix(1.00, 0.00, -0.00, -1.00, 700.0, 535.0)"> </text><text xml:space="preserve" font-family="Futura-Medium" font-size="36.0" fill="#000000" transform="matrix(1.00, 0.00, -0.00, -1.00, 711.1, 535.0)">s</text><text xml:space="preserve" font-family="Futura-Medium" font-size="36.0" fill="#000000" transform="matrix(1.00, 0.00, -0.00, -1.00, 725.7, 535.0)">o</text><text xml:space="preserve" font-family="Futura-Medium" font-size="36.0" fill="#000000" transform="matrix(1.00, 0.00, -0.00, -1.00, 747.3, 535.0)">u</text><text xml:space="preserve" font-family="Futura-Medium" font-size="36.0" fill="#000000" transform="matrix(1.00, 0.00, -0.00, -1.00, 766.9, 535.0)">r</text><text xml:space="preserve" font-family="Futura-Medium" font-size="36.0" fill="#000000" transform="matrix(1.00, 0.00, -0.00, -1.00, 780.1, 535.0)">c</text><text xml:space="preserve" font-family="Futura-Medium" font-size="36.0" fill="#000000" transform="matrix(1.00, 0.00, -0.00, -1.00, 797.2, 535.0)">e</text><text xml:space="preserve" font-family="Futura-Medium" font-size="36.0" fill="#000000" transform="matrix(1.00, 0.00, -0.00, -1.00, 817.1, 535.0)">d</text><text xml:space="preserve" font-family="Futura-Medium" font-size="36.0" fill="#000000" transform="matrix(1.00, 0.00, -0.00, -1.00, 838.7, 535.0)"> </text><text xml:space="preserve" font-family="Futura-Medium" font-size="36.0" fill="#000000" transform="matrix(1.00, 0.00, -0.00, -1.00, 849.8, 535.0)">f</text><text xml:space="preserve" font-family="Futura-Medium" font-size="36.0" fill="#000000" transform="matrix(1.00, 0.00, -0.00, -1.00, 860.5, 535.0)">r</text><text xml:space="preserve" font-family="Futura-Medium" font-size="36.0" fill="#000000" transform="matrix(1.00, 0.00, -0.00, -1.00, 873.6, 535.0)">o</text><text xml:space="preserve" font-family="Futura-Medium" font-size="36.0" fill="#000000" transform="matrix(1.00, 0.00, -0.00, -1.00, 895.3, 535.0)">m</text><text xml:space="preserve" font-family="Futura-Medium" font-size="36.0" fill="#000000" transform="matrix(1.00, 0.00, -0.00, -1.00, 923.7, 535.0)">:</text><text xml:space="preserve" font-family="Futura-Medium" font-size="36.0" fill="#000000" transform="matrix(1.00, 0.00, -0.00, -1.00, 934.8, 535.0)"> </text><text xml:space="preserve" font-family="Futura-Medium" font-size="36.0" fill="#000000" transform="matrix(1.00, 0.00, -0.00, -1.00, 28.0, 441.0)">1</text><text xml:space="preserve" font-family="Futura-Medium" font-size="36.0" fill="#000000" transform="matrix(1.00, 0.00, -0.00, -1.00, 48.1, 441.0)">.</text><text xml:space="preserve" font-family="Futura-Medium" font-size="36.0" fill="#000000" transform="matrix(1.00, 0.00, -0.00, -1.00, 59.2, 441.0)"> </text><text xml:space="preserve" font-family="Futura-Medium" font-size="36.0" fill="#000000" transform="matrix(1.00, 0.00, -0.00, -1.00, 70.3, 441.0)">h</text><text xml:space="preserve" font-family="Futura-Medium" font-size="36.0" fill="#000000" transform="matrix(1.00, 0.00, -0.00, -1.00, 90.1, 441.0)">t</text><text xml:space="preserve" font-family="Futura-Medium" font-size="36.0" fill="#000000" transform="matrix(1.00, 0.00, -0.00, -1.00, 99.9, 441.0)">t</text><text xml:space="preserve" font-family="Futura-Medium" font-size="36.0" fill="#000000" transform="matrix(1.00, 0.00, -0.00, -1.00, 109.8, 441.0)">p</text><text xml:space="preserve" font-family="Futura-Medium" font-size="36.0" fill="#000000" transform="matrix(1.00, 0.00, -0.00, -1.00, 131.3, 441.0)">s</text><text xml:space="preserve" font-family="Futura-Medium" font-size="36.0" fill="#000000" transform="matrix(1.00, 0.00, -0.00, -1.00, 145.9, 441.0)">:</text><text xml:space="preserve" font-family="Futura-Medium" font-size="36.0" fill="#000000" transform="matrix(1.00, 0.00, -0.00, -1.00, 157.0, 441.0)">/</text><text xml:space="preserve" font-family="Futura-Medium" font-size="36.0" fill="#000000" transform="matrix(1.00, 0.00, -0.00, -1.00, 175.7, 441.0)">/</text><text xml:space="preserve" font-family="Futura-Medium" font-size="36.0" fill="#000000" transform="matrix(1.00, 0.00, -0.00, -1.00, 194.4, 441.0)">g</text><text xml:space="preserve" font-family="Futura-Medium" font-size="36.0" fill="#000000" transform="matrix(1.00, 0.00, -0.00, -1.00, 215.9, 441.0)">i</text><text xml:space="preserve" font-family="Futura-Medium" font-size="36.0" fill="#000000" transform="matrix(1.00, 0.00, -0.00, -1.00, 224.9, 441.0)">t</text><text xml:space="preserve" font-family="Futura-Medium" font-size="36.0" fill="#000000" transform="matrix(1.00, 0.00, -0.00, -1.00, 235.4, 441.0)">h</text><text xml:space="preserve" font-family="Futura-Medium" font-size="36.0" fill="#000000" transform="matrix(1.00, 0.00, -0.00, -1.00, 255.2, 441.0)">u</text><text xml:space="preserve" font-family="Futura-Medium" font-size="36.0" fill="#000000" transform="matrix(1.00, 0.00, -0.00, -1.00, 274.8, 441.0)">b</text><text xml:space="preserve" font-family="Futura-Medium" font-size="36.0" fill="#000000" transform="matrix(1.00, 0.00, -0.00, -1.00, 296.4, 441.0)">.</text><text xml:space="preserve" font-family="Futura-Medium" font-size="36.0" fill="#000000" transform="matrix(1.00, 0.00, -0.00, -1.00, 307.5, 441.0)">c</text><text xml:space="preserve" font-family="Futura-Medium" font-size="36.0" fill="#000000" transform="matrix(1.00, 0.00, -0.00, -1.00, 324.6, 441.0)">o</text><text xml:space="preserve" font-family="Futura-Medium" font-size="36.0" fill="#000000" transform="matrix(1.00, 0.00, -0.00, -1.00, 346.3, 441.0)">m</text><text xml:space="preserve" font-family="Futura-Medium" font-size="36.0" fill="#000000" transform="matrix(1.00, 0.00, -0.00, -1.00, 374.7, 441.0)">/</text><text xml:space="preserve" font-family="Futura-Medium" font-size="36.0" fill="#000000" transform="matrix(1.00, 0.00, -0.00, -1.00, 393.4, 441.0)">s</text><text xml:space="preserve" font-family="Futura-Medium" font-size="36.0" fill="#000000" transform="matrix(1.00, 0.00, -0.00, -1.00, 408.0, 441.0)">t</text><text xml:space="preserve" font-family="Futura-Medium" font-size="36.0" fill="#000000" transform="matrix(1.00, 0.00, -0.00, -1.00, 417.8, 441.0)">u</text><text xml:space="preserve" font-family="Futura-Medium" font-size="36.0" fill="#000000" transform="matrix(1.00, 0.00, -0.00, -1.00, 437.5, 441.0)">a</text><text xml:space="preserve" font-family="Futura-Medium" font-size="36.0" fill="#000000" transform="matrix(1.00, 0.00, -0.00, -1.00, 459.0, 441.0)">r</text><text xml:space="preserve" font-family="Futura-Medium" font-size="36.0" fill="#000000" transform="matrix(1.00, 0.00, -0.00, -1.00, 473.8, 441.0)">t</text><text xml:space="preserve" font-family="Futura-Medium" font-size="36.0" fill="#000000" transform="matrix(1.00, 0.00, -0.00, -1.00, 484.4, 441.0)">h</text><text xml:space="preserve" font-family="Futura-Medium" font-size="36.0" fill="#000000" transform="matrix(1.00, 0.00, -0.00, -1.00, 504.1, 441.0)">a</text><text xml:space="preserve" font-family="Futura-Medium" font-size="36.0" fill="#000000" transform="matrix(1.00, 0.00, -0.00, -1.00, 525.7, 441.0)">l</text><text xml:space="preserve" font-family="Futura-Medium" font-size="36.0" fill="#000000" transform="matrix(1.00, 0.00, -0.00, -1.00, 534.7, 441.0)">l</text><text xml:space="preserve" font-family="Futura-Medium" font-size="36.0" fill="#000000" transform="matrix(1.00, 0.00, -0.00, -1.00, 543.6, 441.0)">o</text><text xml:space="preserve" font-family="Futura-Medium" font-size="36.0" fill="#000000" transform="matrix(1.00, 0.00, -0.00, -1.00, 564.6, 441.0)">w</text><text xml:space="preserve" font-family="Futura-Medium" font-size="36.0" fill="#000000" transform="matrix(1.00, 0.00, -0.00, -1.00, 591.9, 441.0)">a</text><text xml:space="preserve" font-family="Futura-Medium" font-size="36.0" fill="#000000" transform="matrix(1.00, 0.00, -0.00, -1.00, 613.7, 441.0)">y</text><text xml:space="preserve" font-family="Futura-Medium" font-size="36.0" fill="#000000" transform="matrix(1.00, 0.00, -0.00, -1.00, 633.3, 441.0)">/</text><text xml:space="preserve" font-family="Futura-Medium" font-size="36.0" fill="#000000" transform="matrix(1.00, 0.00, -0.00, -1.00, 652.0, 441.0)">c</text><text xml:space="preserve" font-family="Futura-Medium" font-size="36.0" fill="#000000" transform="matrix(1.00, 0.00, -0.00, -1.00, 669.1, 441.0)">l</text><text xml:space="preserve" font-family="Futura-Medium" font-size="36.0" fill="#000000" transform="matrix(1.00, 0.00, -0.00, -1.00, 678.1, 441.0)">o</text><text xml:space="preserve" font-family="Futura-Medium" font-size="36.0" fill="#000000" transform="matrix(1.00, 0.00, -0.00, -1.00, 699.7, 441.0)">j</text><text xml:space="preserve" font-family="Futura-Medium" font-size="36.0" fill="#000000" transform="matrix(1.00, 0.00, -0.00, -1.00, 708.7, 441.0)">u</text><text xml:space="preserve" font-family="Futura-Medium" font-size="36.0" fill="#000000" transform="matrix(1.00, 0.00, -0.00, -1.00, 728.3, 441.0)">r</text><text xml:space="preserve" font-family="Futura-Medium" font-size="36.0" fill="#000000" transform="matrix(1.00, 0.00, -0.00, -1.00, 741.5, 441.0)">e</text><text xml:space="preserve" font-family="Futura-Medium" font-size="36.0" fill="#000000" transform="matrix(1.00, 0.00, -0.00, -1.00, 761.5, 441.0)">-</text><text xml:space="preserve" font-family="Futura-Medium" font-size="36.0" fill="#000000" transform="matrix(1.00, 0.00, -0.00, -1.00, 769.3, 441.0)">p</text><text xml:space="preserve" font-family="Futura-Medium" font-size="36.0" fill="#000000" transform="matrix(1.00, 0.00, -0.00, -1.00, 790.9, 441.0)">r</text><text xml:space="preserve" font-family="Futura-Medium" font-size="36.0" fill="#000000" transform="matrix(1.00, 0.00, -0.00, -1.00, 804.1, 441.0)">e</text><text xml:space="preserve" font-family="Futura-Medium" font-size="36.0" fill="#000000" transform="matrix(1.00, 0.00, -0.00, -1.00, 824.0, 441.0)">s</text><text xml:space="preserve" font-family="Futura-Medium" font-size="36.0" fill="#000000" transform="matrix(1.00, 0.00, -0.00, -1.00, 838.6, 441.0)">e</text><text xml:space="preserve" font-family="Futura-Medium" font-size="36.0" fill="#000000" transform="matrix(1.00, 0.00, -0.00, -1.00, 858.5, 441.0)">n</text><text xml:space="preserve" font-family="Futura-Medium" font-size="36.0" fill="#000000" transform="matrix(1.00, 0.00, -0.00, -1.00, 878.3, 441.0)">t</text><text xml:space="preserve" font-family="Futura-Medium" font-size="36.0" fill="#000000" transform="matrix(1.00, 0.00, -0.00, -1.00, 888.5, 441.0)">a</text><text xml:space="preserve" font-family="Futura-Medium" font-size="36.0" fill="#000000" transform="matrix(1.00, 0.00, -0.00, -1.00, 910.0, 441.0)">t</text><text xml:space="preserve" font-family="Futura-Medium" font-size="36.0" fill="#000000" transform="matrix(1.00, 0.00, -0.00, -1.00, 919.9, 441.0)">i</text><text xml:space="preserve" font-family="Futura-Medium" font-size="36.0" fill="#000000" transform="matrix(1.00, 0.00, -0.00, -1.00, 928.8, 441.0)">o</text><text xml:space="preserve" font-family="Futura-Medium" font-size="36.0" fill="#000000" transform="matrix(1.00, 0.00, -0.00, -1.00, 950.5, 441.0)">n</text><text xml:space="preserve" font-family="Futura-Medium" font-size="36.0" fill="#000000" transform="matrix(1.00, 0.00, -0.00, -1.00, 970.2, 441.0)">s</text><text xml:space="preserve" font-family="Futura-Medium" font-size="36.0" fill="#000000" transform="matrix(1.00, 0.00, -0.00, -1.00, 984.8, 441.0)"> </text><g><clipPath id="clip-60"><path d="M 26.5 435.0 L 58.7 435.0 L 58.7 439.8 L 26.5 439.8 Z M 26.5 435.0 "></path></clipPath><g clip-path="url(#clip-60)"><path d="M 4.0 138.1 L 35.2 138.1 " fill="none" stroke="#000000" stroke-width="2.81" stroke-miterlimit="0.00" transform="matrix(1.00, 0.00, 0.00, -1.00, 23.5, 575.5)"></path></g></g><g><clipPath id="clip-61"><path d="M 68.8 435.0 L 984.4 435.0 L 984.4 439.8 L 68.8 439.8 Z M 68.8 435.0 "></path></clipPath><g clip-path="url(#clip-61)"><path d="M 46.3 138.1 L 960.8 138.1 " fill="none" stroke="#000000" stroke-width="2.81" stroke-miterlimit="0.00" transform="matrix(1.00, 0.00, 0.00, -1.00, 23.5, 575.5)"></path></g></g><text xml:space="preserve" font-family="Futura-Medium" font-size="36.0" fill="#000000" transform="matrix(1.00, 0.00, -0.00, -1.00, 28.0, 347.0)">2</text><text xml:space="preserve" font-family="Futura-Medium" font-size="36.0" fill="#000000" transform="matrix(1.00, 0.00, -0.00, -1.00, 50.2, 347.0)">.</text><text xml:space="preserve" font-family="Futura-Medium" font-size="36.0" fill="#000000" transform="matrix(1.00, 0.00, -0.00, -1.00, 61.3, 347.0)"> </text><text xml:space="preserve" font-family="Futura-Medium" font-size="36.0" fill="#000000" transform="matrix(1.00, 0.00, -0.00, -1.00, 72.4, 347.0)">C</text><text xml:space="preserve" font-family="Futura-Medium" font-size="36.0" fill="#000000" transform="matrix(1.00, 0.00, -0.00, -1.00, 97.6, 347.0)">l</text><text xml:space="preserve" font-family="Futura-Medium" font-size="36.0" fill="#000000" transform="matrix(1.00, 0.00, -0.00, -1.00, 106.6, 347.0)">o</text><text xml:space="preserve" font-family="Futura-Medium" font-size="36.0" fill="#000000" transform="matrix(1.00, 0.00, -0.00, -1.00, 128.2, 347.0)">j</text><text xml:space="preserve" font-family="Futura-Medium" font-size="36.0" fill="#000000" transform="matrix(1.00, 0.00, -0.00, -1.00, 137.2, 347.0)">u</text><text xml:space="preserve" font-family="Futura-Medium" font-size="36.0" fill="#000000" transform="matrix(1.00, 0.00, -0.00, -1.00, 156.8, 347.0)">r</text><text xml:space="preserve" font-family="Futura-Medium" font-size="36.0" fill="#000000" transform="matrix(1.00, 0.00, -0.00, -1.00, 170.0, 347.0)">e</text><text xml:space="preserve" font-family="Futura-Medium" font-size="36.0" fill="#000000" transform="matrix(1.00, 0.00, -0.00, -1.00, 190.0, 347.0)"> </text><text xml:space="preserve" font-family="Futura-Medium" font-size="36.0" fill="#000000" transform="matrix(1.00, 0.00, -0.00, -1.00, 201.1, 347.0)">C</text><text xml:space="preserve" font-family="Futura-Medium" font-size="36.0" fill="#000000" transform="matrix(1.00, 0.00, -0.00, -1.00, 226.3, 347.0)">o</text><text xml:space="preserve" font-family="Futura-Medium" font-size="36.0" fill="#000000" transform="matrix(1.00, 0.00, -0.00, -1.00, 247.9, 347.0)">n</text><text xml:space="preserve" font-family="Futura-Medium" font-size="36.0" fill="#000000" transform="matrix(1.00, 0.00, -0.00, -1.00, 267.7, 347.0)">c</text><text xml:space="preserve" font-family="Futura-Medium" font-size="36.0" fill="#000000" transform="matrix(1.00, 0.00, -0.00, -1.00, 284.8, 347.0)">u</text><text xml:space="preserve" font-family="Futura-Medium" font-size="36.0" fill="#000000" transform="matrix(1.00, 0.00, -0.00, -1.00, 304.4, 347.0)">r</text><text xml:space="preserve" font-family="Futura-Medium" font-size="36.0" fill="#000000" transform="matrix(1.00, 0.00, -0.00, -1.00, 318.4, 347.0)">r</text><text xml:space="preserve" font-family="Futura-Medium" font-size="36.0" fill="#000000" transform="matrix(1.00, 0.00, -0.00, -1.00, 331.7, 347.0)">e</text><text xml:space="preserve" font-family="Futura-Medium" font-size="36.0" fill="#000000" transform="matrix(1.00, 0.00, -0.00, -1.00, 351.6, 347.0)">n</text><text xml:space="preserve" font-family="Futura-Medium" font-size="36.0" fill="#000000" transform="matrix(1.00, 0.00, -0.00, -1.00, 371.3, 347.0)">c</text><text xml:space="preserve" font-family="Futura-Medium" font-size="36.0" fill="#000000" transform="matrix(1.00, 0.00, -0.00, -1.00, 388.5, 347.0)">y</text><text xml:space="preserve" font-family="Futura-Medium" font-size="36.0" fill="#000000" transform="matrix(1.00, 0.00, -0.00, -1.00, 408.1, 347.0)"> </text><text xml:space="preserve" font-family="Futura-Medium" font-size="36.0" fill="#000000" transform="matrix(1.00, 0.00, -0.00, -1.00, 419.1, 347.0)">-</text><text xml:space="preserve" font-family="Futura-Medium" font-size="36.0" fill="#000000" transform="matrix(1.00, 0.00, -0.00, -1.00, 427.0, 347.0)"> </text><text xml:space="preserve" font-family="Futura-Medium" font-size="36.0" fill="#000000" transform="matrix(1.00, 0.00, -0.00, -1.00, 438.1, 347.0)">R</text><text xml:space="preserve" font-family="Futura-Medium" font-size="36.0" fill="#000000" transform="matrix(1.00, 0.00, -0.00, -1.00, 459.8, 347.0)">i</text><text xml:space="preserve" font-family="Futura-Medium" font-size="36.0" fill="#000000" transform="matrix(1.00, 0.00, -0.00, -1.00, 468.7, 347.0)">c</text><text xml:space="preserve" font-family="Futura-Medium" font-size="36.0" fill="#000000" transform="matrix(1.00, 0.00, -0.00, -1.00, 486.8, 347.0)">h</text><text xml:space="preserve" font-family="Futura-Medium" font-size="36.0" fill="#000000" transform="matrix(1.00, 0.00, -0.00, -1.00, 506.5, 347.0)"> </text><text xml:space="preserve" font-family="Futura-Medium" font-size="36.0" fill="#000000" transform="matrix(1.00, 0.00, -0.00, -1.00, 517.6, 347.0)">H</text><text xml:space="preserve" font-family="Futura-Medium" font-size="36.0" fill="#000000" transform="matrix(1.00, 0.00, -0.00, -1.00, 544.1, 347.0)">i</text><text xml:space="preserve" font-family="Futura-Medium" font-size="36.0" fill="#000000" transform="matrix(1.00, 0.00, -0.00, -1.00, 553.0, 347.0)">c</text><text xml:space="preserve" font-family="Futura-Medium" font-size="36.0" fill="#000000" transform="matrix(1.00, 0.00, -0.00, -1.00, 571.1, 347.0)">k</text><text xml:space="preserve" font-family="Futura-Medium" font-size="36.0" fill="#000000" transform="matrix(1.00, 0.00, -0.00, -1.00, 588.4, 347.0)">e</text><text xml:space="preserve" font-family="Futura-Medium" font-size="36.0" fill="#000000" transform="matrix(1.00, 0.00, -0.00, -1.00, 607.7, 347.0)">y</text><text xml:space="preserve" font-family="Futura-Medium" font-size="36.0" fill="#000000" transform="matrix(1.00, 0.00, -0.00, -1.00, 627.3, 347.0)"> </text><text xml:space="preserve" font-family="Futura-Medium" font-size="36.0" fill="#000000" transform="matrix(1.00, 0.00, -0.00, -1.00, 638.4, 347.0)">(</text><text xml:space="preserve" font-family="Futura-Medium" font-size="36.0" fill="#000000" transform="matrix(1.00, 0.00, -0.00, -1.00, 651.7, 347.0)">h</text><text xml:space="preserve" font-family="Futura-Medium" font-size="36.0" fill="#000000" transform="matrix(1.00, 0.00, -0.00, -1.00, 671.4, 347.0)">t</text><text xml:space="preserve" font-family="Futura-Medium" font-size="36.0" fill="#000000" transform="matrix(1.00, 0.00, -0.00, -1.00, 681.3, 347.0)">t</text><text xml:space="preserve" font-family="Futura-Medium" font-size="36.0" fill="#000000" transform="matrix(1.00, 0.00, -0.00, -1.00, 691.1, 347.0)">p</text><text xml:space="preserve" font-family="Futura-Medium" font-size="36.0" fill="#000000" transform="matrix(1.00, 0.00, -0.00, -1.00, 712.7, 347.0)">s</text><text xml:space="preserve" font-family="Futura-Medium" font-size="36.0" fill="#000000" transform="matrix(1.00, 0.00, -0.00, -1.00, 727.3, 347.0)">:</text><text xml:space="preserve" font-family="Futura-Medium" font-size="36.0" fill="#000000" transform="matrix(1.00, 0.00, -0.00, -1.00, 738.4, 347.0)">/</text><text xml:space="preserve" font-family="Futura-Medium" font-size="36.0" fill="#000000" transform="matrix(1.00, 0.00, -0.00, -1.00, 757.0, 347.0)">/</text><text xml:space="preserve" font-family="Futura-Medium" font-size="36.0" fill="#000000" transform="matrix(1.00, 0.00, -0.00, -1.00, 775.7, 347.0)">y</text><text xml:space="preserve" font-family="Futura-Medium" font-size="36.0" fill="#000000" transform="matrix(1.00, 0.00, -0.00, -1.00, 794.6, 347.0)">o</text><text xml:space="preserve" font-family="Futura-Medium" font-size="36.0" fill="#000000" transform="matrix(1.00, 0.00, -0.00, -1.00, 816.2, 347.0)">u</text><text xml:space="preserve" font-family="Futura-Medium" font-size="36.0" fill="#000000" transform="matrix(1.00, 0.00, -0.00, -1.00, 835.9, 347.0)">t</text><text xml:space="preserve" font-family="Futura-Medium" font-size="36.0" fill="#000000" transform="matrix(1.00, 0.00, -0.00, -1.00, 845.7, 347.0)">u</text><text xml:space="preserve" font-family="Futura-Medium" font-size="36.0" fill="#000000" transform="matrix(1.00, 0.00, -0.00, -1.00, 865.3, 347.0)">.</text><text xml:space="preserve" font-family="Futura-Medium" font-size="36.0" fill="#000000" transform="matrix(1.00, 0.00, -0.00, -1.00, 876.4, 347.0)">b</text><text xml:space="preserve" font-family="Futura-Medium" font-size="36.0" fill="#000000" transform="matrix(1.00, 0.00, -0.00, -1.00, 898.0, 347.0)">e</text><text xml:space="preserve" font-family="Futura-Medium" font-size="36.0" fill="#000000" transform="matrix(1.00, 0.00, -0.00, -1.00, 917.9, 347.0)">/</text><g><clipPath id="clip-62"><path d="M 26.5 341.0 L 60.9 341.0 L 60.9 345.8 L 26.5 345.8 Z M 26.5 341.0 "></path></clipPath><g clip-path="url(#clip-62)"><path d="M 4.0 232.1 L 37.3 232.1 " fill="none" stroke="#000000" stroke-width="2.81" stroke-miterlimit="0.00" transform="matrix(1.00, 0.00, 0.00, -1.00, 23.5, 575.5)"></path></g></g><g><clipPath id="clip-63"><path d="M 650.2 341.0 L 936.1 341.0 L 936.1 345.8 L 650.2 345.8 Z M 650.2 341.0 "></path></clipPath><g clip-path="url(#clip-63)"><path d="M 627.7 232.1 L 912.6 232.1 " fill="none" stroke="#000000" stroke-width="2.81" stroke-miterlimit="0.00" transform="matrix(1.00, 0.00, 0.00, -1.00, 23.5, 575.5)"></path></g></g><text xml:space="preserve" font-family="Futura-Medium" font-size="36.0" fill="#000000" transform="matrix(1.00, 0.00, -0.00, -1.00, 28.0, 300.0)">d</text><text xml:space="preserve" font-family="Futura-Medium" font-size="36.0" fill="#000000" transform="matrix(1.00, 0.00, -0.00, -1.00, 49.6, 300.0)">G</text><text xml:space="preserve" font-family="Futura-Medium" font-size="36.0" fill="#000000" transform="matrix(1.00, 0.00, -0.00, -1.00, 79.3, 300.0)">V</text><text xml:space="preserve" font-family="Futura-Medium" font-size="36.0" fill="#000000" transform="matrix(1.00, 0.00, -0.00, -1.00, 103.6, 300.0)">q</text><text xml:space="preserve" font-family="Futura-Medium" font-size="36.0" fill="#000000" transform="matrix(1.00, 0.00, -0.00, -1.00, 125.2, 300.0)">r</text><text xml:space="preserve" font-family="Futura-Medium" font-size="36.0" fill="#000000" transform="matrix(1.00, 0.00, -0.00, -1.00, 138.6, 300.0)">G</text><text xml:space="preserve" font-family="Futura-Medium" font-size="36.0" fill="#000000" transform="matrix(1.00, 0.00, -0.00, -1.00, 169.0, 300.0)">m</text><text xml:space="preserve" font-family="Futura-Medium" font-size="36.0" fill="#000000" transform="matrix(1.00, 0.00, -0.00, -1.00, 196.9, 300.0)">w</text><text xml:space="preserve" font-family="Futura-Medium" font-size="36.0" fill="#000000" transform="matrix(1.00, 0.00, -0.00, -1.00, 224.8, 300.0)">O</text><text xml:space="preserve" font-family="Futura-Medium" font-size="36.0" fill="#000000" transform="matrix(1.00, 0.00, -0.00, -1.00, 255.6, 300.0)">A</text><text xml:space="preserve" font-family="Futura-Medium" font-size="36.0" fill="#000000" transform="matrix(1.00, 0.00, -0.00, -1.00, 281.5, 300.0)">w</text><text xml:space="preserve" font-family="Futura-Medium" font-size="36.0" fill="#000000" transform="matrix(1.00, 0.00, -0.00, -1.00, 309.4, 300.0)">)</text><text xml:space="preserve" font-family="Futura-Medium" font-size="36.0" fill="#000000" transform="matrix(1.00, 0.00, -0.00, -1.00, 322.6, 300.0)"> </text><g><clipPath id="clip-64"><path d="M 26.5 294.0 L 308.9 294.0 L 308.9 298.8 L 26.5 298.8 Z M 26.5 294.0 "></path></clipPath><g clip-path="url(#clip-64)"><path d="M 4.0 279.1 L 285.4 279.1 " fill="none" stroke="#000000" stroke-width="2.81" stroke-miterlimit="0.00" transform="matrix(1.00, 0.00, 0.00, -1.00, 23.5, 575.5)"></path></g></g></g></svg>