<?xml version="1.0" encoding="UTF-8" standalone="no"?><svg xmlns="http://www.w3.org/2000/svg" xmlns:xlink="http://www.w3.org/1999/xlink" clip-rule="evenodd" stroke-miterlimit="4.00" viewBox="0 0 1024 768"><desc>SVG generated by Keynote</desc><defs></defs><g transform="matrix(1.00, 0.00, -0.00, -1.00, 0.0, 768.0)"><path d="M 0.0 768.0 L 1024.0 768.0 L 1024.0 0.0 L 0.0 0.0 Z M 0.0 768.0 " fill="#F9F4DE"></path><text xml:space="preserve" font-family="Futura-Medium" font-size="36.0" fill="#000000" transform="matrix(1.00, 0.00, -0.00, -1.00, 212.0, 464.0)">g</text><text xml:space="preserve" font-family="Futura-Medium" font-size="36.0" fill="#000000" transform="matrix(1.00, 0.00, -0.00, -1.00, 233.5, 464.0)">i</text><text xml:space="preserve" font-family="Futura-Medium" font-size="36.0" fill="#000000" transform="matrix(1.00, 0.00, -0.00, -1.00, 242.5, 464.0)">t</text><text xml:space="preserve" font-family="Futura-Medium" font-size="36.0" fill="#000000" transform="matrix(1.00, 0.00, -0.00, -1.00, 253.1, 464.0)">h</text><text xml:space="preserve" font-family="Futura-Medium" font-size="36.0" fill="#000000" transform="matrix(1.00, 0.00, -0.00, -1.00, 272.8, 464.0)">u</text><text xml:space="preserve" font-family="Futura-Medium" font-size="36.0" fill="#000000" transform="matrix(1.00, 0.00, -0.00, -1.00, 292.4, 464.0)">b</text><text xml:space="preserve" font-family="Futura-Medium" font-size="36.0" fill="#000000" transform="matrix(1.00, 0.00, -0.00, -1.00, 314.0, 464.0)">.</text><text xml:space="preserve" font-family="Futura-Medium" font-size="36.0" fill="#000000" transform="matrix(1.00, 0.00, -0.00, -1.00, 325.1, 464.0)">c</text><text xml:space="preserve" font-family="Futura-Medium" font-size="36.0" fill="#000000" transform="matrix(1.00, 0.00, -0.00, -1.00, 342.3, 464.0)">o</text><text xml:space="preserve" font-family="Futura-Medium" font-size="36.0" fill="#000000" transform="matrix(1.00, 0.00, -0.00, -1.00, 363.9, 464.0)">m</text><text xml:space="preserve" font-family="Futura-Medium" font-size="36.0" fill="#000000" transform="matrix(1.00, 0.00, -0.00, -1.00, 392.4, 464.0)">/</text><text xml:space="preserve" font-family="Futura-Medium" font-size="36.0" fill="#000000" transform="matrix(1.00, 0.00, -0.00, -1.00, 411.0, 464.0)">w</text><text xml:space="preserve" font-family="Futura-Medium" font-size="36.0" fill="#000000" transform="matrix(1.00, 0.00, -0.00, -1.00, 438.3, 464.0)">e</text><text xml:space="preserve" font-family="Futura-Medium" font-size="36.0" fill="#000000" transform="matrix(1.00, 0.00, -0.00, -1.00, 458.3, 464.0)">b</text><text xml:space="preserve" font-family="Futura-Medium" font-size="36.0" fill="#000000" transform="matrix(1.00, 0.00, -0.00, -1.00, 479.8, 464.0)">a</text><text xml:space="preserve" font-family="Futura-Medium" font-size="36.0" fill="#000000" transform="matrix(1.00, 0.00, -0.00, -1.00, 501.4, 464.0)">p</text><text xml:space="preserve" font-family="Futura-Medium" font-size="36.0" fill="#000000" transform="matrix(1.00, 0.00, -0.00, -1.00, 523.0, 464.0)">p</text><text xml:space="preserve" font-family="Futura-Medium" font-size="36.0" fill="#000000" transform="matrix(1.00, 0.00, -0.00, -1.00, 544.6, 464.0)">z</text><text xml:space="preserve" font-family="Futura-Medium" font-size="36.0" fill="#000000" transform="matrix(1.00, 0.00, -0.00, -1.00, 564.1, 464.0)">e</text><text xml:space="preserve" font-family="Futura-Medium" font-size="36.0" fill="#000000" transform="matrix(1.00, 0.00, -0.00, -1.00, 584.1, 464.0)">r</text><text xml:space="preserve" font-family="Futura-Medium" font-size="36.0" fill="#000000" transform="matrix(1.00, 0.00, -0.00, -1.00, 597.2, 464.0)">o</text><text xml:space="preserve" font-family="Futura-Medium" font-size="36.0" fill="#000000" transform="matrix(1.00, 0.00, -0.00, -1.00, 618.8, 464.0)">/</text><text xml:space="preserve" font-family="Futura-Medium" font-size="36.0" fill="#000000" transform="matrix(1.00, 0.00, -0.00, -1.00, 637.5, 464.0)">w</text><text xml:space="preserve" font-family="Futura-Medium" font-size="36.0" fill="#000000" transform="matrix(1.00, 0.00, -0.00, -1.00, 665.4, 464.0)">h</text><text xml:space="preserve" font-family="Futura-Medium" font-size="36.0" fill="#000000" transform="matrix(1.00, 0.00, -0.00, -1.00, 684.5, 464.0)">y</text><text xml:space="preserve" font-family="Futura-Medium" font-size="36.0" fill="#000000" transform="matrix(1.00, 0.00, -0.00, -1.00, 703.4, 464.0)">c</text><text xml:space="preserve" font-family="Futura-Medium" font-size="36.0" fill="#000000" transform="matrix(1.00, 0.00, -0.00, -1.00, 720.5, 464.0)">l</text><text xml:space="preserve" font-family="Futura-Medium" font-size="36.0" fill="#000000" transform="matrix(1.00, 0.00, -0.00, -1.00, 729.5, 464.0)">o</text><text xml:space="preserve" font-family="Futura-Medium" font-size="36.0" fill="#000000" transform="matrix(1.00, 0.00, -0.00, -1.00, 751.1, 464.0)">j</text><text xml:space="preserve" font-family="Futura-Medium" font-size="36.0" fill="#000000" transform="matrix(1.00, 0.00, -0.00, -1.00, 760.1, 464.0)">u</text><text xml:space="preserve" font-family="Futura-Medium" font-size="36.0" fill="#000000" transform="matrix(1.00, 0.00, -0.00, -1.00, 779.7, 464.0)">r</text><text xml:space="preserve" font-family="Futura-Medium" font-size="36.0" fill="#000000" transform="matrix(1.00, 0.00, -0.00, -1.00, 792.9, 464.0)">e</text><text xml:space="preserve" font-family="Futura-Medium" font-size="36.0" fill="#000000" transform="matrix(1.00, 0.00, -0.00, -1.00, 812.9, 464.0)"> </text><g><clipPath id="clip-65"><path d="M 210.6 458.5 L 812.4 458.5 L 812.4 463.3 L 210.6 463.3 Z M 210.6 458.5 "></path></clipPath><g clip-path="url(#clip-65)"><path d="M 10.1 44.1 L 610.9 44.1 " fill="none" stroke="#000000" stroke-width="2.81" stroke-miterlimit="0.00" transform="matrix(1.00, 0.00, 0.00, -1.00, 201.5, 505.0)"></path></g></g><text xml:space="preserve" font-family="Futura-Medium" font-size="36.0" fill="#000000" transform="matrix(1.00, 0.00, -0.00, -1.00, 392.0, 370.0)">@</text><text xml:space="preserve" font-family="Futura-Medium" font-size="36.0" fill="#000000" transform="matrix(1.00, 0.00, -0.00, -1.00, 423.7, 370.0)">w</text><text xml:space="preserve" font-family="Futura-Medium" font-size="36.0" fill="#000000" transform="matrix(1.00, 0.00, -0.00, -1.00, 451.0, 370.0)">e</text><text xml:space="preserve" font-family="Futura-Medium" font-size="36.0" fill="#000000" transform="matrix(1.00, 0.00, -0.00, -1.00, 470.9, 370.0)">b</text><text xml:space="preserve" font-family="Futura-Medium" font-size="36.0" fill="#000000" transform="matrix(1.00, 0.00, -0.00, -1.00, 492.5, 370.0)">a</text><text xml:space="preserve" font-family="Futura-Medium" font-size="36.0" fill="#000000" transform="matrix(1.00, 0.00, -0.00, -1.00, 514.1, 370.0)">p</text><text xml:space="preserve" font-family="Futura-Medium" font-size="36.0" fill="#000000" transform="matrix(1.00, 0.00, -0.00, -1.00, 535.6, 370.0)">p</text><text xml:space="preserve" font-family="Futura-Medium" font-size="36.0" fill="#000000" transform="matrix(1.00, 0.00, -0.00, -1.00, 557.2, 370.0)">z</text><text xml:space="preserve" font-family="Futura-Medium" font-size="36.0" fill="#000000" transform="matrix(1.00, 0.00, -0.00, -1.00, 576.8, 370.0)">e</text><text xml:space="preserve" font-family="Futura-Medium" font-size="36.0" fill="#000000" transform="matrix(1.00, 0.00, -0.00, -1.00, 596.7, 370.0)">r</text><text xml:space="preserve" font-family="Futura-Medium" font-size="36.0" fill="#000000" transform="matrix(1.00, 0.00, -0.00, -1.00, 609.9, 370.0)">o</text><text xml:space="preserve" font-family="Futura-Medium" font-size="36.0" fill="#000000" transform="matrix(1.00, 0.00, -0.00, -1.00, 631.5, 370.0)"> </text><text xml:space="preserve" font-family="Futura-Medium" font-size="36.0" fill="#000000" transform="matrix(1.00, 0.00, -0.00, -1.00, 369.0, 276.0)">w</text><text xml:space="preserve" font-family="Futura-Medium" font-size="36.0" fill="#000000" transform="matrix(1.00, 0.00, -0.00, -1.00, 396.3, 276.0)">e</text><text xml:space="preserve" font-family="Futura-Medium" font-size="36.0" fill="#000000" transform="matrix(1.00, 0.00, -0.00, -1.00, 416.2, 276.0)">b</text><text xml:space="preserve" font-family="Futura-Medium" font-size="36.0" fill="#000000" transform="matrix(1.00, 0.00, -0.00, -1.00, 437.8, 276.0)">a</text><text xml:space="preserve" font-family="Futura-Medium" font-size="36.0" fill="#000000" transform="matrix(1.00, 0.00, -0.00, -1.00, 459.4, 276.0)">p</text><text xml:space="preserve" font-family="Futura-Medium" font-size="36.0" fill="#000000" transform="matrix(1.00, 0.00, -0.00, -1.00, 481.0, 276.0)">p</text><text xml:space="preserve" font-family="Futura-Medium" font-size="36.0" fill="#000000" transform="matrix(1.00, 0.00, -0.00, -1.00, 502.5, 276.0)">z</text><text xml:space="preserve" font-family="Futura-Medium" font-size="36.0" fill="#000000" transform="matrix(1.00, 0.00, -0.00, -1.00, 522.1, 276.0)">e</text><text xml:space="preserve" font-family="Futura-Medium" font-size="36.0" fill="#000000" transform="matrix(1.00, 0.00, -0.00, -1.00, 542.0, 276.0)">r</text><text xml:space="preserve" font-family="Futura-Medium" font-size="36.0" fill="#000000" transform="matrix(1.00, 0.00, -0.00, -1.00, 555.2, 276.0)">o</text><text xml:space="preserve" font-family="Futura-Medium" font-size="36.0" fill="#000000" transform="matrix(1.00, 0.00, -0.00, -1.00, 576.8, 276.0)">.</text><text xml:space="preserve" font-family="Futura-Medium" font-size="36.0" fill="#000000" transform="matrix(1.00, 0.00, -0.00, -1.00, 587.9, 276.0)">c</text><text xml:space="preserve" font-family="Futura-Medium" font-size="36.0" fill="#000000" transform="matrix(1.00, 0.00, -0.00, -1.00, 605.1, 276.0)">o</text><text xml:space="preserve" font-family="Futura-Medium" font-size="36.0" fill="#000000" transform="matrix(1.00, 0.00, -0.00, -1.00, 626.7, 276.0)">m</text><g><clipPath id="clip-66"><path d="M 367.9 270.5 L 655.1 270.5 L 655.1 275.3 L 367.9 275.3 Z M 367.9 270.5 "></path></clipPath><g clip-path="url(#clip-66)"><path d="M 167.4 232.1 L 453.6 232.1 " fill="none" stroke="#000000" stroke-width="2.81" stroke-miterlimit="0.00" transform="matrix(1.00, 0.00, 0.00, -1.00, 201.5, 505.0)"></path></g></g></g></svg>