<?xml version="1.0" encoding="UTF-8" standalone="no"?><svg xmlns="http://www.w3.org/2000/svg" xmlns:xlink="http://www.w3.org/1999/xlink" clip-rule="evenodd" stroke-miterlimit="4.00" viewBox="0 0 1024 768"><desc>SVG generated by Keynote</desc><defs></defs><g transform="matrix(1.00, 0.00, -0.00, -1.00, 0.0, 768.0)"><path d="M 0.0 768.0 L 1024.0 768.0 L 1024.0 0.0 L 0.0 0.0 Z M 0.0 768.0 " fill="#F9F4DE"></path><text xml:space="preserve" font-family="Futura-Medium" font-size="36.6" fill="#313531" transform="matrix(1.00, 0.00, -0.00, -1.00, 447.0, 705.0)">T</text><text xml:space="preserve" font-family="Futura-Medium" font-size="36.6" fill="#313531" transform="matrix(1.00, 0.00, -0.00, -1.00, 463.2, 705.0)">e</text><text xml:space="preserve" font-family="Futura-Medium" font-size="36.6" fill="#313531" transform="matrix(1.00, 0.00, -0.00, -1.00, 483.4, 705.0)">r</text><text xml:space="preserve" font-family="Futura-Medium" font-size="36.6" fill="#313531" transform="matrix(1.00, 0.00, -0.00, -1.00, 497.6, 705.0)">m</text><text xml:space="preserve" font-family="Futura-Medium" font-size="36.6" fill="#313531" transform="matrix(1.00, 0.00, -0.00, -1.00, 526.6, 705.0)">s</text><text xml:space="preserve" font-family="Futura-Medium" font-size="36.6" fill="#313531" transform="matrix(1.00, 0.00, -0.00, -1.00, 541.4, 705.0)"> </text><text xml:space="preserve" font-family="Futura-Medium" font-size="36.6" fill="#313531" transform="matrix(1.00, 0.00, -0.00, -1.00, 69.0, 624.0)">v</text><text xml:space="preserve" font-family="Futura-Medium" font-size="36.6" fill="#313531" transform="matrix(1.00, 0.00, -0.00, -1.00, 86.8, 624.0)">a</text><text xml:space="preserve" font-family="Futura-Medium" font-size="36.6" fill="#313531" transform="matrix(1.00, 0.00, -0.00, -1.00, 108.7, 624.0)">l</text><text xml:space="preserve" font-family="Futura-Medium" font-size="36.6" fill="#313531" transform="matrix(1.00, 0.00, -0.00, -1.00, 117.8, 624.0)">u</text><text xml:space="preserve" font-family="Futura-Medium" font-size="36.6" fill="#313531" transform="matrix(1.00, 0.00, -0.00, -1.00, 137.7, 624.0)">e</text><text xml:space="preserve" font-family="Futura-Medium" font-size="36.6" fill="#313531" transform="matrix(1.00, 0.00, -0.00, -1.00, 158.0, 624.0)">:</text><text xml:space="preserve" font-family="Futura-Medium" font-size="36.6" fill="#313531" transform="matrix(1.00, 0.00, -0.00, -1.00, 169.2, 624.0)"> </text><text xml:space="preserve" font-family="Futura-Medium" font-size="36.6" fill="#313531" transform="matrix(1.00, 0.00, -0.00, -1.00, 180.5, 624.0)">i</text><text xml:space="preserve" font-family="Futura-Medium" font-size="36.6" fill="#313531" transform="matrix(1.00, 0.00, -0.00, -1.00, 189.6, 624.0)">m</text><text xml:space="preserve" font-family="Futura-Medium" font-size="36.6" fill="#313531" transform="matrix(1.00, 0.00, -0.00, -1.00, 218.6, 624.0)">m</text><text xml:space="preserve" font-family="Futura-Medium" font-size="36.6" fill="#313531" transform="matrix(1.00, 0.00, -0.00, -1.00, 247.5, 624.0)">u</text><text xml:space="preserve" font-family="Futura-Medium" font-size="36.6" fill="#313531" transform="matrix(1.00, 0.00, -0.00, -1.00, 267.4, 624.0)">t</text><text xml:space="preserve" font-family="Futura-Medium" font-size="36.6" fill="#313531" transform="matrix(1.00, 0.00, -0.00, -1.00, 277.8, 624.0)">a</text><text xml:space="preserve" font-family="Futura-Medium" font-size="36.6" fill="#313531" transform="matrix(1.00, 0.00, -0.00, -1.00, 299.7, 624.0)">b</text><text xml:space="preserve" font-family="Futura-Medium" font-size="36.6" fill="#313531" transform="matrix(1.00, 0.00, -0.00, -1.00, 321.6, 624.0)">l</text><text xml:space="preserve" font-family="Futura-Medium" font-size="36.6" fill="#313531" transform="matrix(1.00, 0.00, -0.00, -1.00, 330.7, 624.0)">e</text><text xml:space="preserve" font-family="Futura-Medium" font-size="36.6" fill="#313531" transform="matrix(1.00, 0.00, -0.00, -1.00, 351.0, 624.0)"> </text><text xml:space="preserve" font-family="Futura-Medium" font-size="36.6" fill="#313531" transform="matrix(1.00, 0.00, -0.00, -1.00, 362.2, 624.0)">d</text><text xml:space="preserve" font-family="Futura-Medium" font-size="36.6" fill="#313531" transform="matrix(1.00, 0.00, -0.00, -1.00, 384.1, 624.0)">a</text><text xml:space="preserve" font-family="Futura-Medium" font-size="36.6" fill="#313531" transform="matrix(1.00, 0.00, -0.00, -1.00, 406.1, 624.0)">t</text><text xml:space="preserve" font-family="Futura-Medium" font-size="36.6" fill="#313531" transform="matrix(1.00, 0.00, -0.00, -1.00, 416.4, 624.0)">a</text><text xml:space="preserve" font-family="Futura-Medium" font-size="36.6" fill="#313531" transform="matrix(1.00, 0.00, -0.00, -1.00, 438.3, 624.0)"> </text><text xml:space="preserve" font-family="Futura-Medium" font-size="36.6" fill="#313531" transform="matrix(1.00, 0.00, -0.00, -1.00, 449.6, 624.0)">i</text><text xml:space="preserve" font-family="Futura-Medium" font-size="36.6" fill="#313531" transform="matrix(1.00, 0.00, -0.00, -1.00, 458.7, 624.0)">n</text><text xml:space="preserve" font-family="Futura-Medium" font-size="36.6" fill="#313531" transform="matrix(1.00, 0.00, -0.00, -1.00, 478.8, 624.0)"> </text><text xml:space="preserve" font-family="Futura-Medium" font-size="36.6" fill="#313531" transform="matrix(1.00, 0.00, -0.00, -1.00, 490.1, 624.0)">a</text><text xml:space="preserve" font-family="Futura-Medium" font-size="36.6" fill="#313531" transform="matrix(1.00, 0.00, -0.00, -1.00, 512.0, 624.0)"> </text><text xml:space="preserve" font-family="Futura-Medium" font-size="36.6" fill="#313531" transform="matrix(1.00, 0.00, -0.00, -1.00, 523.2, 624.0)">p</text><text xml:space="preserve" font-family="Futura-Medium" font-size="36.6" fill="#313531" transform="matrix(1.00, 0.00, -0.00, -1.00, 545.2, 624.0)">e</text><text xml:space="preserve" font-family="Futura-Medium" font-size="36.6" fill="#313531" transform="matrix(1.00, 0.00, -0.00, -1.00, 565.4, 624.0)">r</text><text xml:space="preserve" font-family="Futura-Medium" font-size="36.6" fill="#313531" transform="matrix(1.00, 0.00, -0.00, -1.00, 579.1, 624.0)">s</text><text xml:space="preserve" font-family="Futura-Medium" font-size="36.6" fill="#313531" transform="matrix(1.00, 0.00, -0.00, -1.00, 593.9, 624.0)">i</text><text xml:space="preserve" font-family="Futura-Medium" font-size="36.6" fill="#313531" transform="matrix(1.00, 0.00, -0.00, -1.00, 603.0, 624.0)">s</text><text xml:space="preserve" font-family="Futura-Medium" font-size="36.6" fill="#313531" transform="matrix(1.00, 0.00, -0.00, -1.00, 617.9, 624.0)">t</text><text xml:space="preserve" font-family="Futura-Medium" font-size="36.6" fill="#313531" transform="matrix(1.00, 0.00, -0.00, -1.00, 628.2, 624.0)">e</text><text xml:space="preserve" font-family="Futura-Medium" font-size="36.6" fill="#313531" transform="matrix(1.00, 0.00, -0.00, -1.00, 648.5, 624.0)">n</text><text xml:space="preserve" font-family="Futura-Medium" font-size="36.6" fill="#313531" transform="matrix(1.00, 0.00, -0.00, -1.00, 668.5, 624.0)">t</text><text xml:space="preserve" font-family="Futura-Medium" font-size="36.6" fill="#313531" transform="matrix(1.00, 0.00, -0.00, -1.00, 678.5, 624.0)"> </text><text xml:space="preserve" font-family="Futura-Medium" font-size="36.6" fill="#313531" transform="matrix(1.00, 0.00, -0.00, -1.00, 689.8, 624.0)">d</text><text xml:space="preserve" font-family="Futura-Medium" font-size="36.6" fill="#313531" transform="matrix(1.00, 0.00, -0.00, -1.00, 711.7, 624.0)">a</text><text xml:space="preserve" font-family="Futura-Medium" font-size="36.6" fill="#313531" transform="matrix(1.00, 0.00, -0.00, -1.00, 733.6, 624.0)">t</text><text xml:space="preserve" font-family="Futura-Medium" font-size="36.6" fill="#313531" transform="matrix(1.00, 0.00, -0.00, -1.00, 744.0, 624.0)">a</text><text xml:space="preserve" font-family="Futura-Medium" font-size="36.6" fill="#313531" transform="matrix(1.00, 0.00, -0.00, -1.00, 765.9, 624.0)"> </text><text xml:space="preserve" font-family="Futura-Medium" font-size="36.6" fill="#313531" transform="matrix(1.00, 0.00, -0.00, -1.00, 777.2, 624.0)">s</text><text xml:space="preserve" font-family="Futura-Medium" font-size="36.6" fill="#313531" transform="matrix(1.00, 0.00, -0.00, -1.00, 792.0, 624.0)">t</text><text xml:space="preserve" font-family="Futura-Medium" font-size="36.6" fill="#313531" transform="matrix(1.00, 0.00, -0.00, -1.00, 802.0, 624.0)">r</text><text xml:space="preserve" font-family="Futura-Medium" font-size="36.6" fill="#313531" transform="matrix(1.00, 0.00, -0.00, -1.00, 816.3, 624.0)">u</text><text xml:space="preserve" font-family="Futura-Medium" font-size="36.6" fill="#313531" transform="matrix(1.00, 0.00, -0.00, -1.00, 836.2, 624.0)">c</text><text xml:space="preserve" font-family="Futura-Medium" font-size="36.6" fill="#313531" transform="matrix(1.00, 0.00, -0.00, -1.00, 853.6, 624.0)">t</text><text xml:space="preserve" font-family="Futura-Medium" font-size="36.6" fill="#313531" transform="matrix(1.00, 0.00, -0.00, -1.00, 863.6, 624.0)">u</text><text xml:space="preserve" font-family="Futura-Medium" font-size="36.6" fill="#313531" transform="matrix(1.00, 0.00, -0.00, -1.00, 883.6, 624.0)">r</text><text xml:space="preserve" font-family="Futura-Medium" font-size="36.6" fill="#313531" transform="matrix(1.00, 0.00, -0.00, -1.00, 897.0, 624.0)">e</text><text xml:space="preserve" font-family="Futura-Medium" font-size="36.6" fill="#313531" transform="matrix(1.00, 0.00, -0.00, -1.00, 917.4, 624.0)"> </text><g><clipPath id="clip-67"><path d="M 68.3 618.2 L 158.2 618.2 L 158.2 623.0 L 68.3 623.0 Z M 68.3 618.2 "></path></clipPath><g clip-path="url(#clip-67)"><path d="M 31.9 138.7 L 120.9 138.7 " fill="none" stroke="#313531" stroke-width="2.86" stroke-miterlimit="0.00" transform="matrix(1.00, 0.00, 0.00, -1.00, 37.4, 759.3)"></path></g></g><text xml:space="preserve" font-family="Futura-Medium" font-size="36.6" fill="#313531" transform="matrix(1.00, 0.00, -0.00, -1.00, 69.0, 527.0)">i</text><text xml:space="preserve" font-family="Futura-Medium" font-size="36.6" fill="#313531" transform="matrix(1.00, 0.00, -0.00, -1.00, 78.1, 527.0)">d</text><text xml:space="preserve" font-family="Futura-Medium" font-size="36.6" fill="#313531" transform="matrix(1.00, 0.00, -0.00, -1.00, 100.0, 527.0)">e</text><text xml:space="preserve" font-family="Futura-Medium" font-size="36.6" fill="#313531" transform="matrix(1.00, 0.00, -0.00, -1.00, 120.3, 527.0)">n</text><text xml:space="preserve" font-family="Futura-Medium" font-size="36.6" fill="#313531" transform="matrix(1.00, 0.00, -0.00, -1.00, 140.3, 527.0)">t</text><text xml:space="preserve" font-family="Futura-Medium" font-size="36.6" fill="#313531" transform="matrix(1.00, 0.00, -0.00, -1.00, 150.4, 527.0)">i</text><text xml:space="preserve" font-family="Futura-Medium" font-size="36.6" fill="#313531" transform="matrix(1.00, 0.00, -0.00, -1.00, 159.5, 527.0)">t</text><text xml:space="preserve" font-family="Futura-Medium" font-size="36.6" fill="#313531" transform="matrix(1.00, 0.00, -0.00, -1.00, 169.5, 527.0)">y</text><text xml:space="preserve" font-family="Futura-Medium" font-size="36.6" fill="#313531" transform="matrix(1.00, 0.00, -0.00, -1.00, 189.5, 527.0)">:</text><text xml:space="preserve" font-family="Futura-Medium" font-size="36.6" fill="#313531" transform="matrix(1.00, 0.00, -0.00, -1.00, 200.8, 527.0)"> </text><text xml:space="preserve" font-family="Futura-Medium" font-size="36.6" fill="#313531" transform="matrix(1.00, 0.00, -0.00, -1.00, 212.1, 527.0)">s</text><text xml:space="preserve" font-family="Futura-Medium" font-size="36.6" fill="#313531" transform="matrix(1.00, 0.00, -0.00, -1.00, 226.9, 527.0)">e</text><text xml:space="preserve" font-family="Futura-Medium" font-size="36.6" fill="#313531" transform="matrix(1.00, 0.00, -0.00, -1.00, 247.1, 527.0)">r</text><text xml:space="preserve" font-family="Futura-Medium" font-size="36.6" fill="#313531" transform="matrix(1.00, 0.00, -0.00, -1.00, 261.4, 527.0)">i</text><text xml:space="preserve" font-family="Futura-Medium" font-size="36.6" fill="#313531" transform="matrix(1.00, 0.00, -0.00, -1.00, 270.5, 527.0)">e</text><text xml:space="preserve" font-family="Futura-Medium" font-size="36.6" fill="#313531" transform="matrix(1.00, 0.00, -0.00, -1.00, 290.7, 527.0)">s</text><text xml:space="preserve" font-family="Futura-Medium" font-size="36.6" fill="#313531" transform="matrix(1.00, 0.00, -0.00, -1.00, 305.6, 527.0)"> </text><text xml:space="preserve" font-family="Futura-Medium" font-size="36.6" fill="#313531" transform="matrix(1.00, 0.00, -0.00, -1.00, 316.8, 527.0)">o</text><text xml:space="preserve" font-family="Futura-Medium" font-size="36.6" fill="#313531" transform="matrix(1.00, 0.00, -0.00, -1.00, 338.8, 527.0)">f</text><text xml:space="preserve" font-family="Futura-Medium" font-size="36.6" fill="#313531" transform="matrix(1.00, 0.00, -0.00, -1.00, 349.7, 527.0)"> </text><text xml:space="preserve" font-family="Futura-Medium" font-size="36.6" fill="#313531" transform="matrix(1.00, 0.00, -0.00, -1.00, 361.0, 527.0)">r</text><text xml:space="preserve" font-family="Futura-Medium" font-size="36.6" fill="#313531" transform="matrix(1.00, 0.00, -0.00, -1.00, 374.4, 527.0)">e</text><text xml:space="preserve" font-family="Futura-Medium" font-size="36.6" fill="#313531" transform="matrix(1.00, 0.00, -0.00, -1.00, 394.6, 527.0)">l</text><text xml:space="preserve" font-family="Futura-Medium" font-size="36.6" fill="#313531" transform="matrix(1.00, 0.00, -0.00, -1.00, 403.7, 527.0)">a</text><text xml:space="preserve" font-family="Futura-Medium" font-size="36.6" fill="#313531" transform="matrix(1.00, 0.00, -0.00, -1.00, 425.7, 527.0)">t</text><text xml:space="preserve" font-family="Futura-Medium" font-size="36.6" fill="#313531" transform="matrix(1.00, 0.00, -0.00, -1.00, 436.0, 527.0)">e</text><text xml:space="preserve" font-family="Futura-Medium" font-size="36.6" fill="#313531" transform="matrix(1.00, 0.00, -0.00, -1.00, 456.2, 527.0)">d</text><text xml:space="preserve" font-family="Futura-Medium" font-size="36.6" fill="#313531" transform="matrix(1.00, 0.00, -0.00, -1.00, 478.2, 527.0)"> </text><text xml:space="preserve" font-family="Futura-Medium" font-size="36.6" fill="#313531" transform="matrix(1.00, 0.00, -0.00, -1.00, 489.4, 527.0)">v</text><text xml:space="preserve" font-family="Futura-Medium" font-size="36.6" fill="#313531" transform="matrix(1.00, 0.00, -0.00, -1.00, 507.2, 527.0)">a</text><text xml:space="preserve" font-family="Futura-Medium" font-size="36.6" fill="#313531" transform="matrix(1.00, 0.00, -0.00, -1.00, 529.1, 527.0)">l</text><text xml:space="preserve" font-family="Futura-Medium" font-size="36.6" fill="#313531" transform="matrix(1.00, 0.00, -0.00, -1.00, 538.2, 527.0)">u</text><text xml:space="preserve" font-family="Futura-Medium" font-size="36.6" fill="#313531" transform="matrix(1.00, 0.00, -0.00, -1.00, 558.2, 527.0)">e</text><text xml:space="preserve" font-family="Futura-Medium" font-size="36.6" fill="#313531" transform="matrix(1.00, 0.00, -0.00, -1.00, 578.4, 527.0)">s</text><text xml:space="preserve" font-family="Futura-Medium" font-size="36.6" fill="#313531" transform="matrix(1.00, 0.00, -0.00, -1.00, 593.2, 527.0)"> </text><text xml:space="preserve" font-family="Futura-Medium" font-size="36.6" fill="#313531" transform="matrix(1.00, 0.00, -0.00, -1.00, 604.5, 527.0)">o</text><text xml:space="preserve" font-family="Futura-Medium" font-size="36.6" fill="#313531" transform="matrix(1.00, 0.00, -0.00, -1.00, 625.8, 527.0)">v</text><text xml:space="preserve" font-family="Futura-Medium" font-size="36.6" fill="#313531" transform="matrix(1.00, 0.00, -0.00, -1.00, 643.6, 527.0)">e</text><text xml:space="preserve" font-family="Futura-Medium" font-size="36.6" fill="#313531" transform="matrix(1.00, 0.00, -0.00, -1.00, 663.8, 527.0)">r</text><text xml:space="preserve" font-family="Futura-Medium" font-size="36.6" fill="#313531" transform="matrix(1.00, 0.00, -0.00, -1.00, 677.5, 527.0)"> </text><text xml:space="preserve" font-family="Futura-Medium" font-size="36.6" fill="#313531" transform="matrix(1.00, 0.00, -0.00, -1.00, 688.8, 527.0)">t</text><text xml:space="preserve" font-family="Futura-Medium" font-size="36.6" fill="#313531" transform="matrix(1.00, 0.00, -0.00, -1.00, 698.8, 527.0)">i</text><text xml:space="preserve" font-family="Futura-Medium" font-size="36.6" fill="#313531" transform="matrix(1.00, 0.00, -0.00, -1.00, 707.9, 527.0)">m</text><text xml:space="preserve" font-family="Futura-Medium" font-size="36.6" fill="#313531" transform="matrix(1.00, 0.00, -0.00, -1.00, 736.8, 527.0)">e</text><text xml:space="preserve" font-family="Futura-Medium" font-size="36.6" fill="#313531" transform="matrix(1.00, 0.00, -0.00, -1.00, 757.1, 527.0)"> </text><g><clipPath id="clip-68"><path d="M 68.3 521.4 L 189.8 521.4 L 189.8 526.3 L 68.3 526.3 Z M 68.3 521.4 "></path></clipPath><g clip-path="url(#clip-68)"><path d="M 31.9 235.5 L 152.4 235.5 " fill="none" stroke="#313531" stroke-width="2.86" stroke-miterlimit="0.00" transform="matrix(1.00, 0.00, 0.00, -1.00, 37.4, 759.3)"></path></g></g><text xml:space="preserve" font-family="Futura-Medium" font-size="36.6" fill="#313531" transform="matrix(1.00, 0.00, -0.00, -1.00, 69.0, 464.0)">“</text><text xml:space="preserve" font-family="Futura-Medium" font-size="36.6" fill="#313531" transform="matrix(1.00, 0.00, -0.00, -1.00, 88.1, 464.0)">a</text><text xml:space="preserve" font-family="Futura-Medium" font-size="36.6" fill="#313531" transform="matrix(1.00, 0.00, -0.00, -1.00, 110.0, 464.0)"> </text><text xml:space="preserve" font-family="Futura-Medium" font-size="36.6" fill="#313531" transform="matrix(1.00, 0.00, -0.00, -1.00, 121.3, 464.0)">s</text><text xml:space="preserve" font-family="Futura-Medium" font-size="36.6" fill="#313531" transform="matrix(1.00, 0.00, -0.00, -1.00, 136.1, 464.0)">t</text><text xml:space="preserve" font-family="Futura-Medium" font-size="36.6" fill="#313531" transform="matrix(1.00, 0.00, -0.00, -1.00, 146.5, 464.0)">a</text><text xml:space="preserve" font-family="Futura-Medium" font-size="36.6" fill="#313531" transform="matrix(1.00, 0.00, -0.00, -1.00, 168.4, 464.0)">b</text><text xml:space="preserve" font-family="Futura-Medium" font-size="36.6" fill="#313531" transform="matrix(1.00, 0.00, -0.00, -1.00, 190.3, 464.0)">l</text><text xml:space="preserve" font-family="Futura-Medium" font-size="36.6" fill="#313531" transform="matrix(1.00, 0.00, -0.00, -1.00, 199.4, 464.0)">e</text><text xml:space="preserve" font-family="Futura-Medium" font-size="36.6" fill="#313531" transform="matrix(1.00, 0.00, -0.00, -1.00, 219.7, 464.0)"> </text><text xml:space="preserve" font-family="Futura-Medium" font-size="36.6" fill="#313531" transform="matrix(1.00, 0.00, -0.00, -1.00, 230.9, 464.0)">l</text><text xml:space="preserve" font-family="Futura-Medium" font-size="36.6" fill="#313531" transform="matrix(1.00, 0.00, -0.00, -1.00, 240.0, 464.0)">o</text><text xml:space="preserve" font-family="Futura-Medium" font-size="36.6" fill="#313531" transform="matrix(1.00, 0.00, -0.00, -1.00, 262.0, 464.0)">g</text><text xml:space="preserve" font-family="Futura-Medium" font-size="36.6" fill="#313531" transform="matrix(1.00, 0.00, -0.00, -1.00, 283.9, 464.0)">i</text><text xml:space="preserve" font-family="Futura-Medium" font-size="36.6" fill="#313531" transform="matrix(1.00, 0.00, -0.00, -1.00, 293.0, 464.0)">c</text><text xml:space="preserve" font-family="Futura-Medium" font-size="36.6" fill="#313531" transform="matrix(1.00, 0.00, -0.00, -1.00, 310.4, 464.0)">a</text><text xml:space="preserve" font-family="Futura-Medium" font-size="36.6" fill="#313531" transform="matrix(1.00, 0.00, -0.00, -1.00, 332.4, 464.0)">l</text><text xml:space="preserve" font-family="Futura-Medium" font-size="36.6" fill="#313531" transform="matrix(1.00, 0.00, -0.00, -1.00, 341.5, 464.0)"> </text><text xml:space="preserve" font-family="Futura-Medium" font-size="36.6" fill="#313531" transform="matrix(1.00, 0.00, -0.00, -1.00, 352.7, 464.0)">e</text><text xml:space="preserve" font-family="Futura-Medium" font-size="36.6" fill="#313531" transform="matrix(1.00, 0.00, -0.00, -1.00, 373.0, 464.0)">n</text><text xml:space="preserve" font-family="Futura-Medium" font-size="36.6" fill="#313531" transform="matrix(1.00, 0.00, -0.00, -1.00, 393.1, 464.0)">t</text><text xml:space="preserve" font-family="Futura-Medium" font-size="36.6" fill="#313531" transform="matrix(1.00, 0.00, -0.00, -1.00, 403.1, 464.0)">i</text><text xml:space="preserve" font-family="Futura-Medium" font-size="36.6" fill="#313531" transform="matrix(1.00, 0.00, -0.00, -1.00, 412.2, 464.0)">t</text><text xml:space="preserve" font-family="Futura-Medium" font-size="36.6" fill="#313531" transform="matrix(1.00, 0.00, -0.00, -1.00, 422.2, 464.0)">y</text><text xml:space="preserve" font-family="Futura-Medium" font-size="36.6" fill="#313531" transform="matrix(1.00, 0.00, -0.00, -1.00, 442.1, 464.0)"> </text><text xml:space="preserve" font-family="Futura-Medium" font-size="36.6" fill="#313531" transform="matrix(1.00, 0.00, -0.00, -1.00, 453.4, 464.0)">a</text><text xml:space="preserve" font-family="Futura-Medium" font-size="36.6" fill="#313531" transform="matrix(1.00, 0.00, -0.00, -1.00, 475.3, 464.0)">s</text><text xml:space="preserve" font-family="Futura-Medium" font-size="36.6" fill="#313531" transform="matrix(1.00, 0.00, -0.00, -1.00, 490.1, 464.0)">s</text><text xml:space="preserve" font-family="Futura-Medium" font-size="36.6" fill="#313531" transform="matrix(1.00, 0.00, -0.00, -1.00, 505.0, 464.0)">o</text><text xml:space="preserve" font-family="Futura-Medium" font-size="36.6" fill="#313531" transform="matrix(1.00, 0.00, -0.00, -1.00, 526.9, 464.0)">c</text><text xml:space="preserve" font-family="Futura-Medium" font-size="36.6" fill="#313531" transform="matrix(1.00, 0.00, -0.00, -1.00, 544.4, 464.0)">i</text><text xml:space="preserve" font-family="Futura-Medium" font-size="36.6" fill="#313531" transform="matrix(1.00, 0.00, -0.00, -1.00, 553.5, 464.0)">a</text><text xml:space="preserve" font-family="Futura-Medium" font-size="36.6" fill="#313531" transform="matrix(1.00, 0.00, -0.00, -1.00, 575.4, 464.0)">t</text><text xml:space="preserve" font-family="Futura-Medium" font-size="36.6" fill="#313531" transform="matrix(1.00, 0.00, -0.00, -1.00, 585.7, 464.0)">e</text><text xml:space="preserve" font-family="Futura-Medium" font-size="36.6" fill="#313531" transform="matrix(1.00, 0.00, -0.00, -1.00, 606.0, 464.0)">d</text><text xml:space="preserve" font-family="Futura-Medium" font-size="36.6" fill="#313531" transform="matrix(1.00, 0.00, -0.00, -1.00, 627.9, 464.0)"> </text><text xml:space="preserve" font-family="Futura-Medium" font-size="36.6" fill="#313531" transform="matrix(1.00, 0.00, -0.00, -1.00, 639.2, 464.0)">w</text><text xml:space="preserve" font-family="Futura-Medium" font-size="36.6" fill="#313531" transform="matrix(1.00, 0.00, -0.00, -1.00, 667.5, 464.0)">i</text><text xml:space="preserve" font-family="Futura-Medium" font-size="36.6" fill="#313531" transform="matrix(1.00, 0.00, -0.00, -1.00, 676.6, 464.0)">t</text><text xml:space="preserve" font-family="Futura-Medium" font-size="36.6" fill="#313531" transform="matrix(1.00, 0.00, -0.00, -1.00, 687.3, 464.0)">h</text><text xml:space="preserve" font-family="Futura-Medium" font-size="36.6" fill="#313531" transform="matrix(1.00, 0.00, -0.00, -1.00, 707.4, 464.0)"> </text><text xml:space="preserve" font-family="Futura-Medium" font-size="36.6" fill="#313531" transform="matrix(1.00, 0.00, -0.00, -1.00, 718.7, 464.0)">a</text><text xml:space="preserve" font-family="Futura-Medium" font-size="36.6" fill="#313531" transform="matrix(1.00, 0.00, -0.00, -1.00, 740.6, 464.0)"> </text><text xml:space="preserve" font-family="Futura-Medium" font-size="36.6" fill="#313531" transform="matrix(1.00, 0.00, -0.00, -1.00, 751.9, 464.0)">s</text><text xml:space="preserve" font-family="Futura-Medium" font-size="36.6" fill="#313531" transform="matrix(1.00, 0.00, -0.00, -1.00, 766.7, 464.0)">e</text><text xml:space="preserve" font-family="Futura-Medium" font-size="36.6" fill="#313531" transform="matrix(1.00, 0.00, -0.00, -1.00, 787.0, 464.0)">r</text><text xml:space="preserve" font-family="Futura-Medium" font-size="36.6" fill="#313531" transform="matrix(1.00, 0.00, -0.00, -1.00, 801.2, 464.0)">i</text><text xml:space="preserve" font-family="Futura-Medium" font-size="36.6" fill="#313531" transform="matrix(1.00, 0.00, -0.00, -1.00, 810.3, 464.0)">e</text><text xml:space="preserve" font-family="Futura-Medium" font-size="36.6" fill="#313531" transform="matrix(1.00, 0.00, -0.00, -1.00, 830.5, 464.0)">s</text><text xml:space="preserve" font-family="Futura-Medium" font-size="36.6" fill="#313531" transform="matrix(1.00, 0.00, -0.00, -1.00, 845.4, 464.0)"> </text><text xml:space="preserve" font-family="Futura-Medium" font-size="36.6" fill="#313531" transform="matrix(1.00, 0.00, -0.00, -1.00, 856.7, 464.0)">o</text><text xml:space="preserve" font-family="Futura-Medium" font-size="36.6" fill="#313531" transform="matrix(1.00, 0.00, -0.00, -1.00, 878.6, 464.0)">f</text><text xml:space="preserve" font-family="Futura-Medium" font-size="36.6" fill="#313531" transform="matrix(1.00, 0.00, -0.00, -1.00, 889.5, 464.0)"> </text><text xml:space="preserve" font-family="Futura-Medium" font-size="36.6" fill="#313531" transform="matrix(1.00, 0.00, -0.00, -1.00, 69.0, 415.0)">d</text><text xml:space="preserve" font-family="Futura-Medium" font-size="36.6" fill="#313531" transform="matrix(1.00, 0.00, -0.00, -1.00, 90.9, 415.0)">i</text><text xml:space="preserve" font-family="Futura-Medium" font-size="36.6" fill="#313531" transform="matrix(1.00, 0.00, -0.00, -1.00, 100.0, 415.0)">f</text><text xml:space="preserve" font-family="Futura-Medium" font-size="36.6" fill="#313531" transform="matrix(1.00, 0.00, -0.00, -1.00, 112.1, 415.0)">f</text><text xml:space="preserve" font-family="Futura-Medium" font-size="36.6" fill="#313531" transform="matrix(1.00, 0.00, -0.00, -1.00, 123.5, 415.0)">e</text><text xml:space="preserve" font-family="Futura-Medium" font-size="36.6" fill="#313531" transform="matrix(1.00, 0.00, -0.00, -1.00, 143.8, 415.0)">r</text><text xml:space="preserve" font-family="Futura-Medium" font-size="36.6" fill="#313531" transform="matrix(1.00, 0.00, -0.00, -1.00, 157.2, 415.0)">e</text><text xml:space="preserve" font-family="Futura-Medium" font-size="36.6" fill="#313531" transform="matrix(1.00, 0.00, -0.00, -1.00, 177.4, 415.0)">n</text><text xml:space="preserve" font-family="Futura-Medium" font-size="36.6" fill="#313531" transform="matrix(1.00, 0.00, -0.00, -1.00, 197.5, 415.0)">t</text><text xml:space="preserve" font-family="Futura-Medium" font-size="36.6" fill="#313531" transform="matrix(1.00, 0.00, -0.00, -1.00, 207.5, 415.0)"> </text><text xml:space="preserve" font-family="Futura-Medium" font-size="36.6" fill="#313531" transform="matrix(1.00, 0.00, -0.00, -1.00, 218.8, 415.0)">v</text><text xml:space="preserve" font-family="Futura-Medium" font-size="36.6" fill="#313531" transform="matrix(1.00, 0.00, -0.00, -1.00, 236.6, 415.0)">a</text><text xml:space="preserve" font-family="Futura-Medium" font-size="36.6" fill="#313531" transform="matrix(1.00, 0.00, -0.00, -1.00, 258.5, 415.0)">l</text><text xml:space="preserve" font-family="Futura-Medium" font-size="36.6" fill="#313531" transform="matrix(1.00, 0.00, -0.00, -1.00, 267.6, 415.0)">u</text><text xml:space="preserve" font-family="Futura-Medium" font-size="36.6" fill="#313531" transform="matrix(1.00, 0.00, -0.00, -1.00, 287.5, 415.0)">e</text><text xml:space="preserve" font-family="Futura-Medium" font-size="36.6" fill="#313531" transform="matrix(1.00, 0.00, -0.00, -1.00, 307.8, 415.0)">s</text><text xml:space="preserve" font-family="Futura-Medium" font-size="36.6" fill="#313531" transform="matrix(1.00, 0.00, -0.00, -1.00, 322.6, 415.0)"> </text><text xml:space="preserve" font-family="Futura-Medium" font-size="36.6" fill="#313531" transform="matrix(1.00, 0.00, -0.00, -1.00, 333.9, 415.0)">o</text><text xml:space="preserve" font-family="Futura-Medium" font-size="36.6" fill="#313531" transform="matrix(1.00, 0.00, -0.00, -1.00, 355.1, 415.0)">v</text><text xml:space="preserve" font-family="Futura-Medium" font-size="36.6" fill="#313531" transform="matrix(1.00, 0.00, -0.00, -1.00, 372.9, 415.0)">e</text><text xml:space="preserve" font-family="Futura-Medium" font-size="36.6" fill="#313531" transform="matrix(1.00, 0.00, -0.00, -1.00, 393.1, 415.0)">r</text><text xml:space="preserve" font-family="Futura-Medium" font-size="36.6" fill="#313531" transform="matrix(1.00, 0.00, -0.00, -1.00, 406.8, 415.0)"> </text><text xml:space="preserve" font-family="Futura-Medium" font-size="36.6" fill="#313531" transform="matrix(1.00, 0.00, -0.00, -1.00, 418.1, 415.0)">t</text><text xml:space="preserve" font-family="Futura-Medium" font-size="36.6" fill="#313531" transform="matrix(1.00, 0.00, -0.00, -1.00, 428.1, 415.0)">i</text><text xml:space="preserve" font-family="Futura-Medium" font-size="36.6" fill="#313531" transform="matrix(1.00, 0.00, -0.00, -1.00, 437.2, 415.0)">m</text><text xml:space="preserve" font-family="Futura-Medium" font-size="36.6" fill="#313531" transform="matrix(1.00, 0.00, -0.00, -1.00, 466.2, 415.0)">e</text><text xml:space="preserve" font-family="Futura-Medium" font-size="36.6" fill="#313531" transform="matrix(1.00, 0.00, -0.00, -1.00, 486.4, 415.0)">”</text><text xml:space="preserve" font-family="Futura-Medium" font-size="36.6" fill="#313531" transform="matrix(1.00, 0.00, -0.00, -1.00, 505.5, 415.0)"> </text><text xml:space="preserve" font-family="Futura-Medium" font-size="36.6" fill="#313531" transform="matrix(1.00, 0.00, -0.00, -1.00, 516.8, 415.0)">—</text><text xml:space="preserve" font-family="Futura-Medium" font-size="36.6" fill="#313531" transform="matrix(1.00, 0.00, -0.00, -1.00, 540.7, 415.0)"> </text><text xml:space="preserve" font-family="Futura-Medium" font-size="36.6" fill="#313531" transform="matrix(1.00, 0.00, -0.00, -1.00, 551.9, 415.0)">c</text><text xml:space="preserve" font-family="Futura-Medium" font-size="36.6" fill="#313531" transform="matrix(1.00, 0.00, -0.00, -1.00, 569.3, 415.0)">l</text><text xml:space="preserve" font-family="Futura-Medium" font-size="36.6" fill="#313531" transform="matrix(1.00, 0.00, -0.00, -1.00, 578.4, 415.0)">o</text><text xml:space="preserve" font-family="Futura-Medium" font-size="36.6" fill="#313531" transform="matrix(1.00, 0.00, -0.00, -1.00, 600.4, 415.0)">j</text><text xml:space="preserve" font-family="Futura-Medium" font-size="36.6" fill="#313531" transform="matrix(1.00, 0.00, -0.00, -1.00, 609.5, 415.0)">u</text><text xml:space="preserve" font-family="Futura-Medium" font-size="36.6" fill="#313531" transform="matrix(1.00, 0.00, -0.00, -1.00, 629.5, 415.0)">r</text><text xml:space="preserve" font-family="Futura-Medium" font-size="36.6" fill="#313531" transform="matrix(1.00, 0.00, -0.00, -1.00, 642.9, 415.0)">e</text><text xml:space="preserve" font-family="Futura-Medium" font-size="36.6" fill="#313531" transform="matrix(1.00, 0.00, -0.00, -1.00, 663.2, 415.0)">.</text><text xml:space="preserve" font-family="Futura-Medium" font-size="36.6" fill="#313531" transform="matrix(1.00, 0.00, -0.00, -1.00, 674.4, 415.0)">o</text><text xml:space="preserve" font-family="Futura-Medium" font-size="36.6" fill="#313531" transform="matrix(1.00, 0.00, -0.00, -1.00, 696.4, 415.0)">r</text><text xml:space="preserve" font-family="Futura-Medium" font-size="36.6" fill="#313531" transform="matrix(1.00, 0.00, -0.00, -1.00, 710.1, 415.0)">g</text><text xml:space="preserve" font-family="Futura-Medium" font-size="36.6" fill="#313531" transform="matrix(1.00, 0.00, -0.00, -1.00, 732.0, 415.0)"> </text><g><clipPath id="clip-69"><path d="M 551.2 408.5 L 732.3 408.5 L 732.3 413.4 L 551.2 413.4 Z M 551.2 408.5 "></path></clipPath><g clip-path="url(#clip-69)"><path d="M 514.8 348.4 L 694.9 348.4 " fill="none" stroke="#313531" stroke-width="2.86" stroke-miterlimit="0.00" transform="matrix(1.00, 0.00, 0.00, -1.00, 37.4, 759.3)"></path></g></g><text xml:space="preserve" font-family="Futura-Medium" font-size="36.6" fill="#313531" transform="matrix(1.00, 0.00, -0.00, -1.00, 69.0, 318.0)">s</text><text xml:space="preserve" font-family="Futura-Medium" font-size="36.6" fill="#313531" transform="matrix(1.00, 0.00, -0.00, -1.00, 83.8, 318.0)">t</text><text xml:space="preserve" font-family="Futura-Medium" font-size="36.6" fill="#313531" transform="matrix(1.00, 0.00, -0.00, -1.00, 94.2, 318.0)">a</text><text xml:space="preserve" font-family="Futura-Medium" font-size="36.6" fill="#313531" transform="matrix(1.00, 0.00, -0.00, -1.00, 116.1, 318.0)">t</text><text xml:space="preserve" font-family="Futura-Medium" font-size="36.6" fill="#313531" transform="matrix(1.00, 0.00, -0.00, -1.00, 126.4, 318.0)">e</text><text xml:space="preserve" font-family="Futura-Medium" font-size="36.6" fill="#313531" transform="matrix(1.00, 0.00, -0.00, -1.00, 146.6, 318.0)">:</text><text xml:space="preserve" font-family="Futura-Medium" font-size="36.6" fill="#313531" transform="matrix(1.00, 0.00, -0.00, -1.00, 157.9, 318.0)"> </text><text xml:space="preserve" font-family="Futura-Medium" font-size="36.6" fill="#313531" transform="matrix(1.00, 0.00, -0.00, -1.00, 169.2, 318.0)">i</text><text xml:space="preserve" font-family="Futura-Medium" font-size="36.6" fill="#313531" transform="matrix(1.00, 0.00, -0.00, -1.00, 178.3, 318.0)">d</text><text xml:space="preserve" font-family="Futura-Medium" font-size="36.6" fill="#313531" transform="matrix(1.00, 0.00, -0.00, -1.00, 200.3, 318.0)">e</text><text xml:space="preserve" font-family="Futura-Medium" font-size="36.6" fill="#313531" transform="matrix(1.00, 0.00, -0.00, -1.00, 220.5, 318.0)">n</text><text xml:space="preserve" font-family="Futura-Medium" font-size="36.6" fill="#313531" transform="matrix(1.00, 0.00, -0.00, -1.00, 240.6, 318.0)">t</text><text xml:space="preserve" font-family="Futura-Medium" font-size="36.6" fill="#313531" transform="matrix(1.00, 0.00, -0.00, -1.00, 250.6, 318.0)">i</text><text xml:space="preserve" font-family="Futura-Medium" font-size="36.6" fill="#313531" transform="matrix(1.00, 0.00, -0.00, -1.00, 259.7, 318.0)">t</text><text xml:space="preserve" font-family="Futura-Medium" font-size="36.6" fill="#313531" transform="matrix(1.00, 0.00, -0.00, -1.00, 269.7, 318.0)">y</text><text xml:space="preserve" font-family="Futura-Medium" font-size="36.6" fill="#313531" transform="matrix(1.00, 0.00, -0.00, -1.00, 289.6, 318.0)"> </text><text xml:space="preserve" font-family="Futura-Medium" font-size="36.6" fill="#313531" transform="matrix(1.00, 0.00, -0.00, -1.00, 300.9, 318.0)">a</text><text xml:space="preserve" font-family="Futura-Medium" font-size="36.6" fill="#313531" transform="matrix(1.00, 0.00, -0.00, -1.00, 322.8, 318.0)">t</text><text xml:space="preserve" font-family="Futura-Medium" font-size="36.6" fill="#313531" transform="matrix(1.00, 0.00, -0.00, -1.00, 332.8, 318.0)"> </text><text xml:space="preserve" font-family="Futura-Medium" font-size="36.6" fill="#313531" transform="matrix(1.00, 0.00, -0.00, -1.00, 344.1, 318.0)">a</text><text xml:space="preserve" font-family="Futura-Medium" font-size="36.6" fill="#313531" transform="matrix(1.00, 0.00, -0.00, -1.00, 366.0, 318.0)"> </text><text xml:space="preserve" font-family="Futura-Medium" font-size="36.6" fill="#313531" transform="matrix(1.00, 0.00, -0.00, -1.00, 377.3, 318.0)">p</text><text xml:space="preserve" font-family="Futura-Medium" font-size="36.6" fill="#313531" transform="matrix(1.00, 0.00, -0.00, -1.00, 399.2, 318.0)">o</text><text xml:space="preserve" font-family="Futura-Medium" font-size="36.6" fill="#313531" transform="matrix(1.00, 0.00, -0.00, -1.00, 421.2, 318.0)">i</text><text xml:space="preserve" font-family="Futura-Medium" font-size="36.6" fill="#313531" transform="matrix(1.00, 0.00, -0.00, -1.00, 430.3, 318.0)">n</text><text xml:space="preserve" font-family="Futura-Medium" font-size="36.6" fill="#313531" transform="matrix(1.00, 0.00, -0.00, -1.00, 450.4, 318.0)">t</text><text xml:space="preserve" font-family="Futura-Medium" font-size="36.6" fill="#313531" transform="matrix(1.00, 0.00, -0.00, -1.00, 460.4, 318.0)"> </text><text xml:space="preserve" font-family="Futura-Medium" font-size="36.6" fill="#313531" transform="matrix(1.00, 0.00, -0.00, -1.00, 471.7, 318.0)">i</text><text xml:space="preserve" font-family="Futura-Medium" font-size="36.6" fill="#313531" transform="matrix(1.00, 0.00, -0.00, -1.00, 480.8, 318.0)">n</text><text xml:space="preserve" font-family="Futura-Medium" font-size="36.6" fill="#313531" transform="matrix(1.00, 0.00, -0.00, -1.00, 500.8, 318.0)"> </text><text xml:space="preserve" font-family="Futura-Medium" font-size="36.6" fill="#313531" transform="matrix(1.00, 0.00, -0.00, -1.00, 512.1, 318.0)">t</text><text xml:space="preserve" font-family="Futura-Medium" font-size="36.6" fill="#313531" transform="matrix(1.00, 0.00, -0.00, -1.00, 522.1, 318.0)">i</text><text xml:space="preserve" font-family="Futura-Medium" font-size="36.6" fill="#313531" transform="matrix(1.00, 0.00, -0.00, -1.00, 531.2, 318.0)">m</text><text xml:space="preserve" font-family="Futura-Medium" font-size="36.6" fill="#313531" transform="matrix(1.00, 0.00, -0.00, -1.00, 560.2, 318.0)">e</text><text xml:space="preserve" font-family="Futura-Medium" font-size="36.6" fill="#313531" transform="matrix(1.00, 0.00, -0.00, -1.00, 580.4, 318.0)"> </text><g><clipPath id="clip-70"><path d="M 68.3 311.8 L 158.2 311.8 L 158.2 316.6 L 68.3 316.6 Z M 68.3 311.8 "></path></clipPath><g clip-path="url(#clip-70)"><path d="M 31.9 445.1 L 120.8 445.1 " fill="none" stroke="#313531" stroke-width="2.86" stroke-miterlimit="0.00" transform="matrix(1.00, 0.00, 0.00, -1.00, 37.4, 759.3)"></path></g></g><text xml:space="preserve" font-family="Futura-Medium" font-size="36.6" fill="#313531" transform="matrix(1.00, 0.00, -0.00, -1.00, 69.0, 190.0)">t</text><text xml:space="preserve" font-family="Futura-Medium" font-size="36.6" fill="#313531" transform="matrix(1.00, 0.00, -0.00, -1.00, 79.0, 190.0)">i</text><text xml:space="preserve" font-family="Futura-Medium" font-size="36.6" fill="#313531" transform="matrix(1.00, 0.00, -0.00, -1.00, 88.1, 190.0)">m</text><text xml:space="preserve" font-family="Futura-Medium" font-size="36.6" fill="#313531" transform="matrix(1.00, 0.00, -0.00, -1.00, 117.1, 190.0)">e</text><text xml:space="preserve" font-family="Futura-Medium" font-size="36.6" fill="#313531" transform="matrix(1.00, 0.00, -0.00, -1.00, 137.3, 190.0)">:</text><text xml:space="preserve" font-family="Futura-Medium" font-size="36.6" fill="#313531" transform="matrix(1.00, 0.00, -0.00, -1.00, 148.6, 190.0)"> </text><text xml:space="preserve" font-family="Futura-Medium" font-size="36.6" fill="#313531" transform="matrix(1.00, 0.00, -0.00, -1.00, 159.8, 190.0)">r</text><text xml:space="preserve" font-family="Futura-Medium" font-size="36.6" fill="#313531" transform="matrix(1.00, 0.00, -0.00, -1.00, 173.3, 190.0)">e</text><text xml:space="preserve" font-family="Futura-Medium" font-size="36.6" fill="#313531" transform="matrix(1.00, 0.00, -0.00, -1.00, 193.5, 190.0)">l</text><text xml:space="preserve" font-family="Futura-Medium" font-size="36.6" fill="#313531" transform="matrix(1.00, 0.00, -0.00, -1.00, 202.6, 190.0)">a</text><text xml:space="preserve" font-family="Futura-Medium" font-size="36.6" fill="#313531" transform="matrix(1.00, 0.00, -0.00, -1.00, 224.5, 190.0)">t</text><text xml:space="preserve" font-family="Futura-Medium" font-size="36.6" fill="#313531" transform="matrix(1.00, 0.00, -0.00, -1.00, 234.6, 190.0)">i</text><text xml:space="preserve" font-family="Futura-Medium" font-size="36.6" fill="#313531" transform="matrix(1.00, 0.00, -0.00, -1.00, 243.7, 190.0)">v</text><text xml:space="preserve" font-family="Futura-Medium" font-size="36.6" fill="#313531" transform="matrix(1.00, 0.00, -0.00, -1.00, 261.4, 190.0)">e</text><text xml:space="preserve" font-family="Futura-Medium" font-size="36.6" fill="#313531" transform="matrix(1.00, 0.00, -0.00, -1.00, 281.7, 190.0)"> </text><text xml:space="preserve" font-family="Futura-Medium" font-size="36.6" fill="#313531" transform="matrix(1.00, 0.00, -0.00, -1.00, 293.0, 190.0)">o</text><text xml:space="preserve" font-family="Futura-Medium" font-size="36.6" fill="#313531" transform="matrix(1.00, 0.00, -0.00, -1.00, 314.9, 190.0)">r</text><text xml:space="preserve" font-family="Futura-Medium" font-size="36.6" fill="#313531" transform="matrix(1.00, 0.00, -0.00, -1.00, 328.4, 190.0)">d</text><text xml:space="preserve" font-family="Futura-Medium" font-size="36.6" fill="#313531" transform="matrix(1.00, 0.00, -0.00, -1.00, 350.3, 190.0)">e</text><text xml:space="preserve" font-family="Futura-Medium" font-size="36.6" fill="#313531" transform="matrix(1.00, 0.00, -0.00, -1.00, 370.5, 190.0)">r</text><text xml:space="preserve" font-family="Futura-Medium" font-size="36.6" fill="#313531" transform="matrix(1.00, 0.00, -0.00, -1.00, 384.8, 190.0)">i</text><text xml:space="preserve" font-family="Futura-Medium" font-size="36.6" fill="#313531" transform="matrix(1.00, 0.00, -0.00, -1.00, 393.9, 190.0)">n</text><text xml:space="preserve" font-family="Futura-Medium" font-size="36.6" fill="#313531" transform="matrix(1.00, 0.00, -0.00, -1.00, 414.0, 190.0)">g</text><text xml:space="preserve" font-family="Futura-Medium" font-size="36.6" fill="#313531" transform="matrix(1.00, 0.00, -0.00, -1.00, 435.8, 190.0)"> </text><text xml:space="preserve" font-family="Futura-Medium" font-size="36.6" fill="#313531" transform="matrix(1.00, 0.00, -0.00, -1.00, 447.1, 190.0)">o</text><text xml:space="preserve" font-family="Futura-Medium" font-size="36.6" fill="#313531" transform="matrix(1.00, 0.00, -0.00, -1.00, 469.1, 190.0)">f</text><text xml:space="preserve" font-family="Futura-Medium" font-size="36.6" fill="#313531" transform="matrix(1.00, 0.00, -0.00, -1.00, 480.0, 190.0)"> </text><text xml:space="preserve" font-family="Futura-Medium" font-size="36.6" fill="#313531" transform="matrix(1.00, 0.00, -0.00, -1.00, 491.2, 190.0)">v</text><text xml:space="preserve" font-family="Futura-Medium" font-size="36.6" fill="#313531" transform="matrix(1.00, 0.00, -0.00, -1.00, 509.0, 190.0)">a</text><text xml:space="preserve" font-family="Futura-Medium" font-size="36.6" fill="#313531" transform="matrix(1.00, 0.00, -0.00, -1.00, 530.9, 190.0)">l</text><text xml:space="preserve" font-family="Futura-Medium" font-size="36.6" fill="#313531" transform="matrix(1.00, 0.00, -0.00, -1.00, 540.0, 190.0)">u</text><text xml:space="preserve" font-family="Futura-Medium" font-size="36.6" fill="#313531" transform="matrix(1.00, 0.00, -0.00, -1.00, 560.0, 190.0)">e</text><text xml:space="preserve" font-family="Futura-Medium" font-size="36.6" fill="#313531" transform="matrix(1.00, 0.00, -0.00, -1.00, 580.2, 190.0)">s</text><text xml:space="preserve" font-family="Futura-Medium" font-size="36.6" fill="#313531" transform="matrix(1.00, 0.00, -0.00, -1.00, 595.1, 190.0)"> </text><text xml:space="preserve" font-family="Futura-Medium" font-size="36.6" fill="#313531" transform="matrix(1.00, 0.00, -0.00, -1.00, 606.4, 190.0)"> </text><g><clipPath id="clip-71"><path d="M 68.3 184.0 L 137.6 184.0 L 137.6 188.9 L 68.3 188.9 Z M 68.3 184.0 "></path></clipPath><g clip-path="url(#clip-71)"><path d="M 31.9 572.9 L 100.2 572.9 " fill="none" stroke="#313531" stroke-width="2.86" stroke-miterlimit="0.00" transform="matrix(1.00, 0.00, 0.00, -1.00, 37.4, 759.3)"></path></g></g><text xml:space="preserve" font-family="Futura-Medium" font-size="36.6" fill="#313531" transform="matrix(1.00, 0.00, -0.00, -1.00, 69.0, 126.0)"> </text><text xml:space="preserve" font-family="Futura-Medium" font-size="36.6" fill="#313531" transform="matrix(1.00, 0.00, -0.00, -1.00, 80.3, 126.0)"> </text><text xml:space="preserve" font-family="Futura-Medium" font-size="36.6" fill="#313531" transform="matrix(1.00, 0.00, -0.00, -1.00, 91.5, 126.0)"> </text><text xml:space="preserve" font-family="Futura-Medium" font-size="36.6" fill="#313531" transform="matrix(1.00, 0.00, -0.00, -1.00, 102.8, 126.0)"> </text><text xml:space="preserve" font-family="Futura-Medium" font-size="36.6" fill="#313531" transform="matrix(1.00, 0.00, -0.00, -1.00, 114.1, 126.0)"> </text><text xml:space="preserve" font-family="Futura-Medium" font-size="36.6" fill="#313531" transform="matrix(1.00, 0.00, -0.00, -1.00, 125.4, 126.0)"> </text><text xml:space="preserve" font-family="Futura-Medium" font-size="36.6" fill="#313531" transform="matrix(1.00, 0.00, -0.00, -1.00, 136.6, 126.0)"> </text><text xml:space="preserve" font-family="Futura-Medium" font-size="36.6" fill="#313531" transform="matrix(1.00, 0.00, -0.00, -1.00, 147.9, 126.0)"> </text><text xml:space="preserve" font-family="Futura-Medium" font-size="36.6" fill="#313531" transform="matrix(1.00, 0.00, -0.00, -1.00, 159.2, 126.0)">b</text><text xml:space="preserve" font-family="Futura-Medium" font-size="36.6" fill="#313531" transform="matrix(1.00, 0.00, -0.00, -1.00, 181.1, 126.0)">e</text><text xml:space="preserve" font-family="Futura-Medium" font-size="36.6" fill="#313531" transform="matrix(1.00, 0.00, -0.00, -1.00, 201.4, 126.0)">f</text><text xml:space="preserve" font-family="Futura-Medium" font-size="36.6" fill="#313531" transform="matrix(1.00, 0.00, -0.00, -1.00, 212.7, 126.0)">o</text><text xml:space="preserve" font-family="Futura-Medium" font-size="36.6" fill="#313531" transform="matrix(1.00, 0.00, -0.00, -1.00, 234.6, 126.0)">r</text><text xml:space="preserve" font-family="Futura-Medium" font-size="36.6" fill="#313531" transform="matrix(1.00, 0.00, -0.00, -1.00, 248.1, 126.0)">e</text><text xml:space="preserve" font-family="Futura-Medium" font-size="36.6" fill="#313531" transform="matrix(1.00, 0.00, -0.00, -1.00, 268.3, 126.0)">/</text><text xml:space="preserve" font-family="Futura-Medium" font-size="36.6" fill="#313531" transform="matrix(1.00, 0.00, -0.00, -1.00, 287.3, 126.0)">s</text><text xml:space="preserve" font-family="Futura-Medium" font-size="36.6" fill="#313531" transform="matrix(1.00, 0.00, -0.00, -1.00, 302.1, 126.0)">i</text><text xml:space="preserve" font-family="Futura-Medium" font-size="36.6" fill="#313531" transform="matrix(1.00, 0.00, -0.00, -1.00, 311.2, 126.0)">m</text><text xml:space="preserve" font-family="Futura-Medium" font-size="36.6" fill="#313531" transform="matrix(1.00, 0.00, -0.00, -1.00, 340.2, 126.0)">u</text><text xml:space="preserve" font-family="Futura-Medium" font-size="36.6" fill="#313531" transform="matrix(1.00, 0.00, -0.00, -1.00, 360.1, 126.0)">l</text><text xml:space="preserve" font-family="Futura-Medium" font-size="36.6" fill="#313531" transform="matrix(1.00, 0.00, -0.00, -1.00, 369.2, 126.0)">t</text><text xml:space="preserve" font-family="Futura-Medium" font-size="36.6" fill="#313531" transform="matrix(1.00, 0.00, -0.00, -1.00, 379.5, 126.0)">a</text><text xml:space="preserve" font-family="Futura-Medium" font-size="36.6" fill="#313531" transform="matrix(1.00, 0.00, -0.00, -1.00, 401.5, 126.0)">n</text><text xml:space="preserve" font-family="Futura-Medium" font-size="36.6" fill="#313531" transform="matrix(1.00, 0.00, -0.00, -1.00, 421.5, 126.0)">e</text><text xml:space="preserve" font-family="Futura-Medium" font-size="36.6" fill="#313531" transform="matrix(1.00, 0.00, -0.00, -1.00, 441.8, 126.0)">o</text><text xml:space="preserve" font-family="Futura-Medium" font-size="36.6" fill="#313531" transform="matrix(1.00, 0.00, -0.00, -1.00, 463.8, 126.0)">u</text><text xml:space="preserve" font-family="Futura-Medium" font-size="36.6" fill="#313531" transform="matrix(1.00, 0.00, -0.00, -1.00, 483.7, 126.0)">s</text><text xml:space="preserve" font-family="Futura-Medium" font-size="36.6" fill="#313531" transform="matrix(1.00, 0.00, -0.00, -1.00, 498.5, 126.0)">/</text><text xml:space="preserve" font-family="Futura-Medium" font-size="36.6" fill="#313531" transform="matrix(1.00, 0.00, -0.00, -1.00, 517.5, 126.0)">a</text><text xml:space="preserve" font-family="Futura-Medium" font-size="36.6" fill="#313531" transform="matrix(1.00, 0.00, -0.00, -1.00, 539.4, 126.0)">f</text><text xml:space="preserve" font-family="Futura-Medium" font-size="36.6" fill="#313531" transform="matrix(1.00, 0.00, -0.00, -1.00, 551.6, 126.0)">t</text><text xml:space="preserve" font-family="Futura-Medium" font-size="36.6" fill="#313531" transform="matrix(1.00, 0.00, -0.00, -1.00, 561.9, 126.0)">e</text><text xml:space="preserve" font-family="Futura-Medium" font-size="36.6" fill="#313531" transform="matrix(1.00, 0.00, -0.00, -1.00, 582.2, 126.0)">r</text><text xml:space="preserve" font-family="Futura-Medium" font-size="36.6" fill="#313531" transform="matrix(1.00, 0.00, -0.00, -1.00, 595.9, 126.0)"> </text></g></svg>