<?xml version="1.0" encoding="UTF-8" standalone="no"?><svg xmlns="http://www.w3.org/2000/svg" xmlns:xlink="http://www.w3.org/1999/xlink" clip-rule="evenodd" stroke-miterlimit="4.00" viewBox="0 0 1024 768"><desc>SVG generated by Keynote</desc><defs></defs><g transform="matrix(1.00, 0.00, -0.00, -1.00, 0.0, 768.0)"><path d="M 0.0 768.0 L 1024.0 768.0 L 1024.0 0.0 L 0.0 0.0 Z M 0.0 768.0 " fill="#F9F4DE"></path><text xml:space="preserve" font-family="Futura-Medium" font-size="51.0" fill="#000000" transform="matrix(1.00, 0.00, -0.00, -1.00, 249.0, 639.0)">H</text><text xml:space="preserve" font-family="Futura-Medium" font-size="51.0" fill="#000000" transform="matrix(1.00, 0.00, -0.00, -1.00, 286.4, 639.0)">i</text><text xml:space="preserve" font-family="Futura-Medium" font-size="51.0" fill="#000000" transform="matrix(1.00, 0.00, -0.00, -1.00, 299.1, 639.0)">g</text><text xml:space="preserve" font-family="Futura-Medium" font-size="51.0" fill="#000000" transform="matrix(1.00, 0.00, -0.00, -1.00, 329.6, 639.0)">h</text><text xml:space="preserve" font-family="Futura-Medium" font-size="51.0" fill="#000000" transform="matrix(1.00, 0.00, -0.00, -1.00, 357.6, 639.0)">e</text><text xml:space="preserve" font-family="Futura-Medium" font-size="51.0" fill="#000000" transform="matrix(1.00, 0.00, -0.00, -1.00, 385.8, 639.0)">r</text><text xml:space="preserve" font-family="Futura-Medium" font-size="51.0" fill="#000000" transform="matrix(1.00, 0.00, -0.00, -1.00, 404.9, 639.0)"> </text><text xml:space="preserve" font-family="Futura-Medium" font-size="51.0" fill="#000000" transform="matrix(1.00, 0.00, -0.00, -1.00, 420.6, 639.0)">L</text><text xml:space="preserve" font-family="Futura-Medium" font-size="51.0" fill="#000000" transform="matrix(1.00, 0.00, -0.00, -1.00, 443.3, 639.0)">e</text><text xml:space="preserve" font-family="Futura-Medium" font-size="51.0" fill="#000000" transform="matrix(1.00, 0.00, -0.00, -1.00, 470.6, 639.0)">v</text><text xml:space="preserve" font-family="Futura-Medium" font-size="51.0" fill="#000000" transform="matrix(1.00, 0.00, -0.00, -1.00, 495.4, 639.0)">e</text><text xml:space="preserve" font-family="Futura-Medium" font-size="51.0" fill="#000000" transform="matrix(1.00, 0.00, -0.00, -1.00, 523.6, 639.0)">l</text><text xml:space="preserve" font-family="Futura-Medium" font-size="51.0" fill="#000000" transform="matrix(1.00, 0.00, -0.00, -1.00, 536.3, 639.0)"> </text><text xml:space="preserve" font-family="Futura-Medium" font-size="51.0" fill="#000000" transform="matrix(1.00, 0.00, -0.00, -1.00, 552.0, 639.0)">R</text><text xml:space="preserve" font-family="Futura-Medium" font-size="51.0" fill="#000000" transform="matrix(1.00, 0.00, -0.00, -1.00, 581.9, 639.0)">e</text><text xml:space="preserve" font-family="Futura-Medium" font-size="51.0" fill="#000000" transform="matrix(1.00, 0.00, -0.00, -1.00, 610.1, 639.0)">a</text><text xml:space="preserve" font-family="Futura-Medium" font-size="51.0" fill="#000000" transform="matrix(1.00, 0.00, -0.00, -1.00, 640.7, 639.0)">s</text><text xml:space="preserve" font-family="Futura-Medium" font-size="51.0" fill="#000000" transform="matrix(1.00, 0.00, -0.00, -1.00, 661.4, 639.0)">o</text><text xml:space="preserve" font-family="Futura-Medium" font-size="51.0" fill="#000000" transform="matrix(1.00, 0.00, -0.00, -1.00, 692.0, 639.0)">n</text><text xml:space="preserve" font-family="Futura-Medium" font-size="51.0" fill="#000000" transform="matrix(1.00, 0.00, -0.00, -1.00, 720.0, 639.0)">i</text><text xml:space="preserve" font-family="Futura-Medium" font-size="51.0" fill="#000000" transform="matrix(1.00, 0.00, -0.00, -1.00, 732.7, 639.0)">n</text><text xml:space="preserve" font-family="Futura-Medium" font-size="51.0" fill="#000000" transform="matrix(1.00, 0.00, -0.00, -1.00, 760.7, 639.0)">g</text><text xml:space="preserve" font-family="Futura-Medium" font-size="51.0" fill="#000000" transform="matrix(1.00, 0.00, -0.00, -1.00, 791.2, 639.0)"> </text><text xml:space="preserve" font-family="Futura-Medium" font-size="51.0" fill="#000000" transform="matrix(1.00, 0.00, -0.00, -1.00, 140.0, 503.0)">D</text><text xml:space="preserve" font-family="Futura-Medium" font-size="51.0" fill="#000000" transform="matrix(1.00, 0.00, -0.00, -1.00, 177.0, 503.0)">e</text><text xml:space="preserve" font-family="Futura-Medium" font-size="51.0" fill="#000000" transform="matrix(1.00, 0.00, -0.00, -1.00, 205.3, 503.0)">m</text><text xml:space="preserve" font-family="Futura-Medium" font-size="51.0" fill="#000000" transform="matrix(1.00, 0.00, -0.00, -1.00, 245.6, 503.0)">o</text><text xml:space="preserve" font-family="Futura-Medium" font-size="51.0" fill="#000000" transform="matrix(1.00, 0.00, -0.00, -1.00, 276.3, 503.0)">c</text><text xml:space="preserve" font-family="Futura-Medium" font-size="51.0" fill="#000000" transform="matrix(1.00, 0.00, -0.00, -1.00, 300.5, 503.0)">r</text><text xml:space="preserve" font-family="Futura-Medium" font-size="51.0" fill="#000000" transform="matrix(1.00, 0.00, -0.00, -1.00, 319.3, 503.0)">a</text><text xml:space="preserve" font-family="Futura-Medium" font-size="51.0" fill="#000000" transform="matrix(1.00, 0.00, -0.00, -1.00, 349.8, 503.0)">t</text><text xml:space="preserve" font-family="Futura-Medium" font-size="51.0" fill="#000000" transform="matrix(1.00, 0.00, -0.00, -1.00, 363.8, 503.0)">i</text><text xml:space="preserve" font-family="Futura-Medium" font-size="51.0" fill="#000000" transform="matrix(1.00, 0.00, -0.00, -1.00, 376.5, 503.0)">z</text><text xml:space="preserve" font-family="Futura-Medium" font-size="51.0" fill="#000000" transform="matrix(1.00, 0.00, -0.00, -1.00, 404.2, 503.0)">e</text><text xml:space="preserve" font-family="Futura-Medium" font-size="51.0" fill="#000000" transform="matrix(1.00, 0.00, -0.00, -1.00, 432.5, 503.0)">d</text><text xml:space="preserve" font-family="Futura-Medium" font-size="51.0" fill="#000000" transform="matrix(1.00, 0.00, -0.00, -1.00, 463.0, 503.0)"> </text><text xml:space="preserve" font-family="Futura-Medium" font-size="51.0" fill="#000000" transform="matrix(1.00, 0.00, -0.00, -1.00, 478.7, 503.0)">D</text><text xml:space="preserve" font-family="Futura-Medium" font-size="51.0" fill="#000000" transform="matrix(1.00, 0.00, -0.00, -1.00, 515.8, 503.0)">a</text><text xml:space="preserve" font-family="Futura-Medium" font-size="51.0" fill="#000000" transform="matrix(1.00, 0.00, -0.00, -1.00, 546.3, 503.0)">t</text><text xml:space="preserve" font-family="Futura-Medium" font-size="51.0" fill="#000000" transform="matrix(1.00, 0.00, -0.00, -1.00, 560.8, 503.0)">a</text><text xml:space="preserve" font-family="Futura-Medium" font-size="51.0" fill="#000000" transform="matrix(1.00, 0.00, -0.00, -1.00, 591.3, 503.0)">b</text><text xml:space="preserve" font-family="Futura-Medium" font-size="51.0" fill="#000000" transform="matrix(1.00, 0.00, -0.00, -1.00, 621.9, 503.0)">a</text><text xml:space="preserve" font-family="Futura-Medium" font-size="51.0" fill="#000000" transform="matrix(1.00, 0.00, -0.00, -1.00, 652.4, 503.0)">s</text><text xml:space="preserve" font-family="Futura-Medium" font-size="51.0" fill="#000000" transform="matrix(1.00, 0.00, -0.00, -1.00, 673.1, 503.0)">e</text><text xml:space="preserve" font-family="Futura-Medium" font-size="51.0" fill="#000000" transform="matrix(1.00, 0.00, -0.00, -1.00, 701.3, 503.0)"> </text><text xml:space="preserve" font-family="Futura-Medium" font-size="51.0" fill="#000000" transform="matrix(1.00, 0.00, -0.00, -1.00, 717.1, 503.0)">Q</text><text xml:space="preserve" font-family="Futura-Medium" font-size="51.0" fill="#000000" transform="matrix(1.00, 0.00, -0.00, -1.00, 762.6, 503.0)">u</text><text xml:space="preserve" font-family="Futura-Medium" font-size="51.0" fill="#000000" transform="matrix(1.00, 0.00, -0.00, -1.00, 790.4, 503.0)">e</text><text xml:space="preserve" font-family="Futura-Medium" font-size="51.0" fill="#000000" transform="matrix(1.00, 0.00, -0.00, -1.00, 818.6, 503.0)">r</text><text xml:space="preserve" font-family="Futura-Medium" font-size="51.0" fill="#000000" transform="matrix(1.00, 0.00, -0.00, -1.00, 838.5, 503.0)">i</text><text xml:space="preserve" font-family="Futura-Medium" font-size="51.0" fill="#000000" transform="matrix(1.00, 0.00, -0.00, -1.00, 851.2, 503.0)">e</text><text xml:space="preserve" font-family="Futura-Medium" font-size="51.0" fill="#000000" transform="matrix(1.00, 0.00, -0.00, -1.00, 879.4, 503.0)">s</text><text xml:space="preserve" font-family="Futura-Medium" font-size="51.0" fill="#000000" transform="matrix(1.00, 0.00, -0.00, -1.00, 900.1, 503.0)"> </text><text xml:space="preserve" font-family="Futura-Medium" font-size="51.0" fill="#000000" transform="matrix(1.00, 0.00, -0.00, -1.00, 276.0, 367.0)">E</text><text xml:space="preserve" font-family="Futura-Medium" font-size="51.0" fill="#000000" transform="matrix(1.00, 0.00, -0.00, -1.00, 304.9, 367.0)">n</text><text xml:space="preserve" font-family="Futura-Medium" font-size="51.0" fill="#000000" transform="matrix(1.00, 0.00, -0.00, -1.00, 332.8, 367.0)">t</text><text xml:space="preserve" font-family="Futura-Medium" font-size="51.0" fill="#000000" transform="matrix(1.00, 0.00, -0.00, -1.00, 346.8, 367.0)">i</text><text xml:space="preserve" font-family="Futura-Medium" font-size="51.0" fill="#000000" transform="matrix(1.00, 0.00, -0.00, -1.00, 359.5, 367.0)">t</text><text xml:space="preserve" font-family="Futura-Medium" font-size="51.0" fill="#000000" transform="matrix(1.00, 0.00, -0.00, -1.00, 373.5, 367.0)">y</text><text xml:space="preserve" font-family="Futura-Medium" font-size="51.0" fill="#000000" transform="matrix(1.00, 0.00, -0.00, -1.00, 401.2, 367.0)"> </text><text xml:space="preserve" font-family="Futura-Medium" font-size="51.0" fill="#000000" transform="matrix(1.00, 0.00, -0.00, -1.00, 416.9, 367.0)">A</text><text xml:space="preserve" font-family="Futura-Medium" font-size="51.0" fill="#000000" transform="matrix(1.00, 0.00, -0.00, -1.00, 455.3, 367.0)">t</text><text xml:space="preserve" font-family="Futura-Medium" font-size="51.0" fill="#000000" transform="matrix(1.00, 0.00, -0.00, -1.00, 469.2, 367.0)">t</text><text xml:space="preserve" font-family="Futura-Medium" font-size="51.0" fill="#000000" transform="matrix(1.00, 0.00, -0.00, -1.00, 483.2, 367.0)">r</text><text xml:space="preserve" font-family="Futura-Medium" font-size="51.0" fill="#000000" transform="matrix(1.00, 0.00, -0.00, -1.00, 503.0, 367.0)">i</text><text xml:space="preserve" font-family="Futura-Medium" font-size="51.0" fill="#000000" transform="matrix(1.00, 0.00, -0.00, -1.00, 515.7, 367.0)">b</text><text xml:space="preserve" font-family="Futura-Medium" font-size="51.0" fill="#000000" transform="matrix(1.00, 0.00, -0.00, -1.00, 546.3, 367.0)">u</text><text xml:space="preserve" font-family="Futura-Medium" font-size="51.0" fill="#000000" transform="matrix(1.00, 0.00, -0.00, -1.00, 574.1, 367.0)">t</text><text xml:space="preserve" font-family="Futura-Medium" font-size="51.0" fill="#000000" transform="matrix(1.00, 0.00, -0.00, -1.00, 588.5, 367.0)">e</text><text xml:space="preserve" font-family="Futura-Medium" font-size="51.0" fill="#000000" transform="matrix(1.00, 0.00, -0.00, -1.00, 616.7, 367.0)"> </text><text xml:space="preserve" font-family="Futura-Medium" font-size="51.0" fill="#000000" transform="matrix(1.00, 0.00, -0.00, -1.00, 632.5, 367.0)">V</text><text xml:space="preserve" font-family="Futura-Medium" font-size="51.0" fill="#000000" transform="matrix(1.00, 0.00, -0.00, -1.00, 664.0, 367.0)">a</text><text xml:space="preserve" font-family="Futura-Medium" font-size="51.0" fill="#000000" transform="matrix(1.00, 0.00, -0.00, -1.00, 694.6, 367.0)">l</text><text xml:space="preserve" font-family="Futura-Medium" font-size="51.0" fill="#000000" transform="matrix(1.00, 0.00, -0.00, -1.00, 707.3, 367.0)">u</text><text xml:space="preserve" font-family="Futura-Medium" font-size="51.0" fill="#000000" transform="matrix(1.00, 0.00, -0.00, -1.00, 735.0, 367.0)">e</text><text xml:space="preserve" font-family="Futura-Medium" font-size="51.0" fill="#000000" transform="matrix(1.00, 0.00, -0.00, -1.00, 763.3, 367.0)"> </text><text xml:space="preserve" font-family="Courier" font-size="51.0" fill="#000000" transform="matrix(1.00, 0.00, -0.00, -1.00, 260.0, 236.0)">j</text><text xml:space="preserve" font-family="Courier" font-size="51.0" fill="#000000" transform="matrix(1.00, 0.00, -0.00, -1.00, 290.6, 236.0)">a</text><text xml:space="preserve" font-family="Courier" font-size="51.0" fill="#000000" transform="matrix(1.00, 0.00, -0.00, -1.00, 321.2, 236.0)">y</text><text xml:space="preserve" font-family="Courier" font-size="51.0" fill="#000000" transform="matrix(1.00, 0.00, -0.00, -1.00, 351.8, 236.0)"> </text><text xml:space="preserve" font-family="Courier" font-size="51.0" fill="#000000" transform="matrix(1.00, 0.00, -0.00, -1.00, 382.4, 236.0)">l</text><text xml:space="preserve" font-family="Courier" font-size="51.0" fill="#000000" transform="matrix(1.00, 0.00, -0.00, -1.00, 413.1, 236.0)">i</text><text xml:space="preserve" font-family="Courier" font-size="51.0" fill="#000000" transform="matrix(1.00, 0.00, -0.00, -1.00, 443.7, 236.0)">k</text><text xml:space="preserve" font-family="Courier" font-size="51.0" fill="#000000" transform="matrix(1.00, 0.00, -0.00, -1.00, 474.3, 236.0)">e</text><text xml:space="preserve" font-family="Courier" font-size="51.0" fill="#000000" transform="matrix(1.00, 0.00, -0.00, -1.00, 504.9, 236.0)">s</text><text xml:space="preserve" font-family="Courier" font-size="51.0" fill="#000000" transform="matrix(1.00, 0.00, -0.00, -1.00, 535.5, 236.0)"> </text><text xml:space="preserve" font-family="Courier" font-size="51.0" fill="#000000" transform="matrix(1.00, 0.00, -0.00, -1.00, 566.1, 236.0)">C</text><text xml:space="preserve" font-family="Courier" font-size="51.0" fill="#000000" transform="matrix(1.00, 0.00, -0.00, -1.00, 596.7, 236.0)">l</text><text xml:space="preserve" font-family="Courier" font-size="51.0" fill="#000000" transform="matrix(1.00, 0.00, -0.00, -1.00, 627.3, 236.0)">o</text><text xml:space="preserve" font-family="Courier" font-size="51.0" fill="#000000" transform="matrix(1.00, 0.00, -0.00, -1.00, 657.9, 236.0)">j</text><text xml:space="preserve" font-family="Courier" font-size="51.0" fill="#000000" transform="matrix(1.00, 0.00, -0.00, -1.00, 688.5, 236.0)">u</text><text xml:space="preserve" font-family="Courier" font-size="51.0" fill="#000000" transform="matrix(1.00, 0.00, -0.00, -1.00, 719.2, 236.0)">r</text><text xml:space="preserve" font-family="Courier" font-size="51.0" fill="#000000" transform="matrix(1.00, 0.00, -0.00, -1.00, 749.8, 236.0)">e</text></g></svg>