<?xml version="1.0" encoding="UTF-8" standalone="no"?><svg xmlns="http://www.w3.org/2000/svg" xmlns:xlink="http://www.w3.org/1999/xlink" clip-rule="evenodd" stroke-miterlimit="4.00" viewBox="0 0 1024 768"><desc>SVG generated by Keynote</desc><defs></defs><g transform="matrix(1.00, 0.00, -0.00, -1.00, 0.0, 768.0)"><path d="M 0.0 768.0 L 1024.0 768.0 L 1024.0 0.0 L 0.0 0.0 Z M 0.0 768.0 " fill="#F9F4DE"></path><text xml:space="preserve" font-family="Futura-Medium" font-size="55.0" fill="#000000" transform="matrix(1.00, 0.00, -0.00, -1.00, 192.0, 632.0)">…</text><text xml:space="preserve" font-family="Futura-Medium" font-size="55.0" fill="#000000" transform="matrix(1.00, 0.00, -0.00, -1.00, 244.0, 632.0)"> </text><text xml:space="preserve" font-family="Futura-Medium" font-size="55.0" fill="#000000" transform="matrix(1.00, 0.00, -0.00, -1.00, 260.9, 632.0)">F</text><text xml:space="preserve" font-family="Futura-Medium" font-size="55.0" fill="#000000" transform="matrix(1.00, 0.00, -0.00, -1.00, 288.3, 632.0)">u</text><text xml:space="preserve" font-family="Futura-Medium" font-size="55.0" fill="#000000" transform="matrix(1.00, 0.00, -0.00, -1.00, 318.3, 632.0)">n</text><text xml:space="preserve" font-family="Futura-Medium" font-size="55.0" fill="#000000" transform="matrix(1.00, 0.00, -0.00, -1.00, 348.5, 632.0)">d</text><text xml:space="preserve" font-family="Futura-Medium" font-size="55.0" fill="#000000" transform="matrix(1.00, 0.00, -0.00, -1.00, 381.4, 632.0)">a</text><text xml:space="preserve" font-family="Futura-Medium" font-size="55.0" fill="#000000" transform="matrix(1.00, 0.00, -0.00, -1.00, 414.4, 632.0)">m</text><text xml:space="preserve" font-family="Futura-Medium" font-size="55.0" fill="#000000" transform="matrix(1.00, 0.00, -0.00, -1.00, 457.9, 632.0)">e</text><text xml:space="preserve" font-family="Futura-Medium" font-size="55.0" fill="#000000" transform="matrix(1.00, 0.00, -0.00, -1.00, 488.3, 632.0)">n</text><text xml:space="preserve" font-family="Futura-Medium" font-size="55.0" fill="#000000" transform="matrix(1.00, 0.00, -0.00, -1.00, 518.5, 632.0)">t</text><text xml:space="preserve" font-family="Futura-Medium" font-size="55.0" fill="#000000" transform="matrix(1.00, 0.00, -0.00, -1.00, 534.1, 632.0)">a</text><text xml:space="preserve" font-family="Futura-Medium" font-size="55.0" fill="#000000" transform="matrix(1.00, 0.00, -0.00, -1.00, 567.0, 632.0)">l</text><text xml:space="preserve" font-family="Futura-Medium" font-size="55.0" fill="#000000" transform="matrix(1.00, 0.00, -0.00, -1.00, 580.7, 632.0)"> </text><text xml:space="preserve" font-family="Futura-Medium" font-size="55.0" fill="#000000" transform="matrix(1.00, 0.00, -0.00, -1.00, 597.7, 632.0)">S</text><text xml:space="preserve" font-family="Futura-Medium" font-size="55.0" fill="#000000" transform="matrix(1.00, 0.00, -0.00, -1.00, 629.7, 632.0)">i</text><text xml:space="preserve" font-family="Futura-Medium" font-size="55.0" fill="#000000" transform="matrix(1.00, 0.00, -0.00, -1.00, 643.4, 632.0)">m</text><text xml:space="preserve" font-family="Futura-Medium" font-size="55.0" fill="#000000" transform="matrix(1.00, 0.00, -0.00, -1.00, 687.6, 632.0)">p</text><text xml:space="preserve" font-family="Futura-Medium" font-size="55.0" fill="#000000" transform="matrix(1.00, 0.00, -0.00, -1.00, 720.6, 632.0)">l</text><text xml:space="preserve" font-family="Futura-Medium" font-size="55.0" fill="#000000" transform="matrix(1.00, 0.00, -0.00, -1.00, 734.3, 632.0)">i</text><text xml:space="preserve" font-family="Futura-Medium" font-size="55.0" fill="#000000" transform="matrix(1.00, 0.00, -0.00, -1.00, 747.9, 632.0)">c</text><text xml:space="preserve" font-family="Futura-Medium" font-size="55.0" fill="#000000" transform="matrix(1.00, 0.00, -0.00, -1.00, 774.1, 632.0)">i</text><text xml:space="preserve" font-family="Futura-Medium" font-size="55.0" fill="#000000" transform="matrix(1.00, 0.00, -0.00, -1.00, 787.8, 632.0)">t</text><text xml:space="preserve" font-family="Futura-Medium" font-size="55.0" fill="#000000" transform="matrix(1.00, 0.00, -0.00, -1.00, 802.9, 632.0)">y</text><text xml:space="preserve" font-family="Futura-Medium" font-size="55.0" fill="#000000" transform="matrix(1.00, 0.00, -0.00, -1.00, 832.8, 632.0)"> </text><g><clipPath id="clip-35"><path d="M 190.6 623.5 L 832.4 623.5 L 832.4 629.8 L 190.6 629.8 Z M 190.6 623.5 "></path></clipPath><g clip-path="url(#clip-35)"><path d="M 91.6 66.4 L 732.4 66.4 " fill="none" stroke="#000000" stroke-width="4.30" stroke-miterlimit="0.00" transform="matrix(1.00, 0.00, 0.00, -1.00, 100.0, 693.1)"></path></g></g><text xml:space="preserve" font-family="Futura-Medium" font-size="38.0" fill="#000000" transform="matrix(1.00, 0.00, -0.00, -1.00, 208.0, 477.0)">T</text><text xml:space="preserve" font-family="Futura-Medium" font-size="38.0" fill="#000000" transform="matrix(1.00, 0.00, -0.00, -1.00, 224.8, 477.0)">u</text><text xml:space="preserve" font-family="Futura-Medium" font-size="38.0" fill="#000000" transform="matrix(1.00, 0.00, -0.00, -1.00, 245.5, 477.0)">r</text><text xml:space="preserve" font-family="Futura-Medium" font-size="38.0" fill="#000000" transform="matrix(1.00, 0.00, -0.00, -1.00, 261.1, 477.0)">t</text><text xml:space="preserve" font-family="Futura-Medium" font-size="38.0" fill="#000000" transform="matrix(1.00, 0.00, -0.00, -1.00, 271.5, 477.0)">l</text><text xml:space="preserve" font-family="Futura-Medium" font-size="38.0" fill="#000000" transform="matrix(1.00, 0.00, -0.00, -1.00, 280.9, 477.0)">e</text><text xml:space="preserve" font-family="Futura-Medium" font-size="38.0" fill="#000000" transform="matrix(1.00, 0.00, -0.00, -1.00, 302.0, 477.0)">s</text><text xml:space="preserve" font-family="Futura-Medium" font-size="38.0" fill="#000000" transform="matrix(1.00, 0.00, -0.00, -1.00, 317.4, 477.0)"> </text><text xml:space="preserve" font-family="Futura-Medium" font-size="38.0" fill="#000000" transform="matrix(1.00, 0.00, -0.00, -1.00, 329.1, 477.0)">a</text><text xml:space="preserve" font-family="Futura-Medium" font-size="38.0" fill="#000000" transform="matrix(1.00, 0.00, -0.00, -1.00, 351.9, 477.0)">l</text><text xml:space="preserve" font-family="Futura-Medium" font-size="38.0" fill="#000000" transform="matrix(1.00, 0.00, -0.00, -1.00, 361.3, 477.0)">l</text><text xml:space="preserve" font-family="Futura-Medium" font-size="38.0" fill="#000000" transform="matrix(1.00, 0.00, -0.00, -1.00, 370.8, 477.0)"> </text><text xml:space="preserve" font-family="Futura-Medium" font-size="38.0" fill="#000000" transform="matrix(1.00, 0.00, -0.00, -1.00, 382.5, 477.0)">t</text><text xml:space="preserve" font-family="Futura-Medium" font-size="38.0" fill="#000000" transform="matrix(1.00, 0.00, -0.00, -1.00, 393.7, 477.0)">h</text><text xml:space="preserve" font-family="Futura-Medium" font-size="38.0" fill="#000000" transform="matrix(1.00, 0.00, -0.00, -1.00, 414.5, 477.0)">e</text><text xml:space="preserve" font-family="Futura-Medium" font-size="38.0" fill="#000000" transform="matrix(1.00, 0.00, -0.00, -1.00, 435.6, 477.0)"> </text><text xml:space="preserve" font-family="Futura-Medium" font-size="38.0" fill="#000000" transform="matrix(1.00, 0.00, -0.00, -1.00, 447.3, 477.0)">w</text><text xml:space="preserve" font-family="Futura-Medium" font-size="38.0" fill="#000000" transform="matrix(1.00, 0.00, -0.00, -1.00, 476.1, 477.0)">a</text><text xml:space="preserve" font-family="Futura-Medium" font-size="38.0" fill="#000000" transform="matrix(1.00, 0.00, -0.00, -1.00, 499.2, 477.0)">y</text><text xml:space="preserve" font-family="Futura-Medium" font-size="38.0" fill="#000000" transform="matrix(1.00, 0.00, -0.00, -1.00, 519.8, 477.0)"> </text><text xml:space="preserve" font-family="Futura-Medium" font-size="38.0" fill="#000000" transform="matrix(1.00, 0.00, -0.00, -1.00, 531.5, 477.0)">d</text><text xml:space="preserve" font-family="Futura-Medium" font-size="38.0" fill="#000000" transform="matrix(1.00, 0.00, -0.00, -1.00, 554.3, 477.0)">o</text><text xml:space="preserve" font-family="Futura-Medium" font-size="38.0" fill="#000000" transform="matrix(1.00, 0.00, -0.00, -1.00, 576.4, 477.0)">w</text><text xml:space="preserve" font-family="Futura-Medium" font-size="38.0" fill="#000000" transform="matrix(1.00, 0.00, -0.00, -1.00, 605.8, 477.0)">n</text><text xml:space="preserve" font-family="Futura-Medium" font-size="38.0" fill="#000000" transform="matrix(1.00, 0.00, -0.00, -1.00, 626.7, 477.0)"> </text><text xml:space="preserve" font-family="Futura-Medium" font-size="38.0" fill="#000000" transform="matrix(1.00, 0.00, -0.00, -1.00, 638.4, 477.0)">(</text><text xml:space="preserve" font-family="Futura-Medium" font-size="38.0" fill="#000000" transform="matrix(1.00, 0.00, -0.00, -1.00, 652.3, 477.0)">f</text><text xml:space="preserve" font-family="Futura-Medium" font-size="38.0" fill="#000000" transform="matrix(1.00, 0.00, -0.00, -1.00, 663.6, 477.0)">u</text><text xml:space="preserve" font-family="Futura-Medium" font-size="38.0" fill="#000000" transform="matrix(1.00, 0.00, -0.00, -1.00, 684.3, 477.0)">n</text><text xml:space="preserve" font-family="Futura-Medium" font-size="38.0" fill="#000000" transform="matrix(1.00, 0.00, -0.00, -1.00, 705.2, 477.0)">c</text><text xml:space="preserve" font-family="Futura-Medium" font-size="38.0" fill="#000000" transform="matrix(1.00, 0.00, -0.00, -1.00, 723.2, 477.0)">t</text><text xml:space="preserve" font-family="Futura-Medium" font-size="38.0" fill="#000000" transform="matrix(1.00, 0.00, -0.00, -1.00, 733.7, 477.0)">i</text><text xml:space="preserve" font-family="Futura-Medium" font-size="38.0" fill="#000000" transform="matrix(1.00, 0.00, -0.00, -1.00, 743.1, 477.0)">o</text><text xml:space="preserve" font-family="Futura-Medium" font-size="38.0" fill="#000000" transform="matrix(1.00, 0.00, -0.00, -1.00, 766.0, 477.0)">n</text><text xml:space="preserve" font-family="Futura-Medium" font-size="38.0" fill="#000000" transform="matrix(1.00, 0.00, -0.00, -1.00, 786.8, 477.0)">s</text><text xml:space="preserve" font-family="Futura-Medium" font-size="38.0" fill="#000000" transform="matrix(1.00, 0.00, -0.00, -1.00, 802.2, 477.0)">)</text><text xml:space="preserve" font-family="Futura-Medium" font-size="38.0" fill="#000000" transform="matrix(1.00, 0.00, -0.00, -1.00, 816.1, 477.0)"> </text><text xml:space="preserve" font-family="Futura-Medium" font-size="38.0" fill="#000000" transform="matrix(1.00, 0.00, -0.00, -1.00, 308.0, 377.0)">G</text><text xml:space="preserve" font-family="Futura-Medium" font-size="38.0" fill="#000000" transform="matrix(1.00, 0.00, -0.00, -1.00, 340.0, 377.0)">o</text><text xml:space="preserve" font-family="Futura-Medium" font-size="38.0" fill="#000000" transform="matrix(1.00, 0.00, -0.00, -1.00, 362.9, 377.0)">o</text><text xml:space="preserve" font-family="Futura-Medium" font-size="38.0" fill="#000000" transform="matrix(1.00, 0.00, -0.00, -1.00, 385.7, 377.0)">d</text><text xml:space="preserve" font-family="Futura-Medium" font-size="38.0" fill="#000000" transform="matrix(1.00, 0.00, -0.00, -1.00, 408.5, 377.0)">b</text><text xml:space="preserve" font-family="Futura-Medium" font-size="38.0" fill="#000000" transform="matrix(1.00, 0.00, -0.00, -1.00, 430.6, 377.0)">y</text><text xml:space="preserve" font-family="Futura-Medium" font-size="38.0" fill="#000000" transform="matrix(1.00, 0.00, -0.00, -1.00, 450.6, 377.0)">e</text><text xml:space="preserve" font-family="Futura-Medium" font-size="38.0" fill="#000000" transform="matrix(1.00, 0.00, -0.00, -1.00, 471.6, 377.0)"> </text><text xml:space="preserve" font-family="Futura-Medium" font-size="38.0" fill="#000000" transform="matrix(1.00, 0.00, -0.00, -1.00, 483.4, 377.0)">G</text><text xml:space="preserve" font-family="Futura-Medium" font-size="38.0" fill="#000000" transform="matrix(1.00, 0.00, -0.00, -1.00, 515.4, 377.0)">a</text><text xml:space="preserve" font-family="Futura-Medium" font-size="38.0" fill="#000000" transform="matrix(1.00, 0.00, -0.00, -1.00, 538.1, 377.0)">n</text><text xml:space="preserve" font-family="Futura-Medium" font-size="38.0" fill="#000000" transform="matrix(1.00, 0.00, -0.00, -1.00, 559.0, 377.0)">g</text><text xml:space="preserve" font-family="Futura-Medium" font-size="38.0" fill="#000000" transform="matrix(1.00, 0.00, -0.00, -1.00, 581.7, 377.0)"> </text><text xml:space="preserve" font-family="Futura-Medium" font-size="38.0" fill="#000000" transform="matrix(1.00, 0.00, -0.00, -1.00, 593.4, 377.0)">o</text><text xml:space="preserve" font-family="Futura-Medium" font-size="38.0" fill="#000000" transform="matrix(1.00, 0.00, -0.00, -1.00, 616.3, 377.0)">f</text><text xml:space="preserve" font-family="Futura-Medium" font-size="38.0" fill="#000000" transform="matrix(1.00, 0.00, -0.00, -1.00, 627.6, 377.0)"> </text><text xml:space="preserve" font-family="Futura-Medium" font-size="38.0" fill="#000000" transform="matrix(1.00, 0.00, -0.00, -1.00, 639.3, 377.0)">F</text><text xml:space="preserve" font-family="Futura-Medium" font-size="38.0" fill="#000000" transform="matrix(1.00, 0.00, -0.00, -1.00, 658.3, 377.0)">o</text><text xml:space="preserve" font-family="Futura-Medium" font-size="38.0" fill="#000000" transform="matrix(1.00, 0.00, -0.00, -1.00, 681.1, 377.0)">u</text><text xml:space="preserve" font-family="Futura-Medium" font-size="38.0" fill="#000000" transform="matrix(1.00, 0.00, -0.00, -1.00, 701.8, 377.0)">r</text><text xml:space="preserve" font-family="Futura-Medium" font-size="38.0" fill="#000000" transform="matrix(1.00, 0.00, -0.00, -1.00, 716.0, 377.0)"> </text><text xml:space="preserve" font-family="Futura-Medium" font-size="38.0" fill="#000000" transform="matrix(1.00, 0.00, -0.00, -1.00, 177.0, 277.0)">B</text><text xml:space="preserve" font-family="Futura-Medium" font-size="38.0" fill="#000000" transform="matrix(1.00, 0.00, -0.00, -1.00, 199.5, 277.0)">u</text><text xml:space="preserve" font-family="Futura-Medium" font-size="38.0" fill="#000000" transform="matrix(1.00, 0.00, -0.00, -1.00, 220.2, 277.0)">t</text><text xml:space="preserve" font-family="Futura-Medium" font-size="38.0" fill="#000000" transform="matrix(1.00, 0.00, -0.00, -1.00, 230.6, 277.0)">…</text><text xml:space="preserve" font-family="Futura-Medium" font-size="38.0" fill="#000000" transform="matrix(1.00, 0.00, -0.00, -1.00, 266.5, 277.0)">M</text><text xml:space="preserve" font-family="Futura-Medium" font-size="38.0" fill="#000000" transform="matrix(1.00, 0.00, -0.00, -1.00, 303.0, 277.0)">o</text><text xml:space="preserve" font-family="Futura-Medium" font-size="38.0" fill="#000000" transform="matrix(1.00, 0.00, -0.00, -1.00, 325.9, 277.0)">d</text><text xml:space="preserve" font-family="Futura-Medium" font-size="38.0" fill="#000000" transform="matrix(1.00, 0.00, -0.00, -1.00, 348.7, 277.0)">e</text><text xml:space="preserve" font-family="Futura-Medium" font-size="38.0" fill="#000000" transform="matrix(1.00, 0.00, -0.00, -1.00, 369.7, 277.0)">r</text><text xml:space="preserve" font-family="Futura-Medium" font-size="38.0" fill="#000000" transform="matrix(1.00, 0.00, -0.00, -1.00, 384.5, 277.0)">n</text><text xml:space="preserve" font-family="Futura-Medium" font-size="38.0" fill="#000000" transform="matrix(1.00, 0.00, -0.00, -1.00, 405.3, 277.0)"> </text><text xml:space="preserve" font-family="Futura-Medium" font-size="38.0" fill="#000000" transform="matrix(1.00, 0.00, -0.00, -1.00, 417.0, 277.0)">F</text><text xml:space="preserve" font-family="Futura-Medium" font-size="38.0" fill="#000000" transform="matrix(1.00, 0.00, -0.00, -1.00, 436.4, 277.0)">P</text><text xml:space="preserve" font-family="Futura-Medium" font-size="38.0" fill="#000000" transform="matrix(1.00, 0.00, -0.00, -1.00, 456.9, 277.0)"> </text><text xml:space="preserve" font-family="Futura-Medium" font-size="38.0" fill="#000000" transform="matrix(1.00, 0.00, -0.00, -1.00, 468.6, 277.0)">p</text><text xml:space="preserve" font-family="Futura-Medium" font-size="38.0" fill="#000000" transform="matrix(1.00, 0.00, -0.00, -1.00, 491.4, 277.0)">a</text><text xml:space="preserve" font-family="Futura-Medium" font-size="38.0" fill="#000000" transform="matrix(1.00, 0.00, -0.00, -1.00, 514.1, 277.0)">t</text><text xml:space="preserve" font-family="Futura-Medium" font-size="38.0" fill="#000000" transform="matrix(1.00, 0.00, -0.00, -1.00, 524.5, 277.0)">t</text><text xml:space="preserve" font-family="Futura-Medium" font-size="38.0" fill="#000000" transform="matrix(1.00, 0.00, -0.00, -1.00, 535.3, 277.0)">e</text><text xml:space="preserve" font-family="Futura-Medium" font-size="38.0" fill="#000000" transform="matrix(1.00, 0.00, -0.00, -1.00, 556.3, 277.0)">r</text><text xml:space="preserve" font-family="Futura-Medium" font-size="38.0" fill="#000000" transform="matrix(1.00, 0.00, -0.00, -1.00, 571.1, 277.0)">n</text><text xml:space="preserve" font-family="Futura-Medium" font-size="38.0" fill="#000000" transform="matrix(1.00, 0.00, -0.00, -1.00, 591.9, 277.0)">s</text><text xml:space="preserve" font-family="Futura-Medium" font-size="38.0" fill="#000000" transform="matrix(1.00, 0.00, -0.00, -1.00, 607.4, 277.0)"> </text><text xml:space="preserve" font-family="Futura-Medium" font-size="38.0" fill="#000000" transform="matrix(1.00, 0.00, -0.00, -1.00, 619.1, 277.0)">s</text><text xml:space="preserve" font-family="Futura-Medium" font-size="38.0" fill="#000000" transform="matrix(1.00, 0.00, -0.00, -1.00, 634.5, 277.0)">t</text><text xml:space="preserve" font-family="Futura-Medium" font-size="38.0" fill="#000000" transform="matrix(1.00, 0.00, -0.00, -1.00, 644.9, 277.0)">i</text><text xml:space="preserve" font-family="Futura-Medium" font-size="38.0" fill="#000000" transform="matrix(1.00, 0.00, -0.00, -1.00, 654.3, 277.0)">l</text><text xml:space="preserve" font-family="Futura-Medium" font-size="38.0" fill="#000000" transform="matrix(1.00, 0.00, -0.00, -1.00, 663.8, 277.0)">l</text><text xml:space="preserve" font-family="Futura-Medium" font-size="38.0" fill="#000000" transform="matrix(1.00, 0.00, -0.00, -1.00, 673.3, 277.0)"> </text><text xml:space="preserve" font-family="Futura-Medium" font-size="38.0" fill="#000000" transform="matrix(1.00, 0.00, -0.00, -1.00, 685.0, 277.0)">e</text><text xml:space="preserve" font-family="Futura-Medium" font-size="38.0" fill="#000000" transform="matrix(1.00, 0.00, -0.00, -1.00, 706.0, 277.0)">m</text><text xml:space="preserve" font-family="Futura-Medium" font-size="38.0" fill="#000000" transform="matrix(1.00, 0.00, -0.00, -1.00, 736.1, 277.0)">e</text><text xml:space="preserve" font-family="Futura-Medium" font-size="38.0" fill="#000000" transform="matrix(1.00, 0.00, -0.00, -1.00, 757.1, 277.0)">r</text><text xml:space="preserve" font-family="Futura-Medium" font-size="38.0" fill="#000000" transform="matrix(1.00, 0.00, -0.00, -1.00, 771.3, 277.0)">g</text><text xml:space="preserve" font-family="Futura-Medium" font-size="38.0" fill="#000000" transform="matrix(1.00, 0.00, -0.00, -1.00, 794.0, 277.0)">i</text><text xml:space="preserve" font-family="Futura-Medium" font-size="38.0" fill="#000000" transform="matrix(1.00, 0.00, -0.00, -1.00, 803.5, 277.0)">n</text><text xml:space="preserve" font-family="Futura-Medium" font-size="38.0" fill="#000000" transform="matrix(1.00, 0.00, -0.00, -1.00, 824.4, 277.0)">g</text><text xml:space="preserve" font-family="Futura-Medium" font-size="38.0" fill="#000000" transform="matrix(1.00, 0.00, -0.00, -1.00, 847.1, 277.0)"> </text></g></svg>