<?xml version="1.0" encoding="UTF-8" standalone="no"?><svg xmlns="http://www.w3.org/2000/svg" xmlns:xlink="http://www.w3.org/1999/xlink" clip-rule="evenodd" stroke-miterlimit="4.00" viewBox="0 0 1024 768"><desc>SVG generated by Keynote</desc><defs></defs><g transform="matrix(1.00, 0.00, -0.00, -1.00, 0.0, 768.0)"><path d="M 0.0 768.0 L 1024.0 768.0 L 1024.0 0.0 L 0.0 0.0 Z M 0.0 768.0 " fill="#F9F4DE"></path><text xml:space="preserve" font-family="Futura-Medium" font-size="55.0" fill="#000000" transform="matrix(1.00, 0.00, -0.00, -1.00, 318.0, 581.0)">W</text><text xml:space="preserve" font-family="Futura-Medium" font-size="55.0" fill="#000000" transform="matrix(1.00, 0.00, -0.00, -1.00, 373.1, 581.0)">e</text><text xml:space="preserve" font-family="Futura-Medium" font-size="55.0" fill="#000000" transform="matrix(1.00, 0.00, -0.00, -1.00, 403.6, 581.0)"> </text><text xml:space="preserve" font-family="Futura-MediumItalic" font-style="italic" font-size="55.0" fill="#000000" transform="matrix(1.00, 0.00, -0.00, -1.00, 420.5, 581.0)">e</text><text xml:space="preserve" font-family="Futura-MediumItalic" font-style="italic" font-size="55.0" fill="#000000" transform="matrix(1.00, 0.00, -0.00, -1.00, 451.4, 581.0)">n</text><text xml:space="preserve" font-family="Futura-MediumItalic" font-style="italic" font-size="55.0" fill="#000000" transform="matrix(1.00, 0.00, -0.00, -1.00, 481.7, 581.0)">c</text><text xml:space="preserve" font-family="Futura-MediumItalic" font-style="italic" font-size="55.0" fill="#000000" transform="matrix(1.00, 0.00, -0.00, -1.00, 506.9, 581.0)">o</text><text xml:space="preserve" font-family="Futura-MediumItalic" font-style="italic" font-size="55.0" fill="#000000" transform="matrix(1.00, 0.00, -0.00, -1.00, 540.0, 581.0)">u</text><text xml:space="preserve" font-family="Futura-MediumItalic" font-style="italic" font-size="55.0" fill="#000000" transform="matrix(1.00, 0.00, -0.00, -1.00, 570.1, 581.0)">r</text><text xml:space="preserve" font-family="Futura-MediumItalic" font-style="italic" font-size="55.0" fill="#000000" transform="matrix(1.00, 0.00, -0.00, -1.00, 590.8, 581.0)">a</text><text xml:space="preserve" font-family="Futura-MediumItalic" font-style="italic" font-size="55.0" fill="#000000" transform="matrix(1.00, 0.00, -0.00, -1.00, 623.9, 581.0)">g</text><text xml:space="preserve" font-family="Futura-MediumItalic" font-style="italic" font-size="55.0" fill="#000000" transform="matrix(1.00, 0.00, -0.00, -1.00, 657.7, 581.0)">e</text><text xml:space="preserve" font-family="Futura-Medium" font-size="55.0" fill="#000000" transform="matrix(1.00, 0.00, -0.00, -1.00, 688.5, 581.0)">:</text><text xml:space="preserve" font-family="Futura-Medium" font-size="55.0" fill="#000000" transform="matrix(1.00, 0.00, -0.00, -1.00, 705.5, 581.0)"> </text><text xml:space="preserve" font-family="Futura-Medium" font-size="55.0" fill="#000000" transform="matrix(1.00, 0.00, -0.00, -1.00, 296.0, 456.0)"> </text><text xml:space="preserve" font-family="Futura-Medium" font-size="50.0" fill="#000000" transform="matrix(1.00, 0.00, -0.00, -1.00, 313.0, 456.0)">i</text><text xml:space="preserve" font-family="Futura-Medium" font-size="50.0" fill="#000000" transform="matrix(1.00, 0.00, -0.00, -1.00, 325.4, 456.0)">n</text><text xml:space="preserve" font-family="Futura-Medium" font-size="50.0" fill="#000000" transform="matrix(1.00, 0.00, -0.00, -1.00, 352.9, 456.0)">s</text><text xml:space="preserve" font-family="Futura-Medium" font-size="50.0" fill="#000000" transform="matrix(1.00, 0.00, -0.00, -1.00, 373.1, 456.0)">i</text><text xml:space="preserve" font-family="Futura-Medium" font-size="50.0" fill="#000000" transform="matrix(1.00, 0.00, -0.00, -1.00, 385.6, 456.0)">d</text><text xml:space="preserve" font-family="Futura-Medium" font-size="50.0" fill="#000000" transform="matrix(1.00, 0.00, -0.00, -1.00, 415.5, 456.0)">e</text><text xml:space="preserve" font-family="Futura-Medium" font-size="50.0" fill="#000000" transform="matrix(1.00, 0.00, -0.00, -1.00, 443.2, 456.0)">-</text><text xml:space="preserve" font-family="Futura-Medium" font-size="50.0" fill="#000000" transform="matrix(1.00, 0.00, -0.00, -1.00, 454.1, 456.0)">o</text><text xml:space="preserve" font-family="Futura-Medium" font-size="50.0" fill="#000000" transform="matrix(1.00, 0.00, -0.00, -1.00, 484.2, 456.0)">u</text><text xml:space="preserve" font-family="Futura-Medium" font-size="50.0" fill="#000000" transform="matrix(1.00, 0.00, -0.00, -1.00, 511.4, 456.0)">t</text><text xml:space="preserve" font-family="Futura-Medium" font-size="50.0" fill="#000000" transform="matrix(1.00, 0.00, -0.00, -1.00, 525.1, 456.0)"> </text><text xml:space="preserve" font-family="Futura-Medium" font-size="50.0" fill="#000000" transform="matrix(1.00, 0.00, -0.00, -1.00, 540.5, 456.0)">l</text><text xml:space="preserve" font-family="Futura-Medium" font-size="50.0" fill="#000000" transform="matrix(1.00, 0.00, -0.00, -1.00, 552.9, 456.0)">e</text><text xml:space="preserve" font-family="Futura-Medium" font-size="50.0" fill="#000000" transform="matrix(1.00, 0.00, -0.00, -1.00, 580.6, 456.0)">a</text><text xml:space="preserve" font-family="Futura-Medium" font-size="50.0" fill="#000000" transform="matrix(1.00, 0.00, -0.00, -1.00, 610.6, 456.0)">r</text><text xml:space="preserve" font-family="Futura-Medium" font-size="50.0" fill="#000000" transform="matrix(1.00, 0.00, -0.00, -1.00, 630.0, 456.0)">n</text><text xml:space="preserve" font-family="Futura-Medium" font-size="50.0" fill="#000000" transform="matrix(1.00, 0.00, -0.00, -1.00, 657.5, 456.0)">i</text><text xml:space="preserve" font-family="Futura-Medium" font-size="50.0" fill="#000000" transform="matrix(1.00, 0.00, -0.00, -1.00, 669.9, 456.0)">n</text><text xml:space="preserve" font-family="Futura-Medium" font-size="50.0" fill="#000000" transform="matrix(1.00, 0.00, -0.00, -1.00, 697.4, 456.0)">g</text><text xml:space="preserve" font-family="Futura-Medium" font-size="50.0" fill="#000000" transform="matrix(1.00, 0.00, -0.00, -1.00, 727.3, 456.0)"> </text><text xml:space="preserve" font-family="Futura-Medium" font-size="50.0" fill="#000000" transform="matrix(1.00, 0.00, -0.00, -1.00, 329.0, 388.0)">e</text><text xml:space="preserve" font-family="Futura-Medium" font-size="50.0" fill="#000000" transform="matrix(1.00, 0.00, -0.00, -1.00, 355.7, 388.0)">x</text><text xml:space="preserve" font-family="Futura-Medium" font-size="50.0" fill="#000000" transform="matrix(1.00, 0.00, -0.00, -1.00, 383.6, 388.0)">p</text><text xml:space="preserve" font-family="Futura-Medium" font-size="50.0" fill="#000000" transform="matrix(1.00, 0.00, -0.00, -1.00, 413.6, 388.0)">e</text><text xml:space="preserve" font-family="Futura-Medium" font-size="50.0" fill="#000000" transform="matrix(1.00, 0.00, -0.00, -1.00, 441.3, 388.0)">r</text><text xml:space="preserve" font-family="Futura-Medium" font-size="50.0" fill="#000000" transform="matrix(1.00, 0.00, -0.00, -1.00, 460.7, 388.0)">i</text><text xml:space="preserve" font-family="Futura-Medium" font-size="50.0" fill="#000000" transform="matrix(1.00, 0.00, -0.00, -1.00, 473.2, 388.0)">m</text><text xml:space="preserve" font-family="Futura-Medium" font-size="50.0" fill="#000000" transform="matrix(1.00, 0.00, -0.00, -1.00, 512.7, 388.0)">e</text><text xml:space="preserve" font-family="Futura-Medium" font-size="50.0" fill="#000000" transform="matrix(1.00, 0.00, -0.00, -1.00, 540.4, 388.0)">n</text><text xml:space="preserve" font-family="Futura-Medium" font-size="50.0" fill="#000000" transform="matrix(1.00, 0.00, -0.00, -1.00, 567.8, 388.0)">t</text><text xml:space="preserve" font-family="Futura-Medium" font-size="50.0" fill="#000000" transform="matrix(1.00, 0.00, -0.00, -1.00, 582.0, 388.0)">a</text><text xml:space="preserve" font-family="Futura-Medium" font-size="50.0" fill="#000000" transform="matrix(1.00, 0.00, -0.00, -1.00, 611.9, 388.0)">t</text><text xml:space="preserve" font-family="Futura-Medium" font-size="50.0" fill="#000000" transform="matrix(1.00, 0.00, -0.00, -1.00, 625.6, 388.0)">i</text><text xml:space="preserve" font-family="Futura-Medium" font-size="50.0" fill="#000000" transform="matrix(1.00, 0.00, -0.00, -1.00, 638.1, 388.0)">o</text><text xml:space="preserve" font-family="Futura-Medium" font-size="50.0" fill="#000000" transform="matrix(1.00, 0.00, -0.00, -1.00, 668.1, 388.0)">n</text><text xml:space="preserve" font-family="Futura-Medium" font-size="50.0" fill="#000000" transform="matrix(1.00, 0.00, -0.00, -1.00, 695.6, 388.0)"> </text><text xml:space="preserve" font-family="Futura-Medium" font-size="50.0" fill="#000000" transform="matrix(1.00, 0.00, -0.00, -1.00, 164.0, 322.0)">p</text><text xml:space="preserve" font-family="Futura-Medium" font-size="50.0" fill="#000000" transform="matrix(1.00, 0.00, -0.00, -1.00, 194.0, 322.0)">e</text><text xml:space="preserve" font-family="Futura-Medium" font-size="50.0" fill="#000000" transform="matrix(1.00, 0.00, -0.00, -1.00, 221.6, 322.0)">e</text><text xml:space="preserve" font-family="Futura-Medium" font-size="50.0" fill="#000000" transform="matrix(1.00, 0.00, -0.00, -1.00, 249.3, 322.0)">r</text><text xml:space="preserve" font-family="Futura-Medium" font-size="50.0" fill="#000000" transform="matrix(1.00, 0.00, -0.00, -1.00, 268.0, 322.0)"> </text><text xml:space="preserve" font-family="Futura-Medium" font-size="50.0" fill="#000000" transform="matrix(1.00, 0.00, -0.00, -1.00, 283.4, 322.0)">a</text><text xml:space="preserve" font-family="Futura-Medium" font-size="50.0" fill="#000000" transform="matrix(1.00, 0.00, -0.00, -1.00, 313.4, 322.0)">n</text><text xml:space="preserve" font-family="Futura-Medium" font-size="50.0" fill="#000000" transform="matrix(1.00, 0.00, -0.00, -1.00, 340.8, 322.0)">d</text><text xml:space="preserve" font-family="Futura-Medium" font-size="50.0" fill="#000000" transform="matrix(1.00, 0.00, -0.00, -1.00, 370.8, 322.0)"> </text><text xml:space="preserve" font-family="Futura-Medium" font-size="50.0" fill="#000000" transform="matrix(1.00, 0.00, -0.00, -1.00, 386.2, 322.0)">m</text><text xml:space="preserve" font-family="Futura-Medium" font-size="50.0" fill="#000000" transform="matrix(1.00, 0.00, -0.00, -1.00, 425.7, 322.0)">e</text><text xml:space="preserve" font-family="Futura-Medium" font-size="50.0" fill="#000000" transform="matrix(1.00, 0.00, -0.00, -1.00, 453.4, 322.0)">n</text><text xml:space="preserve" font-family="Futura-Medium" font-size="50.0" fill="#000000" transform="matrix(1.00, 0.00, -0.00, -1.00, 480.8, 322.0)">t</text><text xml:space="preserve" font-family="Futura-Medium" font-size="50.0" fill="#000000" transform="matrix(1.00, 0.00, -0.00, -1.00, 494.9, 322.0)">o</text><text xml:space="preserve" font-family="Futura-Medium" font-size="50.0" fill="#000000" transform="matrix(1.00, 0.00, -0.00, -1.00, 524.9, 322.0)">r</text><text xml:space="preserve" font-family="Futura-Medium" font-size="50.0" fill="#000000" transform="matrix(1.00, 0.00, -0.00, -1.00, 543.6, 322.0)"> </text><text xml:space="preserve" font-family="Futura-Medium" font-size="50.0" fill="#000000" transform="matrix(1.00, 0.00, -0.00, -1.00, 559.0, 322.0)">c</text><text xml:space="preserve" font-family="Futura-Medium" font-size="50.0" fill="#000000" transform="matrix(1.00, 0.00, -0.00, -1.00, 582.8, 322.0)">o</text><text xml:space="preserve" font-family="Futura-Medium" font-size="50.0" fill="#000000" transform="matrix(1.00, 0.00, -0.00, -1.00, 612.9, 322.0)">l</text><text xml:space="preserve" font-family="Futura-Medium" font-size="50.0" fill="#000000" transform="matrix(1.00, 0.00, -0.00, -1.00, 625.4, 322.0)">l</text><text xml:space="preserve" font-family="Futura-Medium" font-size="50.0" fill="#000000" transform="matrix(1.00, 0.00, -0.00, -1.00, 637.9, 322.0)">a</text><text xml:space="preserve" font-family="Futura-Medium" font-size="50.0" fill="#000000" transform="matrix(1.00, 0.00, -0.00, -1.00, 667.8, 322.0)">b</text><text xml:space="preserve" font-family="Futura-Medium" font-size="50.0" fill="#000000" transform="matrix(1.00, 0.00, -0.00, -1.00, 697.8, 322.0)">o</text><text xml:space="preserve" font-family="Futura-Medium" font-size="50.0" fill="#000000" transform="matrix(1.00, 0.00, -0.00, -1.00, 727.9, 322.0)">r</text><text xml:space="preserve" font-family="Futura-Medium" font-size="50.0" fill="#000000" transform="matrix(1.00, 0.00, -0.00, -1.00, 746.2, 322.0)">a</text><text xml:space="preserve" font-family="Futura-Medium" font-size="50.0" fill="#000000" transform="matrix(1.00, 0.00, -0.00, -1.00, 776.2, 322.0)">t</text><text xml:space="preserve" font-family="Futura-Medium" font-size="50.0" fill="#000000" transform="matrix(1.00, 0.00, -0.00, -1.00, 789.9, 322.0)">i</text><text xml:space="preserve" font-family="Futura-Medium" font-size="50.0" fill="#000000" transform="matrix(1.00, 0.00, -0.00, -1.00, 802.3, 322.0)">o</text><text xml:space="preserve" font-family="Futura-Medium" font-size="50.0" fill="#000000" transform="matrix(1.00, 0.00, -0.00, -1.00, 832.4, 322.0)">n</text><text xml:space="preserve" font-family="Futura-Medium" font-size="50.0" fill="#000000" transform="matrix(1.00, 0.00, -0.00, -1.00, 859.8, 322.0)"> </text><g><clipPath id="clip-53"><path d="M 624.5 314.6 L 697.9 314.6 L 697.9 320.5 L 624.5 320.5 Z M 624.5 314.6 "></path></clipPath><g clip-path="url(#clip-53)"><path d="M 615.0 439.6 L 687.4 439.6 " fill="none" stroke="#000000" stroke-width="3.91" stroke-miterlimit="0.00" transform="matrix(1.00, 0.00, 0.00, -1.00, 10.5, 757.1)"></path></g></g><text xml:space="preserve" font-family="Futura-Medium" font-size="50.0" fill="#000000" transform="matrix(1.00, 0.00, -0.00, -1.00, 223.0, 256.0)">m</text><text xml:space="preserve" font-family="Futura-Medium" font-size="50.0" fill="#000000" transform="matrix(1.00, 0.00, -0.00, -1.00, 262.6, 256.0)">u</text><text xml:space="preserve" font-family="Futura-Medium" font-size="50.0" fill="#000000" transform="matrix(1.00, 0.00, -0.00, -1.00, 289.8, 256.0)">l</text><text xml:space="preserve" font-family="Futura-Medium" font-size="50.0" fill="#000000" transform="matrix(1.00, 0.00, -0.00, -1.00, 302.2, 256.0)">t</text><text xml:space="preserve" font-family="Futura-Medium" font-size="50.0" fill="#000000" transform="matrix(1.00, 0.00, -0.00, -1.00, 315.9, 256.0)">i</text><text xml:space="preserve" font-family="Futura-Medium" font-size="50.0" fill="#000000" transform="matrix(1.00, 0.00, -0.00, -1.00, 328.4, 256.0)">-</text><text xml:space="preserve" font-family="Futura-Medium" font-size="50.0" fill="#000000" transform="matrix(1.00, 0.00, -0.00, -1.00, 339.3, 256.0)">d</text><text xml:space="preserve" font-family="Futura-Medium" font-size="50.0" fill="#000000" transform="matrix(1.00, 0.00, -0.00, -1.00, 369.2, 256.0)">i</text><text xml:space="preserve" font-family="Futura-Medium" font-size="50.0" fill="#000000" transform="matrix(1.00, 0.00, -0.00, -1.00, 381.7, 256.0)">s</text><text xml:space="preserve" font-family="Futura-Medium" font-size="50.0" fill="#000000" transform="matrix(1.00, 0.00, -0.00, -1.00, 402.0, 256.0)">c</text><text xml:space="preserve" font-family="Futura-Medium" font-size="50.0" fill="#000000" transform="matrix(1.00, 0.00, -0.00, -1.00, 425.8, 256.0)">i</text><text xml:space="preserve" font-family="Futura-Medium" font-size="50.0" fill="#000000" transform="matrix(1.00, 0.00, -0.00, -1.00, 438.2, 256.0)">p</text><text xml:space="preserve" font-family="Futura-Medium" font-size="50.0" fill="#000000" transform="matrix(1.00, 0.00, -0.00, -1.00, 468.2, 256.0)">l</text><text xml:space="preserve" font-family="Futura-Medium" font-size="50.0" fill="#000000" transform="matrix(1.00, 0.00, -0.00, -1.00, 480.6, 256.0)">i</text><text xml:space="preserve" font-family="Futura-Medium" font-size="50.0" fill="#000000" transform="matrix(1.00, 0.00, -0.00, -1.00, 493.1, 256.0)">n</text><text xml:space="preserve" font-family="Futura-Medium" font-size="50.0" fill="#000000" transform="matrix(1.00, 0.00, -0.00, -1.00, 520.5, 256.0)">a</text><text xml:space="preserve" font-family="Futura-Medium" font-size="50.0" fill="#000000" transform="matrix(1.00, 0.00, -0.00, -1.00, 550.5, 256.0)">r</text><text xml:space="preserve" font-family="Futura-Medium" font-size="50.0" fill="#000000" transform="matrix(1.00, 0.00, -0.00, -1.00, 571.4, 256.0)">y</text><text xml:space="preserve" font-family="Futura-Medium" font-size="50.0" fill="#000000" transform="matrix(1.00, 0.00, -0.00, -1.00, 598.6, 256.0)"> </text><text xml:space="preserve" font-family="Futura-Medium" font-size="50.0" fill="#000000" transform="matrix(1.00, 0.00, -0.00, -1.00, 614.0, 256.0)">c</text><text xml:space="preserve" font-family="Futura-Medium" font-size="50.0" fill="#000000" transform="matrix(1.00, 0.00, -0.00, -1.00, 637.8, 256.0)">u</text><text xml:space="preserve" font-family="Futura-Medium" font-size="50.0" fill="#000000" transform="matrix(1.00, 0.00, -0.00, -1.00, 665.0, 256.0)">r</text><text xml:space="preserve" font-family="Futura-Medium" font-size="50.0" fill="#000000" transform="matrix(1.00, 0.00, -0.00, -1.00, 684.5, 256.0)">i</text><text xml:space="preserve" font-family="Futura-Medium" font-size="50.0" fill="#000000" transform="matrix(1.00, 0.00, -0.00, -1.00, 696.9, 256.0)">o</text><text xml:space="preserve" font-family="Futura-Medium" font-size="50.0" fill="#000000" transform="matrix(1.00, 0.00, -0.00, -1.00, 727.0, 256.0)">s</text><text xml:space="preserve" font-family="Futura-Medium" font-size="50.0" fill="#000000" transform="matrix(1.00, 0.00, -0.00, -1.00, 747.3, 256.0)">i</text><text xml:space="preserve" font-family="Futura-Medium" font-size="50.0" fill="#000000" transform="matrix(1.00, 0.00, -0.00, -1.00, 759.7, 256.0)">t</text><text xml:space="preserve" font-family="Futura-Medium" font-size="50.0" fill="#000000" transform="matrix(1.00, 0.00, -0.00, -1.00, 773.4, 256.0)">y</text><text xml:space="preserve" font-family="Futura-Medium" font-size="50.0" fill="#000000" transform="matrix(1.00, 0.00, -0.00, -1.00, 800.6, 256.0)"> </text><text xml:space="preserve" font-family="Futura-Medium" font-size="50.0" fill="#000000" transform="matrix(1.00, 0.00, -0.00, -1.00, 207.0, 190.0)">p</text><text xml:space="preserve" font-family="Futura-Medium" font-size="50.0" fill="#000000" transform="matrix(1.00, 0.00, -0.00, -1.00, 237.0, 190.0)">r</text><text xml:space="preserve" font-family="Futura-Medium" font-size="50.0" fill="#000000" transform="matrix(1.00, 0.00, -0.00, -1.00, 255.2, 190.0)">o</text><text xml:space="preserve" font-family="Futura-Medium" font-size="50.0" fill="#000000" transform="matrix(1.00, 0.00, -0.00, -1.00, 285.3, 190.0)">j</text><text xml:space="preserve" font-family="Futura-Medium" font-size="50.0" fill="#000000" transform="matrix(1.00, 0.00, -0.00, -1.00, 297.7, 190.0)">e</text><text xml:space="preserve" font-family="Futura-Medium" font-size="50.0" fill="#000000" transform="matrix(1.00, 0.00, -0.00, -1.00, 325.4, 190.0)">c</text><text xml:space="preserve" font-family="Futura-Medium" font-size="50.0" fill="#000000" transform="matrix(1.00, 0.00, -0.00, -1.00, 349.2, 190.0)">t</text><text xml:space="preserve" font-family="Futura-Medium" font-size="50.0" fill="#000000" transform="matrix(1.00, 0.00, -0.00, -1.00, 362.9, 190.0)">-</text><text xml:space="preserve" font-family="Futura-Medium" font-size="50.0" fill="#000000" transform="matrix(1.00, 0.00, -0.00, -1.00, 373.8, 190.0)">b</text><text xml:space="preserve" font-family="Futura-Medium" font-size="50.0" fill="#000000" transform="matrix(1.00, 0.00, -0.00, -1.00, 403.7, 190.0)">a</text><text xml:space="preserve" font-family="Futura-Medium" font-size="50.0" fill="#000000" transform="matrix(1.00, 0.00, -0.00, -1.00, 433.7, 190.0)">s</text><text xml:space="preserve" font-family="Futura-Medium" font-size="50.0" fill="#000000" transform="matrix(1.00, 0.00, -0.00, -1.00, 454.0, 190.0)">e</text><text xml:space="preserve" font-family="Futura-Medium" font-size="50.0" fill="#000000" transform="matrix(1.00, 0.00, -0.00, -1.00, 481.7, 190.0)">d</text><text xml:space="preserve" font-family="Futura-Medium" font-size="50.0" fill="#000000" transform="matrix(1.00, 0.00, -0.00, -1.00, 511.6, 190.0)"> </text><text xml:space="preserve" font-family="Futura-Medium" font-size="50.0" fill="#000000" transform="matrix(1.00, 0.00, -0.00, -1.00, 527.0, 190.0)">w</text><text xml:space="preserve" font-family="Futura-Medium" font-size="50.0" fill="#000000" transform="matrix(1.00, 0.00, -0.00, -1.00, 564.8, 190.0)">o</text><text xml:space="preserve" font-family="Futura-Medium" font-size="50.0" fill="#000000" transform="matrix(1.00, 0.00, -0.00, -1.00, 594.9, 190.0)">r</text><text xml:space="preserve" font-family="Futura-Medium" font-size="50.0" fill="#000000" transform="matrix(1.00, 0.00, -0.00, -1.00, 614.3, 190.0)">k</text><text xml:space="preserve" font-family="Futura-Medium" font-size="50.0" fill="#000000" transform="matrix(1.00, 0.00, -0.00, -1.00, 639.2, 190.0)"> </text><text xml:space="preserve" font-family="Futura-Medium" font-size="50.0" fill="#000000" transform="matrix(1.00, 0.00, -0.00, -1.00, 654.6, 190.0)">a</text><text xml:space="preserve" font-family="Futura-Medium" font-size="50.0" fill="#000000" transform="matrix(1.00, 0.00, -0.00, -1.00, 684.6, 190.0)">n</text><text xml:space="preserve" font-family="Futura-Medium" font-size="50.0" fill="#000000" transform="matrix(1.00, 0.00, -0.00, -1.00, 712.0, 190.0)">d</text><text xml:space="preserve" font-family="Futura-Medium" font-size="50.0" fill="#000000" transform="matrix(1.00, 0.00, -0.00, -1.00, 742.0, 190.0)">/</text><text xml:space="preserve" font-family="Futura-Medium" font-size="50.0" fill="#000000" transform="matrix(1.00, 0.00, -0.00, -1.00, 767.9, 190.0)">o</text><text xml:space="preserve" font-family="Futura-Medium" font-size="50.0" fill="#000000" transform="matrix(1.00, 0.00, -0.00, -1.00, 798.0, 190.0)">r</text><text xml:space="preserve" font-family="Futura-Medium" font-size="50.0" fill="#000000" transform="matrix(1.00, 0.00, -0.00, -1.00, 816.7, 190.0)"> </text><text xml:space="preserve" font-family="Futura-Medium" font-size="50.0" fill="#000000" transform="matrix(1.00, 0.00, -0.00, -1.00, 163.0, 124.0)">o</text><text xml:space="preserve" font-family="Futura-Medium" font-size="50.0" fill="#000000" transform="matrix(1.00, 0.00, -0.00, -1.00, 193.1, 124.0)">p</text><text xml:space="preserve" font-family="Futura-Medium" font-size="50.0" fill="#000000" transform="matrix(1.00, 0.00, -0.00, -1.00, 223.0, 124.0)">e</text><text xml:space="preserve" font-family="Futura-Medium" font-size="50.0" fill="#000000" transform="matrix(1.00, 0.00, -0.00, -1.00, 250.7, 124.0)">n</text><text xml:space="preserve" font-family="Futura-Medium" font-size="50.0" fill="#000000" transform="matrix(1.00, 0.00, -0.00, -1.00, 278.1, 124.0)">-</text><text xml:space="preserve" font-family="Futura-Medium" font-size="50.0" fill="#000000" transform="matrix(1.00, 0.00, -0.00, -1.00, 289.0, 124.0)">s</text><text xml:space="preserve" font-family="Futura-Medium" font-size="50.0" fill="#000000" transform="matrix(1.00, 0.00, -0.00, -1.00, 309.3, 124.0)">o</text><text xml:space="preserve" font-family="Futura-Medium" font-size="50.0" fill="#000000" transform="matrix(1.00, 0.00, -0.00, -1.00, 339.3, 124.0)">u</text><text xml:space="preserve" font-family="Futura-Medium" font-size="50.0" fill="#000000" transform="matrix(1.00, 0.00, -0.00, -1.00, 366.6, 124.0)">r</text><text xml:space="preserve" font-family="Futura-Medium" font-size="50.0" fill="#000000" transform="matrix(1.00, 0.00, -0.00, -1.00, 384.8, 124.0)">c</text><text xml:space="preserve" font-family="Futura-Medium" font-size="50.0" fill="#000000" transform="matrix(1.00, 0.00, -0.00, -1.00, 408.6, 124.0)">e</text><text xml:space="preserve" font-family="Futura-Medium" font-size="50.0" fill="#000000" transform="matrix(1.00, 0.00, -0.00, -1.00, 436.3, 124.0)"> </text><text xml:space="preserve" font-family="Futura-Medium" font-size="50.0" fill="#000000" transform="matrix(1.00, 0.00, -0.00, -1.00, 451.7, 124.0)">l</text><text xml:space="preserve" font-family="Futura-Medium" font-size="50.0" fill="#000000" transform="matrix(1.00, 0.00, -0.00, -1.00, 464.2, 124.0)">e</text><text xml:space="preserve" font-family="Futura-Medium" font-size="50.0" fill="#000000" transform="matrix(1.00, 0.00, -0.00, -1.00, 491.9, 124.0)">a</text><text xml:space="preserve" font-family="Futura-Medium" font-size="50.0" fill="#000000" transform="matrix(1.00, 0.00, -0.00, -1.00, 521.8, 124.0)">r</text><text xml:space="preserve" font-family="Futura-Medium" font-size="50.0" fill="#000000" transform="matrix(1.00, 0.00, -0.00, -1.00, 541.3, 124.0)">n</text><text xml:space="preserve" font-family="Futura-Medium" font-size="50.0" fill="#000000" transform="matrix(1.00, 0.00, -0.00, -1.00, 568.7, 124.0)">i</text><text xml:space="preserve" font-family="Futura-Medium" font-size="50.0" fill="#000000" transform="matrix(1.00, 0.00, -0.00, -1.00, 581.2, 124.0)">n</text><text xml:space="preserve" font-family="Futura-Medium" font-size="50.0" fill="#000000" transform="matrix(1.00, 0.00, -0.00, -1.00, 608.6, 124.0)">g</text><text xml:space="preserve" font-family="Futura-Medium" font-size="50.0" fill="#000000" transform="matrix(1.00, 0.00, -0.00, -1.00, 638.5, 124.0)"> </text><text xml:space="preserve" font-family="Futura-Medium" font-size="50.0" fill="#000000" transform="matrix(1.00, 0.00, -0.00, -1.00, 653.9, 124.0)">i</text><text xml:space="preserve" font-family="Futura-Medium" font-size="50.0" fill="#000000" transform="matrix(1.00, 0.00, -0.00, -1.00, 666.4, 124.0)">n</text><text xml:space="preserve" font-family="Futura-Medium" font-size="50.0" fill="#000000" transform="matrix(1.00, 0.00, -0.00, -1.00, 693.8, 124.0)">i</text><text xml:space="preserve" font-family="Futura-Medium" font-size="50.0" fill="#000000" transform="matrix(1.00, 0.00, -0.00, -1.00, 706.2, 124.0)">t</text><text xml:space="preserve" font-family="Futura-Medium" font-size="50.0" fill="#000000" transform="matrix(1.00, 0.00, -0.00, -1.00, 719.9, 124.0)">i</text><text xml:space="preserve" font-family="Futura-Medium" font-size="50.0" fill="#000000" transform="matrix(1.00, 0.00, -0.00, -1.00, 732.4, 124.0)">a</text><text xml:space="preserve" font-family="Futura-Medium" font-size="50.0" fill="#000000" transform="matrix(1.00, 0.00, -0.00, -1.00, 762.3, 124.0)">t</text><text xml:space="preserve" font-family="Futura-Medium" font-size="50.0" fill="#000000" transform="matrix(1.00, 0.00, -0.00, -1.00, 776.0, 124.0)">i</text><text xml:space="preserve" font-family="Futura-Medium" font-size="50.0" fill="#000000" transform="matrix(1.00, 0.00, -0.00, -1.00, 788.5, 124.0)">v</text><text xml:space="preserve" font-family="Futura-Medium" font-size="50.0" fill="#000000" transform="matrix(1.00, 0.00, -0.00, -1.00, 812.8, 124.0)">e</text><text xml:space="preserve" font-family="Futura-Medium" font-size="50.0" fill="#000000" transform="matrix(1.00, 0.00, -0.00, -1.00, 840.5, 124.0)">s</text><image xlink:href="../../7F52FEFB-BA27-4066-8B31-8D6C5962249C/assets/91AF30815E46CF248F8AFE66CE89DD67.png" width="188.00" height="190.00" transform="matrix(0.55, 0.00, -0.00, -0.54, 52.0, 723.0)"></image></g></svg>