<?xml version="1.0" encoding="UTF-8" standalone="no"?><svg xmlns="http://www.w3.org/2000/svg" xmlns:xlink="http://www.w3.org/1999/xlink" clip-rule="evenodd" stroke-miterlimit="4.00" viewBox="0 0 1024 768"><desc>SVG generated by Keynote</desc><defs></defs><g transform="matrix(1.00, 0.00, -0.00, -1.00, 0.0, 768.0)"><path d="M 0.0 768.0 L 1024.0 768.0 L 1024.0 0.0 L 0.0 0.0 Z M 0.0 768.0 " fill="#F9F4DE"></path><text xml:space="preserve" font-family="Futura-Medium" font-size="55.0" fill="#000000" transform="matrix(1.00, 0.00, -0.00, -1.00, 245.0, 648.0)">F</text><text xml:space="preserve" font-family="Futura-Medium" font-size="55.0" fill="#000000" transform="matrix(1.00, 0.00, -0.00, -1.00, 272.4, 648.0)">u</text><text xml:space="preserve" font-family="Futura-Medium" font-size="55.0" fill="#000000" transform="matrix(1.00, 0.00, -0.00, -1.00, 302.4, 648.0)">n</text><text xml:space="preserve" font-family="Futura-Medium" font-size="55.0" fill="#000000" transform="matrix(1.00, 0.00, -0.00, -1.00, 332.6, 648.0)">d</text><text xml:space="preserve" font-family="Futura-Medium" font-size="55.0" fill="#000000" transform="matrix(1.00, 0.00, -0.00, -1.00, 365.5, 648.0)">a</text><text xml:space="preserve" font-family="Futura-Medium" font-size="55.0" fill="#000000" transform="matrix(1.00, 0.00, -0.00, -1.00, 398.5, 648.0)">m</text><text xml:space="preserve" font-family="Futura-Medium" font-size="55.0" fill="#000000" transform="matrix(1.00, 0.00, -0.00, -1.00, 442.0, 648.0)">e</text><text xml:space="preserve" font-family="Futura-Medium" font-size="55.0" fill="#000000" transform="matrix(1.00, 0.00, -0.00, -1.00, 472.4, 648.0)">n</text><text xml:space="preserve" font-family="Futura-Medium" font-size="55.0" fill="#000000" transform="matrix(1.00, 0.00, -0.00, -1.00, 502.6, 648.0)">t</text><text xml:space="preserve" font-family="Futura-Medium" font-size="55.0" fill="#000000" transform="matrix(1.00, 0.00, -0.00, -1.00, 518.2, 648.0)">a</text><text xml:space="preserve" font-family="Futura-Medium" font-size="55.0" fill="#000000" transform="matrix(1.00, 0.00, -0.00, -1.00, 551.1, 648.0)">l</text><text xml:space="preserve" font-family="Futura-Medium" font-size="55.0" fill="#000000" transform="matrix(1.00, 0.00, -0.00, -1.00, 564.8, 648.0)"> </text><text xml:space="preserve" font-family="Futura-Medium" font-size="55.0" fill="#000000" transform="matrix(1.00, 0.00, -0.00, -1.00, 581.8, 648.0)">S</text><text xml:space="preserve" font-family="Futura-Medium" font-size="55.0" fill="#000000" transform="matrix(1.00, 0.00, -0.00, -1.00, 613.8, 648.0)">i</text><text xml:space="preserve" font-family="Futura-Medium" font-size="55.0" fill="#000000" transform="matrix(1.00, 0.00, -0.00, -1.00, 627.5, 648.0)">m</text><text xml:space="preserve" font-family="Futura-Medium" font-size="55.0" fill="#000000" transform="matrix(1.00, 0.00, -0.00, -1.00, 671.7, 648.0)">p</text><text xml:space="preserve" font-family="Futura-Medium" font-size="55.0" fill="#000000" transform="matrix(1.00, 0.00, -0.00, -1.00, 704.7, 648.0)">l</text><text xml:space="preserve" font-family="Futura-Medium" font-size="55.0" fill="#000000" transform="matrix(1.00, 0.00, -0.00, -1.00, 718.3, 648.0)">i</text><text xml:space="preserve" font-family="Futura-Medium" font-size="55.0" fill="#000000" transform="matrix(1.00, 0.00, -0.00, -1.00, 732.0, 648.0)">c</text><text xml:space="preserve" font-family="Futura-Medium" font-size="55.0" fill="#000000" transform="matrix(1.00, 0.00, -0.00, -1.00, 758.2, 648.0)">i</text><text xml:space="preserve" font-family="Futura-Medium" font-size="55.0" fill="#000000" transform="matrix(1.00, 0.00, -0.00, -1.00, 771.9, 648.0)">t</text><text xml:space="preserve" font-family="Futura-Medium" font-size="55.0" fill="#000000" transform="matrix(1.00, 0.00, -0.00, -1.00, 787.0, 648.0)">y</text><text xml:space="preserve" font-family="Futura-Medium" font-size="55.0" fill="#000000" transform="matrix(1.00, 0.00, -0.00, -1.00, 816.9, 648.0)"> </text><g><clipPath id="clip-30"><path d="M 244.0 639.5 L 817.0 639.5 L 817.0 645.8 L 244.0 645.8 Z M 244.0 639.5 "></path></clipPath><g clip-path="url(#clip-30)"><path d="M 126.0 66.4 L 698.0 66.4 " fill="none" stroke="#000000" stroke-width="4.30" stroke-miterlimit="0.00" transform="matrix(1.00, 0.00, 0.00, -1.00, 119.0, 709.1)"></path></g></g><text xml:space="preserve" font-family="Futura-Medium" font-size="38.0" fill="#000000" transform="matrix(1.00, 0.00, -0.00, -1.00, 208.0, 565.0)">f</text><text xml:space="preserve" font-family="Futura-Medium" font-size="38.0" fill="#000000" transform="matrix(1.00, 0.00, -0.00, -1.00, 219.3, 565.0)">u</text><text xml:space="preserve" font-family="Futura-Medium" font-size="38.0" fill="#000000" transform="matrix(1.00, 0.00, -0.00, -1.00, 240.0, 565.0)">n</text><text xml:space="preserve" font-family="Futura-Medium" font-size="38.0" fill="#000000" transform="matrix(1.00, 0.00, -0.00, -1.00, 260.8, 565.0)">c</text><text xml:space="preserve" font-family="Futura-Medium" font-size="38.0" fill="#000000" transform="matrix(1.00, 0.00, -0.00, -1.00, 278.9, 565.0)">t</text><text xml:space="preserve" font-family="Futura-Medium" font-size="38.0" fill="#000000" transform="matrix(1.00, 0.00, -0.00, -1.00, 289.3, 565.0)">i</text><text xml:space="preserve" font-family="Futura-Medium" font-size="38.0" fill="#000000" transform="matrix(1.00, 0.00, -0.00, -1.00, 298.8, 565.0)">o</text><text xml:space="preserve" font-family="Futura-Medium" font-size="38.0" fill="#000000" transform="matrix(1.00, 0.00, -0.00, -1.00, 321.6, 565.0)">n</text><text xml:space="preserve" font-family="Futura-Medium" font-size="38.0" fill="#000000" transform="matrix(1.00, 0.00, -0.00, -1.00, 342.5, 565.0)"> </text><text xml:space="preserve" font-family="Futura-Medium" font-size="38.0" fill="#000000" transform="matrix(1.00, 0.00, -0.00, -1.00, 354.2, 565.0)">s</text><text xml:space="preserve" font-family="Futura-Medium" font-size="38.0" fill="#000000" transform="matrix(1.00, 0.00, -0.00, -1.00, 369.6, 565.0)">c</text><text xml:space="preserve" font-family="Futura-Medium" font-size="38.0" fill="#000000" transform="matrix(1.00, 0.00, -0.00, -1.00, 387.7, 565.0)">o</text><text xml:space="preserve" font-family="Futura-Medium" font-size="38.0" fill="#000000" transform="matrix(1.00, 0.00, -0.00, -1.00, 410.5, 565.0)">p</text><text xml:space="preserve" font-family="Futura-Medium" font-size="38.0" fill="#000000" transform="matrix(1.00, 0.00, -0.00, -1.00, 433.3, 565.0)">e</text><text xml:space="preserve" font-family="Futura-Medium" font-size="38.0" fill="#000000" transform="matrix(1.00, 0.00, -0.00, -1.00, 454.3, 565.0)"> </text><text xml:space="preserve" font-family="Futura-Medium" font-size="38.0" fill="#000000" transform="matrix(1.00, 0.00, -0.00, -1.00, 466.1, 565.0)">f</text><text xml:space="preserve" font-family="Futura-Medium" font-size="38.0" fill="#000000" transform="matrix(1.00, 0.00, -0.00, -1.00, 477.8, 565.0)">o</text><text xml:space="preserve" font-family="Futura-Medium" font-size="38.0" fill="#000000" transform="matrix(1.00, 0.00, -0.00, -1.00, 500.6, 565.0)">r</text><text xml:space="preserve" font-family="Futura-Medium" font-size="38.0" fill="#000000" transform="matrix(1.00, 0.00, -0.00, -1.00, 514.9, 565.0)"> </text><text xml:space="preserve" font-family="Futura-Medium" font-size="38.0" fill="#000000" transform="matrix(1.00, 0.00, -0.00, -1.00, 526.6, 565.0)">d</text><text xml:space="preserve" font-family="Futura-Medium" font-size="38.0" fill="#000000" transform="matrix(1.00, 0.00, -0.00, -1.00, 549.3, 565.0)">a</text><text xml:space="preserve" font-family="Futura-Medium" font-size="38.0" fill="#000000" transform="matrix(1.00, 0.00, -0.00, -1.00, 572.1, 565.0)">t</text><text xml:space="preserve" font-family="Futura-Medium" font-size="38.0" fill="#000000" transform="matrix(1.00, 0.00, -0.00, -1.00, 582.8, 565.0)">a</text><text xml:space="preserve" font-family="Futura-Medium" font-size="38.0" fill="#000000" transform="matrix(1.00, 0.00, -0.00, -1.00, 605.6, 565.0)"> </text><text xml:space="preserve" font-family="Futura-Medium" font-size="38.0" fill="#000000" transform="matrix(1.00, 0.00, -0.00, -1.00, 617.3, 565.0)">e</text><text xml:space="preserve" font-family="Futura-Medium" font-size="38.0" fill="#000000" transform="matrix(1.00, 0.00, -0.00, -1.00, 638.4, 565.0)">n</text><text xml:space="preserve" font-family="Futura-Medium" font-size="38.0" fill="#000000" transform="matrix(1.00, 0.00, -0.00, -1.00, 659.2, 565.0)">c</text><text xml:space="preserve" font-family="Futura-Medium" font-size="38.0" fill="#000000" transform="matrix(1.00, 0.00, -0.00, -1.00, 677.3, 565.0)">a</text><text xml:space="preserve" font-family="Futura-Medium" font-size="38.0" fill="#000000" transform="matrix(1.00, 0.00, -0.00, -1.00, 700.1, 565.0)">p</text><text xml:space="preserve" font-family="Futura-Medium" font-size="38.0" fill="#000000" transform="matrix(1.00, 0.00, -0.00, -1.00, 722.8, 565.0)">s</text><text xml:space="preserve" font-family="Futura-Medium" font-size="38.0" fill="#000000" transform="matrix(1.00, 0.00, -0.00, -1.00, 738.3, 565.0)">u</text><text xml:space="preserve" font-family="Futura-Medium" font-size="38.0" fill="#000000" transform="matrix(1.00, 0.00, -0.00, -1.00, 759.0, 565.0)">l</text><text xml:space="preserve" font-family="Futura-Medium" font-size="38.0" fill="#000000" transform="matrix(1.00, 0.00, -0.00, -1.00, 768.4, 565.0)">a</text><text xml:space="preserve" font-family="Futura-Medium" font-size="38.0" fill="#000000" transform="matrix(1.00, 0.00, -0.00, -1.00, 791.2, 565.0)">t</text><text xml:space="preserve" font-family="Futura-Medium" font-size="38.0" fill="#000000" transform="matrix(1.00, 0.00, -0.00, -1.00, 801.6, 565.0)">i</text><text xml:space="preserve" font-family="Futura-Medium" font-size="38.0" fill="#000000" transform="matrix(1.00, 0.00, -0.00, -1.00, 811.1, 565.0)">o</text><text xml:space="preserve" font-family="Futura-Medium" font-size="38.0" fill="#000000" transform="matrix(1.00, 0.00, -0.00, -1.00, 833.9, 565.0)">n</text><text xml:space="preserve" font-family="Futura-Medium" font-size="38.0" fill="#000000" transform="matrix(1.00, 0.00, -0.00, -1.00, 854.8, 565.0)"> </text><text xml:space="preserve" font-family="Futura-Medium" font-size="38.0" fill="#000000" transform="matrix(1.00, 0.00, -0.00, -1.00, 209.0, 465.0)">f</text><text xml:space="preserve" font-family="Futura-Medium" font-size="38.0" fill="#000000" transform="matrix(1.00, 0.00, -0.00, -1.00, 220.3, 465.0)">u</text><text xml:space="preserve" font-family="Futura-Medium" font-size="38.0" fill="#000000" transform="matrix(1.00, 0.00, -0.00, -1.00, 241.0, 465.0)">n</text><text xml:space="preserve" font-family="Futura-Medium" font-size="38.0" fill="#000000" transform="matrix(1.00, 0.00, -0.00, -1.00, 261.8, 465.0)">c</text><text xml:space="preserve" font-family="Futura-Medium" font-size="38.0" fill="#000000" transform="matrix(1.00, 0.00, -0.00, -1.00, 279.9, 465.0)">t</text><text xml:space="preserve" font-family="Futura-Medium" font-size="38.0" fill="#000000" transform="matrix(1.00, 0.00, -0.00, -1.00, 290.3, 465.0)">i</text><text xml:space="preserve" font-family="Futura-Medium" font-size="38.0" fill="#000000" transform="matrix(1.00, 0.00, -0.00, -1.00, 299.8, 465.0)">o</text><text xml:space="preserve" font-family="Futura-Medium" font-size="38.0" fill="#000000" transform="matrix(1.00, 0.00, -0.00, -1.00, 322.6, 465.0)">n</text><text xml:space="preserve" font-family="Futura-Medium" font-size="38.0" fill="#000000" transform="matrix(1.00, 0.00, -0.00, -1.00, 343.5, 465.0)">s</text><text xml:space="preserve" font-family="Futura-Medium" font-size="38.0" fill="#000000" transform="matrix(1.00, 0.00, -0.00, -1.00, 358.9, 465.0)"> </text><text xml:space="preserve" font-family="Futura-Medium" font-size="38.0" fill="#000000" transform="matrix(1.00, 0.00, -0.00, -1.00, 370.6, 465.0)">o</text><text xml:space="preserve" font-family="Futura-Medium" font-size="38.0" fill="#000000" transform="matrix(1.00, 0.00, -0.00, -1.00, 393.5, 465.0)">f</text><text xml:space="preserve" font-family="Futura-Medium" font-size="38.0" fill="#000000" transform="matrix(1.00, 0.00, -0.00, -1.00, 404.7, 465.0)"> </text><text xml:space="preserve" font-family="Futura-Medium" font-size="38.0" fill="#000000" transform="matrix(1.00, 0.00, -0.00, -1.00, 416.4, 465.0)">i</text><text xml:space="preserve" font-family="Futura-Medium" font-size="38.0" fill="#000000" transform="matrix(1.00, 0.00, -0.00, -1.00, 425.9, 465.0)">m</text><text xml:space="preserve" font-family="Futura-Medium" font-size="38.0" fill="#000000" transform="matrix(1.00, 0.00, -0.00, -1.00, 456.0, 465.0)">m</text><text xml:space="preserve" font-family="Futura-Medium" font-size="38.0" fill="#000000" transform="matrix(1.00, 0.00, -0.00, -1.00, 486.0, 465.0)">u</text><text xml:space="preserve" font-family="Futura-Medium" font-size="38.0" fill="#000000" transform="matrix(1.00, 0.00, -0.00, -1.00, 506.7, 465.0)">t</text><text xml:space="preserve" font-family="Futura-Medium" font-size="38.0" fill="#000000" transform="matrix(1.00, 0.00, -0.00, -1.00, 517.5, 465.0)">a</text><text xml:space="preserve" font-family="Futura-Medium" font-size="38.0" fill="#000000" transform="matrix(1.00, 0.00, -0.00, -1.00, 540.2, 465.0)">b</text><text xml:space="preserve" font-family="Futura-Medium" font-size="38.0" fill="#000000" transform="matrix(1.00, 0.00, -0.00, -1.00, 563.0, 465.0)">l</text><text xml:space="preserve" font-family="Futura-Medium" font-size="38.0" fill="#000000" transform="matrix(1.00, 0.00, -0.00, -1.00, 572.5, 465.0)">e</text><text xml:space="preserve" font-family="Futura-Medium" font-size="38.0" fill="#000000" transform="matrix(1.00, 0.00, -0.00, -1.00, 593.5, 465.0)"> </text><text xml:space="preserve" font-family="Futura-Medium" font-size="38.0" fill="#000000" transform="matrix(1.00, 0.00, -0.00, -1.00, 605.2, 465.0)">d</text><text xml:space="preserve" font-family="Futura-Medium" font-size="38.0" fill="#000000" transform="matrix(1.00, 0.00, -0.00, -1.00, 628.0, 465.0)">a</text><text xml:space="preserve" font-family="Futura-Medium" font-size="38.0" fill="#000000" transform="matrix(1.00, 0.00, -0.00, -1.00, 650.7, 465.0)">t</text><text xml:space="preserve" font-family="Futura-Medium" font-size="38.0" fill="#000000" transform="matrix(1.00, 0.00, -0.00, -1.00, 661.5, 465.0)">a</text><text xml:space="preserve" font-family="Futura-Medium" font-size="38.0" fill="#000000" transform="matrix(1.00, 0.00, -0.00, -1.00, 684.3, 465.0)">-</text><text xml:space="preserve" font-family="Futura-Medium" font-size="38.0" fill="#000000" transform="matrix(1.00, 0.00, -0.00, -1.00, 692.5, 465.0)">s</text><text xml:space="preserve" font-family="Futura-Medium" font-size="38.0" fill="#000000" transform="matrix(1.00, 0.00, -0.00, -1.00, 707.9, 465.0)">t</text><text xml:space="preserve" font-family="Futura-Medium" font-size="38.0" fill="#000000" transform="matrix(1.00, 0.00, -0.00, -1.00, 718.3, 465.0)">r</text><text xml:space="preserve" font-family="Futura-Medium" font-size="38.0" fill="#000000" transform="matrix(1.00, 0.00, -0.00, -1.00, 733.1, 465.0)">u</text><text xml:space="preserve" font-family="Futura-Medium" font-size="38.0" fill="#000000" transform="matrix(1.00, 0.00, -0.00, -1.00, 753.8, 465.0)">c</text><text xml:space="preserve" font-family="Futura-Medium" font-size="38.0" fill="#000000" transform="matrix(1.00, 0.00, -0.00, -1.00, 771.9, 465.0)">t</text><text xml:space="preserve" font-family="Futura-Medium" font-size="38.0" fill="#000000" transform="matrix(1.00, 0.00, -0.00, -1.00, 782.3, 465.0)">u</text><text xml:space="preserve" font-family="Futura-Medium" font-size="38.0" fill="#000000" transform="matrix(1.00, 0.00, -0.00, -1.00, 803.0, 465.0)">r</text><text xml:space="preserve" font-family="Futura-Medium" font-size="38.0" fill="#000000" transform="matrix(1.00, 0.00, -0.00, -1.00, 817.0, 465.0)">e</text><text xml:space="preserve" font-family="Futura-Medium" font-size="38.0" fill="#000000" transform="matrix(1.00, 0.00, -0.00, -1.00, 838.0, 465.0)">s</text><text xml:space="preserve" font-family="Futura-Medium" font-size="38.0" fill="#000000" transform="matrix(1.00, 0.00, -0.00, -1.00, 853.4, 465.0)"> </text><text xml:space="preserve" font-family="Courier" font-size="34.0" fill="#000000" transform="matrix(1.00, 0.00, -0.00, -1.00, 123.0, 371.0)">(</text><text xml:space="preserve" font-family="Courier" font-size="34.0" fill="#000000" transform="matrix(1.00, 0.00, -0.00, -1.00, 143.4, 371.0)">d</text><text xml:space="preserve" font-family="Courier" font-size="34.0" fill="#000000" transform="matrix(1.00, 0.00, -0.00, -1.00, 163.8, 371.0)">e</text><text xml:space="preserve" font-family="Courier" font-size="34.0" fill="#000000" transform="matrix(1.00, 0.00, -0.00, -1.00, 184.2, 371.0)">f</text><text xml:space="preserve" font-family="Courier" font-size="34.0" fill="#000000" transform="matrix(1.00, 0.00, -0.00, -1.00, 204.6, 371.0)">n</text><text xml:space="preserve" font-family="Courier" font-size="34.0" fill="#000000" transform="matrix(1.00, 0.00, -0.00, -1.00, 225.0, 371.0)"> </text><text xml:space="preserve" font-family="Courier" font-size="34.0" fill="#000000" transform="matrix(1.00, 0.00, -0.00, -1.00, 245.4, 371.0)">a</text><text xml:space="preserve" font-family="Courier" font-size="34.0" fill="#000000" transform="matrix(1.00, 0.00, -0.00, -1.00, 265.8, 371.0)">&lt;</text><text xml:space="preserve" font-family="Courier" font-size="34.0" fill="#000000" transform="matrix(1.00, 0.00, -0.00, -1.00, 286.3, 371.0)">b</text><text xml:space="preserve" font-family="Courier" font-size="34.0" fill="#000000" transform="matrix(1.00, 0.00, -0.00, -1.00, 306.7, 371.0)">?</text><text xml:space="preserve" font-family="Courier" font-size="34.0" fill="#000000" transform="matrix(1.00, 0.00, -0.00, -1.00, 327.1, 371.0)"> </text><text xml:space="preserve" font-family="Courier" font-size="34.0" fill="#000000" transform="matrix(1.00, 0.00, -0.00, -1.00, 347.5, 371.0)">[</text><text xml:space="preserve" font-family="Courier" font-size="34.0" fill="#000000" transform="matrix(1.00, 0.00, -0.00, -1.00, 367.9, 371.0)">m</text><text xml:space="preserve" font-family="Courier" font-size="34.0" fill="#000000" transform="matrix(1.00, 0.00, -0.00, -1.00, 388.3, 371.0)">]</text><text xml:space="preserve" font-family="Courier" font-size="34.0" fill="#000000" transform="matrix(1.00, 0.00, -0.00, -1.00, 408.7, 371.0)"> </text><text xml:space="preserve" font-family="Courier" font-size="34.0" fill="#000000" transform="matrix(1.00, 0.00, -0.00, -1.00, 429.1, 371.0)">(</text><text xml:space="preserve" font-family="Courier" font-size="34.0" fill="#000000" transform="matrix(1.00, 0.00, -0.00, -1.00, 449.5, 371.0)">&lt;</text><text xml:space="preserve" font-family="Courier" font-size="34.0" fill="#000000" transform="matrix(1.00, 0.00, -0.00, -1.00, 469.9, 371.0)"> </text><text xml:space="preserve" font-family="Courier" font-size="34.0" fill="#000000" transform="matrix(1.00, 0.00, -0.00, -1.00, 490.3, 371.0)">(</text><text xml:space="preserve" font-family="Courier" font-size="34.0" fill="#000000" transform="matrix(1.00, 0.00, -0.00, -1.00, 510.7, 371.0)">:</text><text xml:space="preserve" font-family="Courier" font-size="34.0" fill="#000000" transform="matrix(1.00, 0.00, -0.00, -1.00, 531.1, 371.0)">a</text><text xml:space="preserve" font-family="Courier" font-size="34.0" fill="#000000" transform="matrix(1.00, 0.00, -0.00, -1.00, 551.5, 371.0)"> </text><text xml:space="preserve" font-family="Courier" font-size="34.0" fill="#000000" transform="matrix(1.00, 0.00, -0.00, -1.00, 571.9, 371.0)">m</text><text xml:space="preserve" font-family="Courier" font-size="34.0" fill="#000000" transform="matrix(1.00, 0.00, -0.00, -1.00, 592.4, 371.0)">)</text><text xml:space="preserve" font-family="Courier" font-size="34.0" fill="#000000" transform="matrix(1.00, 0.00, -0.00, -1.00, 612.8, 371.0)"> </text><text xml:space="preserve" font-family="Courier" font-size="34.0" fill="#000000" transform="matrix(1.00, 0.00, -0.00, -1.00, 633.2, 371.0)">(</text><text xml:space="preserve" font-family="Courier" font-size="34.0" fill="#000000" transform="matrix(1.00, 0.00, -0.00, -1.00, 653.6, 371.0)">:</text><text xml:space="preserve" font-family="Courier" font-size="34.0" fill="#000000" transform="matrix(1.00, 0.00, -0.00, -1.00, 674.0, 371.0)">b</text><text xml:space="preserve" font-family="Courier" font-size="34.0" fill="#000000" transform="matrix(1.00, 0.00, -0.00, -1.00, 694.4, 371.0)"> </text><text xml:space="preserve" font-family="Courier" font-size="34.0" fill="#000000" transform="matrix(1.00, 0.00, -0.00, -1.00, 714.8, 371.0)">m</text><text xml:space="preserve" font-family="Courier" font-size="34.0" fill="#000000" transform="matrix(1.00, 0.00, -0.00, -1.00, 735.2, 371.0)">)</text><text xml:space="preserve" font-family="Courier" font-size="34.0" fill="#000000" transform="matrix(1.00, 0.00, -0.00, -1.00, 755.6, 371.0)">)</text><text xml:space="preserve" font-family="Courier" font-size="34.0" fill="#000000" transform="matrix(1.00, 0.00, -0.00, -1.00, 776.0, 371.0)">)</text><text xml:space="preserve" font-family="Courier" font-size="34.0" fill="#000000" transform="matrix(1.00, 0.00, -0.00, -1.00, 123.0, 289.0)">(</text><text xml:space="preserve" font-family="Courier" font-size="34.0" fill="#000000" transform="matrix(1.00, 0.00, -0.00, -1.00, 143.4, 289.0)">a</text><text xml:space="preserve" font-family="Courier" font-size="34.0" fill="#000000" transform="matrix(1.00, 0.00, -0.00, -1.00, 163.8, 289.0)">&lt;</text><text xml:space="preserve" font-family="Courier" font-size="34.0" fill="#000000" transform="matrix(1.00, 0.00, -0.00, -1.00, 184.2, 289.0)">b</text><text xml:space="preserve" font-family="Courier" font-size="34.0" fill="#000000" transform="matrix(1.00, 0.00, -0.00, -1.00, 204.6, 289.0)">?</text><text xml:space="preserve" font-family="Courier" font-size="34.0" fill="#000000" transform="matrix(1.00, 0.00, -0.00, -1.00, 225.0, 289.0)"> </text><text xml:space="preserve" font-family="Courier" font-size="34.0" fill="#000000" transform="matrix(1.00, 0.00, -0.00, -1.00, 245.4, 289.0)">m</text><text xml:space="preserve" font-family="Courier" font-size="34.0" fill="#000000" transform="matrix(1.00, 0.00, -0.00, -1.00, 265.8, 289.0)">)</text><text xml:space="preserve" font-family="Courier" font-size="34.0" fill="#000000" transform="matrix(1.00, 0.00, -0.00, -1.00, 286.3, 289.0)"> </text><text xml:space="preserve" font-family="Courier" font-size="34.0" fill="#000000" transform="matrix(1.00, 0.00, -0.00, -1.00, 306.7, 289.0)"> </text><text xml:space="preserve" font-family="Courier" font-size="34.0" fill="#000000" transform="matrix(1.00, 0.00, -0.00, -1.00, 327.1, 289.0)">;</text><text xml:space="preserve" font-family="Courier" font-size="34.0" fill="#000000" transform="matrix(1.00, 0.00, -0.00, -1.00, 347.5, 289.0)">;</text><text xml:space="preserve" font-family="Courier" font-size="34.0" fill="#000000" transform="matrix(1.00, 0.00, -0.00, -1.00, 367.9, 289.0)"> </text><text xml:space="preserve" font-family="Courier" font-size="34.0" fill="#000000" transform="matrix(1.00, 0.00, -0.00, -1.00, 388.3, 289.0)">a</text><text xml:space="preserve" font-family="Courier" font-size="34.0" fill="#000000" transform="matrix(1.00, 0.00, -0.00, -1.00, 408.7, 289.0)">l</text><text xml:space="preserve" font-family="Courier" font-size="34.0" fill="#000000" transform="matrix(1.00, 0.00, -0.00, -1.00, 429.1, 289.0)">w</text><text xml:space="preserve" font-family="Courier" font-size="34.0" fill="#000000" transform="matrix(1.00, 0.00, -0.00, -1.00, 449.5, 289.0)">a</text><text xml:space="preserve" font-family="Courier" font-size="34.0" fill="#000000" transform="matrix(1.00, 0.00, -0.00, -1.00, 469.9, 289.0)">y</text><text xml:space="preserve" font-family="Courier" font-size="34.0" fill="#000000" transform="matrix(1.00, 0.00, -0.00, -1.00, 490.3, 289.0)">s</text><text xml:space="preserve" font-family="Courier" font-size="34.0" fill="#000000" transform="matrix(1.00, 0.00, -0.00, -1.00, 510.7, 289.0)"> </text><text xml:space="preserve" font-family="Courier" font-size="34.0" fill="#000000" transform="matrix(1.00, 0.00, -0.00, -1.00, 531.1, 289.0)">t</text><text xml:space="preserve" font-family="Courier" font-size="34.0" fill="#000000" transform="matrix(1.00, 0.00, -0.00, -1.00, 551.5, 289.0)">r</text><text xml:space="preserve" font-family="Courier" font-size="34.0" fill="#000000" transform="matrix(1.00, 0.00, -0.00, -1.00, 571.9, 289.0)">u</text><text xml:space="preserve" font-family="Courier" font-size="34.0" fill="#000000" transform="matrix(1.00, 0.00, -0.00, -1.00, 592.4, 289.0)">e</text><text xml:space="preserve" font-family="Futura-Medium" font-size="38.0" fill="#000000" transform="matrix(1.00, 0.00, -0.00, -1.00, 247.0, 201.0)"> </text><text xml:space="preserve" font-family="Futura-Medium" font-size="38.0" fill="#000000" transform="matrix(1.00, 0.00, -0.00, -1.00, 258.7, 201.0)">M</text><text xml:space="preserve" font-family="Futura-Medium" font-size="38.0" fill="#000000" transform="matrix(1.00, 0.00, -0.00, -1.00, 295.3, 201.0)">y</text><text xml:space="preserve" font-family="Futura-Medium" font-size="38.0" fill="#000000" transform="matrix(1.00, 0.00, -0.00, -1.00, 315.9, 201.0)"> </text><text xml:space="preserve" font-family="Futura-Medium" font-size="38.0" fill="#000000" transform="matrix(1.00, 0.00, -0.00, -1.00, 327.6, 201.0)">G</text><text xml:space="preserve" font-family="Futura-Medium" font-size="38.0" fill="#000000" transform="matrix(1.00, 0.00, -0.00, -1.00, 359.7, 201.0)">o</text><text xml:space="preserve" font-family="Futura-Medium" font-size="38.0" fill="#000000" transform="matrix(1.00, 0.00, -0.00, -1.00, 382.5, 201.0)">a</text><text xml:space="preserve" font-family="Futura-Medium" font-size="38.0" fill="#000000" transform="matrix(1.00, 0.00, -0.00, -1.00, 405.3, 201.0)">l</text><text xml:space="preserve" font-family="Futura-Medium" font-size="38.0" fill="#000000" transform="matrix(1.00, 0.00, -0.00, -1.00, 414.7, 201.0)">:</text><text xml:space="preserve" font-family="Futura-Medium" font-size="38.0" fill="#000000" transform="matrix(1.00, 0.00, -0.00, -1.00, 426.4, 201.0)"> </text><text xml:space="preserve" font-family="Futura-Medium" font-size="38.0" fill="#000000" transform="matrix(1.00, 0.00, -0.00, -1.00, 438.2, 201.0)">F</text><text xml:space="preserve" font-family="Futura-Medium" font-size="38.0" fill="#000000" transform="matrix(1.00, 0.00, -0.00, -1.00, 457.1, 201.0)">u</text><text xml:space="preserve" font-family="Futura-Medium" font-size="38.0" fill="#000000" transform="matrix(1.00, 0.00, -0.00, -1.00, 477.8, 201.0)">l</text><text xml:space="preserve" font-family="Futura-Medium" font-size="38.0" fill="#000000" transform="matrix(1.00, 0.00, -0.00, -1.00, 487.3, 201.0)">l</text><text xml:space="preserve" font-family="Futura-Medium" font-size="38.0" fill="#000000" transform="matrix(1.00, 0.00, -0.00, -1.00, 497.1, 201.0)">y</text><text xml:space="preserve" font-family="Futura-Medium" font-size="38.0" fill="#000000" transform="matrix(1.00, 0.00, -0.00, -1.00, 517.7, 201.0)"> </text><text xml:space="preserve" font-family="Futura-Medium" font-size="38.0" fill="#000000" transform="matrix(1.00, 0.00, -0.00, -1.00, 529.5, 201.0)">I</text><text xml:space="preserve" font-family="Futura-Medium" font-size="38.0" fill="#000000" transform="matrix(1.00, 0.00, -0.00, -1.00, 540.7, 201.0)">m</text><text xml:space="preserve" font-family="Futura-Medium" font-size="38.0" fill="#000000" transform="matrix(1.00, 0.00, -0.00, -1.00, 570.7, 201.0)">m</text><text xml:space="preserve" font-family="Futura-Medium" font-size="38.0" fill="#000000" transform="matrix(1.00, 0.00, -0.00, -1.00, 600.8, 201.0)">u</text><text xml:space="preserve" font-family="Futura-Medium" font-size="38.0" fill="#000000" transform="matrix(1.00, 0.00, -0.00, -1.00, 621.5, 201.0)">t</text><text xml:space="preserve" font-family="Futura-Medium" font-size="38.0" fill="#000000" transform="matrix(1.00, 0.00, -0.00, -1.00, 632.2, 201.0)">a</text><text xml:space="preserve" font-family="Futura-Medium" font-size="38.0" fill="#000000" transform="matrix(1.00, 0.00, -0.00, -1.00, 655.0, 201.0)">b</text><text xml:space="preserve" font-family="Futura-Medium" font-size="38.0" fill="#000000" transform="matrix(1.00, 0.00, -0.00, -1.00, 677.8, 201.0)">l</text><text xml:space="preserve" font-family="Futura-Medium" font-size="38.0" fill="#000000" transform="matrix(1.00, 0.00, -0.00, -1.00, 687.2, 201.0)">e</text><text xml:space="preserve" font-family="Futura-Medium" font-size="38.0" fill="#000000" transform="matrix(1.00, 0.00, -0.00, -1.00, 708.3, 201.0)"> </text><text xml:space="preserve" font-family="Futura-Medium" font-size="38.0" fill="#000000" transform="matrix(1.00, 0.00, -0.00, -1.00, 720.0, 201.0)">S</text><text xml:space="preserve" font-family="Futura-Medium" font-size="38.0" fill="#000000" transform="matrix(1.00, 0.00, -0.00, -1.00, 742.8, 201.0)">t</text><text xml:space="preserve" font-family="Futura-Medium" font-size="38.0" fill="#000000" transform="matrix(1.00, 0.00, -0.00, -1.00, 753.5, 201.0)">a</text><text xml:space="preserve" font-family="Futura-Medium" font-size="38.0" fill="#000000" transform="matrix(1.00, 0.00, -0.00, -1.00, 776.3, 201.0)">c</text><text xml:space="preserve" font-family="Futura-Medium" font-size="38.0" fill="#000000" transform="matrix(1.00, 0.00, -0.00, -1.00, 795.4, 201.0)">k</text><text xml:space="preserve" font-family="Futura-Medium" font-size="38.0" fill="#000000" transform="matrix(1.00, 0.00, -0.00, -1.00, 814.3, 201.0)"> </text><text xml:space="preserve" font-family="Futura-Medium" font-size="38.0" fill="#000000" transform="matrix(1.00, 0.00, -0.00, -1.00, 492.0, 151.0)">B</text><text xml:space="preserve" font-family="Futura-Medium" font-size="38.0" fill="#000000" transform="matrix(1.00, 0.00, -0.00, -1.00, 514.5, 151.0)">o</text><text xml:space="preserve" font-family="Futura-Medium" font-size="38.0" fill="#000000" transform="matrix(1.00, 0.00, -0.00, -1.00, 537.3, 151.0)">o</text><text xml:space="preserve" font-family="Futura-Medium" font-size="38.0" fill="#000000" transform="matrix(1.00, 0.00, -0.00, -1.00, 560.4, 151.0)">t</text><text xml:space="preserve" font-family="Futura-Medium" font-size="38.0" fill="#000000" transform="matrix(1.00, 0.00, -0.00, -1.00, 570.8, 151.0)"> </text><g><clipPath id="clip-31"><path d="M 490.6 144.9 L 570.4 144.9 L 570.4 149.9 L 490.6 149.9 Z M 490.6 144.9 "></path></clipPath><g clip-path="url(#clip-31)"><path d="M 372.6 561.7 L 451.4 561.7 " fill="none" stroke="#000000" stroke-width="2.97" stroke-miterlimit="0.00" transform="matrix(1.00, 0.00, 0.00, -1.00, 119.0, 709.1)"></path></g></g><text xml:space="preserve" font-family="Futura-Medium" font-size="38.0" fill="#000000" transform="matrix(1.00, 0.00, -0.00, -1.00, 422.0, 101.0)">b</text><text xml:space="preserve" font-family="Futura-Medium" font-size="38.0" fill="#000000" transform="matrix(1.00, 0.00, -0.00, -1.00, 444.8, 101.0)">o</text><text xml:space="preserve" font-family="Futura-Medium" font-size="38.0" fill="#000000" transform="matrix(1.00, 0.00, -0.00, -1.00, 466.7, 101.0)">x</text><text xml:space="preserve" font-family="Futura-Medium" font-size="38.0" fill="#000000" transform="matrix(1.00, 0.00, -0.00, -1.00, 487.9, 101.0)">f</text><text xml:space="preserve" font-family="Futura-Medium" font-size="38.0" fill="#000000" transform="matrix(1.00, 0.00, -0.00, -1.00, 499.2, 101.0)">u</text><text xml:space="preserve" font-family="Futura-Medium" font-size="38.0" fill="#000000" transform="matrix(1.00, 0.00, -0.00, -1.00, 519.9, 101.0)">s</text><text xml:space="preserve" font-family="Futura-Medium" font-size="38.0" fill="#000000" transform="matrix(1.00, 0.00, -0.00, -1.00, 535.3, 101.0)">e</text><text xml:space="preserve" font-family="Futura-Medium" font-size="38.0" fill="#000000" transform="matrix(1.00, 0.00, -0.00, -1.00, 556.3, 101.0)">.</text><text xml:space="preserve" font-family="Futura-Medium" font-size="38.0" fill="#000000" transform="matrix(1.00, 0.00, -0.00, -1.00, 568.0, 101.0)">c</text><text xml:space="preserve" font-family="Futura-Medium" font-size="38.0" fill="#000000" transform="matrix(1.00, 0.00, -0.00, -1.00, 586.1, 101.0)">o</text><text xml:space="preserve" font-family="Futura-Medium" font-size="38.0" fill="#000000" transform="matrix(1.00, 0.00, -0.00, -1.00, 609.0, 101.0)">m</text><text xml:space="preserve" font-family="Futura-Medium" font-size="38.0" fill="#000000" transform="matrix(1.00, 0.00, -0.00, -1.00, 639.1, 101.0)"> </text><g><clipPath id="clip-32"><path d="M 421.5 94.9 L 639.5 94.9 L 639.5 99.9 L 421.5 99.9 Z M 421.5 94.9 "></path></clipPath><g clip-path="url(#clip-32)"><path d="M 303.5 611.7 L 520.5 611.7 " fill="none" stroke="#000000" stroke-width="2.97" stroke-miterlimit="0.00" transform="matrix(1.00, 0.00, 0.00, -1.00, 119.0, 709.1)"></path></g></g><text xml:space="preserve" font-family="Futura-Medium" font-size="38.0" fill="#000000" transform="matrix(1.00, 0.00, -0.00, -1.00, 500.0, 51.0)">e</text><text xml:space="preserve" font-family="Futura-Medium" font-size="38.0" fill="#000000" transform="matrix(1.00, 0.00, -0.00, -1.00, 521.4, 51.0)">t</text><text xml:space="preserve" font-family="Futura-Medium" font-size="38.0" fill="#000000" transform="matrix(1.00, 0.00, -0.00, -1.00, 531.8, 51.0)">c</text><text xml:space="preserve" font-family="Futura-Medium" font-size="38.0" fill="#000000" transform="matrix(1.00, 0.00, -0.00, -1.00, 549.9, 51.0)">.</text><text xml:space="preserve" font-family="Futura-Medium" font-size="38.0" fill="#000000" transform="matrix(1.00, 0.00, -0.00, -1.00, 561.6, 51.0)"> </text></g></svg>